<svg width="60" height="60" viewBox="0 0 60 60" fill="none" xmlns="http://www.w3.org/2000/svg">
<g clip-path="url(#clip0_250_1997)">
<path fill-rule="evenodd" clip-rule="evenodd" d="M52.5 44.2969C52.875 42.6719 53.2656 41.9531 54.2812 40.9219C55.3125 39.8906 56.0312 39.5156 57.6562 39.1406C57.6562 44.7031 58.0625 44.2969 52.5 44.2969ZM2.34375 39.1406C3.96875 39.5156 4.6875 39.9062 5.71875 40.9219C6.71875 41.9219 7.14062 42.7188 7.5 44.2969C1.92187 44.2969 2.34375 44.7031 2.34375 39.1406ZM52.5 15.7031C58.0781 15.7031 57.6562 15.2812 57.6562 20.8594C55.3438 20.3125 53.5156 18.9531 52.7812 16.7188C52.6719 16.4062 52.5938 15.9219 52.5 15.7031ZM2.34375 20.8594C2.34375 15.2812 1.92187 15.7031 7.5 15.7031C7.125 17.2812 6.70312 18.0781 5.71875 19.0781C4.73437 20.0781 3.92188 20.4844 2.34375 20.8594ZM0 17.1094V42.8906C0 44.8281 1.82812 46.6406 3.75 46.6406H56.25C58.1875 46.6406 60 44.8281 60 42.8906V17.1094C60 15.1719 58.1875 13.3594 56.25 13.3594H35.1562C34.4062 13.3594 34.1094 13.9375 34.1094 14.6406C34.1094 15.9844 35.7031 15.6875 37.0312 15.6875H49.2188C50.7812 15.6563 49.6562 15.7187 50.7344 18.1562C51.5 19.875 53.0781 21.5156 54.7188 22.375C55.3281 22.7031 56.2812 23.0469 56.9844 23.1562C57.375 23.2188 57.6406 23.125 57.6406 23.5469V36.4375C57.6406 37.0156 56.7031 36.6094 54.8594 37.5312C52.5938 38.6719 50.5938 41.0469 50.1719 43.625C50.1094 44.0156 50.2031 44.2812 49.7812 44.2812H10.1875C9.42187 44.2812 10.3438 42.1562 7.40625 39.2188C6.25 38.0625 5.34375 37.5 3.76562 37C3.54688 36.9375 3.23438 36.8594 3 36.8281C2.60938 36.7656 2.34375 36.8594 2.34375 36.4375V23.5469C2.34375 22.9531 3.32812 23.375 5.20312 22.4219C6.21875 21.9062 6.78125 21.4062 7.53125 20.6562C8.625 19.5781 9.3125 18.3594 9.70312 16.8594C9.96875 15.875 9.51562 15.6875 10.6562 15.7031L22.8594 15.7187C24.7188 15.7187 25.9062 16.0313 25.9062 14.4375C25.9062 13.8594 25.4375 13.3906 24.8594 13.3906H3.75C1.8125 13.3594 0 15.1719 0 17.1094Z" fill="#BD9F57"/>
<path fill-rule="evenodd" clip-rule="evenodd" d="M22.7344 30C22.7344 23.1562 31.7969 19.9687 35.9062 25.8437C40.6562 32.6406 32.0469 40.9219 25.3906 35.5312C24.5469 34.8437 23.8438 33.9844 23.4063 32.9531C23.0781 32.2344 22.7344 30.9844 22.7344 30ZM20.3906 29.5312C20.3906 32.4531 21.1406 34.7969 23.1719 36.8281C26.4375 40.0938 31.9062 40.5625 35.5469 37.8906C43.6094 31.9531 38.6094 20.3906 30.4688 20.3906C27.5469 20.3906 25.2188 21.125 23.1719 23.1719C21.6094 24.7344 20.3906 27.2188 20.3906 29.5312Z" fill="#BD9F57"/>
<path fill-rule="evenodd" clip-rule="evenodd" d="M11.4844 30C11.4844 28.1875 14.2969 28.1875 14.2969 30C14.2969 31.8125 11.4844 31.8125 11.4844 30ZM9.14062 29.7656C9.14062 30.9531 9.34375 31.7969 10.2188 32.6719C12.3438 34.7969 16.6406 33.8125 16.6406 29.7656C16.6406 27.8281 15.0156 26.25 12.6562 26.25C10.8438 26.25 9.14062 27.9531 9.14062 29.7656Z" fill="#BD9F57"/>
<path fill-rule="evenodd" clip-rule="evenodd" d="M45.7031 30C45.7031 28.1875 48.5156 28.1875 48.5156 30C48.5156 31.8125 45.7031 31.8125 45.7031 30ZM43.3594 29.7656C43.3594 32.2031 45.0781 33.75 46.75 33.75C47.9688 33.75 48.8125 33.625 49.7656 32.6719C51.8906 30.5469 50.9062 26.25 46.8594 26.25C45.0625 26.25 43.3594 27.9531 43.3594 29.7656Z" fill="#BD9F57"/>
<path fill-rule="evenodd" clip-rule="evenodd" d="M28.8281 1.04688V7.60938C28.8281 9.03125 31.1719 9.03125 31.1719 7.60938V1.04688C31.1719 0.390625 30.6719 0.046875 30.1406 0H29.8594C29.3281 0.046875 28.8281 0.40625 28.8281 1.04688Z" fill="#BD9F57"/>
<path fill-rule="evenodd" clip-rule="evenodd" d="M28.8281 52.375V58.9375C28.8281 59.5938 29.3281 59.9375 29.8594 59.9844H30.1406C30.6719 59.9375 31.1719 59.5781 31.1719 58.9375V52.375C31.1719 50.9531 28.8281 50.9531 28.8281 52.375Z" fill="#BD9F57"/>
<path fill-rule="evenodd" clip-rule="evenodd" d="M37.2656 7.5C37.2656 8.1875 37.75 8.67188 38.5469 8.67188C39.2187 8.67188 40.5781 7.04688 41.2656 6.35938C42.1406 5.48438 43.5781 4.35938 43.5781 3.51562C43.5781 2.84375 42.9688 2.34375 42.2969 2.34375C41.625 2.34375 40.0625 4.17187 39.5781 4.65625C38.8281 5.40625 37.2656 6.70312 37.2656 7.5Z" fill="#BD9F57"/>
<path fill-rule="evenodd" clip-rule="evenodd" d="M16.4062 3.51562C16.4062 4.35938 17.8281 5.46875 18.7188 6.35938C19.5938 7.23438 20.7188 8.67188 21.5625 8.67188C22.2188 8.67188 22.7344 8.15625 22.7344 7.5C22.7344 6.71875 21.2188 5.45312 20.4844 4.71875C19.9844 4.21875 18.375 2.34375 17.6875 2.34375C17.0156 2.34375 16.4062 2.84375 16.4062 3.51562Z" fill="#BD9F57"/>
<path fill-rule="evenodd" clip-rule="evenodd" d="M16.4062 56.3594C16.4062 57.1563 16.9844 57.6406 17.6875 57.6406C18.3594 57.6406 19.9219 55.8125 20.4063 55.3281C21.1563 54.5781 22.7187 53.2812 22.7187 52.4844C22.7187 51.7656 22.2031 51.3125 21.4375 51.3125C20.7656 51.3125 19.4063 52.9375 18.7188 53.625C18.0313 54.3281 16.4062 55.7031 16.4062 56.3594Z" fill="#BD9F57"/>
<path fill-rule="evenodd" clip-rule="evenodd" d="M37.2656 52.5C37.2656 53.2812 38.7812 54.5469 39.5156 55.2812C40.0156 55.7812 41.625 57.6562 42.2969 57.6562C43.0156 57.6562 43.5781 57.1719 43.5781 56.375C43.5781 55.75 42.9219 55.2969 42.5469 54.9375L40.0313 52.4219C39.75 52.1406 38.4687 50.5781 37.5312 51.7344C37.4062 51.8906 37.2656 52.2187 37.2656 52.5Z" fill="#BD9F57"/>
<path fill-rule="evenodd" clip-rule="evenodd" d="M28.8281 14.4062C28.8281 16.1562 31.1719 16.1562 31.1719 14.4062C31.1719 13 28.8281 13 28.8281 14.4062Z" fill="#BD9F57"/>
</g>
<defs>
<clipPath id="clip0_250_1997">
<rect width="60" height="60" fill="white"/>
</clipPath>
</defs>
</svg>
