<svg width="59" height="59" viewBox="0 0 59 59" fill="none" xmlns="http://www.w3.org/2000/svg">
<g clip-path="url(#clip0_250_2020)">
<path fill-rule="evenodd" clip-rule="evenodd" d="M49.0771 45.1601H56.6806V56.6805H49.0771V45.1601ZM39.2924 35.9437H46.7883V56.6805H39.2924V35.9437ZM22.0117 54.3764H36.9883V56.6805H22.0117V54.3764ZM12.2117 35.9437H19.7076V56.6805H12.2117V35.9437ZM2.30409 45.1601H9.90758V56.6805H2.30409V45.1601ZM19.7076 20.8596V33.6396H10.9521C10.3838 33.6396 9.90758 34.1005 9.90758 34.6842V42.856H1.04452C0.476178 42.856 0 43.3168 0 43.9005V57.9555C0 58.5238 0.460818 59 1.04452 59H57.9708C58.5392 59 59.0154 58.5392 59.0154 57.9555V43.9005C59.0154 43.3322 58.5545 42.856 57.9708 42.856H49.0924V34.6688C49.0924 34.1005 48.6316 33.6243 48.0479 33.6243H39.2924C39.2924 32.7641 39.3845 31.8885 38.0174 31.8885C37.4491 31.8885 36.9729 32.3494 36.9729 32.9331V52.0723H21.9964V22.1192H36.9729C36.9729 22.9794 36.8808 23.855 38.2479 23.855C39.5842 23.855 39.2924 22.1499 39.2924 20.8596C39.2924 20.2913 38.8316 19.8151 38.2479 19.8151H20.7368C20.1684 19.8151 19.7076 20.2913 19.7076 20.8596Z" fill="#BD9F57"/>
<path fill-rule="evenodd" clip-rule="evenodd" d="M24.0858 7.72637C24.8692 7.72637 27.419 7.44988 27.8491 7.00443C28.0642 6.78938 29.293 4.2856 29.3852 3.93231H29.6156C29.6924 4.27024 30.8905 6.71257 31.0902 6.95834C31.5203 7.46524 34.147 7.74173 34.915 7.74173C34.6385 8.77089 32.3805 9.61573 32.3805 10.737C32.3805 12.0581 32.8413 12.949 32.8413 14.1932C28.8937 12.1041 30.1379 12.0888 26.1595 14.1932C26.1595 11.4897 27.6648 10.906 25.4222 9.17027L24.3469 8.17183C24.009 7.78782 24.224 8.00286 24.0858 7.72637ZM20.2764 6.91226C20.2764 7.71101 21.2594 8.4176 22.0889 9.24707C22.7955 9.95366 23.3792 10.6295 24.1933 11.1825C24.1165 12.0427 23.287 16.0057 23.3331 16.4512C23.4099 17.2039 23.9475 17.5111 24.6541 17.5111C25.1303 17.5111 25.4682 17.1731 25.8369 16.9734L29.4927 15.1455C30.2607 15.1455 33.3943 17.5111 34.5617 17.5111C35.1301 17.5111 35.5448 17.0502 35.637 16.528C35.7291 16.0364 34.8689 12.1041 34.7921 11.1671C35.6523 10.5988 37.0194 9.10883 37.8796 8.26399C38.3251 7.81854 38.7091 7.63421 38.7091 6.91226C38.7091 5.52981 36.3128 5.56053 34.4388 5.2994C34.0241 5.23796 33.9319 5.2226 33.5326 5.17652C32.4419 5.03827 32.7799 5.06899 31.3821 2.25801C30.5833 0.675866 30.5372 0 29.3852 0C28.4943 0 28.1871 1.12132 27.6494 2.19656C27.4344 2.64202 27.2347 3.02603 26.9889 3.50221C26.8507 3.7787 26.4206 4.73106 26.2977 4.88467C26.1441 5.06899 26.098 5.09971 25.6526 5.16116C25.2839 5.2226 25.0074 5.23796 24.7309 5.28404C24.0551 5.3762 23.6096 5.45301 22.9337 5.56053C21.7971 5.71414 20.2764 5.60661 20.2764 6.91226Z" fill="#BD9F57"/>
<path fill-rule="evenodd" clip-rule="evenodd" d="M9.90723 2.30408C9.90723 3.73262 11.3818 3.62509 13.1329 3.91694C13.7781 4.02447 16.3587 4.82322 16.3587 3.10283C16.3587 1.65894 14.6229 1.7511 13.2098 1.52069C12.3035 1.38245 9.90723 0.568337 9.90723 2.30408Z" fill="#BD9F57"/>
<path fill-rule="evenodd" clip-rule="evenodd" d="M42.626 14.4082C42.626 15.8521 44.3617 15.76 45.7749 15.9904C46.9116 16.1747 49.0774 16.9581 49.0774 15.0995C49.0774 14.3468 48.5859 14.055 47.9254 13.9474L43.8855 13.2869C43.2865 13.2869 42.626 13.7938 42.626 14.4082Z" fill="#BD9F57"/>
<path fill-rule="evenodd" clip-rule="evenodd" d="M9.90723 15.0995C9.90723 16.9581 12.0731 16.1747 13.1176 16.0057C14.6383 15.7446 16.3587 15.8521 16.3587 14.4082C16.3587 13.8092 15.7289 13.333 15.1913 13.2869L11.1514 13.9321C10.4602 14.0396 9.90723 14.3314 9.90723 15.0995Z" fill="#BD9F57"/>
<path fill-rule="evenodd" clip-rule="evenodd" d="M42.626 3.11817C42.626 3.71724 43.2558 4.19341 43.7934 4.2395L47.8332 3.59435C48.2019 3.53291 48.4476 3.50219 48.6934 3.3025C49.4307 2.68808 49.0928 1.18274 47.9407 1.18274L43.7934 1.85861C43.1329 1.98149 42.626 2.31942 42.626 3.11817Z" fill="#BD9F57"/>
<path fill-rule="evenodd" clip-rule="evenodd" d="M42.626 8.64802C42.626 9.33925 43.0868 9.92295 43.778 9.92295H48.0483C49.4461 9.92295 49.4461 7.61886 48.0483 7.61886H43.778C43.225 7.6035 42.626 8.12576 42.626 8.64802Z" fill="#BD9F57"/>
<path fill-rule="evenodd" clip-rule="evenodd" d="M9.90723 8.64799C9.90723 9.35458 10.2144 9.92292 10.9517 9.92292H15.2066C15.5753 9.92292 15.8364 9.76931 16.0054 9.56963C16.7427 8.75551 16.1283 7.61883 15.2066 7.61883H10.9517C10.3834 7.60347 9.90723 8.07965 9.90723 8.64799Z" fill="#BD9F57"/>
<path fill-rule="evenodd" clip-rule="evenodd" d="M36.9883 27.7719C36.9883 29.4923 39.2924 29.4923 39.2924 27.7719C39.2924 26.3741 36.9883 26.3741 36.9883 27.7719Z" fill="#BD9F57"/>
</g>
<defs>
<clipPath id="clip0_250_2020">
<rect width="59" height="59" fill="white"/>
</clipPath>
</defs>
</svg>
