<svg width="59" height="54" viewBox="0 0 59 54" fill="none" xmlns="http://www.w3.org/2000/svg">
<g clip-path="url(#clip0_250_1987)">
<path fill-rule="evenodd" clip-rule="evenodd" d="M7.94349 49.0386C6.86797 49.2874 4.34818 49.1474 3.10365 49.1474C2.56589 49.1474 2.30469 48.883 2.30469 48.3387V36.7984C2.30469 36.4095 2.50443 35.9896 2.87318 35.9896H7.5901C7.95885 35.9896 8.15859 36.4095 8.15859 36.7984V48.1054C8.17396 48.4942 8.08177 48.7897 7.94349 49.0386ZM30.7599 51.6048C29.8841 51.6048 29.1159 51.4182 28.3937 51.2004C26.6268 50.6872 13.7513 47.0478 12.7833 47.0478H10.4786V37.9493C14.5042 37.9493 13.106 37.4982 16.563 36.6428C19.344 35.9585 21.7716 36.5962 23.9995 38.2603C26.7958 40.3755 25.3977 40.5155 29.5 40.5155C30.806 40.5155 32.112 40.5155 33.418 40.5155C34.6932 40.5 35.7227 40.9821 35.7227 42.3819C35.7227 43.5639 34.8161 44.2327 33.6484 44.2482H25.8125C24.0302 44.2482 22.9393 43.9527 22.9393 45.5236C22.9393 46.099 23.4003 46.5656 23.9688 46.5656H34.2169C35.3693 46.5656 36.368 45.8658 36.9518 45.2592C37.5818 44.606 38.1349 43.4861 38.1349 42.2575C38.1349 41.8531 38.0427 41.8064 38.012 41.4487L40.3935 40.2511C41.2078 39.8312 42.099 39.4424 42.8518 39.0069C43.6047 38.5558 44.3576 38.1981 45.2026 37.7626C45.8172 37.4516 47.0924 36.6739 47.8146 36.6739C49.1513 36.6739 49.8888 37.9337 49.3049 39.1158C48.844 40.08 42.8211 44.0461 41.7302 44.8704L34.0479 50.3917C33.2029 50.9205 32.0659 51.6048 30.7599 51.6048ZM0 36.3318V48.572C0 52.1492 4.22526 51.6048 6.56068 51.6048C7.48255 51.6048 8.40443 51.4804 8.97292 51.1382C9.41849 50.8583 10.1867 50.1584 10.2482 49.5051C14.3966 49.5051 13.1521 49.614 16.8396 50.5316C20.3581 51.4026 25.7664 53.1134 28.824 53.7978C31.3591 54.3577 33.2336 53.6889 34.9083 52.6624L50.5495 41.4331C52.6544 39.4424 52.1781 35.663 49.4125 34.5898C47.3997 33.8122 46.3089 34.5276 44.8185 35.2742L36.875 39.3646C36.5677 39.1624 36.4602 38.9913 36.0914 38.758C34.5857 37.7937 30.5602 38.0581 28.3477 38.0893C27.6409 38.1048 27.4872 38.1981 27.1031 37.8404C25.6128 36.4251 23.9841 35.1653 22.0021 34.4965C17.0701 32.8168 13.9971 35.6474 10.9549 35.6474C10.1099 35.6474 10.3865 35.5541 10.0331 34.9475C9.87943 34.6831 9.67969 34.4965 9.43385 34.2632C8.98828 33.8433 8.3276 33.5322 7.49792 33.5322H2.99609C1.475 33.5322 0 34.8542 0 36.3318Z" fill="#BD9F57"/>
<path fill-rule="evenodd" clip-rule="evenodd" d="M33.4178 21.0432C33.4178 19.7834 34.2629 18.4769 35.4921 18.4769C38.0119 18.4769 37.5048 21.3387 40.1168 19.1924C40.4395 18.928 40.378 18.8813 40.8082 18.7258C43.6507 17.6371 45.1257 21.3698 42.6827 23.4228C42.529 23.5472 42.4676 23.625 42.3293 23.7649C41.7301 24.3871 39.2103 26.9533 38.6111 27.3577C37.5355 25.7402 33.4178 23.2984 33.4178 21.0432ZM15.5488 11.6025C15.5488 13.7799 15.81 15.273 16.8702 17.0305C17.4387 17.9792 18.8829 20.0011 20.0507 20.0011C20.7882 20.0011 21.0801 19.4257 21.0801 18.7258C21.0801 17.777 19.7126 17.4193 18.7754 15.5841C18.0993 14.2465 17.7767 13.0023 17.9764 11.1515C18.1454 9.62727 18.8061 8.2275 19.6204 7.32543C19.6973 7.23211 19.6973 7.23211 19.7895 7.13879L21.1415 6.05009C23.1697 4.94582 25.6741 5.33465 27.5332 6.60999C27.9173 6.87439 28.409 7.27877 28.7316 7.60538C29.7918 8.70965 30.852 8.77186 31.9582 7.6676C34.6163 5.02359 38.5189 4.35481 41.177 7.37209C42.4369 8.78741 42.7595 10.5138 42.7595 12.5357C42.7595 13.5 42.191 15.4752 41.7454 15.9418C41.346 16.3773 40.5316 16.0351 39.3486 16.7817C39.0413 16.9683 38.9645 17.1083 38.6111 17.2016C37.2744 16.2995 36.8902 16.1595 35.277 16.1595C33.0798 16.1595 31.1285 18.3992 31.1285 20.5921C31.1285 22.2874 31.4204 23.936 32.8494 24.9003C32.4806 25.4602 32.0811 25.6624 31.6048 26.0979C31.1439 26.5334 30.8059 27.0155 30.3142 27.3577C29.9608 26.8133 29.0697 26.129 28.3936 25.4602C27.2259 24.2937 26.3809 25.2891 26.2579 25.9268C26.0428 26.9844 27.4717 27.7932 28.1632 28.4931C30.2527 30.6238 30.2527 30.8727 32.0811 29.0219L34.478 26.6578C35.0158 27.0155 37.1668 29.1929 37.6124 29.6595C39.0566 31.1526 39.8095 29.4107 41.177 28.3064C42.2371 27.451 43.1897 26.0823 44.2499 25.2425C47.1538 22.9095 46.9233 18.7102 44.0348 16.7505C45.3869 14.1843 45.602 11.0426 44.4496 8.28972C43.2358 5.36575 40.5624 2.98615 37.2436 2.98615C35.0772 2.98615 33.2642 3.56161 31.6663 4.80585C31.2514 5.13246 30.7137 5.50573 30.4525 5.91011C29.6074 5.33465 29.2848 4.72808 27.7637 3.96598C24.491 2.31737 20.3733 2.7373 17.9764 5.64571C16.5475 7.30988 15.5488 9.20734 15.5488 11.6025Z" fill="#BD9F57"/>
<path fill-rule="evenodd" clip-rule="evenodd" d="M48.9668 22.9095C48.9668 24.0605 50.2421 24.6515 51.5173 25.6935C51.9168 26.0201 54.1447 27.9332 54.498 27.9332C55.4353 27.9332 56.0806 27.0777 55.7272 26.2223C55.466 25.6002 52.7926 23.6872 52.2241 23.2206C51.8553 22.9095 50.6415 21.8519 50.2267 21.8519C49.5199 21.8675 48.9668 22.1941 48.9668 22.9095Z" fill="#BD9F57"/>
<path fill-rule="evenodd" clip-rule="evenodd" d="M5.99219 26.6423C5.99219 27.8398 7.17526 28.0887 7.83594 27.6999C8.05104 27.5754 8.49661 27.1711 8.72708 26.9689C9.04974 26.7045 9.28021 26.5178 9.61823 26.2379L12.3224 24.076C13.3979 23.2206 12.7987 21.8519 11.631 21.8519C10.9703 21.8519 7.92813 24.5893 7.17526 25.1492C6.74505 25.4913 5.99219 25.9735 5.99219 26.6423Z" fill="#BD9F57"/>
<path fill-rule="evenodd" clip-rule="evenodd" d="M5.99219 1.21312C5.99219 1.99077 7.78984 3.21946 8.57344 3.84158C9.24948 4.37038 10.9857 5.98789 11.7539 5.98789C12.599 5.98789 13.5362 4.71255 12.3378 3.76381L7.82057 0.186625C6.99089 -0.295518 5.99219 0.186625 5.99219 1.21312Z" fill="#BD9F57"/>
<path fill-rule="evenodd" clip-rule="evenodd" d="M48.9668 4.71254C48.9668 5.7857 49.4585 5.98789 50.3496 5.98789C50.6415 5.98789 51.7478 5.00805 52.0397 4.79031L55.2663 2.22407C56.5415 1.15091 55.3738 -0.933193 53.5608 0.497683C53.023 0.933167 52.5006 1.3531 51.9475 1.78858C51.4098 2.20851 50.9027 2.644 50.3496 3.09503C49.7043 3.63939 48.9668 4.01266 48.9668 4.71254Z" fill="#BD9F57"/>
<path fill-rule="evenodd" clip-rule="evenodd" d="M2.76562 13.9355C2.76562 14.3554 3.1651 15.1019 3.91797 15.1019H9.55677C10.9549 15.1019 10.9549 12.769 9.55677 12.769H3.91797C3.33411 12.769 2.76562 13.3755 2.76562 13.9355Z" fill="#BD9F57"/>
<path fill-rule="evenodd" clip-rule="evenodd" d="M51.1641 13.9355C51.1641 14.3554 51.5635 15.1019 52.3164 15.1019H57.9552C58.6005 15.1019 58.9385 14.6042 58.9846 14.0754V13.7955C58.9385 13.2667 58.5852 12.769 57.9552 12.769H52.3164C51.7172 12.769 51.1641 13.3755 51.1641 13.9355Z" fill="#BD9F57"/>
<path fill-rule="evenodd" clip-rule="evenodd" d="M22.4629 22.5674C22.4629 23.2051 23.4616 24.2316 24.4449 23.4072C25.2592 22.7229 24.7522 21.2765 23.7228 21.2765C23.016 21.2765 22.4629 21.8364 22.4629 22.5674Z" fill="#BD9F57"/>
</g>
<defs>
<clipPath id="clip0_250_1987">
<rect width="59" height="54" fill="white"/>
</clipPath>
</defs>
</svg>
