<svg width="54" height="60" viewBox="0 0 54 60" fill="none" xmlns="http://www.w3.org/2000/svg">
<g clip-path="url(#clip0_250_2009)">
<path fill-rule="evenodd" clip-rule="evenodd" d="M2.69217 30C3.33391 29.0312 4.10087 28.2656 4.78957 27.4062C6.38609 25.4219 10.4087 22.1094 12.5061 20.7031C21.8661 14.4531 32.04 14.3906 41.4 20.6562C44.6243 22.8125 49.0696 26.7031 51.2765 30C50.9478 30.5 50.6504 30.8438 50.2591 31.3281C47.9113 34.2344 44.5617 37.2344 41.4626 39.3125C35.9217 43.0156 29.4574 44.9219 22.727 43.625C17.0296 42.5313 11.2852 39.1094 7.2313 35.0625C5.61913 33.4375 4.02261 31.9531 2.69217 30ZM0 29.875C0 31.0781 1.98783 32.9062 2.77043 33.9062C3.03652 34.2344 3.08348 34.2969 3.38087 34.5938C4.69565 35.8906 6.02609 37.3281 7.43478 38.5156C12.3026 42.625 19.4713 46.4062 26.0609 46.4062C30.1774 46.4062 32.9478 46.0312 36.4696 44.6094C40.633 42.9375 42.9183 41.375 46.4243 38.625L49.2574 36.0625C49.5235 35.7969 49.5548 35.6562 49.8365 35.3594C50.9478 34.2188 53.9687 31.2031 53.9687 29.8906C53.9687 29.0938 51.7304 26.7656 51.1983 26.0938C50.9322 25.7656 50.8852 25.7031 50.5878 25.4063L46.5339 21.4844C46.0643 21.0781 45.5948 20.7187 45.0939 20.3437C40.4609 16.8281 34.153 13.5938 27.9391 13.5938C23.6974 13.5938 21.0678 13.9688 17.3583 15.4531C13.4296 17.0313 10.6591 18.875 7.49739 21.4219L4.91478 23.7656C4.25739 24.3125 1.53391 27.4688 1.00174 28.1719C0.704348 28.5781 0 29.3594 0 29.875Z" fill="#BD9F57"/>
<path fill-rule="evenodd" clip-rule="evenodd" d="M22.4136 21.3281C22.4136 21.9218 22.8988 22.375 23.6971 22.375C24.3231 22.375 30.4118 19.875 34.0901 25.9375C37.831 32.0781 31.5544 40.7344 23.6188 37.4375C20.8171 36.2812 18.7823 33.0937 18.7823 30C18.7823 29.5937 19.5179 27.0781 17.8431 27.0781C16.1997 27.0781 16.4344 29.1562 16.4344 30.5937C16.4344 35.6562 21.3336 40.5468 26.4049 40.5468C28.4866 40.5468 29.5979 40.4687 31.5388 39.5781C34.8258 38.0625 37.5649 34.2969 37.5649 30.5937C37.5649 27.2812 36.7979 24.8437 34.4814 22.5312C33.9962 22.0468 33.7301 21.8125 33.151 21.4062C32.6814 21.0781 32.1336 20.7343 31.6171 20.4687C29.2692 19.3281 26.4362 19.1406 23.9005 19.875C23.1179 20.0937 22.4136 20.3906 22.4136 21.3281Z" fill="#BD9F57"/>
<path fill-rule="evenodd" clip-rule="evenodd" d="M24.6525 30C24.6525 28.7969 25.7951 27.6562 27.0003 27.6562C28.2056 27.6562 29.3482 28.7969 29.3482 30C29.3482 31.2031 28.2056 32.3438 27.0003 32.3438C25.7951 32.3438 24.6525 31.2031 24.6525 30ZM22.3047 29.6406V30.3437C22.3047 32.5 24.4803 34.6719 26.6403 34.6719H27.3447C29.5047 34.6719 31.6803 32.5 31.6803 30.3437V29.6406C31.6803 27.4844 29.5047 25.3125 27.3447 25.3125H26.6403C24.4803 25.3125 22.3047 27.4844 22.3047 29.6406Z" fill="#BD9F57"/>
<path fill-rule="evenodd" clip-rule="evenodd" d="M25.8262 1.04688V9.01562C25.8262 10.4375 28.174 10.4375 28.174 9.01562V1.04688C28.174 0.390625 27.6731 0.046875 27.141 0H26.8592C26.327 0.046875 25.8262 0.40625 25.8262 1.04688Z" fill="#BD9F57"/>
<path fill-rule="evenodd" clip-rule="evenodd" d="M25.8262 50.9688V58.9375C25.8262 59.5938 26.327 59.9375 26.8592 59.9844H27.141C27.6731 59.9375 28.174 59.5781 28.174 58.9375V50.9688C28.174 49.5625 25.8262 49.5625 25.8262 50.9688Z" fill="#BD9F57"/>
<path fill-rule="evenodd" clip-rule="evenodd" d="M3.52148 51.0938C3.52148 51.625 4.08496 52.2656 4.57018 52.2656C5.55627 52.2656 5.90061 51.5781 6.41714 51.0625L9.57888 47.9063C10.0484 47.4375 10.8937 46.8906 10.8937 46.0625C10.8937 45.5312 10.3302 44.8906 9.84496 44.8906C8.85888 44.8906 8.51453 45.5781 7.99801 46.0938C7.43453 46.6563 6.96496 47.125 6.41714 47.6719C5.50931 48.5625 3.52148 50.2188 3.52148 51.0938Z" fill="#BD9F57"/>
<path fill-rule="evenodd" clip-rule="evenodd" d="M3.52148 9.95313C3.52148 10.9375 4.21018 11.2812 4.7267 11.7969L7.88844 14.9531C8.35801 15.4219 8.90583 16.2656 9.7354 16.2656C10.2676 16.2656 10.9093 15.7031 10.9093 15.2188C10.9093 14.2344 10.2206 13.8906 9.70409 13.375L6.54235 10.2188C6.07279 9.75 5.52496 8.90625 4.6954 8.90625C4.16322 8.90625 3.52148 9.46875 3.52148 9.95313Z" fill="#BD9F57"/>
<path fill-rule="evenodd" clip-rule="evenodd" d="M43.0752 15.1094C43.0752 15.6406 43.6387 16.2812 44.1239 16.2812C45.11 16.2812 45.4543 15.5938 45.9708 15.0781L49.1482 11.9219C49.6178 11.4531 50.463 10.9062 50.463 10.0781C50.463 9.54688 49.8995 8.90625 49.4143 8.90625C48.4282 8.90625 48.0839 9.59375 47.5674 10.1094L44.4056 13.2656C43.9361 13.7344 43.0752 14.2812 43.0752 15.1094Z" fill="#BD9F57"/>
<path fill-rule="evenodd" clip-rule="evenodd" d="M43.0752 45.9375C43.0752 46.9219 43.7639 47.2656 44.2804 47.7813L47.4422 50.9375C47.9117 51.4063 48.4595 52.25 49.2891 52.25C49.8213 52.25 50.463 51.6875 50.463 51.2031C50.463 50.2188 49.7743 49.875 49.2578 49.3594L46.0961 46.2031C45.6265 45.7344 45.0787 44.8906 44.2491 44.8906C43.7169 44.875 43.0752 45.4375 43.0752 45.9375Z" fill="#BD9F57"/>
<path fill-rule="evenodd" clip-rule="evenodd" d="M18.7822 24.0156C18.7822 25.7656 21.1301 25.7656 21.1301 24.0156C21.1301 22.6094 18.7822 22.6094 18.7822 24.0156Z" fill="#BD9F57"/>
</g>
<defs>
<clipPath id="clip0_250_2009">
<rect width="54" height="60" fill="white"/>
</clipPath>
</defs>
</svg>
