<svg width="337" height="631" viewBox="0 0 337 631" preserveAspectRatio="none" fill="none" xmlns="http://www.w3.org/2000/svg">
<path d="M330.051 86.6463C328.748 86.6463 327.662 85.5583 327.662 84.2527C327.662 82.947 328.748 81.859 330.051 81.859C331.354 81.859 332.439 82.947 332.439 84.2527C332.439 85.5583 331.397 86.6463 330.051 86.6463ZM330.051 83.1211C329.443 83.1211 328.965 83.5999 328.965 84.2092C328.965 84.8184 329.443 85.2972 330.051 85.2972C330.659 85.2972 331.136 84.8184 331.136 84.2092C331.136 83.6434 330.659 83.1211 330.051 83.1211ZM327.358 80.0311C326.663 80.0311 325.23 79.7265 324.709 77.3328C324.405 75.7661 325.968 74.3734 327.228 74.1123C328.27 73.8947 328.878 74.4169 329.008 75.0697C329.095 75.4179 328.878 75.7661 328.531 75.8531C328.183 75.9402 327.836 75.7226 327.749 75.3744C327.619 75.3309 327.141 75.4179 326.62 75.8531C326.229 76.1578 325.881 76.6365 325.968 77.0717C326.185 78.2033 326.663 78.7255 327.358 78.7255C328.748 78.682 330.615 76.7235 330.876 75.0262C331.44 71.2399 328.4 68.1934 325.491 65.234C324.188 63.9284 322.928 62.6663 322.016 61.3606C319.541 57.8354 319.715 53.875 322.451 51.2638C324.448 49.3488 327.836 48.8701 330.138 50.1322C331.962 51.1332 332.743 53.0481 332.309 55.3112C332.135 56.0511 331.788 56.7909 331.267 57.4002C330.268 58.5318 328.748 59.0105 327.401 58.6188C326.185 58.2706 325.317 57.2697 325.1 55.9205C324.97 55.0501 325.273 54.0056 325.882 53.4833C326.359 53.0481 326.967 52.9176 327.619 53.0916C327.966 53.1787 328.183 53.5704 328.053 53.875C327.966 54.2232 327.575 54.4408 327.271 54.3102C327.054 54.2667 326.924 54.2667 326.75 54.3973C326.446 54.6584 326.316 55.2242 326.359 55.6594C326.533 56.7909 327.315 57.1826 327.749 57.3132C328.618 57.5743 329.616 57.2697 330.311 56.4863C330.659 56.0946 330.963 55.5288 331.05 55.0066C331.397 53.3093 330.832 51.9601 329.53 51.2638C327.662 50.2628 324.97 50.6545 323.363 52.1777C320.627 54.789 321.539 58.3142 323.102 60.5773C323.971 61.7958 325.143 63.0144 326.446 64.2765C329.443 67.2795 332.874 70.7176 332.179 75.1568C331.831 77.5069 329.443 79.9441 327.445 79.9876C327.401 80.0311 327.402 80.0311 327.358 80.0311ZM323.84 47.608C322.798 47.608 321.799 47.3904 320.844 46.9552C318.368 45.8236 316.197 43.2559 315.241 40.253C314.069 36.7278 314.72 32.7673 316.718 29.5468C313.591 31.4182 309.813 32.0275 306.382 30.9395C303.342 29.982 300.736 27.893 299.607 25.4123C298.695 23.4974 298.695 21.4084 299.52 19.4064C300.997 15.8812 304.384 13.9663 308.336 14.4885C310.334 14.7497 312.288 15.8812 313.417 17.4915C314.329 18.7536 314.633 20.1898 314.286 21.6695C314.069 22.5834 313.635 23.4539 312.94 24.2372C312.375 24.89 311.55 25.3688 310.638 25.6299C309.856 25.8475 309.031 25.804 308.206 25.5429C307.164 25.2382 305.817 24.5854 305.34 23.1492C304.819 21.6695 305.6 20.2333 306.643 19.5805C307.728 18.9277 308.944 19.0582 309.813 19.9722C310.073 20.2333 310.073 20.625 309.813 20.8861C309.552 21.1472 309.161 21.1472 308.901 20.8861C308.293 20.2768 307.685 20.4944 307.337 20.712C306.729 21.0602 306.252 21.9306 306.556 22.7575C306.86 23.6715 307.815 24.1067 308.553 24.3243C309.161 24.4984 309.726 24.4984 310.291 24.3678C310.942 24.1937 311.507 23.8891 311.897 23.4103C312.419 22.801 312.766 22.1047 312.94 21.4084C313.244 20.0157 312.766 18.9277 312.288 18.2749C311.376 17.0127 309.769 16.0553 308.119 15.8377C304.775 15.4025 301.909 16.9692 300.649 19.9722C299.954 21.626 299.954 23.3233 300.736 24.89C301.735 27.0226 304.037 28.894 306.729 29.7209C311.507 31.2006 317.109 29.0681 319.975 24.6724C321.235 22.7575 321.799 20.6685 321.539 18.8406C321.452 18.1443 321.104 17.5785 320.627 17.2304C320.236 16.9692 319.758 16.8822 319.237 17.0127C318.585 17.1868 318.108 17.7526 317.977 18.4489C317.934 18.6665 318.021 18.7971 318.108 18.8841C318.281 19.0147 318.499 19.0582 318.716 19.0147C319.063 18.9277 319.411 19.1018 319.497 19.4499C319.584 19.7981 319.411 20.1463 319.063 20.2333C318.412 20.4074 317.76 20.2768 317.239 19.7981C316.761 19.3629 316.588 18.7971 316.675 18.1878C316.892 16.9257 317.717 15.9682 318.889 15.7071C319.758 15.4895 320.627 15.6201 321.321 16.0988C322.103 16.6211 322.668 17.535 322.798 18.5795C323.145 21.2343 322.06 23.6715 321.235 24.9771C322.624 24.1502 324.839 23.1927 327.315 23.4974C328.357 23.6279 329.312 24.1502 329.833 24.9336C330.311 25.6299 330.485 26.5003 330.268 27.3707C329.964 28.5458 329.052 29.4162 327.792 29.6338C327.184 29.7644 326.576 29.5468 326.142 29.0681C325.708 28.5893 325.534 27.893 325.708 27.2837C325.795 26.9355 326.142 26.7179 326.49 26.805C326.837 26.892 327.054 27.2402 326.967 27.5883C326.924 27.806 326.967 28.0236 327.098 28.1541C327.184 28.2412 327.315 28.3282 327.532 28.2847C328.27 28.1541 328.791 27.6754 328.965 27.0226C329.095 26.5003 329.008 26.0216 328.748 25.6299C328.4 25.1512 327.792 24.803 327.141 24.716C325.36 24.4984 323.232 25.1077 321.321 26.3698C316.935 29.3292 314.894 34.8999 316.414 39.6872C317.283 42.342 319.15 44.6051 321.321 45.606C322.928 46.3459 324.622 46.3459 326.272 45.606C329.226 44.3439 330.789 41.4715 330.311 38.1204C330.094 36.5102 329.095 34.8999 327.836 34.0295C327.141 33.5507 326.055 33.072 324.665 33.3766C323.971 33.5507 323.276 33.8989 322.668 34.4647C322.19 34.8564 321.886 35.4221 321.712 36.0749C321.582 36.6407 321.625 37.2065 321.799 37.8158C322.016 38.5556 322.494 39.5131 323.406 39.8177C324.231 40.0789 325.1 39.5566 325.491 38.8603C325.664 38.5556 325.838 37.9463 325.273 37.5547C324.969 37.3371 324.926 36.9454 325.143 36.6407C325.36 36.3361 325.751 36.2925 326.055 36.5101C326.967 37.2065 327.184 38.3816 326.62 39.4696C326.012 40.6446 324.492 41.6021 322.972 41.0799C321.539 40.6011 320.887 39.252 320.54 38.251C320.279 37.4241 320.236 36.5972 320.453 35.8138C320.67 34.8999 321.148 34.1165 321.799 33.5072C322.581 32.8109 323.449 32.3757 324.361 32.1581C325.838 31.8099 327.271 32.1145 328.574 32.9849C330.181 34.073 331.354 35.9879 331.614 37.9899C332.179 41.9503 330.355 45.3449 326.793 46.8681C325.838 47.3904 324.839 47.608 323.84 47.608ZM290.226 24.8465C288.576 24.8465 286.796 24.2808 285.145 23.1057C283.842 22.1917 282.583 20.9296 281.28 19.624C278.327 16.7081 275.33 13.6616 271.509 14.2274C269.815 14.4885 267.861 16.3599 267.817 17.7526C267.817 18.4489 268.338 18.9277 269.467 19.1453C269.902 19.2323 270.38 18.8842 270.684 18.4925C271.074 18.0137 271.161 17.535 271.161 17.4044C270.814 17.3174 270.597 16.9692 270.684 16.6211C270.77 16.2729 271.118 16.0553 271.465 16.1423C272.117 16.2729 272.638 16.8822 272.421 17.9267C272.16 19.1888 270.77 20.7556 269.207 20.4509C266.731 19.9287 266.514 18.4054 266.514 17.7526C266.558 15.7506 268.99 13.357 271.335 13.0088C275.765 12.356 279.196 15.7506 282.192 18.7536C283.452 20.0157 284.668 21.2343 285.884 22.1047C288.142 23.6715 291.66 24.5419 294.265 21.8436C295.785 20.2333 296.22 17.535 295.177 15.6636C294.439 14.358 293.093 13.7922 291.442 14.1404C290.921 14.2274 290.4 14.5321 289.966 14.8802C289.228 15.533 288.88 16.534 289.141 17.448C289.271 17.8832 289.662 18.6665 290.791 18.8406C291.225 18.9277 291.79 18.7536 292.05 18.4489C292.181 18.3184 292.224 18.1443 292.137 17.9267C292.05 17.5785 292.224 17.2304 292.572 17.0998C292.919 17.0127 293.266 17.1868 293.397 17.535C293.57 18.1878 293.44 18.7971 293.006 19.2758C292.441 19.8851 291.442 20.2333 290.574 20.0592C289.228 19.8416 288.229 18.9712 287.881 17.7526C287.49 16.3599 287.968 14.8367 289.097 13.8792C289.662 13.357 290.4 13.0088 291.182 12.8347C293.44 12.356 295.308 13.1829 296.35 15.0108C297.609 17.3174 297.132 20.712 295.221 22.714C293.874 24.1502 292.094 24.8465 290.226 24.8465ZM327.619 20.6685C326.88 20.6685 326.403 20.625 326.316 20.5815C326.012 20.5379 325.751 20.2768 325.751 19.9722C325.751 19.7546 325.404 14.9237 328.27 12.1819C331.136 9.48362 335.957 10.0494 336.174 10.0494C336.478 10.0929 336.739 10.354 336.739 10.6587C336.739 10.8763 337.086 15.7071 334.22 18.4489C332.222 20.3639 329.269 20.6685 327.619 20.6685ZM327.054 19.3194C328.314 19.3629 331.44 19.3194 333.351 17.4915C335.262 15.6636 335.479 12.5736 335.479 11.3115C334.22 11.268 331.093 11.3115 329.182 13.1394C327.271 14.9673 327.054 18.0572 327.054 19.3194ZM262.389 17.4915C261.086 17.4915 260 16.4035 260 15.0978C260 13.7922 261.086 12.7042 262.389 12.7042C263.691 12.7042 264.777 13.7922 264.777 15.0978C264.777 16.4035 263.691 17.4915 262.389 17.4915ZM262.389 14.0098C261.781 14.0098 261.303 14.4885 261.303 15.0978C261.303 15.7071 261.781 16.1858 262.389 16.1858C262.997 16.1858 263.474 15.7071 263.474 15.0978C263.474 14.4885 262.997 14.0098 262.389 14.0098Z" fill="#BD9F57"/>
<path fill-rule="evenodd" clip-rule="evenodd" d="M165.685 0L163.079 7.13744L156 9.7487L163.079 12.36L165.685 19.4974L168.334 12.36L175.413 9.7487L168.334 7.13744L165.685 0Z" fill="#BD9F57"/>
<path d="M6.70129 86.6463C8.00416 86.6463 9.0899 85.5583 9.0899 84.2527C9.0899 82.947 8.00416 81.859 6.70129 81.859C5.39843 81.859 4.31271 82.947 4.31271 84.2527C4.31271 85.5583 5.355 86.6463 6.70129 86.6463ZM6.70129 83.1211C7.3093 83.1211 7.78702 83.5999 7.78702 84.2092C7.78702 84.8184 7.3093 85.2972 6.70129 85.2972C6.09329 85.2972 5.61557 84.8184 5.61557 84.2092C5.61557 83.6434 6.09329 83.1211 6.70129 83.1211ZM9.39386 80.0311C10.0887 80.0311 11.5219 79.7265 12.043 77.3328C12.347 75.7661 10.7836 74.3734 9.52417 74.1123C8.48188 73.8947 7.87388 74.4169 7.74359 75.0697C7.65673 75.4179 7.87388 75.7661 8.22131 75.8531C8.56874 75.9402 8.91616 75.7226 9.00302 75.3744C9.13331 75.3309 9.61103 75.4179 10.1322 75.8531C10.523 76.1578 10.8705 76.6365 10.7836 77.0717C10.5665 78.2033 10.0887 78.7255 9.39386 78.7255C8.00414 78.682 6.13673 76.7235 5.87616 75.0262C5.31159 71.2399 8.35159 68.1934 11.2613 65.234C12.5642 63.9284 13.8236 62.6663 14.7356 61.3606C17.2111 57.8354 17.0374 53.875 14.3014 51.2638C12.3036 49.3488 8.91617 48.8701 6.61444 50.1322C4.79043 51.1332 4.00871 53.0481 4.44299 55.3112C4.61671 56.0511 4.96414 56.7909 5.48529 57.4002C6.48415 58.5318 8.00417 59.0105 9.35046 58.6188C10.5665 58.2706 11.435 57.2697 11.6522 55.9205C11.7824 55.0501 11.4785 54.0056 10.8705 53.4833C10.3927 53.0481 9.78473 52.9176 9.1333 53.0916C8.78587 53.1787 8.56872 53.5704 8.69901 53.875C8.78586 54.2232 9.17674 54.4408 9.48074 54.3102C9.69789 54.2667 9.82818 54.2667 10.0019 54.3973C10.3059 54.6584 10.4362 55.2242 10.3928 55.6594C10.219 56.7909 9.43731 57.1826 9.00302 57.3132C8.13445 57.5743 7.13557 57.2697 6.4407 56.4863C6.09327 56.0946 5.78928 55.5288 5.70242 55.0066C5.35499 53.3093 5.91958 51.9601 7.22244 51.2638C9.08988 50.2628 11.7824 50.6545 13.3893 52.1777C16.1253 54.789 15.2133 58.3142 13.6499 60.5773C12.7813 61.7958 11.6087 63.0144 10.3059 64.2765C7.30929 67.2795 3.87841 70.7176 4.57327 75.1568C4.9207 77.5069 7.30931 79.9441 9.30704 79.9876C9.35047 80.0311 9.35043 80.0311 9.39386 80.0311ZM12.9116 47.608C13.9539 47.608 14.9528 47.3904 15.9082 46.9552C18.3836 45.8236 20.5551 43.2559 21.5105 40.253C22.6831 36.7278 22.0317 32.7673 20.0339 29.5468C23.1608 31.4182 26.9391 32.0275 30.37 30.9395C33.41 29.982 36.0157 27.893 37.1449 25.4123C38.0569 23.4974 38.0569 21.4084 37.2318 19.4064C35.7552 15.8812 32.3677 13.9663 28.4157 14.4885C26.418 14.7497 24.4637 15.8812 23.3345 17.4915C22.4225 18.7536 22.1185 20.1898 22.4659 21.6695C22.6831 22.5834 23.1174 23.4539 23.8122 24.2372C24.3768 24.89 25.2019 25.3688 26.114 25.6299C26.8957 25.8475 27.7208 25.804 28.546 25.5429C29.5883 25.2382 30.9346 24.5854 31.4123 23.1492C31.9334 21.6695 31.1517 20.2333 30.1094 19.5805C29.0237 18.9277 27.8077 19.0582 26.9391 19.9722C26.6785 20.2333 26.6785 20.625 26.9391 20.8861C27.1997 21.1472 27.5905 21.1472 27.8511 20.8861C28.4591 20.2768 29.0672 20.4944 29.4146 20.712C30.0226 21.0602 30.5003 21.9306 30.1963 22.7575C29.8923 23.6715 28.9369 24.1067 28.1986 24.3243C27.5906 24.4984 27.026 24.4984 26.4614 24.3678C25.81 24.1937 25.2454 23.8891 24.8546 23.4103C24.3334 22.801 23.9859 22.1047 23.8122 21.4084C23.5082 20.0157 23.986 18.9277 24.4637 18.2749C25.3757 17.0127 26.9825 16.0553 28.6328 15.8377C31.9769 15.4025 34.8432 16.9692 36.1026 19.9722C36.7975 21.626 36.7975 23.3233 36.0157 24.89C35.0169 27.0226 32.7151 28.894 30.0226 29.7209C25.2454 31.2006 19.6431 29.0681 16.7768 24.6724C15.5173 22.7575 14.9528 20.6685 15.2133 18.8406C15.3002 18.1443 15.6476 17.5785 16.1253 17.2304C16.5162 16.9692 16.9939 16.8822 17.5151 17.0127C18.1665 17.1868 18.6442 17.7526 18.7745 18.4489C18.8179 18.6665 18.7311 18.7971 18.6442 18.8841C18.4705 19.0147 18.2534 19.0582 18.0362 19.0147C17.6888 18.9277 17.3413 19.1018 17.2545 19.4499C17.1676 19.7981 17.3414 20.1463 17.6888 20.2333C18.3402 20.4074 18.9917 20.2768 19.5128 19.7981C19.9905 19.3629 20.1642 18.7971 20.0774 18.1878C19.8602 16.9257 19.0351 15.9682 17.8625 15.7071C16.9939 15.4895 16.1253 15.6201 15.4305 16.0988C14.6488 16.6211 14.0842 17.535 13.9539 18.5795C13.6065 21.2343 14.6922 23.6715 15.5173 24.9771C14.1276 24.1502 11.9128 23.1927 9.43732 23.4974C8.39503 23.6279 7.4396 24.1502 6.91846 24.9336C6.44074 25.6299 6.26702 26.5003 6.48416 27.3707C6.78816 28.5458 7.70016 29.4162 8.95959 29.6338C9.5676 29.7644 10.1756 29.5468 10.6099 29.0681C11.0442 28.5893 11.2179 27.893 11.0442 27.2837C10.9573 26.9355 10.6099 26.7179 10.2625 26.805C9.91502 26.892 9.69787 27.2402 9.78473 27.5883C9.82816 27.806 9.78474 28.0236 9.65445 28.1541C9.56759 28.2412 9.43733 28.3282 9.22018 28.2847C8.48189 28.1541 7.96073 27.6754 7.78702 27.0226C7.65673 26.5003 7.74361 26.0216 8.00418 25.6299C8.35161 25.1512 8.95959 24.803 9.61102 24.716C11.3916 24.4984 13.5196 25.1077 15.4305 26.3698C19.8168 29.3292 21.8579 34.8999 20.3379 39.6872C19.4693 42.342 17.6019 44.6051 15.4305 45.606C13.8236 46.3459 12.1299 46.3459 10.4796 45.606C7.52642 44.3439 5.96299 41.4715 6.4407 38.1204C6.65785 36.5102 7.65673 34.8999 8.91617 34.0295C9.61103 33.5507 10.6967 33.072 12.0865 33.3766C12.7813 33.5507 13.4762 33.8989 14.0842 34.4647C14.5619 34.8564 14.8659 35.4221 15.0396 36.0749C15.1699 36.6407 15.1265 37.2065 14.9528 37.8158C14.7356 38.5556 14.2579 39.5131 13.3459 39.8177C12.5208 40.0789 11.6522 39.5566 11.2613 38.8603C11.0876 38.5556 10.9139 37.9463 11.4785 37.5547C11.7825 37.3371 11.8259 36.9454 11.6088 36.6407C11.3916 36.3361 11.0007 36.2925 10.6967 36.5101C9.78474 37.2065 9.5676 38.3816 10.1322 39.4696C10.7402 40.6446 12.2602 41.6021 13.7802 41.0799C15.2133 40.6011 15.8648 39.252 16.2122 38.251C16.4728 37.4241 16.5162 36.5972 16.2991 35.8138C16.0819 34.8999 15.6042 34.1165 14.9528 33.5072C14.1711 32.8109 13.3025 32.3757 12.3905 32.1581C10.9139 31.8099 9.48072 32.1145 8.17786 32.9849C6.57099 34.073 5.39842 35.9879 5.13785 37.9899C4.57327 41.9503 6.3973 45.3449 9.95847 46.8681C10.9139 47.3904 11.9128 47.608 12.9116 47.608ZM46.5255 24.8465C48.1758 24.8465 49.9564 24.2808 51.6067 23.1057C52.9096 22.1917 54.169 20.9296 55.4719 19.624C58.425 16.7081 61.4216 13.6616 65.2433 14.2274C66.9371 14.4885 68.8914 16.3599 68.9348 17.7526C68.9348 18.4489 68.4136 18.9277 67.2845 19.1453C66.8502 19.2323 66.3725 18.8842 66.0685 18.4925C65.6776 18.0137 65.5908 17.535 65.5908 17.4044C65.9382 17.3174 66.1553 16.9692 66.0685 16.6211C65.9816 16.2729 65.6342 16.0553 65.2867 16.1423C64.6353 16.2729 64.1142 16.8822 64.3313 17.9267C64.5919 19.1888 65.9816 20.7556 67.545 20.4509C70.0205 19.9287 70.2376 18.4054 70.2376 17.7526C70.1942 15.7506 67.7622 13.357 65.417 13.0088C60.9873 12.356 57.5564 15.7506 54.5598 18.7536C53.3004 20.0157 52.0844 21.2343 50.8684 22.1047C48.6101 23.6715 45.0924 24.5419 42.4866 21.8436C40.9666 20.2333 40.5324 17.535 41.5746 15.6636C42.3129 14.358 43.6592 13.7922 45.3095 14.1404C45.8307 14.2274 46.3518 14.5321 46.7861 14.8802C47.5244 15.533 47.8718 16.534 47.6112 17.448C47.481 17.8832 47.0901 18.6665 45.9609 18.8406C45.5266 18.9277 44.9621 18.7536 44.7015 18.4489C44.5712 18.3184 44.5278 18.1443 44.6147 17.9267C44.7015 17.5785 44.5278 17.2304 44.1804 17.0998C43.8329 17.0127 43.4855 17.1868 43.3552 17.535C43.1815 18.1878 43.3118 18.7971 43.7461 19.2758C44.3106 19.8851 45.3095 20.2333 46.1781 20.0592C47.5244 19.8416 48.5232 18.9712 48.8707 17.7526C49.2615 16.3599 48.7838 14.8367 47.6547 13.8792C47.0901 13.357 46.3518 13.0088 45.5701 12.8347C43.3118 12.356 41.4443 13.1829 40.402 15.0108C39.1426 17.3174 39.6203 20.712 41.5312 22.714C42.8775 24.1502 44.6581 24.8465 46.5255 24.8465ZM9.1333 20.6685C9.87159 20.6685 10.3493 20.625 10.4362 20.5815C10.7402 20.5379 11.0007 20.2768 11.0007 19.9722C11.0007 19.7546 11.3482 14.9237 8.48187 12.1819C5.61557 9.48362 0.794964 10.0494 0.57782 10.0494C0.273818 10.0929 0.0132446 10.354 0.0132446 10.6587C0.0132446 10.8763 -0.334166 15.7071 2.53214 18.4489C4.52986 20.3639 7.48301 20.6685 9.1333 20.6685ZM9.69788 19.3194C8.43844 19.3629 5.31156 19.3194 3.4007 17.4915C1.48983 15.6636 1.27271 12.5736 1.27271 11.3115C2.53214 11.268 5.65902 11.3115 7.56989 13.1394C9.48075 14.9673 9.69788 18.0572 9.69788 19.3194ZM74.3634 17.4915C75.6662 17.4915 76.752 16.4035 76.752 15.0978C76.752 13.7922 75.6662 12.7042 74.3634 12.7042C73.0605 12.7042 71.9748 13.7922 71.9748 15.0978C71.9748 16.4035 73.0605 17.4915 74.3634 17.4915ZM74.3634 14.0098C74.9714 14.0098 75.4491 14.4885 75.4491 15.0978C75.4491 15.7071 74.9714 16.1858 74.3634 16.1858C73.7554 16.1858 73.2776 15.7071 73.2776 15.0978C73.2776 14.4885 73.7554 14.0098 74.3634 14.0098Z" fill="#BD9F57"/>
<path d="M6.70129 554C8.00416 554 9.0899 555.088 9.0899 556.394C9.0899 557.699 8.00416 558.787 6.70129 558.787C5.39843 558.787 4.31271 557.699 4.31271 556.394C4.31271 555.088 5.355 554 6.70129 554ZM6.70129 557.525C7.3093 557.525 7.78702 557.046 7.78702 556.437C7.78702 555.828 7.3093 555.349 6.70129 555.349C6.09329 555.349 5.61557 555.828 5.61557 556.437C5.61557 557.003 6.09329 557.525 6.70129 557.525ZM9.39386 560.615C10.0887 560.615 11.5219 560.92 12.043 563.313C12.347 564.88 10.7836 566.273 9.52417 566.534C8.48188 566.752 7.87388 566.229 7.74359 565.576C7.65673 565.228 7.87388 564.88 8.22131 564.793C8.56874 564.706 8.91616 564.924 9.00302 565.272C9.13331 565.315 9.61103 565.228 10.1322 564.793C10.523 564.488 10.8705 564.01 10.7836 563.575C10.5665 562.443 10.0887 561.921 9.39386 561.921C8.00414 561.964 6.13673 563.923 5.87616 565.62C5.31159 569.406 8.35159 572.453 11.2613 575.412C12.5642 576.718 13.8236 577.98 14.7356 579.286C17.2111 582.811 17.0374 586.771 14.3014 589.382C12.3036 591.297 8.91617 591.776 6.61444 590.514C4.79043 589.513 4.00871 587.598 4.44299 585.335C4.61671 584.595 4.96414 583.855 5.48529 583.246C6.48415 582.114 8.00417 581.636 9.35046 582.027C10.5665 582.376 11.435 583.377 11.6522 584.726C11.7824 585.596 11.4785 586.641 10.8705 587.163C10.3927 587.598 9.78473 587.729 9.1333 587.555C8.78587 587.468 8.56872 587.076 8.69901 586.771C8.78586 586.423 9.17674 586.205 9.48074 586.336C9.69789 586.38 9.82818 586.38 10.0019 586.249C10.3059 585.988 10.4362 585.422 10.3928 584.987C10.219 583.855 9.43731 583.464 9.00302 583.333C8.13445 583.072 7.13557 583.377 6.4407 584.16C6.09327 584.552 5.78928 585.117 5.70242 585.64C5.35499 587.337 5.91958 588.686 7.22244 589.382C9.08988 590.383 11.7824 589.992 13.3893 588.469C16.1253 585.857 15.2133 582.332 13.6499 580.069C12.7813 578.85 11.6087 577.632 10.3059 576.37C7.30929 573.367 3.87841 569.929 4.57327 565.489C4.9207 563.139 7.30931 560.702 9.30704 560.659C9.35047 560.615 9.35043 560.615 9.39386 560.615ZM12.9116 593.038C13.9539 593.038 14.9528 593.256 15.9082 593.691C18.3836 594.823 20.5551 597.39 21.5105 600.393C22.6831 603.918 22.0317 607.879 20.0339 611.099C23.1608 609.228 26.9391 608.619 30.37 609.707C33.41 610.664 36.0157 612.753 37.1449 615.234C38.0569 617.149 38.0569 619.238 37.2318 621.24C35.7552 624.765 32.3677 626.68 28.4157 626.158C26.418 625.897 24.4637 624.765 23.3345 623.155C22.4225 621.893 22.1185 620.456 22.4659 618.977C22.6831 618.063 23.1174 617.192 23.8122 616.409C24.3768 615.756 25.2019 615.277 26.114 615.016C26.8957 614.799 27.7208 614.842 28.546 615.103C29.5883 615.408 30.9346 616.061 31.4123 617.497C31.9334 618.977 31.1517 620.413 30.1094 621.066C29.0237 621.719 27.8077 621.588 26.9391 620.674C26.6785 620.413 26.6785 620.021 26.9391 619.76C27.1997 619.499 27.5905 619.499 27.8511 619.76C28.4591 620.369 29.0672 620.152 29.4146 619.934C30.0226 619.586 30.5003 618.716 30.1963 617.889C29.8923 616.975 28.9369 616.54 28.1986 616.322C27.5906 616.148 27.026 616.148 26.4614 616.278C25.81 616.453 25.2454 616.757 24.8546 617.236C24.3334 617.845 23.9859 618.542 23.8122 619.238C23.5082 620.631 23.986 621.719 24.4637 622.371C25.3757 623.633 26.9825 624.591 28.6328 624.809C31.9769 625.244 34.8432 623.677 36.1026 620.674C36.7975 619.02 36.7975 617.323 36.0157 615.756C35.0169 613.624 32.7151 611.752 30.0226 610.925C25.2454 609.446 19.6431 611.578 16.7768 615.974C15.5173 617.889 14.9528 619.978 15.2133 621.806C15.3002 622.502 15.6476 623.068 16.1253 623.416C16.5162 623.677 16.9939 623.764 17.5151 623.633C18.1665 623.459 18.6442 622.894 18.7745 622.197C18.8179 621.98 18.7311 621.849 18.6442 621.762C18.4705 621.632 18.2534 621.588 18.0362 621.632C17.6888 621.719 17.3413 621.544 17.2545 621.196C17.1676 620.848 17.3414 620.5 17.6888 620.413C18.3402 620.239 18.9917 620.369 19.5128 620.848C19.9905 621.283 20.1642 621.849 20.0774 622.458C19.8602 623.721 19.0351 624.678 17.8625 624.939C16.9939 625.157 16.1253 625.026 15.4305 624.547C14.6488 624.025 14.0842 623.111 13.9539 622.067C13.6065 619.412 14.6922 616.975 15.5173 615.669C14.1276 616.496 11.9128 617.454 9.43732 617.149C8.39503 617.018 7.4396 616.496 6.91846 615.713C6.44074 615.016 6.26702 614.146 6.48416 613.275C6.78816 612.1 7.70016 611.23 8.95959 611.012C9.5676 610.882 10.1756 611.099 10.6099 611.578C11.0442 612.057 11.2179 612.753 11.0442 613.363C10.9573 613.711 10.6099 613.928 10.2625 613.841C9.91502 613.754 9.69787 613.406 9.78473 613.058C9.82816 612.84 9.78474 612.623 9.65445 612.492C9.56759 612.405 9.43733 612.318 9.22018 612.362C8.48189 612.492 7.96073 612.971 7.78702 613.624C7.65673 614.146 7.74361 614.625 8.00418 615.016C8.35161 615.495 8.95959 615.843 9.61102 615.93C11.3916 616.148 13.5196 615.539 15.4305 614.276C19.8168 611.317 21.8579 605.746 20.3379 600.959C19.4693 598.304 17.6019 596.041 15.4305 595.04C13.8236 594.3 12.1299 594.3 10.4796 595.04C7.52642 596.302 5.96299 599.175 6.4407 602.526C6.65785 604.136 7.65673 605.746 8.91617 606.617C9.61103 607.096 10.6967 607.574 12.0865 607.27C12.7813 607.096 13.4762 606.747 14.0842 606.182C14.5619 605.79 14.8659 605.224 15.0396 604.571C15.1699 604.006 15.1265 603.44 14.9528 602.83C14.7356 602.091 14.2579 601.133 13.3459 600.828C12.5208 600.567 11.6522 601.09 11.2613 601.786C11.0876 602.091 10.9139 602.7 11.4785 603.092C11.7825 603.309 11.8259 603.701 11.6088 604.006C11.3916 604.31 11.0007 604.354 10.6967 604.136C9.78474 603.44 9.5676 602.265 10.1322 601.177C10.7402 600.002 12.2602 599.044 13.7802 599.566C15.2133 600.045 15.8648 601.394 16.2122 602.395C16.4728 603.222 16.5162 604.049 16.2991 604.832C16.0819 605.746 15.6042 606.53 14.9528 607.139C14.1711 607.835 13.3025 608.271 12.3905 608.488C10.9139 608.836 9.48072 608.532 8.17786 607.661C6.57099 606.573 5.39842 604.658 5.13785 602.656C4.57327 598.696 6.3973 595.301 9.95847 593.778C10.9139 593.256 11.9128 593.038 12.9116 593.038ZM46.5255 615.8C48.1758 615.8 49.9564 616.365 51.6067 617.541C52.9096 618.454 54.169 619.717 55.4719 621.022C58.425 623.938 61.4216 626.985 65.2433 626.419C66.9371 626.158 68.8914 624.286 68.9348 622.894C68.9348 622.197 68.4136 621.719 67.2845 621.501C66.8502 621.414 66.3725 621.762 66.0685 622.154C65.6776 622.633 65.5908 623.111 65.5908 623.242C65.9382 623.329 66.1553 623.677 66.0685 624.025C65.9816 624.373 65.6342 624.591 65.2867 624.504C64.6353 624.373 64.1142 623.764 64.3313 622.72C64.5919 621.457 65.9816 619.891 67.545 620.195C70.0205 620.718 70.2376 622.241 70.2376 622.894C70.1942 624.896 67.7622 627.289 65.417 627.637C60.9873 628.29 57.5564 624.896 54.5598 621.893C53.3004 620.631 52.0844 619.412 50.8684 618.542C48.6101 616.975 45.0924 616.104 42.4866 618.803C40.9666 620.413 40.5324 623.111 41.5746 624.983C42.3129 626.288 43.6592 626.854 45.3095 626.506C45.8307 626.419 46.3518 626.114 46.7861 625.766C47.5244 625.113 47.8718 624.112 47.6112 623.198C47.481 622.763 47.0901 621.98 45.9609 621.806C45.5266 621.719 44.9621 621.893 44.7015 622.197C44.5712 622.328 44.5278 622.502 44.6147 622.72C44.7015 623.068 44.5278 623.416 44.1804 623.546C43.8329 623.633 43.4855 623.459 43.3552 623.111C43.1815 622.458 43.3118 621.849 43.7461 621.37C44.3106 620.761 45.3095 620.413 46.1781 620.587C47.5244 620.805 48.5232 621.675 48.8707 622.894C49.2615 624.286 48.7838 625.81 47.6547 626.767C47.0901 627.289 46.3518 627.637 45.5701 627.812C43.3118 628.29 41.4443 627.463 40.402 625.635C39.1426 623.329 39.6203 619.934 41.5312 617.932C42.8775 616.496 44.6581 615.8 46.5255 615.8ZM9.1333 619.978C9.87159 619.978 10.3493 620.021 10.4362 620.065C10.7402 620.108 11.0007 620.369 11.0007 620.674C11.0007 620.892 11.3482 625.723 8.48187 628.464C5.61557 631.163 0.794964 630.597 0.57782 630.597C0.273818 630.553 0.0132446 630.292 0.0132446 629.988C0.0132446 629.77 -0.334166 624.939 2.53214 622.197C4.52986 620.282 7.48301 619.978 9.1333 619.978ZM9.69788 621.327C8.43844 621.283 5.31156 621.327 3.4007 623.155C1.48983 624.983 1.27271 628.073 1.27271 629.335C2.53214 629.378 5.65902 629.335 7.56989 627.507C9.48075 625.679 9.69788 622.589 9.69788 621.327ZM74.3634 623.155C75.6662 623.155 76.752 624.243 76.752 625.548C76.752 626.854 75.6662 627.942 74.3634 627.942C73.0605 627.942 71.9748 626.854 71.9748 625.548C71.9748 624.243 73.0605 623.155 74.3634 623.155ZM74.3634 626.636C74.9714 626.636 75.4491 626.158 75.4491 625.548C75.4491 624.939 74.9714 624.46 74.3634 624.46C73.7554 624.46 73.2776 624.939 73.2776 625.548C73.2776 626.158 73.7554 626.636 74.3634 626.636Z" fill="#BD9F57"/>
<path d="M330.051 554C328.748 554 327.662 555.088 327.662 556.394C327.662 557.699 328.748 558.787 330.051 558.787C331.354 558.787 332.439 557.699 332.439 556.394C332.439 555.088 331.397 554 330.051 554ZM330.051 557.525C329.443 557.525 328.965 557.046 328.965 556.437C328.965 555.828 329.443 555.349 330.051 555.349C330.659 555.349 331.136 555.828 331.136 556.437C331.136 557.003 330.659 557.525 330.051 557.525ZM327.358 560.615C326.663 560.615 325.23 560.92 324.709 563.313C324.405 564.88 325.968 566.273 327.228 566.534C328.27 566.752 328.878 566.229 329.008 565.576C329.095 565.228 328.878 564.88 328.531 564.793C328.183 564.706 327.836 564.924 327.749 565.272C327.619 565.315 327.141 565.228 326.62 564.793C326.229 564.488 325.881 564.01 325.968 563.575C326.185 562.443 326.663 561.921 327.358 561.921C328.748 561.964 330.615 563.923 330.876 565.62C331.44 569.406 328.4 572.453 325.491 575.412C324.188 576.718 322.928 577.98 322.016 579.286C319.541 582.811 319.715 586.771 322.451 589.382C324.448 591.297 327.836 591.776 330.138 590.514C331.962 589.513 332.743 587.598 332.309 585.335C332.135 584.595 331.788 583.855 331.267 583.246C330.268 582.114 328.748 581.636 327.401 582.027C326.185 582.376 325.317 583.377 325.1 584.726C324.97 585.596 325.273 586.641 325.882 587.163C326.359 587.598 326.967 587.729 327.619 587.555C327.966 587.468 328.183 587.076 328.053 586.771C327.966 586.423 327.575 586.205 327.271 586.336C327.054 586.38 326.924 586.38 326.75 586.249C326.446 585.988 326.316 585.422 326.359 584.987C326.533 583.855 327.315 583.464 327.749 583.333C328.618 583.072 329.616 583.377 330.311 584.16C330.659 584.552 330.963 585.117 331.05 585.64C331.397 587.337 330.832 588.686 329.53 589.382C327.662 590.383 324.97 589.992 323.363 588.469C320.627 585.857 321.539 582.332 323.102 580.069C323.971 578.85 325.143 577.632 326.446 576.37C329.443 573.367 332.874 569.929 332.179 565.489C331.831 563.139 329.443 560.702 327.445 560.659C327.401 560.615 327.402 560.615 327.358 560.615ZM323.84 593.038C322.798 593.038 321.799 593.256 320.844 593.691C318.368 594.823 316.197 597.39 315.241 600.393C314.069 603.918 314.72 607.879 316.718 611.099C313.591 609.228 309.813 608.619 306.382 609.707C303.342 610.664 300.736 612.753 299.607 615.234C298.695 617.149 298.695 619.238 299.52 621.24C300.997 624.765 304.384 626.68 308.336 626.158C310.334 625.897 312.288 624.765 313.417 623.155C314.329 621.893 314.633 620.456 314.286 618.977C314.069 618.063 313.635 617.192 312.94 616.409C312.375 615.756 311.55 615.277 310.638 615.016C309.856 614.799 309.031 614.842 308.206 615.103C307.164 615.408 305.817 616.061 305.34 617.497C304.819 618.977 305.6 620.413 306.643 621.066C307.728 621.719 308.944 621.588 309.813 620.674C310.073 620.413 310.073 620.021 309.813 619.76C309.552 619.499 309.161 619.499 308.901 619.76C308.293 620.369 307.685 620.152 307.337 619.934C306.729 619.586 306.252 618.716 306.556 617.889C306.86 616.975 307.815 616.54 308.553 616.322C309.161 616.148 309.726 616.148 310.291 616.278C310.942 616.453 311.507 616.757 311.897 617.236C312.419 617.845 312.766 618.542 312.94 619.238C313.244 620.631 312.766 621.719 312.288 622.371C311.376 623.633 309.769 624.591 308.119 624.809C304.775 625.244 301.909 623.677 300.649 620.674C299.954 619.02 299.954 617.323 300.736 615.756C301.735 613.624 304.037 611.752 306.729 610.925C311.507 609.446 317.109 611.578 319.975 615.974C321.235 617.889 321.799 619.978 321.539 621.806C321.452 622.502 321.104 623.068 320.627 623.416C320.236 623.677 319.758 623.764 319.237 623.633C318.585 623.459 318.108 622.894 317.977 622.197C317.934 621.98 318.021 621.849 318.108 621.762C318.281 621.632 318.499 621.588 318.716 621.632C319.063 621.719 319.411 621.544 319.497 621.196C319.584 620.848 319.411 620.5 319.063 620.413C318.412 620.239 317.76 620.369 317.239 620.848C316.761 621.283 316.588 621.849 316.675 622.458C316.892 623.721 317.717 624.678 318.889 624.939C319.758 625.157 320.627 625.026 321.321 624.547C322.103 624.025 322.668 623.111 322.798 622.067C323.145 619.412 322.06 616.975 321.235 615.669C322.624 616.496 324.839 617.454 327.315 617.149C328.357 617.018 329.312 616.496 329.833 615.713C330.311 615.016 330.485 614.146 330.268 613.275C329.964 612.1 329.052 611.23 327.792 611.012C327.184 610.882 326.576 611.099 326.142 611.578C325.708 612.057 325.534 612.753 325.708 613.363C325.795 613.711 326.142 613.928 326.49 613.841C326.837 613.754 327.054 613.406 326.967 613.058C326.924 612.84 326.967 612.623 327.098 612.492C327.184 612.405 327.315 612.318 327.532 612.362C328.27 612.492 328.791 612.971 328.965 613.624C329.095 614.146 329.008 614.625 328.748 615.016C328.4 615.495 327.792 615.843 327.141 615.93C325.36 616.148 323.232 615.539 321.321 614.276C316.935 611.317 314.894 605.746 316.414 600.959C317.283 598.304 319.15 596.041 321.321 595.04C322.928 594.3 324.622 594.3 326.272 595.04C329.226 596.302 330.789 599.175 330.311 602.526C330.094 604.136 329.095 605.746 327.836 606.617C327.141 607.096 326.055 607.574 324.665 607.27C323.971 607.096 323.276 606.747 322.668 606.182C322.19 605.79 321.886 605.224 321.712 604.571C321.582 604.006 321.625 603.44 321.799 602.83C322.016 602.091 322.494 601.133 323.406 600.828C324.231 600.567 325.1 601.09 325.491 601.786C325.664 602.091 325.838 602.7 325.273 603.092C324.969 603.309 324.926 603.701 325.143 604.006C325.36 604.31 325.751 604.354 326.055 604.136C326.967 603.44 327.184 602.265 326.62 601.177C326.012 600.002 324.492 599.044 322.972 599.566C321.539 600.045 320.887 601.394 320.54 602.395C320.279 603.222 320.236 604.049 320.453 604.832C320.67 605.746 321.148 606.53 321.799 607.139C322.581 607.835 323.449 608.271 324.361 608.488C325.838 608.836 327.271 608.532 328.574 607.661C330.181 606.573 331.354 604.658 331.614 602.656C332.179 598.696 330.355 595.301 326.793 593.778C325.838 593.256 324.839 593.038 323.84 593.038ZM290.226 615.8C288.576 615.8 286.796 616.365 285.145 617.541C283.842 618.454 282.583 619.717 281.28 621.022C278.327 623.938 275.33 626.985 271.509 626.419C269.815 626.158 267.861 624.286 267.817 622.894C267.817 622.197 268.338 621.719 269.467 621.501C269.902 621.414 270.38 621.762 270.684 622.154C271.074 622.633 271.161 623.111 271.161 623.242C270.814 623.329 270.597 623.677 270.684 624.025C270.77 624.373 271.118 624.591 271.465 624.504C272.117 624.373 272.638 623.764 272.421 622.72C272.16 621.457 270.77 619.891 269.207 620.195C266.731 620.718 266.514 622.241 266.514 622.894C266.558 624.896 268.99 627.289 271.335 627.637C275.765 628.29 279.196 624.896 282.192 621.893C283.452 620.631 284.668 619.412 285.884 618.542C288.142 616.975 291.66 616.104 294.265 618.803C295.785 620.413 296.22 623.111 295.177 624.983C294.439 626.288 293.093 626.854 291.442 626.506C290.921 626.419 290.4 626.114 289.966 625.766C289.228 625.113 288.88 624.112 289.141 623.198C289.271 622.763 289.662 621.98 290.791 621.806C291.225 621.719 291.79 621.893 292.05 622.197C292.181 622.328 292.224 622.502 292.137 622.72C292.05 623.068 292.224 623.416 292.572 623.546C292.919 623.633 293.266 623.459 293.397 623.111C293.57 622.458 293.44 621.849 293.006 621.37C292.441 620.761 291.442 620.413 290.574 620.587C289.228 620.805 288.229 621.675 287.881 622.894C287.49 624.286 287.968 625.81 289.097 626.767C289.662 627.289 290.4 627.637 291.182 627.812C293.44 628.29 295.308 627.463 296.35 625.635C297.609 623.329 297.132 619.934 295.221 617.932C293.874 616.496 292.094 615.8 290.226 615.8ZM327.619 619.978C326.88 619.978 326.403 620.021 326.316 620.065C326.012 620.108 325.751 620.369 325.751 620.674C325.751 620.892 325.404 625.723 328.27 628.464C331.136 631.163 335.957 630.597 336.174 630.597C336.478 630.553 336.739 630.292 336.739 629.988C336.739 629.77 337.086 624.939 334.22 622.197C332.222 620.282 329.269 619.978 327.619 619.978ZM327.054 621.327C328.314 621.283 331.44 621.327 333.351 623.155C335.262 624.983 335.479 628.073 335.479 629.335C334.22 629.378 331.093 629.335 329.182 627.507C327.271 625.679 327.054 622.589 327.054 621.327ZM262.389 623.155C261.086 623.155 260 624.243 260 625.548C260 626.854 261.086 627.942 262.389 627.942C263.691 627.942 264.777 626.854 264.777 625.548C264.777 624.243 263.691 623.155 262.389 623.155ZM262.389 626.636C261.781 626.636 261.303 626.158 261.303 625.548C261.303 624.939 261.781 624.46 262.389 624.46C262.997 624.46 263.474 624.939 263.474 625.548C263.474 626.158 262.997 626.636 262.389 626.636Z" fill="#BD9F57"/>
<line x1="5.5" y1="95" x2="5.49998" y2="545" stroke="#BD9F57"/>
<line x1="330.5" y1="95" x2="330.5" y2="545" stroke="#BD9F57"/>
</svg>
