<svg width="129" height="136" viewBox="0 0 129 136" fill="none" xmlns="http://www.w3.org/2000/svg">
<path d="M88.5682 11.6588C102.413 17.2271 113.898 27.4235 121.068 40.5108C128.237 53.598 130.647 68.7663 127.887 83.4312C125.127 98.0961 117.367 111.35 105.93 120.935C94.4926 130.52 80.0859 135.843 65.1643 135.997C50.2426 136.15 35.7294 131.125 24.0973 121.778C12.4652 112.431 4.4341 99.3391 1.3723 84.7342C-1.6895 70.1293 0.407482 54.9145 7.30594 41.6824C14.2044 28.4503 25.4775 18.0194 39.2045 12.1672L39.6463 13.2035C26.1591 18.9535 15.0829 29.2022 8.30488 42.2032C1.52692 55.2042 -0.533435 70.1532 2.47489 84.503C5.48321 98.8529 13.3741 111.716 24.803 120.9C36.2319 130.084 50.4917 135.021 65.1526 134.87C79.8136 134.719 93.9687 129.489 105.206 120.072C116.443 110.654 124.068 97.6316 126.78 83.2228C129.492 68.8141 127.124 53.9107 120.08 41.052C113.036 28.1934 101.751 18.175 88.1478 12.704L88.5682 11.6588Z" fill="#BD9F57"/>
<g clip-path="url(#clip0_220_2)">
<path fill-rule="evenodd" clip-rule="evenodd" d="M64.2757 34L65.6849 20.7778L72.4245 25.4695L67.6455 18.828L78 17.4265L67.6455 16.0251L72.4245 9.38351L65.6849 14.0753L64.2757 0L62.9278 14.0753L56.1882 9.38351L60.9672 16.0251L50 17.1219L60.9672 18.828L56.1882 25.4695L62.9278 20.7778L64.2757 34Z" fill="#B8A36E"/>
</g>
<defs>
<clipPath id="clip0_220_2">
<rect width="28" height="34" fill="white" transform="translate(50)"/>
</clipPath>
</defs>
</svg>
