<svg width="60" height="57" viewBox="0 0 60 57" fill="none" xmlns="http://www.w3.org/2000/svg">
<g clip-path="url(#clip0_48_307)">
<path d="M59.0958 50.2194H28.8849C28.3906 50.2194 27.9807 49.8121 27.9807 49.3209V0.898487C27.9807 0.407314 28.3906 0 28.8849 0H59.1079C59.6022 0 60.0121 0.407314 60.0121 0.898487V49.3209C60 49.8241 59.6022 50.2194 59.0958 50.2194ZM29.789 48.4224H58.2037V1.79697H29.789V48.4224Z" fill="#B8A36E"/>
<path d="M52.827 46.4098H35.1537C34.8403 46.4098 34.5509 46.2421 34.3822 45.9785C33.8879 45.1879 33.2248 44.4931 32.4412 43.9779C32.1881 43.8102 32.0434 43.5347 32.0434 43.2352V6.98422C32.0434 6.68473 32.2001 6.39721 32.4412 6.24147C33.2248 5.72634 33.8999 5.03151 34.3822 4.24084C34.5509 3.97729 34.8403 3.80957 35.1537 3.80957H52.8149C53.1284 3.80957 53.4177 3.97729 53.5865 4.24084C54.0808 5.03151 54.7438 5.72634 55.5274 6.24147C55.7806 6.40919 55.9253 6.68473 55.9253 6.98422V43.2352C55.9253 43.5347 55.7685 43.8222 55.5274 43.9779C54.7438 44.4931 54.0687 45.1879 53.5865 45.9785C53.4298 46.2541 53.1404 46.4098 52.827 46.4098ZM35.648 44.6129H52.3327C52.827 43.906 53.4418 43.2831 54.129 42.768V7.45144C53.4418 6.9363 52.827 6.30137 52.3327 5.60654H35.648C35.1537 6.31335 34.5389 6.9363 33.8517 7.45144V42.768C34.5389 43.2831 35.1537 43.918 35.648 44.6129Z" fill="#B8A36E"/>
<path d="M43.9903 34.3941C43.6287 34.3941 43.3032 34.1784 43.1585 33.855L41.314 29.71L36.7812 30.2011C36.4195 30.2371 36.082 30.0694 35.9011 29.7579C35.7203 29.4464 35.7444 29.063 35.9494 28.7755L38.6498 25.1217L35.9494 21.4678C35.7324 21.1803 35.7203 20.797 35.9011 20.4855C36.082 20.174 36.4195 20.0063 36.7812 20.0422L41.314 20.5334L43.1585 16.3884C43.3032 16.0649 43.6287 15.8493 43.9903 15.8493C44.352 15.8493 44.6775 16.0649 44.8222 16.3884L46.6667 20.5334L51.1995 20.0422C51.5612 20.0063 51.8987 20.174 52.0796 20.4855C52.2604 20.797 52.2363 21.1803 52.0313 21.4678L49.3309 25.1217L52.0313 28.7755C52.2483 29.063 52.2604 29.4464 52.0796 29.7579C51.8987 30.0694 51.5491 30.2371 51.1995 30.2011L46.6667 29.71L44.8222 33.855C44.6775 34.1784 44.352 34.3941 43.9903 34.3941ZM41.8806 27.8411C42.2303 27.8411 42.5678 28.0448 42.7125 28.3802L43.9903 31.2673L45.2682 28.3802C45.4249 28.0208 45.7987 27.8052 46.1965 27.8531L49.355 28.1885L47.4744 25.6368C47.2453 25.3253 47.2453 24.8941 47.4744 24.5706L49.355 22.0189L46.1965 22.3543C45.7987 22.4023 45.4249 22.1866 45.2682 21.8272L43.9903 18.9401L42.7125 21.8272C42.5557 22.1866 42.182 22.4023 41.7842 22.3543L38.6257 22.0189L40.5063 24.5706C40.7354 24.8821 40.7354 25.3134 40.5063 25.6368L38.6257 28.1885L41.7842 27.8531C41.8204 27.8411 41.8445 27.8411 41.8806 27.8411Z" fill="#B8A36E"/>
<path d="M43.9903 14.3758C42.9656 14.3758 42.1338 13.5492 42.1338 12.5309C42.1338 11.5126 42.9656 10.686 43.9903 10.686C45.015 10.686 45.8469 11.5126 45.8469 12.5309C45.8469 13.5492 45.015 14.3758 43.9903 14.3758ZM43.9903 12.471C43.9662 12.471 43.9421 12.4949 43.9421 12.5189C43.9421 12.5428 43.9662 12.5668 43.9903 12.5668C44.0144 12.5668 44.0385 12.5428 44.0385 12.5189C44.0385 12.4949 44.0144 12.471 43.9903 12.471Z" fill="#B8A36E"/>
<path d="M43.9904 9.35622C43.2791 9.35622 42.7004 8.78119 42.7004 8.07438C42.7004 7.36757 43.2791 6.79254 43.9904 6.79254C44.7016 6.79254 45.2803 7.36757 45.2803 8.07438C45.2803 8.78119 44.7016 9.35622 43.9904 9.35622ZM43.9904 7.55925C43.701 7.55925 43.472 7.78687 43.472 8.07438C43.472 8.3619 43.701 8.58951 43.9904 8.58951C44.2797 8.58951 44.5088 8.3619 44.5088 8.07438C44.5088 7.78687 44.2797 7.55925 43.9904 7.55925Z" fill="#B8A36E"/>
<path d="M43.9903 39.6413C42.9656 39.6413 42.1338 38.8147 42.1338 37.7964C42.1338 36.7781 42.9656 35.9515 43.9903 35.9515C45.015 35.9515 45.8469 36.7781 45.8469 37.7964C45.8469 38.8147 45.015 39.6413 43.9903 39.6413ZM43.9903 37.7485C43.9662 37.7485 43.9421 37.7724 43.9421 37.7964C43.9421 37.8203 43.9662 37.8443 43.9903 37.8443C44.0144 37.8443 44.0385 37.8203 44.0385 37.7964C44.0385 37.7724 44.0144 37.7485 43.9903 37.7485Z" fill="#B8A36E"/>
<path d="M43.9904 43.5227C43.2791 43.5227 42.7004 42.9476 42.7004 42.2408C42.7004 41.534 43.2791 40.959 43.9904 40.959C44.7016 40.959 45.2803 41.534 45.2803 42.2408C45.2803 42.9476 44.7016 43.5227 43.9904 43.5227ZM43.9904 41.7257C43.701 41.7257 43.472 41.9533 43.472 42.2408C43.472 42.5283 43.701 42.756 43.9904 42.756C44.2797 42.756 44.5088 42.5283 44.5088 42.2408C44.5088 41.9533 44.2797 41.7257 43.9904 41.7257Z" fill="#B8A36E"/>
<path d="M25.5094 49.9319C25.1356 49.9319 24.774 49.6923 24.6534 49.3209L11.5491 10.71C11.3924 10.2428 11.6456 9.72763 12.1157 9.5719L25.3406 5.13936C25.8107 4.98362 26.3291 5.2352 26.4858 5.70241C26.6426 6.16963 26.3894 6.68476 25.9192 6.8405L13.5503 10.9855L26.3653 48.7459C26.522 49.2131 26.2688 49.7283 25.7987 49.884C25.7022 49.9199 25.6058 49.9319 25.5094 49.9319Z" fill="#B8A36E"/>
<path d="M27.1007 43.9899C26.7269 43.9899 26.3653 43.7503 26.2447 43.3789L16.4316 14.4836C16.3351 14.1961 16.3834 13.8846 16.5762 13.645C17.0464 13.046 17.384 12.3272 17.5527 11.5845C17.6251 11.285 17.8421 11.0334 18.1435 10.9376L25.7143 8.39784C26.1844 8.24211 26.7028 8.49368 26.8596 8.9609C27.0163 9.42811 26.7631 9.94324 26.2929 10.099L19.1802 12.483C18.9753 13.1419 18.6739 13.7768 18.2881 14.3398L27.9687 42.8039C28.1254 43.2711 27.8722 43.7862 27.402 43.942C27.2935 43.9779 27.1971 43.9899 27.1007 43.9899Z" fill="#B8A36E"/>
<path d="M26.6667 57C26.6305 57 26.6064 57 26.5702 57C26.3291 56.976 26.1121 56.8563 25.9675 56.6766L0.204971 24.9779C0.0482499 24.7982 -0.0240829 24.5586 2.80198e-05 24.319C0.0241389 24.0794 0.144693 23.8638 0.325525 23.7201L10.7535 15.3462C11.1393 15.0347 11.7059 15.0946 12.0193 15.4779C12.3328 15.8613 12.2725 16.4243 11.8867 16.7358L2.17001 24.5467L26.7993 54.8436L31.2839 51.2497C31.6697 50.9382 32.2363 50.9981 32.5498 51.3815C32.8632 51.7648 32.8029 52.3279 32.4171 52.6394L27.2333 56.8083C27.0766 56.9401 26.8716 57 26.6667 57Z" fill="#B8A36E"/>
<path d="M26.088 50.8903C25.8228 50.8903 25.5576 50.7705 25.3888 50.5548L6.10009 26.8348C5.90721 26.5952 5.84693 26.2837 5.94337 25.9962C6.17243 25.2654 6.24476 24.4867 6.14832 23.732C6.11215 23.4205 6.2327 23.1091 6.47381 22.9174L11.8505 18.6046C12.2363 18.2932 12.8029 18.3531 13.1164 18.7364C13.4298 19.1198 13.3695 19.6828 12.9838 19.9943L7.9928 24.0075C8.02897 24.6904 7.96869 25.3852 7.81197 26.0561L26.8114 49.4167C27.1248 49.8001 27.0645 50.3632 26.6788 50.6746C26.4979 50.8184 26.293 50.8903 26.088 50.8903Z" fill="#B8A36E"/>
</g>
<defs>
<clipPath id="clip0_48_307">
<rect width="60" height="57" fill="white"/>
</clipPath>
</defs>
</svg>
