<svg width="60" height="63" viewBox="0 0 60 63" fill="none" xmlns="http://www.w3.org/2000/svg">
<g clip-path="url(#clip0_48_361)">
<path d="M29.9357 33.462C26.2982 33.462 23.3419 30.503 23.3419 26.8622C23.3419 23.2214 26.2982 20.2625 29.9357 20.2625C33.5733 20.2625 36.5296 23.2214 36.5296 26.8622C36.5424 30.4901 33.5733 33.462 29.9357 33.462ZM29.9357 22.1793C27.3651 22.1793 25.2699 24.2763 25.2699 26.8493C25.2699 29.4223 27.3651 31.5193 29.9357 31.5193C32.5064 31.5193 34.6016 29.4223 34.6016 26.8493C34.6016 24.2763 32.5193 22.1793 29.9357 22.1793Z" fill="#B8A36E"/>
<path d="M29.9229 59.4107C28.5604 59.4107 27.365 58.4587 27.0823 57.0693C26.7866 55.5641 27.7121 54.0846 29.1902 53.6987C29.2031 53.6987 29.2031 53.6987 29.2159 53.6858L36.0797 52.1034C36.7609 51.949 37.1851 51.28 37.0566 50.5982C37.0566 50.5853 37.0566 50.5853 37.0566 50.5725L35.5141 41.5283C35.4242 41.0009 35.7712 40.4992 36.2982 40.4091C36.8252 40.319 37.3265 40.6664 37.4165 41.1939L38.9589 50.2251C39.2931 51.9362 38.2262 53.5829 36.5296 53.9688L29.6787 55.5384C29.1902 55.667 28.8818 56.1687 28.9846 56.6705C29.0874 57.1851 29.5758 57.5196 30.09 57.4424L40.2314 55.8728C41.4653 55.6799 42.3265 54.5606 42.1851 53.3127L41.054 41.7857C40.8226 39.6501 39.5758 37.7074 37.7249 36.5882L34.5887 34.7356C34.126 34.4655 33.9846 33.8737 34.2545 33.4105C34.5244 32.9474 35.1157 32.8059 35.5784 33.076L38.689 34.9543C41.054 36.3695 42.6478 38.8653 42.9435 41.6055L44.0746 53.1326C44.3316 55.3968 42.7507 57.4552 40.4884 57.8026L30.3471 59.3721C30.2185 59.3979 30.0643 59.4107 29.9229 59.4107Z" fill="#B8A36E"/>
<path d="M26.1954 54.7793C26.1311 54.7793 26.0668 54.7793 26.0026 54.7536L23.509 54.2518C21.8252 53.9045 20.7069 52.2578 21.0283 50.5596L22.5836 41.2067C22.6735 40.6792 23.162 40.319 23.689 40.4091C24.2159 40.4991 24.563 40.988 24.4859 41.5155L22.9306 50.8812C22.9306 50.8941 22.9306 50.8941 22.9306 50.9069C22.8021 51.563 23.2391 52.2192 23.8946 52.3478L26.3882 52.8495C26.9152 52.9525 27.2494 53.4671 27.1465 53.9817C27.0437 54.4705 26.6452 54.7793 26.1954 54.7793Z" fill="#B8A36E"/>
<path d="M29.3187 59.2949C29.2673 59.2949 29.2159 59.2949 29.1773 59.2821L19.4987 57.8026C17.2365 57.4552 15.6555 55.3968 15.9126 53.1197L17.0437 41.6184C17.3522 38.8653 18.946 36.3823 21.2982 34.9543L24.4087 33.076C24.8714 32.8059 25.4627 32.9474 25.7326 33.4105C26.0025 33.8737 25.8612 34.4655 25.3984 34.7356L22.2879 36.6139C20.437 37.7203 19.1902 39.6758 18.9588 41.8242L17.8277 53.3256C17.6863 54.5863 18.5475 55.7056 19.7815 55.8986L29.4601 57.3781C29.9871 57.4552 30.347 57.957 30.2699 58.4716C30.1928 58.9476 29.7815 59.2949 29.3187 59.2949Z" fill="#B8A36E"/>
<path d="M45.7584 63H14.0745C11.1697 63 8.80463 60.6328 8.80463 57.7253C8.80463 56.1815 9.48586 54.7149 10.6555 53.7115C11.838 52.708 13.3805 52.2706 14.91 52.5279L16.7224 52.8238C17.2494 52.9138 17.6093 53.4027 17.5193 53.9302C17.4293 54.4576 16.9409 54.8179 16.4139 54.7278L14.6015 54.4319C13.6375 54.2775 12.6478 54.5477 11.9023 55.1909C11.1568 55.8213 10.7326 56.7605 10.7326 57.7382C10.7326 59.5779 12.2236 61.0831 14.0745 61.0831H45.7584C47.5964 61.0831 49.1003 59.5908 49.1003 57.7382C49.1003 56.7605 48.6761 55.8342 47.9306 55.1909C47.1851 54.5606 46.1954 54.2775 45.2314 54.4319L43.419 54.7278C42.892 54.8179 42.4036 54.4576 42.3136 53.9302C42.2237 53.4027 42.5835 52.9138 43.1105 52.8238L44.9229 52.5279C46.4524 52.2834 47.9949 52.708 49.1774 53.7115C50.3599 54.7149 51.0283 56.1815 51.0283 57.7253C51.0283 60.6328 48.6632 63 45.7584 63Z" fill="#B8A36E"/>
<path d="M20.8355 30.3357C20.7969 30.3357 20.7712 30.3357 20.7326 30.3357L0.861183 28.3159C0.372751 28.2644 0 27.8527 0 27.351C0 26.8621 0.372751 26.4376 0.861183 26.3861L20.5141 24.3921C21.0411 24.3406 21.5167 24.7265 21.5681 25.254C21.6195 25.7815 21.2339 26.2575 20.7069 26.3089L10.4884 27.351L20.9126 28.4059C21.4396 28.4574 21.8252 28.9334 21.7738 29.4609C21.7352 29.9626 21.3239 30.3357 20.8355 30.3357Z" fill="#B8A36E"/>
<path d="M22.6992 21.3559C22.4036 21.3559 22.108 21.2144 21.9152 20.9571L14.3702 10.6393C14.0746 10.2405 14.1388 9.67445 14.5116 9.33996C14.8843 9.00547 15.4499 9.01833 15.8098 9.36569L24.8201 17.9467C25.2057 18.3197 25.2185 18.9244 24.8586 19.3103C24.4859 19.6963 23.8818 19.7092 23.4961 19.3489L22.2751 18.1911L23.4704 19.8249C23.7789 20.2495 23.689 20.8541 23.2648 21.1758C23.0977 21.2916 22.9049 21.3559 22.6992 21.3559Z" fill="#B8A36E"/>
<path d="M32.5064 18.8858C32.0308 18.8858 31.6195 18.5385 31.5553 18.0625L30 7.5775L28.4576 18.0496C28.3805 18.5771 27.892 18.9373 27.365 18.8601C26.838 18.7829 26.4781 18.2941 26.5553 17.7666L29.0488 0.823361C29.1131 0.347356 29.5244 0 30 0C30.4756 0 30.8869 0.347356 30.9511 0.823361L33.4576 17.7795C33.5347 18.3069 33.1748 18.7958 32.6478 18.873C32.5964 18.873 32.5578 18.8858 32.5064 18.8858Z" fill="#B8A36E"/>
<path d="M36.8509 21.9348C36.6581 21.9348 36.4524 21.8705 36.2853 21.7418C35.8612 21.4331 35.7583 20.8284 36.0797 20.391L37.8149 18.011L36.0668 19.6577C35.6812 20.0179 35.0642 20.0051 34.7043 19.6191C34.3444 19.2331 34.3573 18.6156 34.7429 18.2554L44.1774 9.35281C44.5372 9.00546 45.1028 9.00546 45.4755 9.32709C45.8483 9.66158 45.9126 10.2148 45.6169 10.6265L37.6349 21.5231C37.4421 21.7933 37.1465 21.9348 36.8509 21.9348Z" fill="#B8A36E"/>
<path d="M47.545 37.3086C47.3265 37.3086 47.108 37.2314 46.928 37.0899L38.5218 30.1171C38.1105 29.7826 38.0591 29.165 38.3933 28.7534C38.7275 28.3417 39.3445 28.2902 39.7558 28.6247L48.1619 35.5976C48.5733 35.932 48.6247 36.5496 48.2905 36.9612C48.0977 37.1928 47.8278 37.3086 47.545 37.3086Z" fill="#B8A36E"/>
<path d="M52.2493 41.2067C52.0308 41.2067 51.8123 41.1295 51.6324 40.988L50.7841 40.2804C50.3727 39.9459 50.3213 39.3284 50.6555 38.9167C50.9897 38.505 51.6067 38.4536 52.018 38.788L52.8663 39.4956C53.2776 39.8301 53.329 40.4476 52.9948 40.8593C52.802 41.0909 52.5321 41.2067 52.2493 41.2067Z" fill="#B8A36E"/>
<path d="M39.2159 23.5044C38.8946 23.5044 38.5861 23.3501 38.3933 23.0542C38.1105 22.6039 38.2519 22.0121 38.7018 21.7291L44.9743 17.7924C45.4242 17.5093 46.0154 17.6509 46.2982 18.1011C46.581 18.5514 46.4396 19.1432 45.9897 19.4262L39.7172 23.3629C39.5758 23.4658 39.3959 23.5044 39.2159 23.5044Z" fill="#B8A36E"/>
<path d="M48.0077 18.0882C47.6864 18.0882 47.3779 17.9338 47.198 17.6379C46.9152 17.1876 47.0437 16.5959 47.4936 16.3L48.4319 15.7082C48.8818 15.4251 49.473 15.5538 49.7687 16.0041C50.0514 16.4543 49.9229 17.0461 49.473 17.342L48.5347 17.9338C48.3676 18.0496 48.1877 18.0882 48.0077 18.0882Z" fill="#B8A36E"/>
<path d="M21.4267 23.5044C21.2468 23.5044 21.0797 23.453 20.9126 23.3629L14.6401 19.4262C14.1902 19.1432 14.0488 18.5514 14.3316 18.1011C14.6144 17.6509 15.2056 17.5093 15.6555 17.7924L21.928 21.7291C22.3779 22.0121 22.5193 22.6039 22.2365 23.0542C22.0565 23.3501 21.7481 23.5044 21.4267 23.5044Z" fill="#B8A36E"/>
<path d="M12.6478 18.0882C12.4679 18.0882 12.2879 18.0367 12.1337 17.9338L11.1954 17.342C10.7455 17.059 10.617 16.4543 10.8997 16.0041C11.1825 15.5538 11.7866 15.4251 12.2365 15.7082L13.1748 16.3C13.6247 16.583 13.7532 17.1876 13.4704 17.6379C13.2776 17.9338 12.9563 18.0882 12.6478 18.0882Z" fill="#B8A36E"/>
<path d="M12.635 37.3086C12.3522 37.3086 12.0823 37.1928 11.8895 36.9612C11.5553 36.5496 11.6067 35.9449 12.018 35.5976L20.4242 28.6247C20.8355 28.2902 21.4396 28.3417 21.7866 28.7534C22.1208 29.165 22.0694 29.7697 21.6581 30.1171L13.2519 37.0899C13.072 37.2314 12.8535 37.3086 12.635 37.3086Z" fill="#B8A36E"/>
<path d="M7.93056 41.2067C7.64779 41.2067 7.37786 41.0909 7.18506 40.8593C6.85087 40.4476 6.90228 39.843 7.3136 39.4956L8.16192 38.788C8.57324 38.4536 9.17735 38.505 9.52439 38.9167C9.85858 39.3284 9.80717 39.933 9.39586 40.2804L8.54753 40.988C8.36758 41.1295 8.14907 41.2067 7.93056 41.2067Z" fill="#B8A36E"/>
<path d="M39.2031 30.3357C38.7147 30.3357 38.2905 29.9626 38.2391 29.4737C38.1877 28.9463 38.5733 28.4703 39.1003 28.4188L49.4987 27.3639L40.4113 26.4376C39.8843 26.3861 39.4987 25.9101 39.5502 25.3827C39.6016 24.8552 40.0771 24.4693 40.6041 24.5207L59.126 26.399C59.6144 26.4505 59.9872 26.8621 59.9872 27.3639C59.9872 27.8528 59.6144 28.2773 59.126 28.3288L39.2931 30.3486C39.2674 30.3357 39.2288 30.3357 39.2031 30.3357Z" fill="#B8A36E"/>
</g>
<defs>
<clipPath id="clip0_48_361">
<rect width="60" height="63" fill="white"/>
</clipPath>
</defs>
</svg>
