<svg width="59" height="60" viewBox="0 0 59 60" fill="none" xmlns="http://www.w3.org/2000/svg">
<g clip-path="url(#clip0_48_382)">
<path d="M20.0595 59.9999C19.5664 59.9999 19.1576 59.5908 19.1576 59.0974V54.0673C19.1576 53.4777 18.8329 52.9362 18.2797 52.6113C16.4276 51.5282 15.2731 48.5198 15.2731 46.3417L15.2852 24.3561C15.2852 23.4055 15.658 22.515 16.3314 21.8411C17.0049 21.1672 17.9068 20.8182 18.8449 20.8182C20.7691 20.8423 22.3445 22.4187 22.3445 24.3561V36.0529C22.3445 36.5463 21.9356 36.9554 21.4425 36.9554C20.9494 36.9554 20.5406 36.5463 20.5406 36.0529V24.3561C20.5406 23.4175 19.7709 22.6353 18.8329 22.6233H18.8208C18.3638 22.6233 17.9309 22.8038 17.6062 23.1287C17.2815 23.4536 17.0891 23.8868 17.0891 24.3561L17.077 46.3537C17.077 48.0024 17.979 50.361 19.1816 51.0589C20.276 51.6967 20.9615 52.8519 20.9615 54.0673V59.0974C20.9615 59.5908 20.5526 59.9999 20.0595 59.9999Z" fill="#B8A36E"/>
<path d="M21.4425 36.9794C20.9494 36.9794 20.5406 36.5703 20.5406 36.0769V19.4102C20.5406 18.3994 20.9374 17.4608 21.647 16.7508C22.3565 16.0408 23.3066 15.6437 24.3047 15.6437C26.3732 15.6437 28.0689 17.3284 28.0689 19.4102V34.8133C28.0689 35.3067 27.66 35.7159 27.1669 35.7159C26.6739 35.7159 26.265 35.3067 26.265 34.8133V19.4102C26.265 18.3272 25.3871 17.4487 24.3047 17.4487C23.7876 17.4487 23.2945 17.6533 22.9217 18.0263C22.5489 18.3994 22.3445 18.8928 22.3445 19.4102V36.0769C22.3445 36.5703 21.9476 36.9794 21.4425 36.9794Z" fill="#B8A36E"/>
<path d="M32.711 36.9795C32.2179 36.9795 31.809 36.5703 31.809 36.0769V16.2695C31.809 15.2346 30.9672 14.3922 29.9329 14.3922C29.4278 14.3922 28.9588 14.5848 28.6101 14.9458C28.2613 15.2947 28.0569 15.7761 28.0569 16.2695V34.8134C28.0569 35.3068 27.648 35.7159 27.1549 35.7159C26.6618 35.7159 26.253 35.3068 26.253 34.8134V16.2695C26.253 15.2827 26.6378 14.3561 27.3353 13.6702C28.0328 12.9722 28.9588 12.5872 29.9329 12.5872C31.9654 12.5872 33.6129 14.2358 33.6129 16.2695V36.0769C33.6129 36.5703 33.2161 36.9795 32.711 36.9795Z" fill="#B8A36E"/>
<path d="M35.2485 59.9999C34.7554 59.9999 34.3465 59.5908 34.3465 59.0974V53.61C34.3465 52.5149 34.8877 51.4439 35.8017 50.746C35.8618 50.6979 35.9219 50.6738 35.9821 50.6377C37.0644 49.7833 41.1773 45.3669 43.6066 42.6834C43.6307 42.6593 43.6427 42.6473 43.6667 42.6232C43.8471 42.4668 43.9674 42.2502 44.0396 42.0216C44.0516 41.9734 44.0756 41.9253 44.0877 41.8772L47.1784 35.2466C47.5391 34.4764 47.2144 33.5378 46.4448 33.1648C46.084 32.9843 45.6631 32.9722 45.2662 33.1046C44.8453 33.249 44.4965 33.5619 44.3162 33.959C44.0155 34.6088 43.4262 35.8603 42.8971 37.0155C42.4401 37.9903 42.0312 38.8808 41.8508 39.2658C41.6103 39.7713 41.1773 40.1563 40.6482 40.3248L38.7 40.9626C38.4234 41.0468 38.1227 41.0107 37.8942 40.8302C37.6657 40.6618 37.5214 40.385 37.5214 40.0962L37.5334 19.2779C37.5334 18.1948 36.6555 17.3164 35.5852 17.3164C35.0681 17.3164 34.575 17.521 34.2022 17.894C33.8294 18.267 33.625 18.7604 33.625 19.2779V36.0649C33.625 36.5583 33.2161 36.9674 32.723 36.9674C32.2299 36.9674 31.821 36.5583 31.821 36.0649V19.2899C31.821 18.2791 32.2179 17.3405 32.9274 16.6305C33.637 15.9205 34.587 15.5354 35.5852 15.5354C37.6537 15.5354 39.3374 17.2201 39.3374 19.3019L39.3253 38.8687L40.083 38.616C40.1431 38.592 40.1912 38.5559 40.2153 38.4957C40.3956 38.1106 40.8045 37.2201 41.2615 36.2454C41.7907 35.0902 42.38 33.8386 42.6926 33.1888C43.0775 32.3585 43.8111 31.7087 44.6769 31.3958C45.5308 31.095 46.4448 31.1431 47.2505 31.5282C48.8981 32.3344 49.6076 34.332 48.8259 36.0047L45.7593 42.5751C45.6029 43.0926 45.3143 43.5498 44.9295 43.9108C44.1478 44.7773 38.4715 51.0228 36.9923 52.1299C36.8359 52.2863 36.7397 52.3946 36.6676 52.4668L36.5954 52.551C36.5473 52.5992 36.4992 52.6353 36.4511 52.6714C36.2707 52.9482 36.1745 53.2731 36.1745 53.598V59.0853C36.1504 59.5908 35.7416 59.9999 35.2485 59.9999Z" fill="#B8A36E"/>
<path d="M28.2493 46.113C26.5656 46.113 25.1947 44.7412 25.1947 43.0564C25.1947 41.3717 26.5656 39.9999 28.2493 39.9999C29.933 39.9999 31.3039 41.3717 31.3039 43.0564C31.3039 44.7412 29.945 46.113 28.2493 46.113ZM28.2493 41.7929C27.5518 41.7929 26.9986 42.3585 26.9986 43.0444C26.9986 43.7424 27.5638 44.2959 28.2493 44.2959C28.9348 44.2959 29.5 43.7303 29.5 43.0444C29.512 42.3585 28.9468 41.7929 28.2493 41.7929Z" fill="#B8A36E"/>
<path d="M28.2493 48.8206C23.3186 48.8206 19.4702 43.8146 19.3139 43.598C19.0734 43.2731 19.0734 42.8278 19.3139 42.5029C19.4702 42.2863 23.3186 37.2803 28.2493 37.2803C33.18 37.2803 37.0283 42.2863 37.1847 42.5029C37.4252 42.8278 37.4252 43.2731 37.1847 43.598C37.0283 43.8146 33.18 48.8206 28.2493 48.8206ZM21.214 43.0564C22.2843 44.2598 25.0864 47.0155 28.2613 47.0155C31.4482 47.0155 34.2383 44.2598 35.3086 43.0564C34.2383 41.8531 31.4362 39.0974 28.2613 39.0974C25.0864 39.0974 22.2723 41.8531 21.214 43.0564Z" fill="#B8A36E"/>
<path d="M6.63841 55.8965C6.28965 55.8965 5.97697 55.704 5.83266 55.3911L4.77436 53.2491L2.40523 52.9122C2.06849 52.864 1.77987 52.6233 1.67163 52.2984C1.5634 51.9735 1.65961 51.6125 1.90013 51.3718L3.61986 49.6992L3.21097 47.3406C3.15084 47.0036 3.29516 46.6546 3.57176 46.4621C3.84836 46.2575 4.22116 46.2335 4.52182 46.3899L6.63841 47.497L8.755 46.3899C9.05565 46.2335 9.42846 46.2575 9.70506 46.4621C9.98166 46.6667 10.126 47.0036 10.0658 47.3406L9.65696 49.6992L11.3647 51.3718C11.6052 51.6125 11.7014 51.9735 11.5932 52.2984C11.4849 52.6233 11.2083 52.864 10.8596 52.9122L8.50245 53.2611L7.44416 55.4031C7.29984 55.704 6.97514 55.8965 6.63841 55.8965ZM4.47371 51.3839L5.49593 51.5283C5.78456 51.5764 6.04913 51.7569 6.16939 52.0217L6.62638 52.9483L7.08337 52.0217C7.21566 51.7569 7.46821 51.5764 7.75684 51.5283L8.77905 51.3839L8.03344 50.6619C7.81697 50.4573 7.72076 50.1564 7.76886 49.8676L7.94925 48.8448L7.03527 49.3261C6.7707 49.4585 6.45802 49.4585 6.19344 49.3261L5.27946 48.8448L5.45985 49.8676C5.50796 50.1564 5.41175 50.4573 5.19528 50.6619L4.47371 51.3839Z" fill="#B8A36E"/>
<path d="M5.00286 22.3344C4.65411 22.3344 4.34143 22.1419 4.19711 21.829L3.13882 19.687L0.781705 19.3381C0.444975 19.2899 0.156348 19.0493 0.0481136 18.7243C-0.0601212 18.3994 0.0360875 18.0384 0.276609 17.7977L1.98431 16.1251L1.57543 13.7665C1.5153 13.4295 1.65961 13.0805 1.93621 12.888C2.21281 12.6834 2.58562 12.6594 2.88627 12.8158L5.00286 13.9229L7.11945 12.8158C7.42011 12.6594 7.79292 12.6834 8.06952 12.888C8.34612 13.0926 8.49043 13.4295 8.4303 13.7665L8.02141 16.1251L9.72912 17.7977C9.96964 18.0384 10.0658 18.3994 9.95761 18.7243C9.84938 19.0493 9.57278 19.2899 9.22402 19.3381L6.86691 19.687L5.80861 21.829C5.65227 22.1299 5.33959 22.3344 5.00286 22.3344ZM2.83817 17.8218L3.86038 17.9662C4.14901 18.0144 4.41358 18.1949 4.53385 18.4596L4.99084 19.3862L5.44783 18.4596C5.58012 18.1949 5.83266 18.0144 6.12129 17.9662L7.14351 17.8218L6.39789 17.0998C6.18142 16.8952 6.08521 16.5944 6.13332 16.3056L6.31371 15.2827L5.39972 15.7641C5.13515 15.8964 4.82247 15.8964 4.5579 15.7641L3.64391 15.2827L3.82431 16.3056C3.87241 16.5944 3.7762 16.8952 3.55973 17.0998L2.83817 17.8218Z" fill="#B8A36E"/>
<path d="M55.5485 22.515C55.3441 22.515 55.1396 22.4428 54.9713 22.2984L53.1433 20.7581L50.8463 21.3958C50.5096 21.4921 50.1608 21.3838 49.9323 21.1311C49.7038 20.8784 49.6437 20.5053 49.764 20.1925L50.6539 17.9783L49.343 15.9807C49.1506 15.6919 49.1386 15.3188 49.319 15.03C49.4874 14.7292 49.8241 14.5607 50.1608 14.5848L52.542 14.7532L54.0332 12.888C54.2497 12.6233 54.5984 12.4909 54.9352 12.5631C55.2719 12.6353 55.5365 12.888 55.6207 13.225L56.1979 15.5475L58.4348 16.3898C58.7595 16.5102 58.9759 16.799 59.012 17.1479C59.0481 17.4849 58.8797 17.8218 58.5911 18.0023L56.5707 19.2659L56.4625 21.6485C56.4505 21.9975 56.234 22.2984 55.9213 22.4307C55.789 22.4909 55.6688 22.515 55.5485 22.515ZM53.3477 18.8688C53.5522 18.8688 53.7686 18.941 53.925 19.0854L54.7187 19.7472L54.7668 18.7123C54.7788 18.4115 54.9352 18.1467 55.1877 17.9903L56.0656 17.4368L55.1035 17.0757C54.8269 16.9674 54.6225 16.7388 54.5503 16.45L54.2978 15.4512L53.6484 16.2575C53.468 16.4861 53.1794 16.6185 52.8787 16.5944L51.8445 16.5222L52.4097 17.3886C52.5781 17.6413 52.6021 17.9542 52.4939 18.2189L52.109 19.1816L53.1072 18.9049C53.1914 18.8688 53.2756 18.8688 53.3477 18.8688Z" fill="#B8A36E"/>
<path d="M55.5485 56.077C55.3441 56.077 55.1396 56.0048 54.9713 55.8604L53.1433 54.3201L50.8463 54.9579C50.5096 55.0541 50.1608 54.9458 49.9323 54.6931C49.7038 54.4404 49.6437 54.0674 49.764 53.7545L50.6539 51.5403L49.343 49.5427C49.1506 49.2539 49.1386 48.8808 49.319 48.592C49.4874 48.2912 49.8241 48.1227 50.1608 48.1468L52.542 48.3153L54.0332 46.45C54.2497 46.1853 54.5984 46.0529 54.9352 46.1251C55.2719 46.1973 55.5365 46.45 55.6207 46.787L56.1979 49.1095L58.4348 49.9518C58.7595 50.0722 58.9759 50.361 59.012 50.71C59.0481 51.0469 58.8797 51.3838 58.5911 51.5644L56.5467 52.8279L56.4384 55.2106C56.4264 55.5595 56.2099 55.8604 55.8973 55.9927C55.789 56.0529 55.6688 56.077 55.5485 56.077ZM53.3477 52.4308C53.5522 52.4308 53.7686 52.503 53.925 52.6474L54.7187 53.3092L54.7668 52.2743C54.7788 51.9735 54.9352 51.7088 55.1877 51.5523L56.0656 50.9988L55.1035 50.6378C54.8269 50.5295 54.6225 50.3008 54.5503 50.012L54.2978 49.0132L53.6484 49.8195C53.468 50.0481 53.1794 50.1805 52.8787 50.1564L51.8445 50.0842L52.4097 50.9506C52.5781 51.2033 52.6021 51.5162 52.4939 51.781L52.109 52.7437L53.1072 52.4669C53.1914 52.4428 53.2756 52.4308 53.3477 52.4308Z" fill="#B8A36E"/>
<path d="M32.5787 9.69911C32.4223 9.69911 32.266 9.66301 32.1337 9.57878L30.0652 8.38744L27.9005 9.41031C27.5878 9.55471 27.2271 9.51861 26.9505 9.302C26.6859 9.0854 26.5536 8.73642 26.6258 8.41151L27.1188 6.07697L25.4713 4.34412C25.2307 4.09141 25.1586 3.7304 25.2788 3.40549C25.3991 3.08058 25.6877 2.85194 26.0245 2.81584L28.3936 2.56313L29.5361 0.46927C29.7044 0.168428 30.0171 -0.0120777 30.3659 -4.40491e-05C30.7146 0.0119896 31.0153 0.216562 31.1596 0.529439L32.1337 2.70754L34.4788 3.14075C34.8155 3.20092 35.0921 3.45363 35.1883 3.77854C35.2845 4.10345 35.1763 4.46446 34.9238 4.6931L33.1559 6.29358L33.4686 8.66422C33.5167 9.00116 33.3604 9.3381 33.0717 9.53064C32.9274 9.65098 32.747 9.69911 32.5787 9.69911ZM30.0893 6.46205C30.2456 6.46205 30.402 6.49815 30.5342 6.58239L31.4242 7.09984L31.2919 6.07697C31.2558 5.78816 31.364 5.48732 31.5805 5.29478L32.3502 4.59683L31.328 4.40429C31.0393 4.35615 30.7868 4.15158 30.6665 3.88684L30.2456 2.93618L29.7525 3.85074C29.6082 4.11548 29.3557 4.28395 29.055 4.32005L28.0328 4.42836L28.7424 5.17445C28.9468 5.39105 29.031 5.69189 28.9708 5.9807L28.7544 6.99153L29.6924 6.54629C29.8247 6.48612 29.957 6.46205 30.0893 6.46205Z" fill="#B8A36E"/>
<path d="M5.00286 45.006C4.50979 45.006 4.10091 44.5968 4.10091 44.1034V24.5848C4.10091 24.0914 4.50979 23.6823 5.00286 23.6823C5.49593 23.6823 5.90482 24.0914 5.90482 24.5848V44.1034C5.90482 44.5968 5.49593 45.006 5.00286 45.006Z" fill="#B8A36E"/>
<path d="M10.7393 14.3441C10.4146 14.3441 10.0899 14.1636 9.93355 13.8507C9.70506 13.4055 9.88545 12.864 10.3304 12.6353L23.8958 5.75207C24.3408 5.52343 24.882 5.70393 25.1105 6.14918C25.339 6.59443 25.1586 7.13594 24.7136 7.36458L11.1482 14.2479C11.0159 14.3201 10.8716 14.3441 10.7393 14.3441Z" fill="#B8A36E"/>
<path d="M47.5993 14.3442C47.4429 14.3442 47.2746 14.296 47.1303 14.2118L36.0061 7.32854C35.5852 7.0638 35.4529 6.51025 35.7175 6.08907C35.9821 5.66789 36.5353 5.53552 36.9562 5.80026L48.0803 12.6835C48.5012 12.9483 48.6335 13.5018 48.3689 13.923C48.1886 14.1998 47.8999 14.3442 47.5993 14.3442Z" fill="#B8A36E"/>
<path d="M54.0934 45.006C53.6003 45.006 53.1914 44.5968 53.1914 44.1034V24.5848C53.1914 24.0914 53.6003 23.6823 54.0934 23.6823C54.5864 23.6823 54.9953 24.0914 54.9953 24.5848V44.1034C54.9953 44.5968 54.5985 45.006 54.0934 45.006Z" fill="#B8A36E"/>
<path d="M16.1751 57.6894C16.0789 57.6894 15.9827 57.6774 15.8865 57.6413L10.4507 55.8483C9.98165 55.6919 9.71708 55.1864 9.87342 54.7051C10.0298 54.2358 10.5349 53.971 11.0159 54.1275L16.4517 55.9205C16.9207 56.0769 17.1853 56.5824 17.0289 57.0637C16.9087 57.4488 16.5599 57.6894 16.1751 57.6894Z" fill="#B8A36E"/>
<path d="M39.3854 57.6895C39.0487 57.6895 38.736 57.509 38.5797 57.184C38.3632 56.7388 38.5436 56.1973 39.0006 55.9807L47.2024 51.9735C47.6474 51.7569 48.1885 51.9374 48.405 52.3826C48.6215 52.8278 48.4411 53.3694 47.9841 53.586L39.7823 57.5932C39.662 57.6654 39.5297 57.6895 39.3854 57.6895Z" fill="#B8A36E"/>
</g>
<defs>
<clipPath id="clip0_48_382">
<rect width="59" height="60" fill="white"/>
</clipPath>
</defs>
</svg>
