<svg width="58" height="59" viewBox="0 0 58 59" fill="none" xmlns="http://www.w3.org/2000/svg">
<g clip-path="url(#clip0_48_323)">
<path d="M29.0177 43.1145C21.6333 43.1145 15.6313 37.1056 15.6313 29.7129C15.6313 22.3202 21.6333 16.3113 29.0177 16.3113C36.4021 16.3113 42.4042 22.3202 42.4042 29.7129C42.4042 37.0938 36.4021 43.1145 29.0177 43.1145ZM29.0177 18.0738C22.614 18.0738 17.4036 23.2901 17.4036 29.7011C17.4036 36.1121 22.614 41.3284 29.0177 41.3284C35.4215 41.3284 40.6319 36.1121 40.6319 29.7011C40.6319 23.2901 35.4215 18.0738 29.0177 18.0738Z" fill="#B8A36E"/>
<path d="M29.0177 39.6133C23.5592 39.6133 19.1167 35.1658 19.1167 29.7011C19.1167 24.2364 23.5592 19.7889 29.0177 19.7889C34.4763 19.7889 38.9187 24.2364 38.9187 29.7011C38.9187 35.1658 34.4763 39.6133 29.0177 39.6133ZM29.0177 21.575C24.5398 21.575 20.889 25.2299 20.889 29.7129C20.889 34.1959 24.5398 37.8508 29.0177 37.8508C33.4956 37.8508 37.1465 34.1959 37.1465 29.7129C37.1465 25.2181 33.4956 21.575 29.0177 21.575Z" fill="#B8A36E"/>
<path d="M29.0177 35.9938C25.5559 35.9938 22.744 33.1786 22.744 29.7129C22.744 26.2472 25.5559 23.432 29.0177 23.432C32.4795 23.432 35.2915 26.2472 35.2915 29.7129C35.2915 33.1786 32.4795 35.9938 29.0177 35.9938ZM29.0177 25.1944C26.5366 25.1944 24.5162 27.2171 24.5162 29.7011C24.5162 32.185 26.5366 34.2077 29.0177 34.2077C31.4989 34.2077 33.5193 32.185 33.5193 29.7011C33.5193 27.2171 31.4989 25.1944 29.0177 25.1944Z" fill="#B8A36E"/>
<path d="M29.0177 32.6818C27.3754 32.6818 26.0403 31.3452 26.0403 29.7011C26.0403 28.0569 27.3754 26.7203 29.0177 26.7203C30.66 26.7203 31.9951 28.0569 31.9951 29.7011C31.9833 31.3452 30.6482 32.6818 29.0177 32.6818ZM29.0177 28.5064C28.3561 28.5064 27.8126 29.0505 27.8126 29.7129C27.8126 30.3753 28.3561 30.9194 29.0177 30.9194C29.6794 30.9194 30.2229 30.3753 30.2229 29.7129C30.2111 29.0387 29.6794 28.5064 29.0177 28.5064Z" fill="#B8A36E"/>
<path d="M29.0177 43.1145C21.6688 43.1145 15.0878 39.6251 10.858 36.7035C6.30923 33.5453 3.50907 30.4344 3.39092 30.3043C3.09554 29.9731 3.09554 29.4645 3.39092 29.1215C3.50907 28.9914 6.30923 25.8805 10.858 22.7223C15.0878 19.8007 21.6688 16.3113 29.0177 16.3113C36.3667 16.3113 42.9477 19.8007 47.1774 22.7223C51.7262 25.8805 54.5264 28.9914 54.6445 29.1215C54.9399 29.4527 54.9399 29.9613 54.6445 30.3043C54.5264 30.4344 51.7262 33.5453 47.1774 36.7035C42.9477 39.6251 36.3667 43.1145 29.0177 43.1145ZM5.28133 29.7129C6.30923 30.7538 8.66043 33.0249 11.9096 35.2722C15.9149 38.0401 22.1414 41.352 29.0177 41.352C40.5492 41.352 50.3557 32.1614 52.7541 29.7247C51.7262 28.6838 49.375 26.4128 46.1259 24.1654C42.1206 21.3975 35.8941 18.0856 29.0177 18.0856C17.4863 18.0738 7.67978 27.2644 5.28133 29.7129Z" fill="#B8A36E"/>
<path d="M29.0059 10.2197C28.5215 10.2197 28.1198 9.81756 28.1198 9.3326V0.887129C28.1198 0.402165 28.5215 0 29.0059 0C29.4903 0 29.892 0.402165 29.892 0.887129V9.3326C29.892 9.82939 29.5021 10.2197 29.0059 10.2197Z" fill="#B8A36E"/>
<path d="M29.0059 14.5607C28.5215 14.5607 28.1198 14.1586 28.1198 13.6736V12.7746C28.1198 12.2897 28.5215 11.8875 29.0059 11.8875C29.4903 11.8875 29.892 12.2897 29.892 12.7746V13.6736C29.892 14.1586 29.5021 14.5607 29.0059 14.5607Z" fill="#B8A36E"/>
<path d="M6.66368 8.68207C6.41556 8.68207 6.16744 8.57561 5.99022 8.37453L5.54125 7.85408C5.22224 7.4874 5.25769 6.91964 5.63577 6.60027C6.00203 6.2809 6.56915 6.31639 6.88816 6.6949L7.33713 7.21534C7.65614 7.58202 7.62069 8.14979 7.24261 8.46915C7.0772 8.61109 6.86453 8.68207 6.66368 8.68207Z" fill="#B8A36E"/>
<path d="M14.2135 17.4114C13.9654 17.4114 13.7173 17.305 13.54 17.1039L8.15238 10.8703C7.83337 10.5036 7.86882 9.93587 8.2469 9.6165C8.61316 9.29714 9.18028 9.33262 9.49929 9.71113L14.8869 15.9447C15.206 16.3114 15.1705 16.8791 14.7924 17.1985C14.627 17.3404 14.4143 17.4114 14.2135 17.4114Z" fill="#B8A36E"/>
<path d="M49.5995 10.7284C49.3987 10.7284 49.186 10.6574 49.0206 10.5155C48.6543 10.1961 48.607 9.62834 48.9379 9.26166L50.1076 7.91322C50.4266 7.54654 50.9937 7.49923 51.3599 7.83042C51.7262 8.14979 51.7735 8.71755 51.4427 9.08423L50.273 10.4327C50.0957 10.6219 49.8476 10.7284 49.5995 10.7284Z" fill="#B8A36E"/>
<path d="M43.7983 17.4114C43.5975 17.4114 43.3848 17.3404 43.2194 17.1985C42.8531 16.8791 42.8059 16.3114 43.1367 15.9447L46.7285 11.8048C47.0475 11.4381 47.6146 11.3908 47.9809 11.722C48.3471 12.0413 48.3944 12.6091 48.0636 12.9758L44.4718 17.1157C44.2946 17.305 44.0464 17.4114 43.7983 17.4114Z" fill="#B8A36E"/>
<path d="M39.8167 4.93241C39.7103 4.93241 39.6158 4.90876 39.5095 4.87327C39.0487 4.70767 38.8124 4.18722 38.9896 3.73774L39.2377 3.08718C39.4031 2.62588 39.923 2.38931 40.372 2.56673C40.8328 2.73233 41.0691 3.25278 40.8918 3.70226L40.6437 4.35282C40.5138 4.70767 40.1829 4.93241 39.8167 4.93241Z" fill="#B8A36E"/>
<path d="M36.154 14.8328C36.0477 14.8328 35.9531 14.8091 35.8468 14.7736C35.386 14.608 35.1497 14.0876 35.327 13.6381L37.9853 6.47012C38.1507 6.00881 38.6706 5.77224 39.1196 5.94967C39.5804 6.11527 39.8167 6.63572 39.6394 7.08519L36.9811 14.2532C36.8511 14.608 36.5203 14.8328 36.154 14.8328Z" fill="#B8A36E"/>
<path d="M18.7741 7.66482C18.4196 7.66482 18.077 7.45191 17.947 7.09706L16.6474 3.71414C16.4702 3.25283 16.6946 2.74421 17.1554 2.56678C17.6162 2.38936 18.1243 2.6141 18.3015 3.0754L19.6011 6.45832C19.7784 6.91963 19.5539 7.42825 19.0931 7.60568C18.9868 7.64116 18.8804 7.66482 18.7741 7.66482Z" fill="#B8A36E"/>
<path d="M21.527 14.8328C21.1725 14.8328 20.8299 14.6199 20.6999 14.265L18.9277 9.66378C18.7505 9.20247 18.975 8.69385 19.4357 8.51643C19.8965 8.339 20.4046 8.56374 20.5818 9.02505L22.3541 13.6263C22.5313 14.0876 22.3068 14.5962 21.846 14.7736C21.7397 14.8091 21.6333 14.8328 21.527 14.8328Z" fill="#B8A36E"/>
<path d="M1.38236 17.5888C1.22877 17.5888 1.07517 17.5533 0.933389 17.4705L0.437158 17.1748C0.0118166 16.9264 -0.129964 16.3823 0.118152 15.9565C0.366268 15.5307 0.909759 15.3887 1.3351 15.6371L1.83133 15.9328C2.25667 16.1812 2.39845 16.7253 2.15034 17.1512C1.98493 17.435 1.68955 17.5888 1.38236 17.5888Z" fill="#B8A36E"/>
<path d="M7.57344 21.1846C7.41984 21.1846 7.26625 21.1491 7.12447 21.0663L3.60359 19.02C3.17824 18.7716 3.03646 18.2275 3.28458 17.8017C3.5327 17.3759 4.07619 17.2339 4.50153 17.4823L8.02241 19.5286C8.44775 19.777 8.58953 20.3211 8.34141 20.747C8.176 21.0308 7.86881 21.1846 7.57344 21.1846Z" fill="#B8A36E"/>
<path d="M56.5231 17.6006C56.2159 17.6006 55.9206 17.4469 55.7551 17.163C55.507 16.7372 55.6488 16.1931 56.0742 15.9447L56.6649 15.5898C57.0902 15.3414 57.6337 15.4834 57.8819 15.9092C58.13 16.335 57.9882 16.8791 57.5628 17.1275L56.9721 17.4824C56.8303 17.5533 56.6767 17.6006 56.5231 17.6006Z" fill="#B8A36E"/>
<path d="M50.781 20.9717C50.4738 20.9717 50.1785 20.818 50.013 20.5341C49.7649 20.1082 49.9067 19.5641 50.3321 19.3157L53.4276 17.4942C53.8529 17.2458 54.3964 17.3877 54.6445 17.8135C54.8927 18.2394 54.7509 18.7835 54.3255 19.0319L51.23 20.8534C51.0882 20.9362 50.9346 20.9717 50.781 20.9717Z" fill="#B8A36E"/>
<path d="M28.9823 59C28.4979 59 28.0962 58.5978 28.0962 58.1129V49.6674C28.0962 49.1824 28.4979 48.7803 28.9823 48.7803C29.4667 48.7803 29.8684 49.1824 29.8684 49.6674V58.1129C29.8684 58.6097 29.4785 59 28.9823 59Z" fill="#B8A36E"/>
<path d="M28.9941 47.1243C28.5097 47.1243 28.108 46.7221 28.108 46.2371V45.3382C28.108 44.8532 28.5097 44.451 28.9941 44.451C29.4785 44.451 29.8802 44.8532 29.8802 45.3382V46.2371C29.8802 46.7221 29.4785 47.1243 28.9941 47.1243Z" fill="#B8A36E"/>
<path d="M51.7853 52.6127C51.5372 52.6127 51.2891 52.5062 51.1118 52.3051L50.6629 51.7847C50.3439 51.418 50.3793 50.8502 50.7574 50.5309C51.1236 50.2115 51.6908 50.247 52.0098 50.6255L52.4587 51.1459C52.7778 51.5126 52.7423 52.0804 52.3642 52.3998C52.1988 52.5417 51.9861 52.6127 51.7853 52.6127Z" fill="#B8A36E"/>
<path d="M49.186 49.5964C48.9379 49.5964 48.6897 49.49 48.5125 49.2889L43.1249 43.0553C42.8059 42.6886 42.8413 42.1209 43.2194 41.8015C43.5857 41.4821 44.1528 41.5176 44.4718 41.8961L49.8594 48.1297C50.1784 48.4964 50.143 49.0641 49.7649 49.3835C49.5995 49.5254 49.3868 49.5964 49.186 49.5964Z" fill="#B8A36E"/>
<path d="M7.21898 51.4062C7.01813 51.4062 6.80546 51.3352 6.64005 51.1933C6.27378 50.8739 6.22652 50.3061 6.55734 49.9395L7.72703 48.591C8.04604 48.2243 8.61316 48.177 8.97942 48.5082C9.34569 48.8276 9.39295 49.3953 9.06213 49.762L7.89244 51.0986C7.71522 51.2997 7.4671 51.4062 7.21898 51.4062Z" fill="#B8A36E"/>
<path d="M10.5981 47.5146C10.3972 47.5146 10.1846 47.4437 10.0192 47.3017C9.65289 46.9823 9.60563 46.4146 9.93645 46.0479L13.5282 41.908C13.8472 41.5413 14.4143 41.494 14.7806 41.8252C15.1469 42.1445 15.1941 42.7123 14.8633 43.079L11.2715 47.2189C11.0943 47.4082 10.8462 47.5146 10.5981 47.5146Z" fill="#B8A36E"/>
<path d="M17.9352 56.5042C17.8289 56.5042 17.7344 56.4805 17.628 56.445C17.1672 56.2795 16.9309 55.759 17.1082 55.3095L17.3563 54.659C17.5217 54.1977 18.0416 53.9611 18.4905 54.1385C18.9513 54.3041 19.1876 54.8246 19.0104 55.274L18.7623 55.9246C18.6441 56.2794 18.3015 56.5042 17.9352 56.5042Z" fill="#B8A36E"/>
<path d="M19.1876 53.1213C19.0813 53.1213 18.9868 53.0976 18.8804 53.0622C18.4196 52.8966 18.1833 52.3761 18.3606 51.9266L21.0189 44.7586C21.1844 44.2973 21.7042 44.0608 22.1532 44.2382C22.614 44.4038 22.8503 44.9242 22.6731 45.3737L20.0147 52.5417C19.8847 52.8966 19.5539 53.1213 19.1876 53.1213Z" fill="#B8A36E"/>
<path d="M40.5256 56.5042C40.1711 56.5042 39.8285 56.2913 39.6985 55.9364L38.3989 52.5535C38.2216 52.0922 38.4461 51.5836 38.9069 51.4061C39.3677 51.2287 39.8757 51.4535 40.053 51.9148L41.3526 55.2977C41.5299 55.759 41.3054 56.2676 40.8446 56.445C40.7501 56.4805 40.6319 56.5042 40.5256 56.5042Z" fill="#B8A36E"/>
<path d="M38.2453 50.5545C37.8908 50.5545 37.5482 50.3416 37.4182 49.9868L35.646 45.3855C35.4687 44.9242 35.6932 44.4156 36.154 44.2382C36.6148 44.0607 37.1228 44.2855 37.3001 44.7468L39.0723 49.348C39.2496 49.8093 39.0251 50.318 38.5643 50.4954C38.4579 50.5309 38.3516 50.5545 38.2453 50.5545Z" fill="#B8A36E"/>
<path d="M57.1139 43.4811C56.9603 43.4811 56.8067 43.4457 56.6649 43.3629L56.1687 43.0671C55.7433 42.8187 55.6015 42.2746 55.8497 41.8488C56.0978 41.423 56.6413 41.2811 57.0666 41.5295L57.5628 41.8252C57.9882 42.0736 58.13 42.6177 57.8818 43.0435C57.7164 43.3155 57.4211 43.4811 57.1139 43.4811Z" fill="#B8A36E"/>
<path d="M53.9474 41.6359C53.7939 41.6359 53.6403 41.6004 53.4985 41.5176L49.9776 39.4713C49.5523 39.2229 49.4105 38.6788 49.6586 38.253C49.9067 37.8272 50.4502 37.6852 50.8755 37.9336L54.3964 39.9799C54.8218 40.2283 54.9635 40.7724 54.7154 41.1983C54.55 41.4821 54.2546 41.6359 53.9474 41.6359Z" fill="#B8A36E"/>
<path d="M0.886129 43.5284C0.578938 43.5284 0.283562 43.3747 0.118152 43.0908C-0.129964 42.665 0.0118166 42.1209 0.437158 41.8725L1.03972 41.5176C1.46507 41.2692 2.00856 41.4112 2.25667 41.837C2.50479 42.2628 2.36301 42.8069 1.93767 43.0553L1.3351 43.4102C1.19332 43.493 1.03972 43.5284 0.886129 43.5284Z" fill="#B8A36E"/>
<path d="M4.12345 41.6241C3.81626 41.6241 3.52088 41.4703 3.35547 41.1864C3.10736 40.7606 3.24914 40.2165 3.67448 39.9681L6.77002 38.1465C7.19536 37.8981 7.73885 38.0401 7.98696 38.4659C8.23508 38.8917 8.0933 39.4358 7.66796 39.6842L4.57242 41.5058C4.43064 41.5886 4.27704 41.6241 4.12345 41.6241Z" fill="#B8A36E"/>
</g>
<defs>
<clipPath id="clip0_48_323">
<rect width="58" height="59" fill="white"/>
</clipPath>
</defs>
</svg>
