<svg width="117" height="191" viewBox="0 0 117 191" fill="none" xmlns="http://www.w3.org/2000/svg">
<g clip-path="url(#clip0_86_71)">
<path d="M105.704 92.7606C105.629 92.7606 105.48 92.7606 105.405 92.6856C105.18 92.5355 105.105 92.2353 105.255 92.0102C112.287 81.7284 115.953 69.5705 115.953 56.8121C115.953 49.7575 114.831 42.928 112.586 36.3237C112.661 37.6746 112.736 39.0255 112.736 40.3764C112.736 54.1104 107.35 67.319 97.8491 76.6251C97.6247 76.7752 97.3254 76.7752 97.1758 76.6251C97.0262 76.3999 97.0262 76.0997 97.1758 75.9496C106.452 66.7937 111.763 53.8102 111.763 40.3764C111.763 37.8247 111.539 35.198 111.165 32.6463C111.165 32.4212 111.24 32.196 111.539 32.121C111.763 32.0459 111.988 32.196 112.137 32.4212C115.279 40.1512 116.925 48.3316 116.925 56.8121C116.925 69.7206 113.185 82.1037 106.078 92.5355C106.003 92.6856 105.854 92.7606 105.704 92.7606Z" fill="black"/>
<path d="M87.3011 84.5804C87.1515 84.5804 87.0019 84.5054 86.8523 84.3553C86.7027 84.1301 86.7775 83.8299 87.0767 83.6798C89.0965 82.6291 90.9667 81.3533 92.8369 79.9274C93.0614 79.7773 93.3606 79.7773 93.5102 80.0024C93.6598 80.2276 93.6598 80.5278 93.4354 80.6779C91.5652 82.1038 89.6202 83.3796 87.6004 84.5054C87.4507 84.5054 87.3759 84.5804 87.3011 84.5804Z" fill="black"/>
<path d="M25.4348 104.994C25.36 104.994 25.2104 104.994 25.1356 104.919C11.0716 93.3611 3.06714 75.8746 3.06714 56.8872C3.06714 31.7457 17.8044 8.93079 39.798 -5.48232e-05C40.0224 -0.0751039 40.2468 -5.48288e-05 40.3964 0.225093C40.546 0.45024 40.4712 0.675387 40.2468 0.825485C28.2775 9.98148 21.0959 24.7662 21.0959 40.4514C21.0959 56.2868 28.4271 71.2215 40.6208 80.3025C40.8453 80.4526 40.8453 80.7528 40.6957 80.9779C40.546 81.2031 40.2468 81.2031 40.0224 81.053C27.6042 71.7469 20.1234 56.587 20.1234 40.4514C20.1234 25.7418 26.3325 11.7076 36.9552 2.40152C17.1311 12.0078 4.03965 33.4719 4.03965 56.8872C4.03965 75.5744 11.9693 92.8357 25.734 104.168C25.9584 104.318 25.9584 104.618 25.8088 104.844C25.734 104.919 25.5844 104.994 25.4348 104.994Z" fill="black"/>
<path d="M60.071 117.602C59.0985 117.602 58.126 117.602 57.2283 117.527C56.929 117.527 56.7794 117.302 56.7794 117.001C56.7794 116.701 57.0038 116.551 57.3031 116.551C58.2008 116.626 59.1733 116.626 60.071 116.626C68.7487 116.626 76.9776 114.6 84.6829 110.547C84.9073 110.397 85.2065 110.547 85.3561 110.772C85.5058 110.998 85.3561 111.298 85.1317 111.448C77.2769 115.576 68.8235 117.602 60.071 117.602Z" fill="black"/>
<path d="M94.4079 105.219C94.2583 105.219 94.1087 105.144 94.0339 105.069C93.8843 104.844 93.8843 104.543 94.1087 104.393C96.8766 102.067 99.4949 99.5152 101.889 96.6633C102.038 96.4382 102.338 96.4382 102.562 96.5882C102.786 96.7383 102.786 97.0386 102.637 97.2637C100.243 100.116 97.5499 102.742 94.7072 105.069C94.6324 105.144 94.4827 105.219 94.4079 105.219Z" fill="black"/>
<path d="M95.0064 87.132C100.617 76.5501 109.669 80.9029 109.669 80.9029C109.669 80.9029 103.983 91.1096 95.0064 87.132Z" fill="#B8A36E"/>
<path d="M108.846 95.0122C108.846 95.0122 100.841 100.341 95.6049 93.5862C103.684 88.0326 108.846 95.0122 108.846 95.0122Z" fill="#B8A36E"/>
<path d="M97.6247 75.4243C97.6247 75.4243 98.5224 82.4039 92.9866 83.9799C91.9392 76.9253 97.6247 75.4243 97.6247 75.4243Z" fill="#B8A36E"/>
<path d="M94.408 104.318C95.2308 108.371 94.782 113.474 93.7347 118.428H93.5851C93.7347 117.227 93.6599 115.951 93.2858 114.825L93.6599 114.75C93.5103 101.917 83.6356 99.6653 83.6356 99.6653L83.486 99.5903C83.7104 98.3895 83.6356 97.4138 83.6356 97.4138C85.805 97.1136 87.376 95.6127 88.2737 93.6614L88.3485 93.7364C91.5652 96.213 93.5851 100.191 94.408 104.318Z" fill="black"/>
<path d="M83.6356 99.6653C83.6356 99.6653 93.5102 101.917 93.6599 114.75L93.2858 114.825C92.9118 113.699 92.2385 112.649 91.266 111.973C89.9943 111.148 88.4233 110.998 86.8523 111.073C86.2538 111.073 84.234 111.073 83.6356 110.923C79.0723 109.722 79.0723 105.819 78.399 104.543C78.5486 104.543 78.6982 104.468 78.8478 104.468C81.9898 103.718 83.1119 101.391 83.4111 99.6653H83.6356Z" fill="black"/>
<path d="M83.1867 52.9846C83.1867 52.9846 84.0096 64.8424 74.509 67.0939C73.4616 54.9359 83.1867 52.9846 83.1867 52.9846Z" fill="#B8A36E"/>
<path d="M70.3197 55.8364C70.3197 55.8364 74.7334 61.0148 71.0678 65.7429C66.5045 60.5645 70.3197 55.8364 70.3197 55.8364Z" fill="#B8A36E"/>
<path d="M78.9974 86.8318C77.5013 89.9088 74.509 92.3854 67.2526 92.1603C67.477 91.5599 67.5518 90.9595 67.5518 90.2841C67.5518 87.5823 65.6816 85.3308 63.2877 84.8805L63.3625 84.4302C63.3625 84.4302 63.587 80.3776 66.8037 75.7996C69.9457 71.2966 72.8632 71.822 74.0601 73.6232V74.1485C75.0326 73.5481 76.3043 73.323 77.9501 73.9984C80.8676 75.1241 81.0921 78.6514 80.5684 81.9536C80.2692 83.9049 79.5959 85.7061 78.9974 86.8318Z" fill="#B8A36E"/>
<path d="M57.3779 90.9596C57.3779 90.7344 57.3779 90.5844 57.3779 90.3592C57.3779 89.9089 57.4527 89.4586 57.5275 89.0083C58.0511 86.6067 60.071 84.8806 62.4648 84.8806C62.7641 84.8806 63.0633 84.8806 63.2877 84.9557C65.6816 85.406 67.5518 87.6574 67.5518 90.3592C67.5518 91.0346 67.477 91.635 67.2526 92.2354C66.9533 93.136 66.4297 93.9616 65.6816 94.637C64.7839 95.3875 63.6618 95.9128 62.39 95.9128C61.8664 95.9128 61.4175 95.8378 60.9687 95.6877C59.7717 95.3124 58.7992 94.562 58.126 93.5113C57.8267 92.6857 57.4527 91.8602 57.3779 90.9596Z" fill="#B8A36E"/>
<path d="M67.3273 92.2355C74.5837 92.4606 77.5013 89.984 79.0722 86.907C79.6707 85.7812 80.2692 83.905 80.6432 81.9537C80.6432 81.9537 86.8523 81.0531 88.6477 86.3066C89.4706 88.6331 89.3209 91.485 88.2736 93.7364C87.3759 95.6877 85.805 97.1136 83.6355 97.4889C83.6355 97.4889 83.7103 98.4645 83.4859 99.6653C83.1119 101.391 81.9897 103.643 78.9226 104.468C78.773 104.468 78.6234 104.544 78.4738 104.544C78.0997 104.544 77.8005 104.544 77.4264 104.544C72.2647 103.868 65.9808 94.9372 65.9808 94.9372L65.8312 94.7121C66.4296 93.9616 67.0281 93.136 67.3273 92.2355Z" fill="#B8A36E"/>
<path d="M57.0786 114.75C55.9565 114.075 55.1336 113.024 54.9092 111.448C54.0863 105.744 60.9687 95.8378 60.9687 95.8378L61.0435 95.6127C61.4923 95.7628 61.9412 95.8378 62.4648 95.8378C63.7366 95.8378 64.8587 95.3876 65.7564 94.562L65.906 94.7872C65.906 94.7872 72.2647 103.793 77.3517 104.393C77.7257 109.197 73.9853 111.748 70.8433 112.349C68.8235 112.724 66.9533 111.748 66.9533 111.748C66.8785 111.898 66.8785 112.048 66.8037 112.123C65.1579 115.201 60.071 116.476 57.0786 114.75Z" fill="#B8A36E"/>
<path d="M66.8037 75.7996C66.8037 75.8746 66.8037 75.8746 66.8037 75.7996C63.6618 80.4526 63.3626 84.5053 63.3626 84.5053L63.2877 84.9556C62.9885 84.8805 62.6893 84.8805 62.4649 84.8805C60.071 84.8805 58.0512 86.6066 57.5275 89.0082L57.3779 88.9332C57.3779 88.9332 54.0115 83.4546 47.2788 81.2782L47.3536 81.053C47.3536 81.053 44.1368 73.9984 50.4955 70.396C51.3184 69.9457 52.0665 69.6455 52.7398 69.4204C53.039 69.3453 53.3383 69.2703 53.6375 69.1952C53.8619 69.0452 56.4802 66.7937 59.9214 68.0695C62.0908 68.9701 64.4847 71.0715 66.8037 75.7996Z" fill="#B8A36E"/>
<path d="M58.1259 93.8863L58.2756 93.436C58.9488 94.4867 59.9213 95.2372 61.1183 95.6125L61.0435 95.8376C61.0435 95.8376 54.1611 105.744 54.984 111.448C52.7397 113.624 50.2711 114.375 48.4009 114.225C46.4559 114.15 44.9597 113.099 44.5857 111.748C44.436 111.148 44.5108 110.547 44.7353 109.872C42.6406 108.896 42.1918 107.245 42.3414 105.669C42.491 104.243 43.1643 102.817 43.688 102.067C43.8376 101.766 43.9872 101.541 44.062 101.466C49.7474 101.466 55.358 98.8396 58.1259 93.8863Z" fill="#B8A36E"/>
<path d="M43.9872 101.466C43.5383 101.466 43.0895 101.466 42.6406 101.391C36.9552 101.016 35.4591 96.3631 35.085 93.6613C34.9354 92.5356 34.9354 91.71 34.9354 91.71C34.8606 91.635 34.7858 91.4849 34.6362 91.4098C32.6912 89.1583 32.0927 80.1524 42.1918 80.4526C43.3139 80.4526 44.3612 80.6027 45.3337 80.8279C46.007 80.978 46.6055 81.1281 47.2039 81.3532C53.9367 83.5297 57.303 89.0082 57.303 89.0082L57.4527 89.0833C57.3779 89.5336 57.303 89.9839 57.303 90.4342C57.303 90.6593 57.303 90.8094 57.303 91.0346C57.3779 91.9352 57.6771 92.7607 58.1259 93.5112L57.9763 93.9615C55.358 98.8397 49.7474 101.466 43.9872 101.466Z" fill="#B8A36E"/>
<path d="M48.3261 114.225C50.2711 114.3 52.665 113.549 54.9092 111.448C55.1336 113.024 55.9565 114.075 57.0787 114.75C58.3504 121.805 49.523 125.707 44.1368 128.109C39.6483 130.135 38.8255 134.113 38.6758 135.389C37.9278 126.158 48.3261 114.3 48.3261 114.225Z" fill="black"/>
<path d="M50.4955 70.4711C44.1368 74.0735 47.3536 81.1281 47.3536 81.1281L47.2788 81.3532C46.6803 81.1281 46.0819 80.978 45.4086 80.8279L45.4834 80.4526C33.5141 72.0471 43.0147 51.2585 45.5582 46.2302C45.5582 46.9057 44.8101 64.6923 52.7398 69.4204C52.0665 69.6456 51.3184 70.0208 50.4955 70.4711Z" fill="black"/>
<path d="M46.1566 45.1797C46.1566 45.1797 46.8299 52.6846 52.4405 56.7372C58.0511 60.7899 59.9962 68.1447 59.9962 68.1447C56.555 66.8689 53.9367 69.1204 53.7123 69.2705C53.413 69.3455 53.1138 69.3455 52.8146 69.4956C44.8849 64.7675 45.633 46.9809 45.633 46.3054C45.9322 45.5549 46.1566 45.1797 46.1566 45.1797Z" fill="black"/>
<path d="M42.7155 101.466C43.1643 101.466 43.6132 101.541 44.062 101.541C43.9872 101.616 43.8376 101.842 43.688 102.142L43.3139 102.067C24.4623 107.771 22.218 115.651 21.9936 117.977C22.2928 101.842 35.2346 93.7363 35.2346 93.7363C35.5339 96.4381 37.03 101.016 42.7155 101.466Z" fill="black"/>
<path d="M42.3414 105.669C42.117 107.245 42.6407 108.896 44.7353 109.872C44.5109 110.547 44.4361 111.148 44.5857 111.748C44.9597 113.099 46.3811 114.15 48.4009 114.225C48.4009 114.225 38.0026 126.158 38.7507 135.389C38.7507 135.689 38.7507 135.839 38.7507 135.839C38.7507 135.839 37.9278 135.013 37.4789 123.456C37.3293 119.853 37.7033 116.776 38.3766 114.3C39.6484 108.671 42.2666 105.669 42.3414 105.669Z" fill="black"/>
<path d="M42.2666 105.669C42.2666 105.669 39.6483 108.596 38.227 114.225C32.6912 113.399 24.0134 113.549 21.844 118.578C21.844 118.352 21.844 118.127 21.844 117.902C22.0684 115.576 24.3127 107.695 43.1643 101.992L43.5384 102.067C43.1643 102.892 42.4911 104.243 42.2666 105.669Z" fill="black"/>
<path d="M31.195 79.7773C19.899 78.8017 19.7494 68.2197 19.7494 68.2197C19.7494 68.2197 30.821 69.3455 31.195 79.7773Z" fill="#B8A36E"/>
<path d="M20.1982 82.1789C20.1982 82.1789 25.734 78.4264 29.4744 83.0794C23.8638 87.057 20.1982 82.1789 20.1982 82.1789Z" fill="#B8A36E"/>
<path d="M63.4374 84.9557C63.4374 84.9557 63.3625 84.9557 63.4374 84.9557C63.1381 84.9557 62.9137 84.7305 62.9885 84.4303C62.9885 84.2802 63.2877 80.1525 66.5045 75.5745C66.5045 75.5745 66.5045 75.5745 66.5045 75.4995C68.6739 72.4225 70.6189 71.747 71.8159 71.8221C72.938 71.8221 73.9105 72.4225 74.509 73.3231C74.6586 73.5482 74.5838 73.8484 74.3593 73.9985C74.1349 74.1486 73.8357 74.0736 73.6861 73.8484C73.2372 73.248 72.5639 72.7977 71.7411 72.7977C71.7411 72.7977 71.7411 72.7977 71.6663 72.7977C70.2449 72.7977 68.6739 73.9985 67.1778 76.0999C67.1778 76.0999 67.1778 76.1749 67.1029 76.1749C64.1106 80.5278 63.8114 84.5054 63.8114 84.5054C63.8862 84.8056 63.6618 84.9557 63.4374 84.9557Z" fill="black"/>
<path d="M68.0754 92.6856C67.7762 92.6856 67.5518 92.6856 67.2526 92.6856C66.9533 92.6856 66.8037 92.4604 66.8037 92.1602C66.8037 91.9351 67.0281 91.7099 67.3274 91.7099C74.9578 91.9351 77.4265 89.0832 78.6234 86.6066C79.1471 85.5559 79.8203 83.7547 80.1196 81.8035C80.4936 79.552 80.718 75.5744 77.8005 74.3736C76.454 73.8483 75.3318 73.9233 74.2845 74.5237C72.7884 75.4243 72.1899 77.3005 72.1899 77.3756C72.1151 77.6007 71.8159 77.7508 71.5914 77.6758C71.367 77.6007 71.2174 77.3005 71.2922 77.0754C71.2922 77.0003 71.9655 74.8239 73.7609 73.6982C75.0326 72.9477 76.454 72.8726 78.0997 73.473C80.718 74.5237 81.7653 77.5257 81.0173 81.9536C80.6432 84.0549 79.9699 85.9312 79.4463 87.0569C77.5761 90.8844 73.9853 92.6856 68.0754 92.6856Z" fill="black"/>
<path d="M62.4648 96.2879C61.9412 96.2879 61.4175 96.2129 60.8939 96.0628C59.6221 95.6875 58.5748 94.862 57.8267 93.6612C57.3031 92.8357 57.0038 91.9351 56.929 90.9594C56.929 90.7343 56.929 90.5092 56.929 90.3591C56.929 89.8337 57.0038 89.3834 57.0786 88.9331C57.6771 86.3064 59.9213 84.4302 62.5396 84.4302C62.9137 84.4302 63.2129 84.4302 63.5121 84.5052C66.2052 84.9555 68.1502 87.4321 68.1502 90.3591C68.1502 91.0345 68.0754 91.7099 67.851 92.3854C67.5518 93.361 66.9533 94.2616 66.1304 94.9371C65.0831 95.8376 63.8114 96.2879 62.4648 96.2879ZM62.4648 85.4058C60.2954 85.4058 58.5 86.9818 57.9763 89.1583C57.9015 89.5335 57.8267 89.9088 57.8267 90.3591C57.8267 90.5092 57.8267 90.7343 57.8267 90.8844C57.9015 91.7099 58.2008 92.4604 58.5748 93.1359C59.1733 94.1115 60.071 94.787 61.1183 95.0871C62.5396 95.5374 64.1854 95.2372 65.3823 94.1866C66.0556 93.5862 66.5045 92.8357 66.8037 92.0101C66.9533 91.4848 67.1029 90.8844 67.1029 90.284C67.1029 87.8074 65.4572 85.7811 63.2129 85.4058C62.9885 85.4058 62.7641 85.4058 62.4648 85.4058Z" fill="black"/>
<path d="M45.4834 80.9779C45.4086 80.9779 45.259 80.9779 45.1842 80.9029C32.766 72.1221 42.9399 50.3579 45.1093 46.0801C45.4834 45.3296 45.7078 44.9543 45.7078 44.9543C45.7826 44.8042 46.007 44.6541 46.2315 44.7292C46.4559 44.8042 46.6055 44.9543 46.6055 45.1795C46.6055 45.2545 47.2788 52.4592 52.665 56.3618C58.3504 60.4895 60.2954 67.7693 60.3702 68.0695C60.445 68.2946 60.2954 68.5948 59.9962 68.6699C59.7717 68.7449 59.4725 68.5948 59.3977 68.2946C59.3977 68.2196 57.4527 61.0899 52.0665 57.1123C47.8772 54.0353 46.3811 49.1571 45.9322 46.6805C43.6132 51.2585 34.1873 71.897 45.7826 80.0773C46.007 80.2274 46.0818 80.5276 45.9322 80.7528C45.7826 80.9029 45.633 80.9779 45.4834 80.9779Z" fill="#B8A36E"/>
<path d="M21.9188 119.028H21.844C21.6196 118.953 21.47 118.803 21.47 118.578C21.47 118.352 21.47 118.127 21.47 117.902C21.7692 101.767 34.7858 93.4361 34.8606 93.361C35.0851 93.211 35.3843 93.286 35.5339 93.5111C35.6835 93.7363 35.6087 94.0365 35.3843 94.1866C35.2347 94.2616 23.3402 101.917 22.4425 116.851C26.3325 112.273 36.2072 113.474 38.3018 113.849C38.5262 113.925 38.7507 114.15 38.6759 114.375C38.601 114.6 38.3766 114.825 38.1522 114.75C32.0179 113.849 24.2379 114.3 22.2929 118.803C22.2929 118.953 22.0684 119.028 21.9188 119.028Z" fill="#B8A36E"/>
<path d="M38.6758 136.289C38.5262 136.289 38.4514 136.214 38.3018 136.139C37.7033 135.539 37.1797 130.811 36.8804 123.456C36.7308 120.154 37.03 117.001 37.7781 114.15C39.1995 108.446 41.8178 105.519 41.8926 105.369C42.0422 105.144 42.3414 105.144 42.5658 105.294C42.7903 105.444 42.7903 105.744 42.6407 105.969C42.6407 105.969 40.0972 108.896 38.7506 114.375C38.0025 117.152 37.7033 120.229 37.8529 123.381C38.0774 128.859 38.3766 131.861 38.6758 133.512C39.2743 131.711 40.6956 129.159 43.9872 127.658L44.2116 127.508C49.5978 125.032 57.8267 121.354 56.6298 114.75V114.675C56.6298 114.375 56.8542 114.225 57.0786 114.225C57.3779 114.225 57.5275 114.45 57.5275 114.675C58.7992 121.955 49.897 126.007 44.5109 128.409L44.2864 128.559C40.0972 130.435 39.2743 134.038 39.1247 135.464C39.1247 135.689 39.1247 135.839 39.1247 135.839C39.1247 136.064 38.9751 136.214 38.8254 136.289C38.7506 136.289 38.6758 136.289 38.6758 136.289Z" fill="#B8A36E"/>
<path d="M38.6758 135.914C38.4514 135.914 38.227 135.689 38.227 135.464C37.4789 126.158 47.578 114.45 47.952 113.925C48.1016 113.699 48.4009 113.699 48.6253 113.849C48.8497 114 48.8497 114.3 48.7001 114.525C48.6253 114.675 38.4514 126.383 39.1995 135.314C39.1995 135.614 38.975 135.839 38.6758 135.914Z" fill="#B8A36E"/>
<path d="M21.9188 119.028C21.6944 119.028 21.47 118.878 21.47 118.578C21.47 118.578 21.47 118.277 21.47 117.827C21.6944 115.426 24.0134 107.245 43.0895 101.541C43.314 101.466 43.6132 101.617 43.688 101.842C43.7628 102.067 43.6132 102.367 43.3888 102.442C24.8363 107.996 22.6669 115.726 22.4425 117.977C22.4425 118.277 22.4425 118.503 22.4425 118.503C22.3677 118.803 22.2181 119.028 21.9188 119.028Z" fill="#B8A36E"/>
<path d="M52.7398 69.9458C52.665 69.9458 52.5901 69.9458 52.5153 69.8708C44.5109 65.1427 45.0345 48.1816 45.1093 46.2303C45.1093 46.0052 45.4086 45.78 45.633 45.78C45.8574 45.78 46.0818 46.0052 46.0818 46.2303C46.0818 46.9808 45.4086 64.4673 53.039 69.0453C53.2634 69.1954 53.3382 69.4956 53.1886 69.7207C53.1138 69.8708 52.8894 69.9458 52.7398 69.9458Z" fill="#B8A36E"/>
<path d="M93.585 118.878C93.585 118.878 93.5102 118.878 93.585 118.878C93.2858 118.878 93.0614 118.578 93.1362 118.352C93.2858 117.077 93.211 115.951 92.9118 114.975C92.5377 113.849 91.8645 112.949 91.0416 112.349C89.9194 111.598 88.6477 111.448 86.9271 111.523C86.4783 111.523 84.3088 111.523 83.5607 111.373C79.6707 110.397 78.8478 107.47 78.399 105.744C78.2494 105.294 78.1746 104.919 78.0249 104.694C78.0249 104.618 77.9501 104.543 77.9501 104.468C77.9501 104.168 78.1746 104.018 78.399 104.018C78.6234 104.018 78.773 104.168 78.8478 104.318C78.9975 104.618 79.0723 104.994 79.2219 105.444C79.7455 107.17 80.4188 109.572 83.7104 110.397C84.234 110.547 86.1042 110.547 86.7775 110.547C88.3485 110.547 90.0691 110.622 91.4156 111.523C92.4629 112.198 93.211 113.324 93.6599 114.6C94.0339 115.726 94.1087 117.002 93.9591 118.427C94.0339 118.728 93.8095 118.878 93.585 118.878Z" fill="#B8A36E"/>
<path d="M93.6599 119.178H93.5851C93.3606 119.103 93.1362 118.878 93.211 118.578V118.503C93.211 118.428 93.211 118.428 93.211 118.352C94.3331 112.649 94.5576 107.996 93.8843 104.468C92.9866 100.04 90.892 96.4381 88.0493 94.1866C87.8248 94.0365 87.8248 93.7363 87.9745 93.5112C88.1241 93.2861 88.4233 93.2861 88.6477 93.4362C91.7149 95.7627 93.8843 99.6652 94.8568 104.243C95.6049 107.921 95.3805 112.724 94.1835 118.578L94.1087 118.878C94.1087 119.028 93.8843 119.178 93.6599 119.178Z" fill="#B8A36E"/>
<path d="M93.6598 115.2C93.4354 115.2 93.211 114.975 93.211 114.75C93.0614 102.517 83.9348 100.266 83.5607 100.191C83.3363 100.116 83.1119 99.8904 83.1867 99.5902C83.2615 99.365 83.4859 99.1399 83.7851 99.2149C83.8599 99.2149 94.0339 101.692 94.1835 114.75C94.1087 114.975 93.959 115.2 93.6598 115.2Z" fill="#B8A36E"/>
<path d="M74.509 67.5442C74.4342 67.5442 74.2846 67.5442 74.2097 67.4692C74.1349 67.3941 74.0601 67.2441 73.9853 67.094C72.938 54.7108 82.9623 52.5344 83.0371 52.5344C83.1867 52.5344 83.3363 52.5344 83.4112 52.6095C83.486 52.6845 83.5608 52.8346 83.6356 52.9847C83.6356 53.1348 84.3837 65.2928 74.5838 67.5442H74.509ZM82.7379 53.5851C80.7929 54.1855 74.3594 56.8873 74.9578 66.4185C82.3638 64.3922 82.7379 55.9116 82.7379 53.5851Z" fill="black"/>
<path d="M71.1426 66.2683C70.993 66.2683 70.8434 66.1932 70.7685 66.1182C65.9808 60.6396 69.9457 55.6863 69.9457 55.6113C70.0205 55.5362 70.1701 55.4612 70.3197 55.4612C70.4693 55.4612 70.6189 55.5362 70.6937 55.6113C70.7685 55.6863 75.3318 61.1649 71.5166 66.1182C71.4418 66.1932 71.2922 66.1932 71.1426 66.2683ZM70.3945 56.662C69.6464 57.9378 68.1503 61.24 71.1426 64.9924C73.312 61.5402 71.2922 57.9378 70.3945 56.662Z" fill="black"/>
<path d="M31.195 80.2275C19.5249 79.1769 19.2257 68.2947 19.2257 68.2197C19.2257 68.0696 19.3005 67.9195 19.3753 67.8444C19.4501 67.7694 19.5997 67.6943 19.7494 67.6943C19.899 67.6943 31.2698 68.9702 31.6439 79.7022C31.6439 79.8523 31.5691 80.0024 31.4942 80.0774C31.4942 80.2275 31.3446 80.2275 31.195 80.2275ZM20.273 68.745C20.4974 70.8464 21.844 78.1262 30.7462 79.2519C30.0729 70.9965 22.4425 69.1203 20.273 68.745Z" fill="black"/>
<path d="M25.1356 85.1056C21.844 85.1056 19.8242 82.5539 19.8242 82.4789C19.7494 82.4038 19.6746 82.2537 19.7494 82.1036C19.7494 81.9536 19.8242 81.8785 19.9738 81.8035C20.0486 81.7284 25.9585 77.8259 29.8485 82.7791C29.9233 82.8541 29.9981 83.0042 29.9233 83.1543C29.9233 83.3044 29.8485 83.3795 29.6989 83.4545C27.9783 84.6553 26.4821 85.1056 25.1356 85.1056ZM20.8715 82.3288C21.844 83.3044 24.6867 85.5559 28.7264 83.0042C25.8836 79.9272 22.218 81.5783 20.8715 82.3288Z" fill="black"/>
<path d="M99.1208 88.4828C97.7743 88.4828 96.3529 88.1826 94.782 87.5072C94.6323 87.4321 94.5575 87.3571 94.5575 87.207C94.4827 87.0569 94.5575 86.9068 94.5575 86.8317C100.318 76.0247 109.744 80.3025 109.818 80.3775C109.968 80.4526 110.043 80.5276 110.043 80.6777C110.118 80.8278 110.043 80.9029 110.043 81.053C110.043 81.2031 105.928 88.4828 99.1208 88.4828ZM95.6797 86.9068C102.936 89.7587 107.799 83.0042 108.996 81.128C107.125 80.3775 100.318 78.6514 95.6797 86.9068Z" fill="black"/>
<path d="M92.9118 84.4302C92.837 84.4302 92.7622 84.4302 92.6874 84.3551C92.5377 84.2801 92.4629 84.13 92.4629 84.0549C91.4156 76.6251 97.4003 74.974 97.4751 74.8989C97.6247 74.8989 97.7743 74.8989 97.8491 74.974C97.9987 75.049 98.0736 75.1991 98.0736 75.2742C98.0736 75.3492 98.9713 82.629 93.0614 84.3551C93.0614 84.4302 92.9866 84.4302 92.9118 84.4302ZM97.1758 76.0247C95.9041 76.55 92.9118 78.4262 93.3606 83.3044C97.0262 81.8785 97.2507 77.6757 97.1758 76.0247Z" fill="black"/>
<path d="M102.338 97.4888C100.019 97.4888 97.4002 96.6632 95.2308 93.8864C95.156 93.8114 95.0812 93.6613 95.156 93.5112C95.156 93.3611 95.2308 93.286 95.3804 93.211C103.759 87.4322 109.22 94.6369 109.295 94.712C109.37 94.787 109.37 94.9371 109.37 95.0872C109.37 95.2373 109.295 95.3124 109.145 95.3874C109.07 95.4625 106.003 97.4888 102.338 97.4888ZM96.2781 93.7363C100.542 98.6896 106.452 95.9128 108.098 94.9371C106.901 93.5862 102.637 89.6837 96.2781 93.7363Z" fill="black"/>
<path d="M59.8465 85.706C59.6221 85.706 59.3977 85.5559 59.3977 85.2557C59.3229 84.6554 59.0984 84.055 58.7244 83.4546C58.3504 82.9292 57.9763 82.4039 57.4527 81.8035C57.303 81.5783 57.303 81.2781 57.5275 81.128C57.7519 80.9779 58.0511 80.9779 58.2007 81.2031C58.7244 81.8035 59.1732 82.3288 59.5473 82.9292C59.9961 83.6797 60.2954 84.4302 60.3702 85.1057C60.3702 85.4809 60.1458 85.706 59.8465 85.706Z" fill="black"/>
<path d="M67.1778 87.8075C67.0282 87.8075 66.9534 87.7325 66.8037 87.6574C66.6541 87.4323 66.6541 87.1321 66.8037 86.982C67.8511 86.0063 69.048 85.2559 70.3945 84.8806C70.619 84.8056 70.9182 84.9557 70.993 85.1808C71.0678 85.406 70.9182 85.7062 70.6938 85.7812C69.4968 86.1564 68.4495 86.7568 67.477 87.6574C67.4022 87.8075 67.3274 87.8075 67.1778 87.8075Z" fill="black"/>
<path d="M71.2922 95.9878C69.9457 95.9127 68.5991 95.3874 67.5518 94.5618C67.2526 94.3367 66.9534 94.0365 66.7289 93.5862C66.5793 93.3611 66.7289 93.0609 66.9534 92.9108C67.1778 92.7607 67.477 92.9108 67.6266 93.1359C67.7762 93.4361 68.0007 93.6613 68.2251 93.8113C69.1228 94.5618 70.1701 94.9371 71.367 95.0121C71.6663 95.0121 71.8159 95.2373 71.8159 95.5375C71.7411 95.8377 71.5915 95.9878 71.2922 95.9878Z" fill="black"/>
<path d="M64.335 101.842C64.1106 101.842 63.8862 101.691 63.8862 101.466L62.9885 96.2129C62.9137 95.9878 63.1381 95.6876 63.3625 95.6876C63.587 95.6125 63.8862 95.8377 63.8862 96.0628L64.7839 101.316C64.8587 101.541 64.6343 101.842 64.4098 101.842H64.335Z" fill="black"/>
<path d="M54.3107 91.7852C53.6375 91.7852 52.8894 91.7101 52.2161 91.6351C51.9917 91.56 51.7673 91.3349 51.8421 91.1097C51.9169 90.8846 52.1413 90.6594 52.3657 90.7345C54.0115 90.9596 55.6573 90.8846 57.2283 90.5844C57.5275 90.5093 57.8267 90.7345 57.8267 91.0347C57.8267 91.2598 57.6771 91.485 57.3779 91.485C56.4054 91.6351 55.358 91.7852 54.3107 91.7852Z" fill="black"/>
<path d="M47.3536 81.5784C47.2039 81.5784 46.9795 81.5033 46.9047 81.2782C46.9047 81.2031 43.5383 73.7733 50.2711 70.0208C51.094 69.5705 51.9169 69.1953 52.6649 69.0452C53.039 68.9701 53.3382 68.8951 53.6374 68.82C57.6771 68.2947 59.3977 71.7469 59.4725 71.822C59.6221 72.0471 59.4725 72.3473 59.2481 72.4224C59.0236 72.5725 58.7244 72.4224 58.5748 72.1972C58.5 72.0471 57.0786 69.3454 53.7871 69.7206C53.4878 69.7956 53.1886 69.7956 52.8894 69.8707C52.2161 70.0958 51.468 70.396 50.7199 70.7713C44.8101 74.1485 47.6528 80.5277 47.8024 80.8279C47.8772 81.053 47.8024 81.3532 47.578 81.4283C47.5032 81.5784 47.4284 81.5784 47.3536 81.5784Z" fill="black"/>
<path d="M66.8037 76.2499C66.6541 76.2499 66.4297 76.1748 66.3549 75.9497C64.4099 71.897 62.1656 69.4204 59.7717 68.5198C56.555 67.319 54.0115 69.5705 53.9367 69.5705C53.7871 69.7956 53.4879 69.7956 53.2634 69.6455C53.039 69.4954 53.039 69.1202 53.1886 68.9701C53.3382 68.82 56.181 66.2683 59.9962 67.6943C62.6145 68.6699 65.0083 71.2966 67.1029 75.5744C67.2526 75.7996 67.103 76.0998 66.8785 76.2499C66.9533 76.2499 66.8785 76.2499 66.8037 76.2499Z" fill="black"/>
<path d="M82.7379 98.014C81.8402 98.014 80.9425 97.8639 80.0448 97.5637C79.8203 97.4887 79.6707 97.1885 79.7455 96.9633C79.8203 96.7382 80.1196 96.5881 80.344 96.6632C81.4661 97.0384 82.5882 97.1885 83.5608 97.0384C85.431 96.7382 86.9271 95.5374 87.8248 93.5861C88.7973 91.4097 88.9469 88.7079 88.1989 86.4565C86.5531 81.6533 80.9425 82.4038 80.6432 82.4038C80.4188 82.4038 80.1196 82.2537 80.1196 82.0286C80.0448 81.8034 80.2692 81.5032 80.4936 81.5032C80.5684 81.5032 87.0767 80.6026 89.0218 86.1563C89.8446 88.6329 89.7698 91.6349 88.6477 93.9614C87.6004 96.2129 85.805 97.6388 83.6356 97.939C83.4111 97.939 83.0371 98.014 82.7379 98.014Z" fill="black"/>
<path d="M77.9501 104.994C77.7257 104.994 77.5013 104.994 77.2769 104.919C71.9655 104.243 65.7564 95.4625 65.4572 95.0873C65.3076 94.8621 65.3824 94.5619 65.6068 94.4118C65.8312 94.2617 66.1304 94.3368 66.2801 94.5619C66.3549 94.637 72.564 103.418 77.4265 104.018C77.7257 104.093 78.025 104.093 78.399 104.018C78.4738 104.018 78.6234 103.943 78.773 103.943C81.6157 103.268 82.6631 101.166 83.0371 99.5152C83.2615 98.3894 83.1867 97.4888 83.1867 97.4888C83.1867 97.2637 83.3363 96.9635 83.6356 96.9635C83.86 96.9635 84.1592 97.1136 84.1592 97.4138C84.1592 97.4888 84.234 98.4645 84.0096 99.7403C83.6356 101.617 82.4386 104.018 79.0723 104.919C78.9226 104.919 78.773 104.994 78.6234 104.994C78.3242 104.994 78.1746 104.994 77.9501 104.994Z" fill="black"/>
<path d="M44.6605 110.397C44.5857 110.397 44.5109 110.397 44.4361 110.322C42.4163 109.422 41.5186 107.77 41.8178 105.594C41.9674 104.093 42.6407 102.742 43.1643 101.842C43.3888 101.541 43.5384 101.316 43.5384 101.241L43.6132 101.166C43.7628 100.941 44.062 100.941 44.2865 101.166C44.4361 101.316 44.5109 101.616 44.3613 101.842C44.2865 101.917 44.1368 102.142 43.9872 102.442C43.5384 103.268 42.8651 104.543 42.7155 105.819C42.4911 107.545 43.1643 108.821 44.8101 109.572C45.0345 109.647 45.1842 109.947 45.0345 110.172C45.0345 110.322 44.8849 110.397 44.6605 110.397Z" fill="black"/>
<path d="M48.6253 114.75C48.4757 114.75 48.4009 114.75 48.2513 114.75C46.0819 114.675 44.4361 113.549 44.062 111.898C43.9124 111.298 43.9872 110.547 44.2116 109.722C45.0345 107.32 47.8024 104.919 47.9521 104.769C48.1765 104.619 48.4757 104.619 48.6253 104.844C48.7749 105.069 48.7749 105.369 48.5505 105.519C48.5505 105.519 45.8574 107.846 45.1093 110.022C44.8849 110.623 44.8101 111.148 44.9597 111.598C45.259 112.799 46.6055 113.624 48.3261 113.7C49.523 113.775 51.9169 113.474 54.61 110.998C54.8344 110.848 55.1336 110.848 55.2833 110.998C55.4329 111.223 55.4329 111.523 55.2833 111.673C52.5902 114.3 50.1215 114.75 48.6253 114.75Z" fill="black"/>
<path d="M40.3964 94.3366C38.6758 94.3366 36.3568 93.8864 34.6362 92.0852C34.5614 92.0101 34.4117 91.86 34.3369 91.785C33.2148 90.5091 32.4667 87.0569 33.8133 84.13C34.7858 82.1787 36.9552 79.8522 42.2666 80.0023C43.3887 80.0023 44.436 80.1524 45.4833 80.3775C46.0818 80.5276 46.7551 80.6777 47.4284 80.9029C54.2359 83.0793 57.6023 88.5579 57.7519 88.783C57.9015 89.0082 57.8267 89.3084 57.6023 89.4585C57.3779 89.6086 57.0786 89.5335 56.929 89.3084C56.929 89.2333 53.5626 83.9048 47.1291 81.8785C46.4559 81.6533 45.8574 81.5032 45.3337 81.4282C44.2864 81.2031 43.3139 81.128 42.2666 81.053C38.5262 80.9029 35.9079 82.1787 34.711 84.6553C33.514 87.1319 34.1125 90.1339 35.085 91.2596C35.1598 91.3347 35.2346 91.4097 35.3094 91.5598C38.0773 94.4867 42.5658 93.286 42.6406 93.286C42.8651 93.2109 43.1643 93.361 43.2391 93.5862C43.3139 93.8113 43.1643 94.1115 42.9399 94.1865C42.7903 94.1115 41.8177 94.3366 40.3964 94.3366Z" fill="black"/>
<path d="M43.9872 101.992C43.5384 101.992 43.0895 101.992 42.6407 101.917C36.656 101.466 35.085 96.6632 34.6362 93.8113C34.4866 92.6106 34.4866 91.785 34.4866 91.785C34.4866 91.5599 34.711 91.3347 34.9354 91.3347C35.2347 91.3347 35.3843 91.5599 35.3843 91.8601C35.3843 91.8601 35.3843 92.6856 35.5339 93.7363C35.9079 96.288 37.3293 100.641 42.6407 101.091C43.0895 101.091 43.5384 101.166 43.9124 101.166C49.8223 101.166 55.0588 98.3143 57.6023 93.8113C57.7519 93.5862 58.0512 93.5111 58.2756 93.6612C58.5 93.8113 58.5748 94.1115 58.4252 94.3367C55.8069 98.9897 50.1963 101.992 43.9872 101.992Z" fill="black"/>
<path d="M60.2954 116.026C59.0237 116.026 57.8267 115.726 56.8542 115.2C55.5077 114.45 54.6848 113.174 54.4604 111.523C53.6375 105.669 60.3702 95.9878 60.5946 95.5375C60.7443 95.3124 61.0435 95.2373 61.2679 95.3874C61.4923 95.5375 61.5671 95.8377 61.4175 96.0629C61.3427 96.1379 54.61 105.894 55.4329 111.298C55.6573 112.649 56.2558 113.624 57.3779 114.225C60.1458 115.801 64.9335 114.6 66.4297 111.898C66.5045 111.823 66.5045 111.673 66.5793 111.598C67.3274 109.647 66.6541 105.444 66.6541 105.369C66.5793 105.144 66.8037 104.844 67.0281 104.844C67.3274 104.769 67.5518 104.994 67.5518 105.219C67.5518 105.369 68.2999 109.722 67.477 111.973C67.4022 112.123 67.3274 112.273 67.2526 112.424C65.9808 114.675 63.0633 116.026 60.2954 116.026Z" fill="black"/>
<path d="M69.9456 113.024C68.225 113.024 66.8785 112.349 66.8037 112.349C66.5793 112.198 66.5045 111.973 66.5793 111.673C66.7289 111.448 66.9533 111.373 67.2525 111.448C67.2525 111.448 69.0479 112.349 70.8433 111.973C73.312 111.523 77.3516 109.422 76.9776 104.543C76.9776 104.243 77.1272 104.018 77.4264 104.018C77.6509 104.018 77.9501 104.168 77.9501 104.468C78.3241 109.347 74.6585 112.273 71.0678 112.949C70.6189 112.949 70.2449 113.024 69.9456 113.024Z" fill="black"/>
<path d="M52.5902 180.643C52.4406 180.643 52.2161 180.643 52.0665 180.643C45.8574 180.493 40.5461 178.092 36.282 173.364C21.1707 156.628 24.1631 116.026 24.1631 115.576C24.1631 115.276 24.4623 115.125 24.6867 115.125C24.986 115.125 25.1356 115.351 25.1356 115.651C25.1356 116.026 22.1432 156.252 37.0301 172.688C41.0697 177.191 46.1567 179.518 52.1413 179.668C58.7244 179.818 64.4099 177.416 68.9732 172.688C85.6554 155.427 83.486 111.673 83.486 111.223C83.486 110.923 83.6356 110.698 83.9348 110.698C84.1592 110.698 84.4585 110.923 84.4585 111.148C84.4585 111.598 86.6279 155.727 69.7212 173.364C64.9335 178.167 59.1733 180.643 52.5902 180.643Z" fill="black"/>
<path d="M23.1158 157.078C22.5921 157.078 22.0684 157.078 21.47 157.003C-2.46865 154.977 2.76793 63.8669 3.06716 60.0394C3.06716 59.7392 3.36639 59.5891 3.59082 59.5891C3.89005 59.5891 4.03967 59.8143 4.03967 60.1145C3.96486 61.0901 -1.42133 154.151 21.6196 156.102C25.8088 156.478 29.25 155.352 31.9431 152.875C38.0774 147.171 38.1522 135.989 38.1522 135.839C38.1522 135.539 38.3766 135.389 38.601 135.389C38.9003 135.389 39.0499 135.614 39.0499 135.839C39.0499 136.289 38.9751 147.622 32.5416 153.551C30.0729 155.877 26.8562 157.078 23.1158 157.078Z" fill="black"/>
<path d="M6.95716 104.018C6.4335 105.894 4.5633 106.945 2.7679 106.345C0.972505 105.744 0.0748071 103.718 0.598464 101.917C1.12212 100.041 2.99233 98.9898 4.78772 99.5902C6.58312 100.191 7.55563 102.217 6.95716 104.018Z" fill="#B8A36E"/>
<path d="M3.81523 107.02C3.44119 107.02 2.99234 106.945 2.6183 106.795C0.598475 106.119 -0.44884 103.868 0.149625 101.767C0.448858 100.716 1.19694 99.8903 2.09464 99.365C2.99234 98.9147 3.96484 98.8396 4.93735 99.1398C6.95717 99.8153 8.00448 102.067 7.40602 104.168C7.10679 105.219 6.35871 106.044 5.46101 106.57C4.93735 106.87 4.33888 107.02 3.81523 107.02ZM3.81523 99.8903C3.36638 99.8903 2.99234 99.9654 2.6183 100.191C1.87021 100.566 1.34656 101.241 1.12213 101.992C0.673283 103.643 1.49617 105.369 2.99234 105.894C3.66561 106.119 4.41369 106.044 5.08697 105.744C5.83505 105.369 6.3587 104.693 6.58313 103.943C7.03198 102.292 6.20909 100.566 4.71292 100.04C4.33888 99.9654 4.11446 99.8903 3.81523 99.8903Z" fill="black"/>
<path d="M86.4034 134.488C85.8798 136.364 84.0095 137.415 82.2142 136.815C80.4936 136.214 79.5211 134.188 80.0447 132.387C80.5684 130.51 82.4386 129.46 84.234 130.06C85.9546 130.586 86.9271 132.612 86.4034 134.488Z" fill="#B8A36E"/>
<path d="M83.1867 137.415C82.8126 137.415 82.4386 137.34 81.9898 137.19C79.9699 136.514 78.9226 134.263 79.5211 132.162C79.8203 131.111 80.5684 130.285 81.4661 129.76C82.3638 129.31 83.3363 129.235 84.3088 129.535C86.3286 130.21 87.3759 132.462 86.7775 134.563C86.4782 135.614 85.7302 136.439 84.8325 136.965C84.3836 137.265 83.7851 137.415 83.1867 137.415ZM83.1867 130.36C82.7378 130.36 82.3638 130.435 81.9898 130.661C81.2417 131.036 80.718 131.711 80.4936 132.462C80.0447 134.113 80.8676 135.839 82.3638 136.364C83.0371 136.589 83.7852 136.514 84.4584 136.214C85.2065 135.839 85.7302 135.164 85.9546 134.413C86.4034 132.762 85.5805 131.036 84.0844 130.51C83.7852 130.36 83.4859 130.36 83.1867 130.36Z" fill="black"/>
<path d="M56.2558 180.718C55.7321 182.595 53.8619 183.645 52.0665 183.045C50.3459 182.444 49.3734 180.418 49.8971 178.617C50.4207 176.741 52.2909 175.69 54.0863 176.29C55.8817 176.891 56.8542 178.917 56.2558 180.718Z" fill="black"/>
<path d="M55.0588 186.647C54.6848 187.848 53.5627 188.448 52.4405 188.073C51.3184 187.698 50.7199 186.422 51.094 185.296C51.468 184.095 52.5902 183.495 53.7123 183.87C54.8344 184.171 55.4329 185.446 55.0588 186.647Z" fill="black"/>
<path d="M54.1611 190.174C54.0115 190.775 53.3382 191.15 52.8146 190.925C52.2161 190.7 51.9169 190.099 52.1413 189.424C52.2909 188.824 52.9642 188.448 53.4878 188.673C54.0115 188.899 54.3107 189.574 54.1611 190.174Z" fill="black"/>
<path d="M82.2142 153.851C81.7654 155.277 80.344 156.027 78.9975 155.577C77.6509 155.126 76.9028 153.625 77.3517 152.199C77.8005 150.774 79.2219 150.023 80.5684 150.473C81.915 150.924 82.6631 152.425 82.2142 153.851Z" fill="#B8A36E"/>
<path d="M79.8203 156.177C79.5211 156.177 79.2219 156.102 78.9226 156.027C77.3517 155.502 76.454 153.701 76.9776 152.049C77.2021 151.224 77.8005 150.548 78.5486 150.173C79.2219 149.798 80.0448 149.723 80.7928 150.023C82.3638 150.548 83.2615 152.35 82.7379 154.001C82.5134 154.826 81.915 155.502 81.1669 155.877C80.718 156.102 80.2692 156.177 79.8203 156.177ZM79.8203 150.774C79.5211 150.774 79.2219 150.849 78.9226 150.999C78.399 151.299 78.0249 151.749 77.8753 152.35C77.5013 153.55 78.0998 154.826 79.2219 155.126C79.7455 155.277 80.2692 155.277 80.718 154.976C81.2417 154.676 81.6157 154.226 81.7654 153.625C82.1394 152.425 81.5409 151.149 80.4188 150.849C80.2692 150.849 80.0448 150.774 79.8203 150.774Z" fill="black"/>
<path d="M23.9386 150.473C23.9386 150.473 23.8638 155.802 19.5997 156.177C22.6669 156.552 24.163 158.729 24.0882 162.556C24.163 158.879 24.6867 156.327 27.9034 156.102C23.7142 155.727 23.9386 150.473 23.9386 150.473Z" fill="black"/>
</g>
<defs>
<clipPath id="clip0_86_71">
<rect width="117" height="191" fill="white"/>
</clipPath>
</defs>
</svg>
