<svg width="227" height="156" viewBox="0 0 227 156" fill="none" xmlns="http://www.w3.org/2000/svg">
<g clip-path="url(#clip0_87_313)">
<path d="M110.938 137.393C110.868 137.184 111.077 136.87 111.216 136.382C111.635 137.044 111.844 137.393 112.088 137.741C111.565 138.02 111.147 137.916 110.938 137.393ZM64.2894 142.864C64.638 142.062 64.9866 141.261 65.3353 140.459C65.405 140.494 65.4747 140.494 65.5096 140.529C65.1958 141.365 64.9169 142.167 64.638 143.003C64.5334 142.968 64.4288 142.898 64.2894 142.864ZM107.102 141.296C107.207 141.33 107.312 141.365 107.416 141.4C107.486 141.888 107.521 142.341 107.591 142.829C107.521 142.864 107.451 142.933 107.381 142.968C107.207 142.724 106.928 142.48 106.893 142.202C106.824 141.923 107.033 141.609 107.102 141.296ZM107.207 144.048C106.614 143.874 106.161 143.735 105.568 143.56C106.091 142.898 106.649 143.038 107.207 144.048ZM79.1763 150.495C79.002 151.296 78.7928 152.097 78.6185 152.864C78.235 151.923 78.5836 150.669 79.1763 150.495ZM94.7257 147.568C95.4579 147.568 96.19 147.568 96.957 147.568C96.3643 148.334 95.0743 148.299 94.7257 147.568ZM66.2069 126.034C66.5904 125.197 66.9042 124.466 67.2179 123.734C67.2877 123.769 67.3923 123.838 67.462 123.873C67.1482 125.302 67.0785 125.441 66.2069 126.034ZM99.4672 147.428C99.8507 146.94 100.374 146.766 101.176 147.184C100.687 147.568 100.269 147.881 99.8507 148.23C99.7113 147.951 99.3626 147.533 99.4672 147.428ZM65.7188 129.344C66.4858 130.006 67.2528 130.703 68.0547 131.434C67.2877 131.678 67.2877 131.678 65.5445 129.553C65.5793 129.448 65.6491 129.379 65.7188 129.344ZM112.158 129.413C111.67 129.1 111.321 128.856 110.938 128.647C111.321 128.229 111.67 127.845 112.053 127.427C112.158 127.497 112.227 127.602 112.332 127.671C112.088 127.985 111.844 128.264 111.53 128.647C112.018 128.786 112.402 128.926 113.099 129.135C112.332 129.657 111.705 130.076 111.112 130.459C111.042 130.389 110.972 130.285 110.868 130.215C111.042 130.041 111.147 129.797 111.356 129.657C111.565 129.553 111.844 129.518 112.158 129.413ZM112.506 130.807C111.983 131.191 111.426 131.574 110.868 131.992C111.321 132.027 111.705 132.062 112.053 132.097C112.053 132.166 112.053 132.201 112.053 132.271C111.321 132.515 110.624 132.793 109.857 133.037C109.369 132.306 110.519 131.121 112.506 130.807ZM102.954 142.829C103.755 142.271 104.523 141.749 105.29 141.191C105.359 141.261 105.429 141.33 105.464 141.4C105.29 141.609 105.15 141.818 104.976 142.062C105.115 142.202 105.255 142.341 105.464 142.55C105.185 142.759 104.941 143.177 104.732 143.142C104.174 143.142 103.511 143.909 102.954 142.829ZM91.1696 148.055C90.0888 148.055 89.2172 148.752 87.8923 148.125C86.5675 147.498 84.7197 147.881 83.116 147.846C82.3141 147.812 81.5122 147.846 80.7452 147.846C80.7452 147.707 80.7452 147.533 80.7452 147.393C82.2444 147.428 83.7784 147.393 85.2775 147.498C86.951 147.602 88.5896 148.16 90.298 147.916C90.5769 147.812 90.8907 147.916 91.1696 148.055ZM92.2155 150.948C92.5641 150.913 92.9128 150.878 93.2614 150.808C92.9128 150.948 92.5641 151.052 92.2155 150.948ZM62.6159 123.281C61.9186 124.152 61.2213 125.023 60.524 125.894C60.0359 125.337 60.0011 124.884 60.4543 124.222C61.2213 123.072 61.8489 121.852 62.5462 120.598C62.5462 120.598 62.4067 120.563 62.2673 120.563C62.2673 120.528 62.2324 120.458 62.2324 120.424C62.9994 119.204 63.1737 117.81 63.2434 116.416C63.3132 115.092 63.4178 113.873 64.5683 112.897C65.161 112.409 65.2307 111.364 65.6491 110.632C66.3463 109.273 67.4271 108.228 68.7171 107.461C70.1117 106.59 71.4714 105.615 72.9705 104.987C74.7137 104.221 76.5964 103.698 78.4442 103.245C79.9433 102.862 81.4774 102.618 83.0114 102.548C85.1381 102.444 87.2997 102.339 89.4264 102.653C90.4374 102.792 91.4833 103.663 92.2504 104.499C93.8541 106.242 95.6322 107.357 98.0378 107.426C99.6764 107.461 101.071 108.298 101.768 109.726C102.326 110.911 102.744 112.165 104.453 112.758C105.882 113.28 107.068 114.291 108.253 115.232C109.055 115.859 109.752 116.695 110.345 117.566C111.565 119.448 112.716 121.399 113.343 123.594C113.761 125.023 113.692 126.382 113.587 127.845C113.483 129.553 112.75 131.26 113.448 133.072C113.761 133.839 113.587 134.884 113.343 135.755C112.855 137.393 112.611 139.17 111.426 140.564C110.589 141.539 110.031 142.759 109.159 143.7C107.8 145.233 106.335 146.696 104.836 148.09C103.965 148.892 102.919 149.554 101.943 150.251C101.873 150.216 101.803 150.146 101.733 150.111C101.838 149.728 101.977 149.31 102.082 148.961C101.838 148.961 101.524 148.961 101.21 148.961C100.722 150.181 99.781 150.495 98.4213 150.286C97.1313 150.076 95.667 149.728 94.4468 150.286C94.0633 150.46 93.7146 150.704 93.366 150.878C94.2725 150.773 95.0743 150.669 95.8065 150.599C95.9808 151.052 96.0157 151.505 96.19 151.54C96.6432 151.644 97.3754 151.714 97.5497 151.505C97.9332 151.017 98.1773 150.982 98.7351 151.122C99.0837 151.226 99.5021 151.017 99.8856 151.017C97.6892 152.62 95.0046 152.899 92.3898 153.491C92.1109 152.725 91.832 151.993 91.5182 151.122C91.7971 151.087 92.076 151.052 92.3549 151.017C91.9366 150.913 91.4833 150.564 90.9952 149.798C90.9604 149.728 90.8209 149.798 90.6117 149.763C91.065 151.052 91.4833 152.272 91.9714 153.631C90.298 153.77 88.7291 154.223 87.0556 153.352C85.3473 152.481 83.5343 151.819 81.7563 151.087C81.6865 151.226 81.6517 151.331 81.5819 151.47C83.5692 152.307 85.5216 153.108 87.474 153.944C84.5105 154.676 81.5122 154.432 78.5488 154.188C77.7818 154.118 77.0845 153.526 76.3175 153.212C75.9688 153.073 75.6202 153.003 74.9229 153.003C75.3064 151.435 75.6899 149.867 76.0386 148.299C75.934 148.265 75.7945 148.265 75.6899 148.23C75.3064 149.763 74.888 151.296 74.5045 152.829C73.7375 152.446 73.7375 152.446 74.4697 149.519C74.0862 150.355 73.7375 151.157 73.2843 152.167C72.6916 151.784 72.0292 151.401 71.4714 150.982C71.3668 150.913 71.3668 150.529 71.4714 150.32C72.0641 148.927 72.6916 147.533 73.3192 146.104C73.2146 146.174 72.9008 146.244 72.7962 146.418C72.0641 147.742 71.4016 149.066 70.6695 150.495C70.286 149.589 70.7392 148.822 70.8438 147.951C70.5998 148.543 70.3209 149.17 70.0768 149.763C68.7868 149.38 68.3685 148.543 68.8566 146.906C69.1355 145.93 69.6584 145.024 70.0419 144.048C70.1814 143.7 70.3209 143.351 70.4254 143.003C70.3209 142.968 70.2511 142.933 70.1465 142.898C69.4144 144.536 68.6474 146.174 67.9152 147.777C67.0785 147.115 67.5317 144.362 68.5776 143.107C67.4969 143.979 67.2877 145.303 66.9042 146.627C66.1372 146.139 65.8582 145.616 66.3115 144.815C67.1134 143.351 67.8455 141.853 68.5776 140.355C68.5079 140.32 68.4382 140.285 68.3685 140.215C67.4271 141.853 66.5207 143.526 65.5793 145.198C65.161 144.676 64.7426 144.188 64.3242 143.665C63.2434 142.236 63.9756 140.912 64.638 139.588C65.1958 138.508 65.8234 137.463 66.4161 136.382C66.3115 136.313 66.2418 136.278 66.1372 136.208C65.3702 137.567 64.5683 138.891 63.8013 140.215C63.6967 140.041 63.5224 139.762 63.348 139.518C63.4178 139.518 63.4875 139.553 63.5572 139.588C64.0105 138.09 64.4637 136.592 64.9866 134.919C64.4637 135.999 63.9756 136.975 63.4875 137.985C63.104 137.149 63.2434 136.417 63.7664 135.651C64.2196 134.989 64.5683 134.292 64.7775 133.49C64.2894 134.187 63.8013 134.884 63.2783 135.581C63.2086 135.546 63.1737 135.511 63.104 135.476C63.6269 134.327 64.115 133.177 64.638 132.062C64.6031 132.027 64.5334 131.992 64.4985 131.957C64.0453 132.689 63.5921 133.421 63.1389 134.187C62.5113 133.212 62.5113 133.177 63.1389 132.201C63.5224 131.609 63.9756 131.051 64.2196 130.319C63.6269 131.051 63.0343 131.783 62.3718 132.619C61.5351 130.807 63.3829 130.006 63.5921 128.612C62.9645 129.379 62.337 130.145 61.6746 130.912C61.1516 130.459 61.0819 129.971 61.5002 129.379C62.1278 128.542 62.7205 127.671 63.348 126.835C63.2783 126.8 63.2086 126.73 63.1389 126.696C62.4067 127.636 61.6746 128.612 60.9424 129.553C60.8727 129.518 60.8378 129.483 60.7681 129.483C61.3956 128.124 62.0581 126.73 62.6856 125.372C62.6159 125.337 62.581 125.302 62.5113 125.267C61.9186 126.243 61.3259 127.253 60.6984 128.229C60.5938 128.194 60.524 128.124 60.4195 128.089C60.3846 126.138 62.0581 124.953 62.9297 123.385C62.7902 123.385 62.6856 123.351 62.6159 123.281ZM62.3718 117.009C62.4764 117.044 62.5462 117.078 62.6508 117.113C62.7553 118.995 61.9186 120.528 60.7681 122.166C61.3608 120.354 61.8489 118.681 62.3718 117.009ZM61.0121 134.78C61.3259 136.557 61.2213 138.438 61.5351 140.215C61.7792 141.609 62.4764 142.898 62.9297 144.257C63.348 145.581 64.0802 146.696 65.1261 147.533C67.3574 149.345 69.5887 151.157 71.9246 152.829C74.1908 154.432 76.5964 155.826 79.5598 155.721C80.2222 155.686 80.8847 156.07 81.5471 156.035C84.7197 155.965 87.9272 155.896 91.065 155.617C92.843 155.477 94.5862 154.885 96.3643 154.711C99.9902 154.397 102.744 152.411 105.185 150.007C107.381 147.846 109.229 145.303 111.251 142.933C111.356 142.794 111.53 142.689 111.67 142.585C111.914 142.341 112.297 142.132 112.402 141.853C112.96 140.215 113.448 138.543 113.971 136.87C114.075 136.905 114.18 136.905 114.284 136.94C114.424 134.745 114.668 132.55 114.703 130.354C114.738 128.542 114.598 126.73 114.494 124.919C114.459 124.466 114.354 124.013 114.25 123.56C113.448 120.667 111.739 118.193 110.31 115.65C109.752 114.674 108.95 113.768 108.148 113.002C107.172 112.096 106.022 111.329 104.976 110.493C103.616 109.378 102.256 108.263 101.071 106.973C99.9553 105.789 98.6305 105.51 97.0616 105.789C95.5624 106.068 94.0633 106.033 93.1568 104.43C93.0174 104.186 92.6687 104.012 92.3898 103.837C91.7274 103.384 90.8907 103.036 90.4374 102.444C89.9493 101.816 89.3566 101.538 88.6942 101.433C87.6134 101.259 86.5326 101.015 85.4519 101.085C81.7214 101.294 77.9909 101.538 74.5045 103.106C72.9357 103.837 71.297 104.499 69.8676 105.44C68.2987 106.486 66.8693 107.775 65.4399 109.029C64.8123 109.587 64.1848 110.284 63.7664 111.015C63.1388 112.165 62.6508 113.385 62.1278 114.604C61.6397 115.754 61.1167 116.904 60.7332 118.089C60.3497 119.204 59.757 120.284 59.9314 121.608C60.0359 122.41 59.6176 123.246 59.4084 124.082C58.9552 125.999 59.0249 127.88 59.6873 129.797C60.2451 131.4 60.7332 133.072 61.0121 134.78Z" fill="black"/>
<path d="M191.718 5.54034C192.206 5.67972 192.589 5.78425 193.077 5.88878C192.38 6.48114 191.962 6.58568 191.718 5.54034ZM186.314 47.9464C186.279 48.0509 186.07 48.1206 185.93 48.2252C185.721 47.8767 185.512 47.4934 185.303 47.145C186.07 47.1101 186.418 47.3541 186.314 47.9464ZM193.147 46.7268C193.112 47.145 193.008 47.5283 192.938 47.9116C192.833 47.9116 192.729 47.8767 192.659 47.8767C192.589 47.4934 192.519 47.1101 192.45 46.4829C192.763 46.5875 193.147 46.6572 193.147 46.7268ZM194.507 4.46015C194.228 4.35561 194.019 4.07686 193.775 3.83294C194.193 3.83294 194.611 3.7981 195.03 3.7981C195.065 3.90263 195.099 4.00717 195.169 4.1117C194.925 4.25108 194.646 4.52984 194.507 4.46015ZM194.437 49.4447C194.681 49.6538 194.89 49.9326 195.204 50.3507C194.786 50.4552 194.472 50.5946 194.367 50.5249C194.158 50.3507 194.053 50.0371 193.949 49.7583C193.914 49.6538 194.367 49.375 194.437 49.4447ZM187.604 7.90978C187.604 7.4568 187.638 7.03866 187.673 6.58568C187.848 6.62052 187.987 6.62052 188.161 6.65537C188.196 7.10835 188.196 7.56133 188.231 8.04916C188.022 8.01431 187.604 7.97947 187.604 7.90978ZM219.121 18.0845C219.225 17.736 219.225 17.3179 219.434 17.1088C219.574 16.9346 220.027 17.074 220.306 17.0391C220.306 17.1436 220.306 17.283 220.341 17.3876C220.027 17.6315 219.679 17.9102 219.365 18.1541C219.26 18.1541 219.19 18.1193 219.121 18.0845ZM220.446 18.2238C220.515 18.2935 220.55 18.3632 220.62 18.4329C220.097 18.851 219.574 19.304 219.051 19.7222C219.016 18.7117 219.748 18.4677 220.446 18.2238ZM180.038 21.4295C179.968 20.5933 179.864 19.757 179.794 18.9207C179.899 18.9207 179.968 18.8859 180.073 18.8859C180.212 19.7222 180.387 20.5236 180.526 21.3599C180.352 21.3947 180.178 21.3947 180.038 21.4295ZM200.991 49.7583C200.991 49.828 200.259 50.0023 199.876 50.0023C199.736 50.0023 199.632 49.5493 199.492 49.2705C199.562 49.2008 199.667 49.1311 199.736 49.0614C200.015 49.6887 200.957 48.7478 200.991 49.7583ZM219.574 21.2553C220.097 20.8023 220.655 20.3494 221.178 19.8964C221.247 20.0009 221.317 20.1054 221.422 20.21C220.934 20.7327 220.446 21.2902 219.853 21.6735C219.748 21.5341 219.679 21.3947 219.574 21.2553ZM215.076 41.2562C215.146 41.3608 215.216 41.4653 215.286 41.5698C214.902 41.988 214.519 42.4061 214.065 42.9288C213.926 42.65 213.821 42.4061 213.682 42.0925C214.17 41.7789 214.623 41.5001 215.076 41.2562ZM192.938 5.22673C192.763 4.8086 192.589 4.39046 192.485 3.97232C192.485 3.93748 192.798 3.76325 192.973 3.69356C193.147 4.07686 193.356 4.46015 193.6 4.94798C193.217 5.08735 193.077 5.15704 192.938 5.22673ZM189.277 8.95512C189.138 8.64152 188.998 8.32792 188.649 7.63102C188.998 7.59618 189.382 7.49164 189.417 7.56133C189.591 7.90978 189.695 8.29307 189.765 8.64152C189.765 8.71121 189.451 8.85059 189.277 8.95512ZM221.073 24.914C221.003 24.8792 220.934 24.8095 220.899 24.7746C221.596 23.6945 222.328 22.6143 223.025 21.5689C223.13 21.6386 223.27 21.7432 223.374 21.8128C222.607 22.8582 221.84 23.8687 221.073 24.914ZM185.93 45.2285C185.268 45.5073 183.943 45.1937 183.594 44.7058C183.524 44.6013 183.524 44.4271 183.594 44.3226C183.629 44.2529 183.838 44.1832 183.908 44.218C184.57 44.5316 185.233 44.8452 185.93 45.2285ZM190.672 5.47065C190.741 5.33127 190.846 5.22673 190.881 5.19189C191.09 5.33127 191.16 5.36611 191.16 5.40096C191.09 6.16754 191.404 6.69021 192.171 6.93413C192.171 6.93413 192.136 7.21288 192.101 7.24773C191.892 7.31742 191.683 7.38711 191.474 7.31742C190.916 7.17804 190.393 5.92363 190.672 5.47065ZM197.714 48.3994C197.819 48.6433 197.923 48.9918 197.819 49.166C197.61 49.4796 197.226 49.7235 196.912 50.0023C196.808 49.9326 196.703 49.8977 196.564 49.828C196.773 49.3054 196.947 48.8175 197.191 48.3297C197.261 48.26 197.679 48.2949 197.714 48.3994ZM177.109 37.8763C177.005 38.1899 177.075 38.5732 177.04 38.9216C176.865 38.9216 176.691 38.9565 176.517 38.9565C177.144 36.2734 177.702 33.6601 178.609 31.1164C178.713 31.1512 178.818 31.1861 178.957 31.2209C178.922 31.3603 178.922 31.5345 178.853 31.6739C178.295 33.7297 177.702 35.8204 177.109 37.8763ZM177.04 38.9216C177.04 38.9216 177.075 38.9216 177.04 38.9216C177.075 38.9216 177.04 38.9216 177.04 38.9216ZM178.678 28.5379C177.493 31.4648 175.889 34.2176 175.366 37.493C175.331 37.2491 175.192 36.9355 175.262 36.7264C175.854 34.9145 176.447 33.1025 177.144 31.3255C177.493 30.3498 178.016 29.409 178.434 28.4682C178.504 28.4682 178.609 28.503 178.678 28.5379ZM188.615 42.7197C189.521 44.0438 190.393 45.4376 191.264 46.7268C190.985 46.692 190.602 46.6572 190.462 46.6223C190.079 45.8557 189.765 45.2982 189.451 44.7058C189.382 44.7058 189.277 44.7058 189.207 44.7407C189.068 45.124 188.928 45.5073 188.754 45.9603C188.231 45.577 187.743 45.0891 188.092 44.5665C188.58 43.8347 188.301 43.3469 187.883 42.8242C187.813 42.7545 187.813 42.6152 187.673 42.2319C188.127 42.4758 188.475 42.5455 188.615 42.7197ZM175.82 23.3112C175.645 23.2066 175.471 23.0673 175.192 22.8233C176.482 22.8233 177.911 23.9035 178.225 24.705C178.504 25.4367 178.957 26.1336 179.411 27.0047C179.62 25.3322 179.794 23.9732 179.968 22.6143C180.073 22.6143 180.178 22.6143 180.247 22.6143C180.247 22.8582 180.282 23.0673 180.282 23.3112C180.317 24.8095 180.247 26.3427 180.387 27.8061C180.422 28.1894 181.119 28.503 181.502 28.8515C182.339 29.5484 183.141 30.2801 183.978 30.977C183.873 31.1164 183.734 31.2209 183.629 31.3603C181.886 29.862 180.143 28.3985 178.295 26.7956C177.458 28.6076 176.552 30.524 175.645 32.4753C175.61 32.4753 175.541 32.4405 175.506 32.4405C175.715 31.8481 175.889 31.2558 176.168 30.6983C176.691 29.5135 177.354 28.3985 177.772 27.2138C178.016 26.5866 177.911 25.82 177.946 25.1231C177.877 25.1231 177.772 25.0882 177.667 25.0882C177.284 25.7503 176.9 26.4123 176.517 27.0744C176.482 27.0396 176.412 27.0396 176.377 27.0047C176.691 26.3427 176.935 25.6109 177.354 24.9837C177.737 24.3913 177.458 24.1474 177.04 23.9035C176.656 23.6248 176.238 23.4854 175.82 23.3112ZM223.548 31.0815C223.27 33.2768 222.189 35.1584 220.864 36.8658C220.759 37.0052 220.446 36.9355 220.167 36.9703C221.003 35.6462 221.945 34.6009 222.328 33.3813C222.607 32.5102 223.025 31.8133 223.548 31.0815ZM172.961 21.1508C173.763 19.8615 174.913 18.8859 176.238 18.0845C177.842 17.074 179.306 15.8544 180.805 14.7045C181.154 14.4606 181.363 14.0076 181.607 13.694C181.154 13.5546 180.735 13.4501 180.282 13.3456C179.132 12.9971 178.399 12.4744 179.445 11.0807C180.561 9.54748 182.13 8.74605 183.838 7.97947C185.268 7.35226 186.662 6.55083 187.987 5.71456C189.347 4.87829 190.637 3.93748 191.962 2.99667C192.206 2.82244 192.31 2.50884 192.485 2.26493C192.763 2.26493 193.077 2.29977 193.321 2.19524C196.354 0.905983 199.492 0.348467 202.769 0.487846C206.047 0.627225 209.115 1.60288 212.148 2.7876C213.368 3.27543 214.588 3.83294 215.704 4.52984C216.82 5.19189 217.796 6.02816 218.145 7.4568C218.423 8.57183 219.051 9.61717 219.504 10.6625C219.121 10.8716 218.912 11.011 218.702 11.1155C218.877 11.22 219.121 11.2897 219.26 11.4639C219.469 11.7079 219.644 11.9518 219.748 12.2305C219.888 12.6138 219.923 13.032 219.992 13.4501C218.702 13.4153 218.737 13.4153 218.214 12.3351C217.9 11.673 217.482 11.011 217.203 10.3141C217.029 9.89593 217.064 9.4081 217.064 8.95512C217.064 8.64152 217.133 8.29307 217.133 7.97947C217.029 7.97947 216.924 7.94462 216.82 7.94462C216.75 8.36276 216.68 8.74605 216.541 9.37326C216.227 8.88543 216.053 8.60668 215.843 8.36276C215.634 8.11885 215.355 7.90978 214.937 7.73556C215.076 8.01431 215.146 8.29307 215.321 8.53699C215.878 9.37326 216.576 10.1747 217.029 11.0807C217.761 12.5093 218.423 13.9379 218.946 15.4362C219.225 16.2028 219.609 16.168 220.48 15.8544C219.957 15.6105 219.574 15.5059 219.33 15.2969C219.086 15.0878 219.016 14.7045 218.807 14.3561C219.295 14.2167 219.679 14.1121 219.923 14.0425C221.317 17.0043 222.677 19.8964 224.002 22.7188C222.921 24.1474 221.84 25.5412 220.759 26.9699C220.794 27.0047 220.829 27.0396 220.864 27.0744C221.91 25.9245 222.956 24.8095 223.967 23.6596C224.071 23.7293 224.176 23.8338 224.281 23.9035C223.583 25.367 222.398 26.4472 221.178 27.5274C221.247 27.5971 221.282 27.6319 221.352 27.7016C222.258 26.9002 223.165 26.0987 224.106 25.2276C224.525 26.3775 224.002 27.0396 223.339 27.6668C222.258 28.6773 221.178 29.6878 220.097 30.6983C220.132 30.7679 220.202 30.8376 220.236 30.9073C221.387 29.9317 222.537 28.956 223.827 27.8758C223.897 29.1302 223.06 29.7574 222.503 30.3846C221.317 31.6739 219.957 32.7889 218.667 33.9737C218.563 34.0782 218.528 34.2873 218.423 34.566C218.912 34.4963 219.504 34.8796 219.434 33.9737C219.434 33.7994 219.713 33.5904 219.888 33.451C221.108 32.3011 222.363 31.1512 223.758 30.1407C222.537 31.7088 221.282 33.2419 219.888 34.9842C220.655 34.3918 221.247 33.904 221.84 33.451C221.875 33.4858 221.945 33.5207 221.98 33.5555C221.247 34.6357 220.515 35.7159 219.679 36.9006C219.853 37.2491 220.062 37.6672 220.376 38.2944C221.596 36.3779 222.816 34.6706 223.793 32.8586C224.211 32.0572 224.246 31.0467 224.385 30.1059C224.559 29.0954 224.769 28.0849 224.838 27.0744C224.908 25.8897 224.873 24.6701 224.873 23.4505C224.873 23.346 224.873 23.2415 225.013 23.1021C225.117 23.5202 225.222 23.9732 225.257 24.3914C225.431 26.8305 226.024 29.3045 225.082 31.6739C224.42 33.3116 223.583 34.8796 222.816 36.4476C222.119 37.8414 221.038 38.8171 219.679 39.6185C216.994 41.1865 214.554 43.0681 212.531 45.4724C211.904 46.2042 210.963 46.692 210.126 47.2495C208.836 48.1206 207.546 49.0266 206.186 49.8629C203.815 51.3264 201.27 52.1975 198.446 51.9536C196.843 51.8142 195.239 51.7793 193.67 51.64C192.973 51.5703 192.31 51.396 191.683 51.2915C191.578 50.7688 191.474 50.3159 191.369 49.8629C191.264 49.8629 191.195 49.8629 191.09 49.8977C191.09 50.281 191.125 50.6991 191.125 51.2915C189.277 50.5946 187.464 49.9326 185.686 49.2357C185.512 49.166 185.442 48.8524 185.337 48.6782C185.233 48.5039 185.128 48.2252 184.989 48.1903C184.814 48.1555 184.605 48.3297 184.257 48.4342C181.746 47.1798 179.759 44.9846 177.598 43.0333C174.495 40.2109 173.205 36.5173 172.263 32.6496C171.845 30.9073 171.601 29.0606 171.671 27.2835C171.775 25.1231 171.81 22.9976 172.961 21.1508ZM220.411 11.1155C221.945 14.6697 223.514 18.2238 225.048 21.8128C224.943 21.8477 224.873 21.8825 224.769 21.9174C222.607 18.642 221.038 15.0878 220.132 11.2549C220.236 11.1852 220.306 11.1503 220.411 11.1155ZM172.996 37.2491C174.181 40.2806 175.575 43.2075 177.842 45.5421C179.48 47.2147 181.433 48.6085 183.28 50.0719C185.268 51.6051 187.464 52.7898 189.939 53.3474C190.741 53.5216 191.543 53.5564 192.38 53.6261C194.193 53.7655 196.006 54.3578 197.854 53.9397C198.237 53.8352 198.621 53.7655 199.004 53.8003C201.445 54.0094 203.397 52.6505 205.489 51.7445C206.988 51.0824 208.452 50.281 209.882 49.4796C211.485 48.5736 213.194 47.7373 214.554 46.5526C215.774 45.4724 217.029 44.5316 218.354 43.5908C219.923 42.5106 221.457 41.3259 222.747 39.9321C223.688 38.8868 224.246 37.4581 224.908 36.1689C226.059 34.0085 226.895 31.7436 226.965 29.2696C227 27.9107 227.105 26.5866 226.582 25.2625C226.198 24.3217 226.198 23.2066 225.815 22.2658C224.873 19.8964 223.827 17.5618 222.747 15.2272C221.526 12.5441 220.306 9.86109 218.912 7.24773C218.389 6.23723 217.482 5.33127 216.541 4.70406C214.867 3.62387 213.019 2.82244 211.207 1.95133C208.661 0.731759 205.942 0.174243 203.188 1.91778e-05C201.375 -0.104515 199.527 0.139398 197.679 0.313622C195.797 0.487846 194.019 1.04536 192.45 2.16039C192.136 2.26493 191.822 2.29977 191.543 2.43915C189.207 3.72841 186.906 5.01766 184.57 6.30692C183.769 6.72506 182.827 6.96897 182.025 7.38711C181.014 7.94462 180.038 8.57183 179.062 9.19904C178.748 9.4081 178.295 9.65202 178.225 9.93078C177.877 11.1852 177.667 12.4744 177.388 13.7637C177.249 14.3909 177.075 14.9484 176.447 15.3666C175.75 15.7847 175.192 16.3771 174.564 16.9346C173.972 17.4921 173.24 17.9799 172.891 18.6768C171.357 21.4295 171.008 24.461 171.008 27.5622C171.008 30.977 171.775 34.1479 172.996 37.2491Z" fill="black"/>
<path d="M45.9509 52.3367C45.9509 52.511 46.0206 52.7897 45.916 52.8594C45.4628 53.173 45.0793 53.1382 44.626 52.3367C45.149 52.3716 45.5673 52.3716 45.9509 52.3367ZM49.0189 55.5076C48.6703 55.5773 48.3216 55.647 47.7289 55.7515C47.9032 55.2985 48.0427 54.8456 48.1124 54.8456C48.4262 54.8804 48.7748 55.0546 49.0886 55.1592C49.0538 55.2985 49.0189 55.4031 49.0189 55.5076ZM39.501 44.8103C39.7451 44.8451 39.9891 45.0542 40.4423 45.3678C40.0588 45.542 39.8496 45.7162 39.6753 45.6814C39.4661 45.6465 39.257 45.4723 39.0478 45.3329C39.2221 45.1587 39.3964 44.7754 39.501 44.8103ZM26.0086 39.932C26.1829 39.8972 26.427 40.2108 26.6362 40.385C26.3921 40.6289 26.1481 40.838 25.8691 41.1516C25.6948 40.9077 25.4508 40.6637 25.4856 40.5592C25.5554 40.3153 25.7994 40.0017 26.0086 39.932ZM22.8708 37.0747C23.1149 37.3883 23.2892 37.5626 23.4287 37.7716C23.1846 37.9459 22.9406 38.1898 22.6617 38.2943C22.5571 38.3291 22.1736 37.9459 22.2084 37.911C22.3479 37.6671 22.5919 37.4232 22.8708 37.0747ZM20.4303 39.2351C20.4652 39.4442 20.6047 39.7578 20.5001 39.8972C20.3955 40.0714 20.012 40.3153 19.8725 40.2456C19.6285 40.1411 19.5239 39.8275 19.2101 39.4093C19.7679 39.3396 20.1166 39.3048 20.4303 39.2351ZM25.7297 38.8518C25.6251 38.9215 25.5205 38.9912 25.4508 39.0609C25.137 38.7473 24.8581 38.4337 24.5792 38.1201C24.8232 37.9807 25.0673 37.7019 25.2765 37.7368C25.9737 37.8413 25.7646 38.3988 25.7297 38.8518ZM34.3063 42.3363C34.6898 42.6847 35.0733 43.0332 35.4568 43.4165C35.3173 43.5559 35.1779 43.7301 35.0384 43.8695C34.6549 43.521 34.2714 43.2074 33.9227 42.859C33.9227 42.8241 34.2017 42.5105 34.3063 42.3363ZM42.0809 48.5038C42.7782 49.9324 43.4058 51.3959 44.0682 52.8594C44.0333 52.9291 43.9985 52.9988 43.9636 53.0685C43.7196 52.9291 43.3709 52.8594 43.2663 52.6852C42.7085 51.605 42.2553 50.5248 41.7323 49.4098C41.558 48.9916 41.3488 48.6083 41.1396 48.2251C41.2093 48.1554 41.2791 48.0857 41.3488 47.9811C41.6626 48.1554 41.9763 48.2947 42.0809 48.5038ZM44.5214 51.5353C44.5912 51.7095 44.4866 51.9534 44.4866 52.1277C44.3471 52.058 44.1031 52.0231 44.0682 51.9186C43.3361 50.3506 42.6388 48.7826 41.9066 47.11C42.7085 46.9358 42.9874 46.9706 43.1617 47.6327C43.5452 48.9916 44.1031 50.246 44.5214 51.5353ZM24.5094 88.9934C24.5094 89.0631 24.5094 89.1328 24.5443 89.2025C24.1957 89.3767 23.8122 89.5509 23.3589 89.76C23.2543 89.4813 23.1497 89.2373 23.0103 88.8192C23.6378 88.9237 24.0562 88.9586 24.5094 88.9934ZM54.7017 79.7247C54.8412 79.9686 54.7366 80.3519 54.7366 80.6655C54.632 80.7004 54.5623 80.7352 54.4577 80.7701C54.2136 80.4565 54.0045 80.108 53.7604 79.7944C53.7953 79.7247 53.865 79.6202 53.8999 79.5505C54.1788 79.5853 54.5971 79.5505 54.7017 79.7247ZM57.7001 73.836C57.5606 73.6269 57.2817 73.383 57.2817 73.1739C57.2817 72.9997 57.5606 72.7906 57.7001 72.5815C57.9092 72.7209 58.0835 72.8951 58.3625 73.1042C58.0487 73.383 57.8744 73.6269 57.7001 73.836ZM52.9237 69.7243C53.0631 70.003 53.3072 70.3166 53.342 70.6302C53.3769 70.7696 52.9585 71.1181 52.8888 71.0832C52.6099 70.9438 52.3658 70.7348 52.1915 70.4909C52.1567 70.4212 52.4007 70.1424 52.5402 69.9682C52.6796 69.8985 52.7842 69.8288 52.9237 69.7243ZM56.933 74.5328C57.1422 74.6722 57.3514 74.8116 57.5606 74.951C57.2817 75.2646 57.0028 75.613 56.7239 75.9266C56.5844 75.8569 56.4449 75.7524 56.3404 75.6827C56.5147 75.2994 56.7239 74.9161 56.933 74.5328ZM56.3055 71.6059C56.5844 72.1286 56.7936 72.477 57.0028 72.8255C56.7587 72.8603 56.4798 72.9997 56.3055 72.93C55.7477 72.6861 55.7477 72.3028 56.3055 71.6059ZM50.518 86.7285C50.1694 87.0421 49.8556 87.3209 49.507 87.5996C49.0886 86.624 49.6116 86.4846 50.1345 86.3801C50.2391 86.4149 50.3786 86.624 50.518 86.7285ZM8.96007 83.697C8.96007 83.9758 8.96007 84.2545 8.9252 84.4985C8.89034 84.7424 8.78575 85.0211 8.75088 85.265C8.57656 85.0211 8.40224 84.7772 8.26278 84.4985C8.22792 84.3939 8.26278 84.2545 8.26278 83.9409C8.26278 83.9061 8.22792 83.6622 8.33251 83.5228C8.43711 83.3486 8.68115 83.2789 8.85547 83.1395C8.85547 83.3486 8.9252 83.5228 8.96007 83.697ZM7.84442 82.4078C7.91414 82.5123 7.98387 82.582 8.0536 82.6865C7.98387 82.9304 7.91414 83.1743 7.80955 83.4183C7.73982 83.6273 7.63523 83.8364 7.46091 83.9409C7.39118 83.9758 7.04254 83.8364 7.00768 83.697C6.93795 83.4531 6.83336 83.1047 6.97281 82.9653C7.182 82.7214 7.53064 82.582 7.84442 82.4078ZM55.155 78.54C54.1439 78.4006 53.865 77.5643 54.388 76.4145C55.4339 76.9023 55.5385 77.2507 55.155 78.54ZM10.3546 45.3329C9.72708 44.7406 9.09952 44.1134 8.47197 43.521C8.5417 43.4165 8.61143 43.3468 8.68115 43.2423C9.65735 43.068 9.9014 44.2876 10.7033 44.4618C10.773 44.4618 10.7033 44.9496 10.7033 45.1936C10.5638 45.2284 10.4592 45.2633 10.3546 45.3329ZM10.7381 83.6622C10.8079 83.8016 10.8427 84.0106 10.8427 84.1849C10.7033 85.0211 10.5638 85.8574 10.2849 86.6937C9.48303 85.6135 9.83167 84.5681 10.2849 83.3834C10.4941 83.5228 10.6684 83.5576 10.7381 83.6622ZM13.1089 88.4359C13.1786 88.5056 13.0392 88.7844 13.0043 88.9237C12.83 88.8192 12.5162 88.7495 12.4465 88.5753C11.9584 87.3557 11.6446 86.1362 11.9235 84.8121C12.0281 84.7772 12.1327 84.7075 12.2373 84.6727C12.3419 84.9514 12.5162 85.2302 12.5162 85.5089C12.5511 86.5543 12.3767 87.5648 13.1089 88.4359ZM14.887 89.2025C14.9218 89.2373 14.9218 89.3767 14.9218 89.4464C13.7364 89.4116 12.4116 86.7982 13.4924 85.2302C13.6319 85.3696 13.9108 85.5438 13.8759 85.6483C13.597 87.0073 13.7713 88.2268 14.887 89.2025ZM17.1183 90.666C17.1183 90.7357 17.1531 90.8402 17.1531 90.9099C16.8742 90.8054 16.5604 90.8054 16.3861 90.6311C15.131 89.5509 14.9916 88.0875 14.9916 86.5891C15.0961 86.5543 15.1659 86.4846 15.2705 86.4498C15.4099 86.7634 15.6191 87.0421 15.6888 87.3557C15.8632 88.0178 15.8632 88.7495 16.1072 89.3767C16.2815 89.8645 16.7696 90.2478 17.1183 90.666ZM48.8097 89.4464C48.7051 89.6903 48.3216 90.0388 48.0776 90.0039C47.7289 90.0039 47.2757 89.7949 47.0665 89.5161C46.8225 89.2025 46.7527 88.7147 46.5435 88.1223C46.6481 88.0178 46.7876 87.8435 46.9619 87.7042C47.0316 87.739 47.1014 87.739 47.1362 87.739C47.5197 87.9829 47.8684 88.2617 48.2867 88.4359C48.7748 88.6798 49.0189 88.9934 48.8097 89.4464ZM22.1736 90.0039C22.1387 90.0736 22.1387 90.2478 22.069 90.2827C21.3368 90.5266 20.6047 90.875 19.8725 90.9099C17.955 91.0144 16.9091 89.6206 17.3972 87.5996C18.2688 88.2268 17.432 89.6903 18.722 90.1085C18.8615 89.6555 18.9661 89.307 19.1055 88.8889C19.8028 88.7844 19.6982 89.2722 19.7331 89.6903C19.7679 89.8645 19.9074 90.1085 20.0468 90.1781C20.1863 90.2478 20.5698 90.1433 20.6047 90.0736C21.0579 88.7844 21.6157 89.4812 22.1736 90.0039ZM5.29934 50.4203C5.68284 49.9324 5.61311 49.5492 5.05529 49.2007C4.88097 49.0962 4.77638 48.8523 4.70665 48.469C4.9507 48.5038 5.26447 48.469 5.47366 48.6083C6.34526 49.131 6.51958 49.0613 6.62417 48.0857C6.13608 47.8418 5.68284 47.5978 5.19475 47.3539C5.22961 47.2494 5.29934 47.1449 5.3342 47.0403C5.99662 47.2146 6.6939 47.3888 7.35632 47.5979C7.39118 47.4933 7.42605 47.3888 7.46091 47.2842C6.90309 46.9706 6.34526 46.657 5.71771 46.3434C6.13608 45.4723 6.90309 45.995 7.04254 46.2041C7.94901 47.3888 8.40224 46.5177 9.02979 45.8556C8.43711 45.5072 7.87928 45.1587 7.28659 44.8103C7.87928 44.0437 8.26278 44.7406 8.64629 44.88C9.13439 45.0542 9.58762 45.2981 10.1454 45.5769C10.006 45.7859 9.86653 46.1692 9.65735 46.2389C8.26278 46.6919 7.73982 48.0857 6.6939 48.9219C6.58931 49.0265 6.44985 49.1659 6.44985 49.3052C6.62417 50.2461 5.8223 50.1764 5.29934 50.4203ZM5.29934 50.4203C5.29934 50.4551 5.26447 50.4203 5.29934 50.4203V50.4203ZM5.29934 50.4551C5.26447 50.4203 5.26447 50.4203 5.29934 50.4551C5.26447 50.4203 5.26447 50.4203 5.29934 50.4551ZM58.4322 68.3653C58.3625 68.4002 58.2927 68.435 58.223 68.4699C57.5955 67.4942 57.0028 66.4837 56.3752 65.5081C55.9917 64.8808 55.7128 64.184 55.2247 63.6961C54.8063 63.278 54.1091 63.1038 53.5512 62.825C53.4815 62.9992 53.2723 63.278 53.342 63.3825C53.6558 64.0097 53.9696 64.6021 54.3531 65.1945C54.9458 66.1353 55.5733 67.0412 56.3404 68.1911C54.632 66.6231 53.1329 65.1596 51.5291 63.8355C50.6226 63.0689 49.5419 62.4766 48.5657 61.7448C48.1822 61.4661 47.8684 61.0479 47.6941 60.6298C46.8573 58.7133 45.6719 57.1453 43.8241 56.0651C43.0223 55.5773 42.325 54.9152 41.5928 54.3577C42.3947 54.4623 43.1617 54.5668 43.7893 54.6365C43.0223 53.1033 42.325 51.6398 41.5928 50.2112C41.3837 49.7931 41.0699 49.4446 40.791 49.0613C40.7212 49.4795 40.6167 49.8976 40.5469 50.4203C40.4075 50.4551 40.1286 50.5248 39.6405 50.6293C39.9891 51.3611 40.268 51.9883 40.5818 52.6503C40.791 53.1033 41.0699 53.5563 41.2791 54.0093C40.2331 52.9639 39.1872 51.9186 38.1064 50.9081C37.2697 50.1415 36.3632 49.5143 35.5614 48.7129C34.5852 47.7721 33.6438 46.7964 32.8071 45.7162C31.4125 43.974 29.495 43.3119 27.4032 42.9983C26.0086 42.7893 24.614 42.8938 23.2195 42.7893C22.313 42.7196 21.4414 42.6499 20.5349 42.4757C18.0596 41.9878 15.5842 41.3606 13.1089 40.9425C11.8538 40.7334 10.5289 40.8031 9.20411 40.7334C8.40224 40.6986 7.60037 40.5592 6.90309 40.4895C7.49577 40.1411 8.0536 39.6532 8.75088 39.3745C9.20411 39.2003 9.76194 39.2351 10.25 39.27C11.6097 39.3745 12.9694 39.5139 14.3291 39.6184C14.3291 39.479 14.364 39.3396 14.364 39.2003C13.074 39.026 11.7841 38.8518 10.4592 38.6776C10.4592 38.5382 10.4592 38.3988 10.4592 38.2246C11.017 38.1898 11.5749 38.1201 12.0978 38.1898C13.2832 38.364 14.4337 38.6079 15.5842 38.7821C15.8632 38.817 16.1421 38.7473 16.3861 38.7124C16.3861 38.6079 16.3861 38.5034 16.421 38.3988C15.0961 38.1201 13.8062 37.8413 12.4813 37.5277C12.4813 37.458 12.4813 37.3535 12.4465 37.2838C12.7951 37.249 13.1786 37.1444 13.5273 37.2141C14.9218 37.4232 16.3164 37.7019 17.7109 37.9459C17.9201 37.9807 18.1642 37.8413 18.4082 37.8065C18.4082 37.7019 18.4082 37.5974 18.4082 37.4929C17.2229 37.2838 16.0375 37.0747 14.8521 36.8308C14.8521 36.7263 14.887 36.6218 14.887 36.5172C15.7586 36.5172 16.6302 36.5172 17.5018 36.5172C18.5128 36.4824 19.5239 36.4127 20.5349 36.3778C20.779 36.3778 21.023 36.4824 21.2322 36.4824C21.79 36.4824 22.313 36.4127 22.836 36.4127C23.1149 36.4127 23.4287 36.4824 23.7076 36.5869C24.614 36.8657 25.5205 37.2141 26.427 37.458C27.8215 37.8413 28.3794 38.5382 28.5188 40.3153C29.495 40.0714 30.5409 40.0017 31.4125 39.5836C32.075 39.27 32.5282 39.4093 33.0163 39.6881C34.7595 40.7334 36.5027 41.7788 38.211 42.8938C39.5359 43.7649 40.8258 44.7406 42.1158 45.6814C43.0571 46.3783 43.5801 47.3191 43.8241 48.4341C43.8939 48.7826 44.1728 49.131 44.4168 49.3749C44.8003 49.7931 45.2536 50.1067 45.5673 50.3506C45.2884 50.8036 45.0444 51.0475 45.0444 51.2914C45.0444 51.4656 45.3233 51.7792 45.5325 51.8489C47.7638 52.511 49.507 53.8351 50.8667 56.0651C50.3437 55.7864 49.9602 55.4379 49.5767 55.4379C49.2281 55.4379 48.8794 55.8212 48.3913 56.1C48.6005 56.4833 48.8097 56.9014 49.0538 57.3544C47.5546 56.2742 47.5546 56.2742 47.4151 56.309C47.3454 56.762 47.2408 57.1453 47.2757 57.4938C47.3106 57.7725 47.4849 58.121 47.6941 58.33C48.5657 59.2708 49.4721 60.142 50.3786 61.0479C50.518 61.1873 50.7621 61.2222 51.1805 61.3615C50.1694 60.2465 49.3327 59.3405 48.5308 58.4346C49.5419 58.6785 49.9951 59.8284 51.4245 59.6541C50.797 59.1663 50.3437 58.8179 49.751 58.3649C50.3437 58.4694 50.7272 58.5739 51.3199 58.6785C50.4832 57.7377 49.8556 57.0408 49.2281 56.309C50.5878 57.5983 51.5988 57.9467 52.0869 56.9711C55.2247 60.3859 56.3055 64.6369 58.4322 68.3653ZM59.1992 74.3238C59.3038 74.3238 59.4084 74.3586 59.513 74.3586C58.8157 75.6479 58.1184 76.9371 57.3514 78.2264C56.5844 79.5157 55.6779 80.7701 54.9109 82.0942C54.4926 82.8259 53.9696 83.0698 53.1329 82.9304C53.0631 82.6865 52.9934 82.4078 52.8888 81.9896C52.331 82.6168 51.8429 83.1395 51.3896 83.7319C51.3199 83.8364 51.4942 84.15 51.5291 84.3591C51.7732 84.2894 52.0521 84.2894 52.2612 84.15C52.7842 83.8364 53.2723 83.488 53.7953 83.1744C53.865 83.2789 53.9347 83.3486 54.0045 83.4531C52.6099 85.6483 51.3199 87.9132 49.7162 89.9691C48.984 90.9447 47.8335 91.6416 46.3344 91.6068C42.1855 91.4326 38.0716 91.4326 33.9227 91.3977C31.4125 91.3629 28.8675 91.3629 26.3572 91.3977C25.2765 91.4326 24.1957 91.6416 23.08 91.7113C21.6157 91.8159 20.0817 91.6765 18.6523 91.9204C15.9677 92.3734 13.841 91.2235 11.8189 89.8297C10.3895 88.8192 9.02979 87.6693 7.63523 86.5891C6.24067 85.4741 4.8461 84.3242 3.45154 83.244C2.64967 82.6517 2.33589 82.0245 2.96344 81.1185C3.17263 80.8049 3.27722 80.4216 3.41668 80.1429C4.07909 80.8049 4.70665 81.4321 5.3342 82.0593C5.3342 82.0245 5.36907 82.0245 5.36907 81.9896C5.54339 82.3032 5.75257 82.6168 5.92689 82.9304C6.24067 82.7562 6.55444 82.5471 7.00768 82.2684C6.58931 81.8851 6.3104 81.4321 5.99662 81.3624C3.86991 80.9094 3.38181 78.8884 4.70665 77.0765C4.81124 77.181 4.98556 77.2507 4.98556 77.3553C5.09015 79.0278 6.51958 79.4808 7.63523 80.2474C8.36738 80.7352 9.06466 81.3276 9.76194 81.8851C9.7968 81.8154 9.86653 81.7806 9.9014 81.7109C9.13439 81.0488 8.36738 80.4216 7.60037 79.7596C6.93795 79.1672 5.92689 78.6794 5.68284 77.9476C5.12502 76.2751 4.18369 74.6722 4.18369 72.8255C4.18369 71.3968 3.93964 69.9333 4.77638 68.6092C4.91583 68.4002 4.81124 68.0517 4.77638 67.7381C4.74151 67.4594 4.70665 67.1806 4.60206 66.9367C3.69559 65.0202 4.00937 62.9992 3.86991 60.9782C3.76532 59.3754 3.45154 57.7725 3.24236 56.1697C3.17263 55.6818 3.24236 55.3682 3.62586 54.9153C4.21855 54.1487 4.4626 53.173 4.8461 52.267C4.91583 52.0928 4.9507 51.8141 5.09015 51.7444C5.78744 51.3959 5.54339 50.9429 5.26447 50.4551C5.05529 50.2809 4.8461 50.1415 4.60206 49.9673C4.53233 50.0021 4.4626 50.0021 4.39287 50.037C4.4626 50.4551 4.53233 50.8733 4.60206 51.3611C4.04423 51.4308 3.69559 51.5702 3.9745 52.4064C4.11396 52.8246 3.62586 53.4518 3.38181 54.1138C3.20749 53.8351 3.03317 53.6608 3.03317 53.5215C3.24236 51.0126 3.27722 48.4341 4.42774 46.0995C5.15988 44.5664 6.13608 43.3468 7.70496 42.5454C9.86653 41.4652 12.0281 41.6742 14.2245 42.0575C16.2467 42.3711 18.3036 42.6499 20.256 43.2423C21.8598 43.7301 23.5333 43.521 25.137 43.9391C27.961 44.7057 30.8547 45.3678 32.9466 47.8069C33.7136 48.7129 34.7595 49.4098 35.7705 50.0021C37.4092 50.9429 38.5945 52.3019 39.8845 53.6608C41.0002 54.8456 42.2204 56.0303 43.615 56.8317C45.2536 57.7725 46.0903 59.236 46.8922 60.7343C47.45 61.7448 48.1124 62.5114 49.0189 63.1735C50.5878 64.3233 52.0869 65.5777 53.5512 66.867C54.5623 67.773 55.5733 68.7138 56.2706 69.8288C57.0028 70.9787 58.2579 71.7104 58.6414 73.1042C58.746 73.5572 58.99 73.9056 59.1992 74.3238ZM2.30103 81.7457C1.46429 80.4913 1.22024 79.202 1.11565 77.9128C0.941328 75.5434 1.49915 73.2784 2.05698 71.0135C2.51021 69.1319 2.89372 67.2154 3.45154 65.299C3.80018 66.414 4.53233 67.32 4.04423 68.7138C3.41668 70.456 3.27722 72.4073 3.90477 74.2541C4.4626 75.9266 4.11396 77.3901 3.31209 78.8536C2.96344 79.5157 2.85885 80.2822 2.64967 80.9791C2.57994 81.1882 2.47535 81.3973 2.30103 81.7457ZM52.5402 56.1697C51.4245 55.0546 50.3089 53.9744 49.2281 52.8246C47.8335 51.3262 46.2995 49.8976 45.1838 48.2251C44.2425 46.7616 43.4406 45.2633 41.9764 44.2179C41.3139 43.7649 40.5818 43.3468 40.024 42.7544C37.967 40.6986 35.5614 39.2351 32.8071 38.2943C30.4363 37.458 28.1004 36.5172 25.6948 35.7855C23.2543 35.0537 20.8139 33.869 18.1293 34.6704C17.4669 34.8795 16.8045 35.0189 16.1421 35.2628C14.1897 35.9597 12.1676 36.5521 10.3198 37.458C8.50683 38.364 6.44985 39.0609 5.47366 41.1167C5.43879 41.1864 5.3342 41.2561 5.29934 41.3258C4.39287 42.615 3.31209 43.8346 2.64967 45.2284C2.09184 46.448 1.88266 47.9115 1.77807 49.3052C1.63861 50.9778 1.7432 52.6503 1.81293 54.3229C1.91752 56.0651 2.12671 57.8422 2.26616 59.5844C2.37076 60.804 2.6148 62.0236 2.44048 63.2083C2.02211 65.961 1.3597 68.6789 0.836736 71.3968C0.557823 72.8603 0.244046 74.3586 0.0697258 75.8569C-0.0697305 77.0417 -2.35159e-06 78.2264 0.0348617 79.446C0.10459 80.9443 -0.174323 82.5471 1.39456 83.5576C1.49915 83.6273 1.56888 83.7319 1.60375 83.8364C2.96344 85.9968 4.91583 87.5648 6.90309 89.0631C8.96007 90.6311 11.1565 91.9552 13.3181 93.3839C13.8062 93.6975 14.3291 94.0459 14.8521 94.1505C16.9091 94.4989 18.9661 94.3944 21.0579 93.8368C22.5919 93.4187 24.1957 93.2793 25.7994 93.0703C26.7407 92.9309 27.6821 92.896 28.6234 92.8612C31.2034 92.7567 33.7833 92.5128 36.3632 92.5824C39.4313 92.687 42.4644 93.0703 45.8463 93.349C46.683 93.2096 47.7986 93.1748 48.8794 92.8612C50.8667 92.3037 52.6796 91.3977 53.7604 89.5858C54.8412 87.7739 55.8523 85.8922 56.689 83.9758C58.0487 80.8746 59.1992 77.634 60.5589 74.5328C61.1167 73.2087 61.0819 71.9892 60.6286 70.7348C60.3846 70.0379 60.0359 69.4107 59.7222 68.7486C58.746 66.7276 57.7 64.7415 56.7239 62.7205C55.7825 60.6995 55.0155 58.5739 53.2374 57.0756C52.9934 56.762 52.8191 56.4136 52.5402 56.1697Z" fill="black"/>
<path d="M172.612 83.9063C172.717 83.9063 172.786 83.8714 172.891 83.8714C173.17 85.0213 173.449 86.1712 173.693 87.321C173.728 87.4256 173.553 87.6346 173.449 87.7392C173.414 87.774 173.17 87.6695 173.17 87.5998C172.996 86.3802 172.786 85.1258 172.612 83.9063ZM172.996 87.774C173.03 87.8786 173.1 87.9482 173.135 88.0528C172.856 88.2967 172.612 88.5406 172.229 88.9239C172.229 88.9239 172.298 89.2027 172.368 89.5163C171.496 89.133 171.008 86.9377 171.531 85.9272C171.601 86.6241 171.706 87.2513 171.775 87.8786C172.159 87.8437 172.577 87.8089 172.996 87.774ZM146.011 93.4886C145.767 93.7673 145.523 94.0461 145.104 94.4991C144.965 94.1158 144.756 93.837 144.825 93.7325C145.104 93.3143 145.488 93.0704 146.011 93.4886ZM140.154 57.8772C139.77 57.7727 139.421 57.703 138.968 57.5985C139.282 57.1455 139.526 56.8319 139.875 56.344C139.979 56.9364 140.049 57.3197 140.154 57.8772ZM170.137 76.101C170.241 76.1359 170.346 76.1707 170.485 76.2056C170.625 76.6934 170.764 77.1812 170.973 77.9478C170.52 77.7387 170.067 77.6342 170.032 77.4948C169.962 77.0418 170.102 76.5889 170.137 76.101ZM158.004 57.0758C158.388 57.25 158.771 57.3894 159.12 57.5636C159.085 57.7378 159.015 57.8772 158.98 58.0514C158.562 57.9818 158.178 57.9121 157.76 57.8075C157.865 57.5636 157.934 57.3197 158.004 57.0758ZM165.151 59.0271C165.5 59.2362 165.744 59.6543 166.023 59.9679C165.883 60.0376 165.674 60.2118 165.604 60.177C165.116 59.8982 164.663 59.5498 164.175 59.2362C164.175 59.1665 164.14 59.0968 164.14 59.0271C164.489 58.9922 164.907 58.8529 165.151 59.0271ZM149.671 97.1473C150.299 96.5897 150.857 96.0671 151.519 95.4747C151.589 96.6246 150.683 97.4609 149.671 97.1473ZM145.592 56.0304C145 55.9259 144.546 55.8214 143.989 55.7168C143.919 55.5775 143.814 55.3335 143.675 55.0199C144.372 54.4276 144.965 54.9503 145.523 55.1942C145.627 55.229 145.558 55.682 145.592 56.0304ZM137.295 89.9344C137.469 90.1086 137.434 90.4222 137.504 90.701C137.26 90.6661 137.016 90.6661 136.807 90.5964C136.667 90.5616 136.563 90.4222 136.388 90.3177C136.179 90.4919 136.04 90.6661 135.865 90.7358C135.726 90.7707 135.482 90.7358 135.377 90.6313C135.307 90.5616 135.307 90.2828 135.377 90.1783C135.726 89.5511 136.772 89.4117 137.295 89.9344ZM141.165 93.5583C140.642 93.4537 140.119 93.3143 139.561 93.175C139.735 92.6523 139.84 92.3387 140.014 91.7463C140.398 92.0251 140.781 92.1993 140.955 92.4781C141.095 92.6871 140.99 93.0007 141.374 93.0007C141.409 93.0007 141.513 93.2446 141.478 93.3492C141.478 93.4537 141.269 93.5931 141.165 93.5583ZM144.128 96.2761C144.477 96.3458 144.825 96.4155 145.244 96.5201C144.581 97.4609 142.35 97.1473 141.444 95.9625C141.757 95.9277 142.071 95.8232 142.211 95.9277C142.943 96.4504 143.57 96.4504 144.233 95.405C144.198 95.9277 144.163 96.1368 144.128 96.2761ZM149.916 96.1716C149.288 97.4957 148.382 97.8093 147.231 97.1473C147.022 97.0427 146.952 96.6943 146.813 96.4504C147.057 96.3807 147.301 96.311 147.58 96.2761C147.963 96.2413 148.347 96.2065 148.73 96.2065C149.079 96.1716 149.462 96.2065 149.916 96.1716ZM173.484 66.1006C173.902 67.3201 174.286 68.5746 174.704 69.829C174.878 70.4213 175.436 70.8743 174.808 71.7106C174.32 72.3378 174.39 73.418 174.146 74.2543C173.309 77.1812 171.671 79.5855 169.474 81.6762C169.335 81.7807 169.091 81.8156 169.021 81.9549C168.847 82.2337 168.568 82.6867 168.672 82.8958C169.405 84.2199 168.672 85.3 168.045 86.2408C166.929 87.9134 165.604 89.4814 164.349 91.0843C163.617 92.0251 162.99 93.0704 162.083 93.8022C161.456 94.3248 160.479 94.3597 159.712 94.7081C157.83 95.5096 155.877 96.2065 154.064 97.1821C151.903 98.332 149.741 99.2031 147.301 99.0637C147.231 98.785 147.161 98.5062 147.092 98.2623C146.882 98.4365 146.743 98.6456 146.499 98.7501C146.185 98.8547 145.767 99.0289 145.488 98.8895C143.745 98.2274 141.932 97.6351 140.293 96.7291C139.282 96.1716 138.55 95.1611 137.678 94.3597C137.504 94.2203 137.295 94.1158 137.086 93.9764C137.19 94.1506 137.33 94.3248 137.469 94.5339C136.249 94.8127 135.273 94.29 134.331 93.6279C135.273 93.7673 136.284 93.2447 137.12 93.9764C136.841 93.6279 136.528 93.2795 136.249 92.931C136.04 93.0007 135.83 93.1053 135.621 93.1053C133.948 93.0007 132.344 92.722 131.472 90.8404C132.205 91.0146 132.902 91.3282 133.564 91.2585C134.331 91.1888 134.819 91.5024 135.342 91.8857C134.889 91.2237 134.436 90.5964 134.018 89.9344C132.902 88.1573 131.786 86.3454 130.671 84.5335C130.427 84.185 130.078 83.9063 129.625 83.732C129.764 83.9759 129.869 84.2199 130.008 84.4289C129.938 84.4638 129.869 84.4986 129.799 84.5335C129.485 83.9411 129.206 83.3139 128.788 82.4776C129.381 82.7564 129.729 82.9306 130.113 83.1048C130.148 83.0351 130.217 83.0003 130.252 82.9306C129.904 82.6518 129.555 82.3382 129.206 82.0595C128.823 81.711 128.37 81.4323 128.021 81.049C127.742 80.7005 127.568 80.2127 127.324 79.7946C127.393 79.7249 127.463 79.6552 127.568 79.6203C128.021 79.8643 128.509 80.1082 128.962 80.3869C128.997 80.2824 129.067 80.2127 129.137 80.1082C128.718 79.7946 128.195 79.5507 127.951 79.1325C127.498 78.4008 127.219 77.5645 126.905 76.7631C126.836 76.6237 126.801 76.3798 126.696 76.3101C125.511 75.8223 125.441 74.7072 125.406 73.6967C125.301 71.5364 125.406 69.376 126.452 67.4247C126.626 67.1111 126.94 66.7975 127.289 66.6581C130.252 65.1249 132.937 63.2433 134.959 60.5603C135.377 60.0027 135.621 59.3059 136.005 58.7135C136.981 57.1455 137.469 55.1245 139.282 54.2534C141.06 53.4171 142.873 52.4763 144.756 52.1627C146.499 51.8839 148.347 52.3021 150.125 52.6505C150.683 52.755 151.136 53.5565 151.589 54.0443C152.217 54.7412 152.844 55.4381 153.472 56.135C153.576 56.0653 153.646 55.9956 153.751 55.9259C153.018 55.0199 152.321 54.114 151.589 53.208C151.659 53.1732 151.694 53.1035 151.763 53.0686C152.182 53.5216 152.635 53.9398 153.053 54.3927C153.541 54.9154 153.995 55.5078 154.518 55.9956C154.657 56.135 154.936 56.2047 155.145 56.2744C155.075 56.0653 155.041 55.7865 154.901 55.6472C154.308 54.9503 153.646 54.2882 152.879 53.4519C153.611 53.5216 154.134 53.5565 154.692 53.6262C154.552 53.8004 154.448 53.9049 154.413 53.9398C154.866 54.3927 155.285 54.8457 155.738 55.2987C156.156 55.7168 156.331 55.682 156.609 55.1593C156.923 55.2639 157.272 55.3336 157.62 55.4381C157.655 55.3684 157.655 55.2987 157.69 55.229C157.307 54.776 156.923 54.323 156.47 53.8004C157.098 53.6958 157.411 53.9049 157.83 54.6367C157.899 54.776 157.969 54.9851 158.109 55.0548C158.283 55.1942 158.527 55.229 158.736 55.2987C158.666 55.1245 158.597 54.9503 158.527 54.776C158.422 54.5321 158.353 54.2882 158.283 54.114C159.12 54.4973 159.956 54.8806 160.828 55.2639C160.933 55.1593 161.037 54.9503 161.246 54.7063C162.99 55.6472 164.907 56.2744 165.988 58.156C166.302 58.6786 166.65 59.1316 166.999 59.6195C167.592 60.4557 168.463 60.8042 169.37 61.1526C171.566 61.9889 172.751 63.8705 173.484 66.1006ZM175.331 73.4528C176.133 74.533 176.447 75.9616 176.621 77.4251C176.656 77.8084 176.865 78.1569 176.865 78.5402C176.9 79.2022 176.97 79.9339 176.831 80.5612C176.691 81.258 176.447 81.9201 176.203 82.5822C176.168 82.0943 175.715 81.711 175.785 81.2232C175.854 80.8051 176.029 80.4218 176.168 80.0385C176.831 80.2476 176.656 79.8294 176.621 79.481C176.447 78.2962 176.273 77.0767 176.064 75.892C175.994 75.5784 175.854 75.2647 175.75 74.986C175.68 74.986 175.645 75.0208 175.575 75.0208C175.715 76.0662 175.854 77.1115 175.959 78.1569C175.854 78.1917 175.75 78.2266 175.645 78.2614C175.575 78.0872 175.401 77.913 175.401 77.7736C175.366 77.2857 175.436 76.7979 175.401 76.2752C175.401 76.1359 175.331 75.9268 175.262 75.892C175.122 75.8571 174.913 75.8571 174.774 75.9616C174.286 76.2752 174.251 77.1812 174.53 77.7039C174.878 78.2962 175.436 78.8886 174.983 79.7249C174.948 79.8294 174.913 79.9339 174.948 80.0385C175.157 80.9444 175.366 81.8156 175.61 82.6867C175.645 82.8261 175.889 82.9306 176.064 83.0351V83.07L176.098 83.0351C175.924 83.732 175.75 84.4289 175.575 85.1258C175.471 85.1258 175.366 85.1258 175.262 85.1258C174.948 83.732 174.599 82.3034 174.286 80.9096C174.181 80.9444 174.076 80.9793 174.007 80.9793C174.495 82.5473 174.32 84.2547 175.227 85.8227C173.17 90.1086 171.392 92.1645 169.997 91.9902C170.346 91.5024 170.939 90.9797 171.008 90.3874C171.078 89.5163 170.764 88.6451 170.59 87.7392C170.45 87.774 170.346 87.774 170.206 87.8089C170.276 88.2967 170.346 88.7497 170.416 89.2375C170.45 89.7253 170.45 90.1783 170.45 90.701C170.102 90.7358 169.823 90.7358 169.579 90.7707C169.405 90.248 169.23 89.795 169.056 89.3072C168.986 89.3072 168.951 89.342 168.882 89.342C168.986 90.1086 168.951 90.9449 169.265 91.6418C169.579 92.3387 169.37 92.5129 168.812 92.6871C168.533 92.7568 168.254 92.7917 167.975 92.8614C168.149 92.2341 168.289 91.6069 168.463 90.9449C168.428 90.9449 168.184 90.91 167.94 90.8752C167.801 90.1435 167.661 89.4117 167.522 88.6451C167.417 89.0981 167.417 89.5511 167.522 89.9692C167.661 90.5616 167.836 91.0843 167.243 91.5721C167.173 91.6418 167.313 92.0599 167.417 92.269C167.522 92.4781 167.731 92.6174 167.905 92.7917C166.929 93.5931 165.814 93.837 164.558 93.7325C164.245 93.6976 163.896 94.0112 163.547 94.1158C163.199 94.2203 162.815 94.29 162.397 94.2203C163.094 93.5931 163.826 93.0007 164.454 92.3038C164.907 91.7812 165.047 91.0494 165.5 90.4919C166.72 88.9239 168.01 87.3907 169.3 85.8576C169.928 85.1258 169.962 84.3244 169.893 83.4184C169.858 82.8958 169.858 82.3731 169.823 81.6413C170.555 82.2337 170.416 83.279 171.427 83.279C171.148 82.4428 170.939 81.6762 170.695 80.9444C170.799 80.9096 170.904 80.8748 171.008 80.8399C171.148 81.1884 171.252 81.5717 171.392 81.8853C171.496 82.0595 171.671 82.2337 171.81 82.3731C171.95 82.1989 172.194 82.0595 172.263 81.8853C172.438 81.3277 172.229 80.6308 172.996 80.3172C173.065 80.2824 172.891 79.7249 172.856 79.4461C172.717 79.4461 172.577 79.4113 172.438 79.4113C172.298 80.0036 172.159 80.596 171.95 81.3974C171.671 80.9444 171.496 80.7005 171.287 80.3869C173.553 78.122 174.216 75.0208 175.401 72.1984C175.471 72.1984 175.575 72.2333 175.645 72.2333C175.506 72.6862 175.436 73.0347 175.331 73.4528ZM162.153 96.6943C161.7 96.4155 161.386 96.2065 160.863 95.8929C161.49 95.7535 161.839 95.6838 162.292 95.5792C162.257 95.9625 162.223 96.2065 162.153 96.6943ZM159.503 97.217C159.887 96.9034 160.27 96.5898 160.689 96.2413C161.002 96.5201 161.281 96.764 161.595 97.0079C160.514 97.9835 160.41 97.9835 159.503 97.217ZM158.143 98.1926C158.841 97.3912 158.91 97.3563 159.991 98.1229C158.876 98.994 158.876 98.994 158.143 98.1926ZM156.993 97.217C157.62 96.5549 158.143 96.5201 158.771 97.1473C158.353 97.3912 158.004 97.6003 157.586 97.8093C157.376 97.6351 157.167 97.426 156.993 97.217ZM156.714 98.6456C157.237 98.6456 157.725 98.6456 158.248 98.6107C157.376 99.5167 157.376 99.5167 156.714 98.6456ZM155.354 98.0184C156.156 97.2518 156.4 97.2518 157.028 98.0532C156.052 98.7501 155.982 98.7501 155.354 98.0184ZM136.911 95.3005C138.236 95.1263 138.236 95.1263 139.073 96.2413C138.341 95.9277 137.643 95.6141 136.911 95.3005ZM133.076 90.701C131.507 90.3177 130.287 89.6208 129.555 88.227C130.775 88.9239 132.344 89.0981 133.076 90.701ZM132.797 88.6451C132.693 88.7497 132.588 88.889 132.483 88.9936C132.03 88.5406 131.612 88.1225 131.054 87.5998C132.449 87.1817 132.1 88.5406 132.797 88.6451ZM131.298 87.0074C130.915 86.5545 130.496 86.1015 130.113 85.6485C130.217 85.544 130.322 85.4743 130.427 85.3697C130.775 85.8227 131.159 86.3105 131.507 86.7635C131.438 86.8681 131.368 86.9377 131.298 87.0074ZM128.753 85.6485C129.764 86.5893 130.636 87.3907 131.507 88.1922C131.438 88.2967 131.333 88.3664 131.263 88.4709C130.182 87.8437 128.823 87.565 128.753 85.6485ZM128.265 83.732C128.858 84.4638 129.485 85.1607 130.078 85.8924C129.973 85.9621 129.904 86.0666 129.799 86.1363C129.171 85.4394 128.544 84.7425 127.951 84.0456C128.021 83.9411 128.125 83.8366 128.265 83.732ZM128.927 83.6275C128.823 83.6972 128.718 83.732 128.614 83.8017C128.265 83.1048 127.916 82.4428 127.498 81.6065C128.823 81.9201 128.474 83.0003 128.927 83.6275ZM169.474 59.7937C168.777 59.1316 168.219 58.2954 167.452 57.7378C166.267 56.8667 164.977 56.135 163.722 55.3336C160.723 53.4519 157.411 52.7899 153.925 52.7899C153.018 52.7899 152.077 52.546 151.171 52.3717C149.881 52.1278 148.626 51.6052 147.336 51.6052C145.523 51.5703 143.71 51.7097 141.932 52.1975C139.526 52.8596 137.748 54.1837 136.319 56.1698C135.726 57.0061 135.168 57.8424 134.471 58.5741C133.285 59.8285 131.961 60.9436 130.74 62.1631C129.938 62.9645 129.206 63.8705 128.37 64.6719C127.672 65.334 126.801 65.8218 126.173 66.5187C125.057 67.7034 124.813 69.3411 124.709 70.8743C124.569 72.5817 124.744 74.2891 124.779 75.9965C124.779 76.1359 124.813 76.3449 124.918 76.4146C125.72 77.0767 125.79 78.0872 125.964 78.9583C126.313 80.7005 126.382 82.4776 126.766 84.2199C127.114 85.753 127.463 87.4256 128.335 88.7148C130.043 91.2237 132.03 93.5931 134.889 95.0217C137.12 96.1368 139.317 97.426 141.513 98.6107C142.106 98.9243 142.699 99.3076 143.326 99.4122C144.895 99.7258 146.499 99.9 148.103 100.074C149.079 100.179 150.09 100.109 151.101 100.248C151.728 100.318 152.356 100.841 152.984 100.841C154.936 100.771 156.958 101.503 158.806 100.283C160.166 99.5167 161.56 98.8198 162.885 98.0184C165.988 96.1019 169.091 94.1158 172.159 92.1645C173.797 91.1191 174.843 89.6556 175.157 87.7043C175.227 87.3907 175.331 87.0074 175.541 86.7635C177.04 85.0561 176.796 82.7215 177.772 80.8399C177.807 80.7354 177.807 80.596 177.807 80.4915C177.737 79.481 177.772 78.4356 177.598 77.46C177.284 75.6132 176.935 73.7316 176.482 71.9197C176.098 70.4213 175.436 68.9927 175.157 67.4944C174.739 65.2295 173.414 63.5569 171.915 61.9889C171.113 61.2572 170.241 60.5603 169.474 59.7937Z" fill="black"/>
<path d="M78.5488 32.7541C78.0955 32.1269 77.8166 31.674 77.5028 31.221C78.4442 31.221 79.002 31.4997 78.5488 32.7541ZM77.7818 28.6773C78.7231 29.0954 79.3506 29.6181 78.9323 30.6983C77.6074 30.3847 77.5028 30.2453 77.7818 28.6773ZM77.9561 26.3427C79.2112 26.4472 78.3047 27.4577 78.6882 27.9456C78.7928 27.632 78.8974 27.3532 78.8974 27.3532C79.6296 27.9804 80.4314 28.5728 81.1287 29.3045C81.4076 29.6181 81.4076 30.2453 81.5122 30.7332C81.4425 30.768 81.4076 30.8028 81.3379 30.8377C80.3966 30.0363 79.525 29.2 78.5488 28.4334C77.7469 27.841 77.6772 27.179 77.9561 26.3427ZM78.5139 24.6005C79.8387 25.611 80.8847 26.7608 81.4425 28.2592C81.3379 28.3637 81.1984 28.4334 81.0938 28.5379C80.6406 28.0153 80.2222 27.4926 79.769 27.0048C79.4901 26.6563 79.2112 26.273 78.8625 26.0291C78.2001 25.6807 78.0258 25.2625 78.5139 24.6005ZM78.8625 23.1718C78.9671 23.137 79.0717 23.1021 79.1763 23.0673C79.9085 24.1126 80.6406 25.158 81.4773 26.4124C80.5012 25.5413 79.6993 24.8444 78.9671 24.0778C78.7928 23.9036 78.8974 23.4854 78.8625 23.1718ZM79.6993 21.778C79.8039 21.7432 79.9085 21.7432 80.0131 21.7084C80.6057 22.8234 81.1636 23.9384 81.7563 25.0186C81.6517 25.0883 81.5471 25.1231 81.4425 25.1928C81.0938 24.1475 79.5947 23.7294 80.0131 22.0568C79.8039 22.3704 79.6644 22.5098 79.5598 22.684C79.525 22.684 79.4552 22.6492 79.4204 22.6492C79.525 22.3356 79.6296 22.0568 79.6993 21.778ZM87.2299 11.4292C87.9969 10.1399 89.0777 9.23393 90.542 8.67642C92.0063 8.1189 93.4009 7.24778 94.7606 6.41151C96.1203 5.61008 97.6194 5.50555 99.1186 5.26163C101.42 4.91318 103.581 5.4707 105.743 6.30698C107.207 6.86449 108.811 7.07356 110.31 7.4917C113.029 8.25828 115.679 9.23393 117.875 11.1156C118.782 11.8821 119.758 12.579 120.072 13.8334C120.455 15.3318 120.909 16.8301 121.292 18.3633C121.362 18.642 121.188 18.9905 121.083 19.2692C120.769 20.21 121.571 20.7327 121.85 21.4296C121.78 20.8721 121.676 20.3146 121.641 19.7571C121.606 19.4783 121.71 19.1647 121.745 18.7466C122.199 19.095 122.512 19.3041 122.826 19.5131C122.547 20.21 122.303 20.9069 122.059 21.569C122.059 21.6735 122.059 21.8129 122.094 21.9174C122.129 21.9523 122.199 21.9523 122.233 21.9871C122.512 21.3599 122.791 20.7675 123.07 20.1055C124.012 20.8721 123.384 21.7432 123.279 22.4749C123.14 23.4854 123 24.3566 124.012 24.9838C123.942 24.8792 123.872 24.7399 123.837 24.6353C124.081 24.6353 124.29 24.6353 124.569 24.6353C124.709 23.9733 124.883 23.2764 125.057 22.5098C126.069 23.3809 125.476 24.3914 125.406 25.2974C125.371 25.9594 125.232 26.5866 125.127 27.2487C125.197 27.2487 125.301 27.2835 125.371 27.2835C125.58 26.8305 125.79 26.3776 125.999 25.9594C126.034 25.9943 126.069 25.9943 126.138 26.0291C125.999 26.9002 125.859 27.8062 125.72 28.6773C125.824 28.7122 125.929 28.7122 126.034 28.747C126.243 27.8062 126.452 26.9002 126.661 25.9943C127.463 27.3184 127.08 28.6773 126.313 30.1059C125.894 29.3045 125.476 28.4682 125.127 27.6668C124.779 26.9002 124.5 26.0988 124.221 25.3322C124.395 26.1336 124.395 27.0396 124.813 27.6668C125.685 28.9909 125.58 30.5589 126.103 31.9527C126.696 33.5207 126.696 35.1236 126.103 36.6219C125.79 37.4233 125.197 38.1899 124.604 38.852C122.896 40.8033 121.222 42.7546 119.409 44.5665C117.98 46.03 116.481 47.4586 114.494 48.2252C114.215 48.3298 113.971 48.5388 113.727 48.713C111.67 50.3507 109.334 51.5006 106.893 52.4066C106.301 52.6157 105.917 52.546 105.778 51.8491C105.743 51.64 105.359 51.5006 105.115 51.3612C105.08 51.3264 104.801 51.5355 104.801 51.5703C104.906 51.8142 105.045 52.0233 105.15 52.1975C103.267 52.5111 101.489 52.0233 99.8158 50.8386C98.9442 50.2462 97.9332 49.7932 96.9221 49.5493C96.2249 49.3751 95.423 49.619 94.7257 49.8281C93.2265 50.3159 92.0063 50.2462 90.9604 48.7827C90.542 48.1555 89.4961 48.0162 88.8685 47.4935C88.0318 46.7966 87.2996 45.9255 86.5326 45.124C86.3583 44.9498 86.2189 44.6362 86.2189 44.3923C86.2189 42.5455 85.2078 41.0124 84.65 39.3398C84.4059 38.6429 84.0922 37.9809 83.9178 37.284C83.2903 35.1236 82.593 32.9632 82.1746 30.768C81.9306 29.4091 82.0003 27.9107 82.1398 26.5169C82.3141 24.7747 81.8957 23.2415 80.9195 21.8477C80.7103 21.5341 80.6406 21.1508 80.536 20.8024C80.6406 20.7675 80.7103 20.7327 80.8149 20.6979C81.1287 21.2205 81.4425 21.7084 81.8957 22.4053C82.1746 21.8826 82.3489 21.5341 82.4535 21.2902C82.1049 21.116 81.6865 21.0115 81.6168 20.8372C81.4425 20.3494 80.5709 19.9313 81.5122 19.1995C81.7911 19.7222 82.07 20.21 82.3141 20.6979C82.4187 20.663 82.5233 20.6282 82.6279 20.5933C82.4884 20.21 82.4884 19.7222 82.2444 19.4434C81.6865 18.7814 81.7563 18.2239 82.2792 17.4921C82.5581 18.0148 82.7673 18.4678 83.0114 18.9208C83.116 18.9208 83.2206 18.8859 83.3251 18.8859C83.2903 18.5375 83.36 18.1193 83.1857 17.8057C82.8022 17.0392 82.8022 16.3771 83.4995 15.5408C83.7435 16.2029 83.9178 16.6907 84.127 17.2482C84.2665 17.0043 84.4059 16.7256 84.5803 16.4468C84.7894 16.2726 85.0683 16.0984 85.2078 15.8544M84.7197 13.485C84.9986 14.3213 85.1381 15.1575 84.3711 15.8544C84.3013 15.9241 84.3013 16.0984 84.3013 16.2377C83.5692 15.4711 83.7435 14.2864 84.7197 13.485ZM123.733 24.6353C123.21 23.5203 123.593 22.5098 124.151 21.2554C124.709 22.6492 124.256 23.6597 123.733 24.6353ZM125.894 24.043C126.069 24.043 126.208 24.0778 126.382 24.0778C126.278 24.6005 126.173 25.1231 126.069 25.6458C126.034 25.6458 125.964 25.6458 125.929 25.611C125.894 25.1231 125.894 24.5656 125.894 24.043ZM127.324 30.8377C127.254 31.674 127.289 32.5451 127.254 33.3814C127.219 33.8343 127.184 34.2873 127.045 34.7055C126.103 32.4057 126.696 30.2453 127.707 28.1546C127.568 29.0258 127.393 29.9317 127.324 30.8377ZM95.0395 51.1173C97.1662 51.0825 99.1534 50.6644 100.478 52.7899C98.5259 52.9293 96.7478 52.546 95.0395 51.1173ZM92.3898 51.1522C90.6117 50.4204 88.8337 49.6539 87.0556 48.9221C87.0905 48.8176 87.1253 48.7479 87.1602 48.6434C87.4391 48.6782 87.718 48.7131 88.3107 48.8176C87.9621 48.4691 87.8226 48.1904 87.6134 48.0858C87.2648 47.9116 86.8813 47.8071 86.4978 47.7722C85.3473 47.7374 85.417 47.7025 85.1729 46.3088C88.241 47.0753 90.3328 49.0615 92.599 50.8037C92.4944 50.9431 92.4595 51.0476 92.3898 51.1522ZM84.4059 45.5422C83.2554 45.368 83.7435 44.3575 83.3251 43.7651C84.5802 43.7651 84.9638 44.0438 86.2189 45.8906C85.2427 45.8209 85.2427 45.8209 84.5454 44.2529C84.4757 44.8453 84.4408 45.1589 84.4059 45.5422ZM81.8957 43.0682C83.0811 43.3121 83.1857 43.9393 83.1857 44.9498C82.7325 44.2529 82.3838 43.7651 81.8957 43.0682ZM82.6279 42.6152C81.6865 42.5455 81.6865 41.8138 81.5471 41.1517C82.7673 41.2214 82.8022 41.2563 82.6279 42.6152ZM85.2775 43.4515C84.9986 43.4515 84.7546 43.4863 84.4757 43.4166C83.5343 43.1727 82.7673 42.7894 83.1508 41.2911C83.9178 41.7789 84.5802 42.1274 85.1381 42.6152C85.3473 42.7197 85.2775 43.1727 85.2775 43.4515ZM81.4076 39.1656C82.4187 39.7928 83.36 40.3851 84.3013 40.9775C84.2665 41.0472 84.2316 41.1169 84.1967 41.1866C83.9527 41.1169 83.6389 41.1517 83.4646 41.0124C83.0462 40.6987 82.6279 40.6987 82.1049 40.6639C81.2682 40.6291 81.303 39.9322 81.4076 39.1656ZM80.9195 37.9809C80.8847 38.0157 80.3617 37.8415 80.292 37.6673C80.1177 37.2143 80.0828 36.7264 79.9782 36.0992C81.2333 36.831 82.3489 37.3537 83.3251 38.0854C83.7435 38.4338 83.8132 39.2353 84.0573 39.7928C83.9527 39.8276 83.8481 39.8625 83.7784 39.8973C83.116 39.4792 82.4535 39.0611 81.826 38.6081C81.6517 38.5035 81.5122 38.2945 81.4773 38.1202C81.3728 37.7718 81.303 37.5627 80.9195 37.9809ZM79.3158 39.1307C79.3855 39.0262 79.4901 38.9217 79.5598 38.8171C79.769 39.0611 80.0131 39.3398 80.3966 39.7231C80.292 39.3747 80.1874 39.2004 80.2222 39.061C80.2571 38.9217 80.3966 38.7823 80.5012 38.6429C80.6406 38.7474 80.9195 38.852 80.9195 38.9914C80.9893 39.3747 80.9893 39.7928 80.9893 40.3852C80.3617 39.8973 79.8387 39.514 79.3158 39.1307ZM79.0369 35.2978C79.3158 35.472 79.5947 35.6463 79.8039 35.7856C79.8039 36.378 79.8039 36.9007 79.8039 37.5279C78.9671 37.2491 78.7579 36.5871 79.0369 35.2978ZM79.0369 33.451C79.6296 33.7995 80.5012 34.0434 79.769 35.0887C79.2809 34.6358 78.5836 34.3222 79.0369 33.451ZM83.1508 37.1794C82.2444 36.6568 81.4076 36.2038 80.6057 35.716C80.1525 35.4372 80.0479 35.0191 80.536 34.6009C81.5819 35.263 82.7325 35.7856 83.1508 37.1794ZM79.1066 30.2802C79.2112 30.2105 79.3506 30.1059 79.4552 30.0014C80.3966 30.9074 81.303 31.8133 82.2444 32.6845C82.1398 32.789 82.07 32.8935 81.9654 32.9981C81.2333 32.4405 80.4314 31.9527 79.7341 31.3604C79.4552 31.1164 79.3158 30.6635 79.1066 30.2802ZM79.1763 31.7088C80.3268 32.6845 81.4773 33.6601 82.6279 34.6009C82.5233 34.7055 82.4535 34.8448 82.3489 34.9494C81.7563 34.5661 81.1984 34.1828 80.6057 33.7995C80.2222 33.5556 79.9085 33.2071 79.4901 33.0329C78.8277 32.7193 78.758 32.336 79.1763 31.7088ZM77.7469 32.9981C77.8166 32.9284 77.8863 32.8935 77.9561 32.8238C78.3396 33.0329 78.6882 33.242 79.0717 33.4162C78.9323 33.6601 78.758 33.904 78.479 34.3222C78.2001 33.8343 77.9909 33.4162 77.7469 32.9981ZM77.3983 38.1551C78.2001 39.8973 79.2112 41.5699 80.2571 43.1727C81.6168 45.2983 83.36 47.145 85.5216 48.5388C86.5675 49.2009 87.5437 49.9675 88.5896 50.6295C89.1474 51.0128 89.7401 51.4309 90.3677 51.6052C91.2393 51.8491 92.1806 51.6749 93.0174 51.9885C95.9111 52.999 98.7699 54.2882 101.977 53.8352C101.977 53.9398 101.977 54.0095 101.977 54.114C104.592 53.7307 107.277 53.5913 109.787 52.8944C113.239 51.9188 116.655 50.734 119.305 48.051C120.769 46.5527 122.443 45.1937 123.837 43.6257C125.023 42.2319 125.894 40.5594 127.01 39.0959C128.648 36.9355 129.032 34.3919 129.137 31.8482C129.206 30.0711 128.997 28.2592 128.23 26.5518C127.568 25.0186 127.184 23.3809 126.173 21.9871C125.162 20.5585 124.221 19.0602 123.279 17.5967C122.268 15.9938 121.432 14.2167 120.246 12.7184C118.364 10.3141 115.818 8.64157 112.89 7.70077C110.101 6.7948 107.277 5.92368 104.453 5.19194C102.954 4.80865 101.385 4.39051 99.8856 4.49505C96.7478 4.70412 93.7146 5.36617 91.0301 7.14325C90.4026 7.56139 89.6355 7.66592 89.008 8.04921C88.0318 8.64157 87.0556 9.30362 86.184 10.0354C84.9638 11.0807 83.4995 12.0215 82.6976 13.3108C80.6755 16.7604 78.9671 20.4191 77.0845 23.9384C76.1431 25.6458 75.7945 27.5274 75.4459 29.3742C75.1321 31.0468 75.7248 32.5799 76.2129 34.1479C76.6312 35.5069 76.8056 36.9007 77.3983 38.1551Z" fill="black"/>
<path d="M91.9714 14.7044C92.3201 14.9832 92.5641 15.4013 92.8779 15.7497C94.9697 18.1889 97.0616 20.628 99.1534 23.0671C99.1883 23.102 99.2232 23.1368 99.3626 23.2065C99.3626 21.6385 99.3278 20.1053 99.3626 18.5722C99.4324 16.9693 99.6764 15.3665 99.6764 13.7288C99.6764 12.6486 100.478 12.8925 101.001 12.7879C101.594 12.6486 102.047 13.0319 102.256 13.6242C102.396 14.0424 102.466 14.4953 102.466 14.9483C102.466 18.1192 102.466 21.2552 102.466 24.4609C103.267 23.4504 104.104 22.4051 104.941 21.3249C105.324 20.8371 105.568 20.2447 105.987 19.7917C107.974 17.6662 109.996 15.6104 112.018 13.5545C112.193 13.3803 112.82 13.3455 112.994 13.4848C114.284 14.5999 114.319 15.7149 113.204 17.0739C110.415 20.3841 107.591 23.6944 104.801 27.0395C103.965 28.0499 103.198 29.0953 102.535 30.2103C102.256 30.6633 102.291 31.3254 102.256 31.8829C102.187 34.8795 102.117 37.8762 102.082 40.8728C102.082 42.0924 102.187 43.312 102.256 44.5315C102.291 45.0542 102.326 45.7511 101.664 45.7511C101.106 45.7511 100.513 45.3678 100.025 45.0542C99.8159 44.9148 99.7113 44.5315 99.6764 44.2528C99.4323 41.6046 99.0837 38.9564 98.9791 36.2733C98.9443 34.5659 99.2929 32.8585 99.4672 31.1163C99.6067 29.8967 99.1534 28.8862 98.4213 27.9106C96.5386 25.3669 94.7606 22.7884 92.9476 20.2099C92.2504 19.2342 91.4833 18.3283 90.9604 17.2829C90.6117 16.586 90.5071 15.7498 90.4374 14.9483C90.4723 14.4256 91.4485 14.2514 91.9714 14.7044Z" fill="#B8A36E"/>
<path d="M32.8768 52.1626C31.2382 55.7168 29.6345 59.2709 27.8564 62.7206C26.4967 65.3339 24.8581 67.773 23.4287 70.3167C23.1149 70.8742 23.0103 71.606 22.8011 72.2332C22.5571 72.9301 22.313 73.5921 22.0341 74.289C21.9992 74.3935 21.6855 74.3587 21.2671 74.4632C21.2671 76.6585 21.2671 78.9234 21.2671 81.2231C21.2671 82.3033 21.3368 83.4183 21.4414 84.4985C21.4763 84.847 21.7901 85.1606 21.8946 85.5439C21.9644 85.8226 22.0341 86.2059 21.9295 86.4498C21.8249 86.6938 21.5111 86.9377 21.2322 86.9725C19.2101 87.1467 18.3036 86.3105 18.2688 84.2546C18.1991 80.2823 18.1991 76.2752 18.0596 72.3029C17.9899 70.247 17.6761 68.1912 17.5715 66.1353C17.432 63.7311 17.4669 61.3268 17.3623 58.9225C17.2577 56.3788 17.1531 53.8351 17.0137 51.2566C17.0137 50.9082 17.0137 50.5249 17.0137 50.1764C17.4669 49.8977 17.8853 49.6538 18.3385 49.4447C19.245 48.9569 20.5001 49.7583 20.5001 50.9082C20.5001 52.6504 20.4304 54.4275 20.4304 56.1697C20.4304 56.2394 20.5001 56.344 20.6395 56.5879C22.313 53.9048 23.9516 51.2915 25.5205 48.7478C26.1132 48.8872 26.4967 48.9917 26.9151 49.0963C27.5426 49.2705 27.7867 50.0371 27.3683 50.8733C26.7407 52.1626 25.9737 53.417 25.3113 54.7063C24.8232 55.5774 24.37 56.4485 23.9168 57.3545C23.0103 59.2012 22.1038 61.048 21.1974 62.8599C21.1625 62.9296 21.0928 63.0342 21.0928 63.1038C21.1625 64.6719 21.2671 66.205 21.546 67.8427C22.2084 66.5883 22.9057 65.3339 23.5681 64.0795C24.7535 61.8843 26.0086 59.6891 27.1243 57.4242C28.0656 55.5774 28.8675 53.6609 29.7042 51.7793C29.9134 51.2915 29.9482 50.734 30.1574 50.2113C30.5061 49.3053 31.1336 49.2008 31.8658 49.7931C31.9355 49.8628 32.0052 49.9325 32.075 49.9674C33.4347 50.6643 33.5392 50.734 32.8768 52.1626Z" fill="#B8A36E"/>
<path d="M163.652 85.3696C161.456 84.4985 159.224 83.5925 156.958 82.8259C154.657 82.0593 152.321 81.4321 149.985 80.7352C149.706 80.6655 149.427 80.5262 149.079 80.3868C150.09 78.5052 151.066 76.6932 152.007 74.8813C153.332 72.3725 154.622 69.8985 155.947 67.3897C156.435 66.4489 156.261 65.7868 155.285 65.3687C154.936 65.2293 154.587 65.1248 154.239 65.0551C152.67 64.7415 151.066 64.4279 149.497 64.2188C146.394 63.7658 143.222 63.5219 140.293 62.2327C139.805 62.0236 139.073 61.6751 138.445 62.1978C138.166 62.4417 137.783 62.5811 137.364 62.825C137.33 63.0689 137.12 63.4871 137.225 63.8355C137.504 64.8809 137.783 65.9262 138.201 66.9367C139.177 69.3758 140.258 71.815 141.234 74.2541C142.489 77.2856 143.605 80.3519 144.93 83.3137C146.394 86.5543 148.068 89.6903 149.637 92.8612C149.462 92.9657 149.149 93.2097 148.835 93.4187C148.904 93.5581 149.009 93.6626 149.079 93.802C149.427 93.593 149.741 93.3839 149.985 93.2445C150.578 93.4884 151.101 93.8369 151.694 93.9762C152.356 94.1156 153.158 93.9414 153.507 93.349C153.716 93.0354 153.437 92.3037 153.193 91.8507C152.705 90.8751 152.112 89.9691 151.589 88.9934C150.892 87.739 150.194 86.4498 149.497 85.1605C149.253 84.6727 149.044 84.15 148.835 83.6622C149.602 84.0106 150.299 84.3591 150.996 84.6378C152.251 85.1257 153.611 85.3696 154.762 85.9968C157.063 87.3209 159.608 87.9133 162.118 88.5405C162.641 88.6798 163.338 88.5056 163.791 88.2269C164.314 87.9133 164.663 87.3557 165.081 86.8679C165.047 85.9968 164.349 85.6483 163.652 85.3696ZM146.673 78.2613C145.069 74.2193 143.466 70.2121 141.897 66.205C145.209 66.9716 148.591 67.773 152.042 68.5744C150.264 71.7801 148.451 75.0207 146.673 78.2613Z" fill="#B8A36E"/>
<path d="M81.1287 113.489C81.4773 112.165 81.6865 110.841 82.07 109.517C82.2095 109.099 82.593 108.646 82.9765 108.402C83.1857 108.298 83.7435 108.541 84.0224 108.785C85.3821 109.9 86.707 111.085 87.9969 112.235C89.5658 113.629 91.0998 115.057 92.6339 116.486C94.0284 117.74 95.3533 119.065 96.7827 120.284C97.6543 121.051 97.0267 121.782 96.9221 122.514C96.713 123.594 96.3992 124.675 96.1551 125.755C95.8413 127.044 95.5973 128.368 95.2835 129.657C94.9697 130.981 94.656 132.34 94.2376 133.63C93.3311 136.522 92.3549 139.379 91.3787 142.236C91.0998 143.038 90.3677 143.142 89.8099 142.515C89.6355 142.306 89.4612 142.097 89.2172 141.992C88.4502 141.679 88.4153 141.017 88.5199 140.424C88.9383 138.264 89.3915 136.138 89.9493 134.013C90.5769 131.609 91.5531 129.274 91.9017 126.87C92.1806 125.023 93.0522 123.455 93.4009 121.678C93.4706 121.399 93.3311 120.946 93.1568 120.737C91.6577 119.239 90.1585 117.74 88.5548 116.347C87.7529 115.65 86.7767 115.162 85.94 114.57C85.417 114.221 84.9638 113.768 84.5105 113.42C83.7086 115.963 82.9068 118.437 82.2095 120.946C81.7214 122.619 81.4076 124.326 80.9544 126.034C80.7801 126.8 80.5012 127.532 80.292 128.264C79.3506 131.678 78.4442 135.093 77.5028 138.508C77.3983 138.856 77.0147 139.414 76.8404 139.414C76.3175 139.344 75.5853 139.135 75.3413 138.752C74.7834 137.811 74.4697 136.801 74.888 135.616C75.4807 133.874 75.7248 132.027 76.2477 130.25C76.6661 128.751 77.3285 127.323 77.7469 125.824C78.8974 121.678 80.0131 117.601 81.1287 113.489Z" fill="#B8A36E"/>
<path d="M178.783 36.8659C179.062 35.8206 179.341 34.8101 179.62 33.7648C179.55 33.7299 179.445 33.7299 179.376 33.6951C179.027 34.9495 178.713 36.2039 178.365 37.4583C178.469 37.2841 178.609 37.075 178.783 36.8659Z" fill="#B8A36E"/>
<path d="M206.709 21.9523C206.43 21.0812 206.082 20.2449 205.838 19.3738C205.454 17.98 205.105 16.5513 204.722 15.1576C204.059 12.6836 203.432 10.1748 202.769 7.70078C202.735 7.5614 202.595 7.42202 202.491 7.38717C201.828 7.24779 201.201 7.10842 200.643 7.73562C199.178 9.37332 197.749 11.011 196.215 12.5442C194.158 14.6349 192.171 16.8301 189.87 18.6769C188.545 19.7571 188.684 20.7327 189.138 21.9523C189.242 22.1962 189.382 22.4401 189.521 22.684C190.776 25.0186 192.031 27.3881 193.286 29.7227C193.6 30.315 193.67 30.8029 192.938 31.221C192.415 31.5346 191.962 32.0224 191.508 32.4754C189.939 33.9737 188.371 35.5069 186.767 37.0052C186.593 37.1794 186.279 37.2143 186.07 37.3188C185.93 37.5279 185.86 37.9112 185.651 37.9809C184.675 38.3642 184.292 39.1656 184.082 40.2109C184.047 40.2109 184.013 40.2109 183.943 40.2109L183.908 40.5942C184.117 40.6639 184.326 40.7336 184.466 40.8033C185.268 41.2563 186.627 41.1866 187.29 40.5942C189.486 38.5732 191.683 36.5174 193.879 34.4964C194.193 34.1828 194.542 33.904 194.89 33.5904C195.065 33.8343 195.169 33.9389 195.239 34.0783C195.309 34.2525 195.378 34.3919 195.448 34.5661C196.11 36.4825 196.912 38.2945 198.063 39.967C198.586 40.7336 199.178 41.5699 199.388 42.441C199.667 43.556 200.364 44.0787 201.27 44.5317C202.177 44.9498 202.7 44.5317 202.769 43.556C202.839 42.1274 201.828 41.1517 201.34 39.967C200.224 37.1446 197.854 34.8797 197.714 31.6043C197.679 31.0816 197.749 30.8029 198.098 30.5241C200.712 28.5728 203.362 26.6912 205.907 24.6702C207.302 23.5203 207.267 23.6248 206.709 21.9523ZM202.247 23.6597C200.991 24.705 199.736 25.7504 198.516 26.8306C197.923 27.3184 197.296 27.841 196.564 28.4334C196.18 27.7017 195.832 27.0048 195.483 26.3079C194.611 24.5656 193.74 22.7886 192.868 21.0115C192.624 20.5236 192.624 20.1752 193.077 19.7571C194.751 18.1542 196.354 16.4468 197.993 14.8091C198.83 13.9728 199.771 13.1714 200.747 12.2654C200.957 13.1017 201.166 13.8335 201.34 14.6C201.898 16.7256 202.421 18.8859 203.048 21.0115C203.536 22.6143 203.571 22.5795 202.247 23.6597Z" fill="#B8A36E"/>
<path d="M177.284 39.0262C177.214 38.9913 177.144 38.9565 177.075 38.9216C177.11 38.9913 177.179 39.0262 177.214 39.0959C177.214 39.0959 177.249 39.061 177.284 39.0262Z" fill="#B8A36E"/>
</g>
<defs>
<clipPath id="clip0_87_313">
<rect width="227" height="156" fill="white"/>
</clipPath>
</defs>
</svg>
