<svg width="163" height="156" viewBox="0 0 163 156" fill="none" xmlns="http://www.w3.org/2000/svg">
<g clip-path="url(#clip0_103_2161)">
<path d="M116.128 24.0743C115.779 23.5341 115.054 23.3463 114.551 23.6715C114.048 23.9968 113.921 24.7349 114.27 25.2751C114.62 25.8152 115.345 26.003 115.848 25.6778C116.351 25.3526 116.502 24.653 116.128 24.0743ZM112.562 21.784C115.181 20.9118 118.082 22.4283 119.086 25.1706L140.928 85.6132C141.932 88.3555 140.572 91.259 137.953 92.1312L131.715 94.1944L130.592 92.4582L135.534 90.8504C134.665 88.4031 135.83 85.7905 138.191 85.0298L117.538 27.8677C115.201 28.6669 112.605 27.2818 111.697 24.8596L91.262 31.6142L89.8155 29.3765L112.562 21.784ZM138.631 89.6144C139.134 89.2892 139.26 88.551 138.911 88.0108C138.562 87.4707 137.837 87.2829 137.334 87.6081C136.831 87.9333 136.704 88.6715 137.054 89.2116C137.403 89.7518 138.128 89.9396 138.631 89.6144Z" fill="black"/>
<path d="M87.8453 50.945L88.3707 53.2858L86.4908 51.8205L85.0193 52.0059L85.8561 50.7538L85.2782 48.5016L87.1332 49.9283L88.6184 49.6794L87.8453 50.945Z" fill="#B8A36E"/>
<path d="M108.97 83.6242L109.495 85.965L107.615 84.4997L106.144 84.685L107.005 83.4716L106.427 81.2194L108.282 82.646L109.743 82.3585L108.97 83.6242Z" fill="#B8A36E"/>
<path d="M87.3878 72.1375C87.9503 72.9227 88.333 73.7694 88.5497 74.614C89.5688 78.058 88.4637 81.7811 85.495 83.8095C84.7847 84.3234 83.9745 84.683 83.1283 84.9017C81.0127 85.4487 78.7578 85.1011 76.834 83.9925C75.7461 83.3281 74.7382 82.4479 73.99 81.2905C73.4275 80.5052 73.0448 79.6586 72.8281 78.814C72.1728 76.6118 72.3998 74.3316 73.4129 72.4186C73.9788 71.3416 74.8241 70.3575 75.8828 69.6185C76.5931 69.1046 77.4033 68.745 78.2495 68.5262C81.5321 67.6625 85.2654 69.0238 87.3878 72.1375Z" fill="#B8A36E"/>
<path d="M90.0135 102.004C91.9588 105.014 95.8133 105.969 98.6771 104.117C101.541 102.266 102.253 98.3596 100.308 95.3502C100.083 95.0029 99.82 94.6807 99.5818 94.3971C101.079 95.0156 102.48 96.0794 103.453 97.5841C105.847 101.288 104.967 106.124 101.484 108.375C98.0012 110.626 93.2308 109.443 90.8365 105.739C89.8639 104.235 89.4304 102.545 89.5199 100.901C89.6033 101.285 89.789 101.657 90.0135 102.004Z" fill="#B8A36E"/>
<path d="M61.8837 58.318C60.3865 57.6995 58.9855 56.6357 58.0128 55.131C55.6186 51.4271 56.4984 46.5915 59.9814 44.3401C63.4643 42.0886 68.2347 43.2719 70.629 46.9758C71.6017 48.4805 72.0351 50.1696 71.9457 51.8138C71.7848 51.4802 71.5991 51.1079 71.3746 50.7607C69.4293 47.7513 65.5748 46.7965 62.711 48.6477C59.8472 50.4989 59.1351 54.4055 61.0805 57.415C61.3823 57.7122 61.6455 58.0344 61.8837 58.318Z" fill="#B8A36E"/>
<path d="M56.5758 71.1582L55.1044 71.3435L55.9025 70.1165L55.3245 67.8643L57.2183 69.2659L58.7035 69.017L57.8916 70.3076L58.4171 72.6484L56.5758 71.1582Z" fill="#B8A36E"/>
<path d="M79.0159 102.987L79.5413 105.327L77.7001 103.837L76.2286 104.022L77.0516 102.834L76.4737 100.582L78.3674 101.983L79.8277 101.696L79.0159 102.987Z" fill="#B8A36E"/>
<path d="M124.4 98.9225C123.897 99.2477 123.771 99.9859 124.12 100.526C124.469 101.066 125.194 101.254 125.697 100.929C126.2 100.604 126.327 99.8654 125.978 99.3252C125.629 98.7851 124.904 98.5973 124.4 98.9225ZM83.911 126.518C83.5618 125.978 82.8369 125.79 82.3338 126.115C81.8307 126.44 81.7043 127.178 82.0534 127.719C82.4026 128.259 83.1276 128.447 83.6307 128.121C84.1338 127.796 84.2602 127.058 83.911 126.518ZM87.5798 127.1L123.338 103.985C121.593 101.285 122.377 97.6595 125.086 95.9084L82.6878 30.3187C79.9788 32.0699 76.3513 31.2966 74.6055 28.5959L38.8469 51.7108C40.5927 54.4115 39.8084 58.0366 37.0994 59.7878L79.4975 125.377C82.2065 123.626 85.834 124.4 87.5798 127.1ZM129.011 95.614C130.956 98.6234 130.076 102.694 127.057 104.645L87.0027 130.537C83.9841 132.488 79.9112 131.62 77.9659 128.61L33.1486 59.2782C31.2032 56.2688 32.0839 52.1985 35.1025 50.2473L75.1568 24.3556C78.1754 22.4043 82.2483 23.2725 84.1936 26.2819L129.011 95.614ZM79.6142 27.6011C79.265 27.0609 78.54 26.8731 78.0369 27.1983C77.5338 27.5235 77.4074 28.2617 77.7566 28.8018C78.1057 29.342 78.8307 29.5298 79.3338 29.2046C79.8369 28.8794 79.9633 28.1412 79.6142 27.6011ZM37.5474 54.7936C37.1983 54.2535 36.4733 54.0657 35.9702 54.3909C35.4671 54.7161 35.3407 55.4542 35.6899 55.9944C36.039 56.5345 36.764 56.7223 37.2671 56.3971C37.7702 56.0719 37.8966 55.3338 37.5474 54.7936Z" fill="black"/>
<path d="M67.2873 132.887C66.7842 133.212 66.6578 133.951 67.0069 134.491C67.3561 135.031 68.0811 135.219 68.5842 134.893C69.0873 134.568 69.2137 133.83 68.8645 133.29C68.4904 132.711 67.7904 132.562 67.2873 132.887ZM17.8089 90.6377C15.7208 88.5959 15.529 85.3282 17.3995 83.2985L33.6371 65.6361L35.0836 67.8739L20.5342 83.7339C22.409 85.5307 22.5673 88.4918 20.8791 90.2942L64.5207 132.597C66.2088 130.794 69.0443 130.767 70.9191 132.564L74.4141 128.718L75.5364 130.454L71.0936 135.295C69.2232 137.325 66.0308 137.31 63.929 135.332L17.8089 90.6377ZM18.0239 87.49C18.3731 88.0302 19.098 88.218 19.6011 87.8928C20.1042 87.5676 20.2306 86.8294 19.8815 86.2893C19.5323 85.7491 18.8073 85.5613 18.3042 85.8865C17.8011 86.2117 17.6747 86.9499 18.0239 87.49Z" fill="black"/>
<path d="M88.6184 27.5245C88.4636 27.6245 88.3113 27.5588 88.2365 27.4431L85.1689 22.6975C83.1238 19.5338 78.9236 18.6384 75.7502 20.6897L31.5163 49.2832C28.3816 51.3095 27.4348 55.532 29.4798 58.6957L32.5475 63.4413C32.6472 63.5956 32.581 63.7479 32.4649 63.8229C32.3101 63.923 32.1579 63.8573 32.0831 63.7415L29.0154 58.9959C26.7958 55.5621 27.7865 50.983 31.1921 48.7816L75.426 20.1882C78.8702 17.9617 83.4136 18.9635 85.6333 22.3973L88.7009 27.1429C88.8144 27.2336 88.7732 27.4244 88.6184 27.5245Z" fill="black"/>
<path d="M131.342 106.689L87.1077 135.283C83.7408 137.459 79.1837 136.521 76.9752 133.189C76.8754 133.035 76.9416 132.883 77.0577 132.808C77.1738 132.733 77.3648 132.773 77.4396 132.889C79.5122 135.926 83.6875 136.783 86.7835 134.781L131.017 106.188C134.113 104.186 135.046 100.028 133.129 96.891C133.029 96.7367 133.07 96.5459 133.211 96.5094C133.366 96.4093 133.518 96.4751 133.593 96.5908C135.749 100.011 134.708 104.513 131.342 106.689Z" fill="black"/>
<path d="M127.207 104.876L87.1524 130.768C83.979 132.819 79.7538 131.885 77.7337 128.76L32.9164 59.4282C30.8713 56.2644 31.8181 52.0419 34.9528 50.0156L75.0071 24.1239C78.1805 22.0726 82.4057 23.0065 84.4258 26.1317L129.243 95.4638C131.327 98.6025 130.38 102.825 127.207 104.876ZM35.2521 50.4786C32.3496 52.3548 31.5103 56.2343 33.3808 59.128L78.1981 128.46C80.0686 131.354 83.9506 132.181 86.8531 130.305L126.907 104.413C129.81 102.537 130.649 98.6576 128.779 95.764L83.9615 26.4319C82.0909 23.5382 78.2089 22.7107 75.3064 24.5869L35.2521 50.4786Z" fill="black"/>
<path d="M123.449 104.242L87.7294 127.332C87.5746 127.432 87.4224 127.366 87.3476 127.25C85.7015 124.704 82.24 123.933 79.6472 125.609C79.4924 125.709 79.3401 125.643 79.2653 125.527L36.8672 59.9378C36.7675 59.7835 36.8337 59.6313 36.9498 59.5562C39.504 57.9052 40.2857 54.4458 38.6397 51.8994C38.5399 51.7451 38.6061 51.5929 38.7222 51.5178L74.4809 28.4029C74.6357 28.3028 74.7879 28.3686 74.8627 28.4843C76.5087 31.0307 79.9453 31.7633 82.5382 30.0872C82.693 29.9871 82.8452 30.0529 82.92 30.1686L125.318 95.7582C125.418 95.9126 125.352 96.0648 125.236 96.1398C122.681 97.7909 121.9 101.25 123.571 103.835C123.67 103.99 123.604 104.142 123.449 104.242ZM87.6623 126.719L122.918 103.929C121.338 101.23 122.07 97.6938 124.665 95.8519L82.5666 30.7253C79.8601 32.3107 76.3213 31.5895 74.4843 29.0024L39.2287 51.7921C40.8086 54.4908 40.0518 57.9887 37.4813 59.8691L79.5551 124.957C82.3252 123.385 85.8254 124.132 87.6623 126.719Z" fill="black"/>
<path d="M85.5148 84.1796C84.8182 84.6299 84.0468 84.9644 83.2642 85.1968C81.1099 85.7688 78.7526 85.4326 76.7789 84.2468C75.6274 83.5689 74.6083 82.5865 73.8214 81.4541C73.259 80.6689 72.8513 79.7836 72.6097 78.9004C71.9294 76.6597 72.1452 74.2773 73.2108 72.2756C73.8291 71.1101 74.7132 70.101 75.7968 69.4005C76.5458 68.8616 77.3559 68.5021 78.2409 68.2582C81.7419 67.308 85.5749 68.8237 87.6837 72.001C88.2461 72.7862 88.6288 73.6329 88.8954 74.5546C90.0005 78.2165 88.7406 82.0397 85.7332 84.0931C85.6309 84.1046 85.5535 84.1546 85.5148 84.1796ZM76.2509 69.7634C76.1735 69.8135 76.1348 69.8385 76.0574 69.8885C75.0761 70.5775 74.2445 71.498 73.6786 72.575C72.718 74.3994 72.491 76.6796 73.1102 78.741C73.3905 79.5992 73.7483 80.4073 74.2609 81.1153C74.9979 82.1706 75.9284 83.1008 77.0301 83.7016C78.8902 84.7967 81.0815 85.1307 83.0948 84.5952C83.9023 84.4014 84.6488 84.0283 85.3841 83.553C88.1593 81.6496 89.3254 78.1059 88.3313 74.7005C88.0509 73.8423 87.6931 73.0342 87.1806 72.3262C85.1579 69.3668 81.6293 67.9826 78.3467 68.8463C77.5778 69.0151 76.8701 69.3632 76.2509 69.7634Z" fill="white"/>
<path d="M74.9351 70.6141C74.819 70.6891 74.628 70.6484 74.5532 70.5327C73.916 69.6317 74.2496 68.7049 74.5171 67.9302C74.7845 67.1556 75.0245 66.5082 74.5369 65.8387C74.0879 65.1442 73.3853 65.1608 72.5941 65.1252C71.7642 65.1146 70.807 65.0769 70.1448 64.1374C69.5076 63.2364 69.8413 62.3096 70.1087 61.535C70.3762 60.7603 70.6161 60.1129 70.1285 59.4434C70.0287 59.2891 70.095 59.1369 70.1861 59.0233C70.3409 58.9232 70.4931 58.9889 70.6067 59.0796C71.2439 59.9806 70.9102 60.9074 70.6428 61.6821C70.3753 62.4567 70.1354 63.1041 70.623 63.7736C71.0719 64.4681 71.7995 64.4901 72.5657 64.4871C73.3956 64.4977 74.3528 64.5354 75.015 65.4749C75.6523 66.3759 75.3186 67.3027 75.0511 68.0774C74.7837 68.852 74.5438 69.4994 75.0314 70.1689C75.1311 70.3232 75.0899 70.514 74.9351 70.6141Z" fill="white"/>
<path d="M68.7543 87.0273C67.8642 87.6026 67.0145 87.2219 66.2147 86.9184C65.4786 86.6284 64.8447 86.3269 64.2255 86.7272L64.1868 86.7522C64.0707 86.8273 63.8798 86.7866 63.805 86.6708C63.7052 86.5165 63.7715 86.3643 63.8626 86.2507C64.7527 85.6753 65.6411 86.031 66.4409 86.3345C67.202 86.6631 67.8745 86.9395 68.4688 86.5007C69.1267 86.0754 69.112 85.3737 69.0613 84.5313C69.0493 83.6638 69.026 82.6941 69.8912 82.0802C70.7951 81.4412 71.6697 81.8605 72.4695 82.1641C73.2306 82.4926 73.8781 82.7305 74.4973 82.3302C74.6521 82.2301 74.8044 82.2959 74.9179 82.3866C75.0176 82.5409 74.9514 82.6931 74.8603 82.8068C73.9315 83.4072 73.0818 83.0264 72.282 82.7229C71.5209 82.3943 70.8484 82.1179 70.2541 82.5567C69.6349 82.957 69.6495 83.6587 69.6616 84.5262C69.6736 85.3936 69.6968 86.3633 68.8317 86.9772C68.793 87.0023 68.793 87.0023 68.7543 87.0273Z" fill="white"/>
<path d="M91.2115 94.775C91.0954 94.85 90.9044 94.8093 90.8296 94.6936C90.1924 93.7926 90.526 92.8658 90.7935 92.0911C91.0609 91.3165 91.3009 90.6691 90.8133 89.9996C90.3643 89.3051 89.6368 89.2831 88.8456 89.2475C88.0157 89.2369 87.0585 89.1992 86.3963 88.2597C85.759 87.3587 86.0927 86.4319 86.3602 85.6573C86.6276 84.8826 86.8676 84.2352 86.38 83.5657C86.2802 83.4114 86.3464 83.2592 86.4376 83.1456C86.5537 83.0705 86.7446 83.1112 86.8194 83.227C87.4567 84.1279 87.123 85.0548 86.8555 85.8294C86.5881 86.604 86.3481 87.2515 86.8358 87.9209C87.2847 88.6154 87.9873 88.5988 88.7785 88.6344C89.6084 88.645 90.5656 88.6827 91.2278 89.6223C91.865 90.5232 91.5314 91.4501 91.2639 92.2247C90.9965 92.9993 90.7565 93.6467 91.2441 94.3162C91.4075 94.4841 91.3413 94.6363 91.2115 94.775Z" fill="white"/>
<path d="M91.4814 71.6795C90.5913 72.2549 89.7417 71.8742 88.9419 71.5706C88.1808 71.242 87.5082 70.9656 86.914 71.4044C86.8228 71.5181 86.607 71.4388 86.4935 71.3481C86.3937 71.1937 86.4599 71.0415 86.5511 70.9279C87.4162 70.3139 88.3295 70.7082 89.1293 71.0118C89.8904 71.3404 90.563 71.6168 91.1572 71.1779C91.7764 70.7777 91.7369 70.0374 91.7497 69.2085C91.7377 68.341 91.7145 67.3714 92.5796 66.7574C93.4448 66.1435 94.3581 66.5378 95.1579 66.8413C95.919 67.1699 96.5666 67.4077 97.1858 67.0075C97.3019 66.9324 97.4928 66.9731 97.6063 67.0638C97.7061 67.2182 97.6399 67.3704 97.5487 67.484C96.6836 68.098 95.7702 67.7037 94.9704 67.4001C94.2093 67.0716 93.5368 66.7951 92.9426 67.234C92.3234 67.6342 92.338 68.3359 92.35 69.2034C92.3621 70.0709 92.3853 71.0405 91.5201 71.6545C91.5201 71.6545 91.5201 71.6545 91.4814 71.6795Z" fill="white"/>
<path d="M72.5426 75.8257C71.2293 76.5105 70.1999 76.1913 69.2728 75.8606C68.3707 75.5685 67.5322 75.2899 66.4761 75.8632C66.36 75.9382 66.1691 75.8975 66.0693 75.7432C65.9945 75.6275 66.0358 75.4367 66.1906 75.3366C67.4651 74.6769 68.4945 74.9961 69.4603 75.3018C70.3625 75.5939 71.201 75.8724 72.257 75.2991C72.3731 75.2241 72.5641 75.2648 72.6638 75.4191C72.6999 75.5599 72.6974 75.7257 72.5426 75.8257Z" fill="white"/>
<path d="M80.5079 91.6283C80.3531 91.7284 80.1622 91.6877 80.1011 91.5083C79.3942 90.1601 79.6393 89.1811 79.9231 88.1771C80.1544 87.2617 80.397 86.4485 79.776 85.3181C79.6763 85.1638 79.7812 84.9866 79.8973 84.9115C80.0521 84.8115 80.2043 84.8772 80.3041 85.0315C81.011 86.3798 80.7659 87.3588 80.4821 88.3628C80.2508 89.2782 80.0082 90.0914 80.6292 91.2217C80.6902 91.401 80.624 91.5533 80.5079 91.6283Z" fill="white"/>
<path d="M95.2121 78.1299C93.8989 78.8147 92.8695 78.4955 91.9424 78.1648C91.0403 77.8727 90.2018 77.5941 89.1457 78.1674C89.0296 78.2424 88.8387 78.2017 88.7389 78.0474C88.6641 77.9317 88.7054 77.7409 88.8602 77.6408C90.1347 76.9811 91.1641 77.3003 92.1299 77.606C93.032 77.8981 93.8705 78.1766 94.9266 77.6033C95.0427 77.5283 95.2336 77.569 95.3334 77.7233C95.3695 77.8641 95.3669 78.0299 95.2121 78.1299Z" fill="white"/>
<path d="M81.5192 68.4913C81.3644 68.5914 81.1735 68.5507 81.1124 68.3714C80.4055 67.0231 80.6506 66.0441 80.8957 65.0651C81.127 64.1497 81.3695 63.3365 80.7486 62.2062C80.6489 62.0519 80.7151 61.8997 80.8699 61.7996C81.0247 61.6995 81.1769 61.7652 81.2767 61.9196C82.0223 63.2428 81.7385 64.2468 81.4934 65.2258C81.2621 66.1412 81.0195 66.9544 81.6405 68.0847C81.7402 68.2391 81.674 68.3913 81.5192 68.4913Z" fill="white"/>
<path d="M73.5625 72.65C73.4851 72.7 73.3441 72.7365 73.2555 72.6844L70.9137 71.3535C70.7615 71.2878 70.7391 71.0834 70.8054 70.9312C70.8716 70.779 71.0763 70.7561 71.2285 70.8218L73.5703 72.1527C73.7225 72.2184 73.7448 72.4227 73.6786 72.575C73.6399 72.6 73.6012 72.625 73.5625 72.65Z" fill="white"/>
<path d="M72.9777 79.0455C72.939 79.0705 72.939 79.0705 72.9003 79.0955L70.3866 79.7905C70.2455 79.827 70.0684 79.7227 70.0322 79.5819C69.9961 79.4412 70.101 79.2639 70.2421 79.2275L72.7559 78.5325C72.8969 78.496 73.074 78.6003 73.1102 78.7411C73.185 78.8568 73.0938 78.9705 72.9777 79.0455Z" fill="white"/>
<path d="M75.8493 86.5435C75.7719 86.5936 75.6696 86.605 75.5423 86.5779C75.3901 86.5122 75.329 86.3328 75.3952 86.1806L76.5932 83.8745C76.6594 83.7223 76.8392 83.6608 76.9914 83.7265C77.1436 83.7923 77.2047 83.9716 77.1384 84.1238L75.9405 86.4299C75.9267 86.4935 75.888 86.5185 75.8493 86.5435Z" fill="white"/>
<path d="M84.144 87.7463C84.1053 87.7713 84.1053 87.7713 84.0666 87.7963C83.9255 87.8328 83.7733 87.7671 83.7122 87.5878L82.9099 84.9883C82.8737 84.8476 82.94 84.6953 83.1197 84.6339C83.2607 84.5974 83.413 84.6631 83.474 84.8424L84.2764 87.4419C84.2876 87.5441 84.2601 87.6713 84.144 87.7463Z" fill="white"/>
<path d="M90.5062 82.649C90.4288 82.6991 90.2878 82.7355 90.1992 82.6834L87.8574 81.3525C87.7052 81.2868 87.6828 81.0825 87.7491 80.9303C87.8153 80.778 88.02 80.7551 88.1722 80.8209L90.514 82.1517C90.6662 82.2174 90.6885 82.4218 90.6223 82.574C90.5587 82.5604 90.5449 82.624 90.5062 82.649Z" fill="white"/>
<path d="M91.238 74.1891C91.1993 74.2141 91.1993 74.2141 91.1606 74.2391L88.6469 74.9341C88.5058 74.9705 88.3287 74.8662 88.2926 74.7255C88.2564 74.5847 88.3613 74.4075 88.5024 74.371L91.0162 73.6761C91.1572 73.6396 91.3344 73.7439 91.3705 73.8846C91.3817 73.9868 91.3154 74.139 91.238 74.1891Z" fill="white"/>
<path d="M84.6797 69.7308C84.6023 69.7808 84.4999 69.7923 84.3727 69.7651C84.2204 69.6994 84.1594 69.5201 84.2256 69.3679L85.4236 67.0618C85.4898 66.9096 85.6695 66.8481 85.8218 66.9138C85.974 66.9795 86.035 67.1589 85.9688 67.3111L84.7708 69.6172C84.7321 69.6422 84.7184 69.7058 84.6797 69.7308Z" fill="white"/>
<path d="M78.4241 68.7964C78.3854 68.8214 78.3854 68.8214 78.3467 68.8464C78.2056 68.8829 78.0534 68.8171 77.9923 68.6378L77.19 66.0384C77.1538 65.8976 77.22 65.7454 77.3998 65.6839C77.5408 65.6474 77.693 65.7132 77.7541 65.8925L78.5565 68.4919C78.5677 68.5941 78.5015 68.7463 78.4241 68.7964Z" fill="white"/>
<path d="M72.1589 52.0587C72.1202 52.0838 72.0815 52.1088 72.0815 52.1088C71.9405 52.1452 71.827 52.0545 71.7522 51.9388C71.5913 51.6051 71.4056 51.2328 71.2061 50.9242C69.3605 48.0691 65.6333 47.1415 62.963 48.8676C60.254 50.6187 59.6081 54.3732 61.4537 57.2282C61.6782 57.5755 61.9164 57.8591 62.1546 58.1428C62.2681 58.2335 62.2655 58.3993 62.1744 58.5129C62.0832 58.6265 61.9422 58.663 61.8149 58.6359C60.1904 57.9902 58.7782 56.8242 57.8056 55.3195C55.3365 51.4999 56.2576 46.4735 59.8953 44.122C63.5331 41.7705 68.4945 42.9944 70.9635 46.8141C71.9362 48.3188 72.3946 50.0465 72.3413 51.8315C72.2888 51.9201 72.2363 52.0087 72.1589 52.0587ZM62.6387 48.366C65.5799 46.4648 69.6641 47.4352 71.6842 50.5604C71.5501 49.3342 71.1338 48.181 70.4604 47.1393C68.1659 43.5897 63.5864 42.4472 60.2196 44.6236C56.8914 46.775 56.0142 51.4448 58.3087 54.9943C58.9821 56.036 59.8627 56.8891 60.9257 57.5149C58.8806 54.3511 59.6589 50.2923 62.6387 48.366Z" fill="black"/>
<path d="M101.595 108.631C97.996 110.958 92.996 109.759 90.5269 105.939C89.5543 104.435 89.0959 102.707 89.1492 100.922C89.1767 100.795 89.2679 100.681 89.4089 100.645C89.55 100.608 89.6635 100.699 89.7383 100.815C89.8604 101.173 90.0599 101.482 90.2844 101.829C92.13 104.684 95.8572 105.612 98.5275 103.886C101.236 102.135 101.882 98.3802 100.037 95.5252C99.8372 95.2165 99.5741 94.8943 99.3359 94.6106C99.2223 94.5199 99.2249 94.3541 99.3161 94.2405C99.4072 94.1269 99.5483 94.0904 99.6756 94.1175C101.325 94.8018 102.712 95.9292 103.685 97.4339C106.115 101.279 105.194 106.305 101.595 108.631ZM89.8062 102.193C89.9404 103.419 90.3566 104.572 91.03 105.614C93.3245 109.164 97.904 110.306 101.271 108.13C104.638 105.953 105.476 101.309 103.182 97.7591C102.508 96.7174 101.628 95.8643 100.565 95.2385C102.585 98.3637 101.793 102.486 98.8517 104.387C95.8469 106.275 91.8264 105.318 89.8062 102.193Z" fill="black"/>
<path d="M37.4168 56.6286C36.7589 57.0538 35.843 56.8253 35.419 56.1694C34.9701 55.475 35.1627 54.5846 35.8206 54.1593C36.4785 53.734 37.3695 53.924 37.8184 54.6184C38.2286 55.3379 38.0747 56.2033 37.4168 56.6286ZM36.1199 54.6223C35.7329 54.8725 35.6478 55.4198 35.8972 55.8056C36.1715 56.2301 36.7055 56.3772 37.0925 56.127C37.4795 55.8768 37.5647 55.3295 37.2903 54.9051C37.0409 54.5192 36.5069 54.3721 36.1199 54.6223Z" fill="black"/>
<path d="M79.4835 29.4359C78.8256 29.8612 77.9097 29.6327 77.4857 28.9768C77.0368 28.2823 77.2294 27.392 77.8873 26.9667C78.5452 26.5414 79.4362 26.7313 79.8851 27.4258C80.334 28.1203 80.1414 29.0107 79.4835 29.4359ZM78.1866 27.4297C77.7996 27.6798 77.7145 28.2272 77.9639 28.613C78.2382 29.0374 78.7723 29.1845 79.1593 28.9344C79.5463 28.6842 79.6314 28.1368 79.3571 27.7124C79.1077 27.3266 78.5736 27.1795 78.1866 27.4297Z" fill="black"/>
<path d="M71.0851 139.951C70.2724 140.476 69.31 140.77 68.3004 140.821C66.6905 140.877 65.1545 140.283 63.9471 139.095L14.645 91.2609C12.28 88.9604 12.0572 85.2204 14.1625 82.8748L32.102 63.3464C32.1545 63.2578 32.2568 63.2464 32.3204 63.2599C32.4228 63.2485 32.4727 63.3257 32.5225 63.4028L33.8693 65.4863C33.9691 65.6406 33.9028 65.7928 33.7867 65.8679C33.6319 65.9679 33.4797 65.9022 33.4049 65.7865L32.2577 64.0117L14.6028 83.3014C12.7186 85.3946 12.8828 88.7895 15.0346 90.8449L64.3754 138.654C65.4443 139.713 66.8281 140.241 68.297 140.221C69.6386 140.175 70.8606 139.604 71.7309 138.658L76.8754 133.035L75.3541 130.682C75.2543 130.527 75.3205 130.375 75.4366 130.3C75.5914 130.2 75.7437 130.266 75.8185 130.381L77.4645 132.928C77.5393 133.044 77.5118 133.171 77.4207 133.284L72.1076 139.071C71.8092 139.373 71.4721 139.701 71.0851 139.951Z" fill="black"/>
<path d="M70.3618 136.37C69.5878 136.87 68.7278 137.153 67.7569 137.179C66.2493 137.223 64.8406 136.657 63.7716 135.597L17.6266 90.865C15.425 88.7324 15.2496 85.2353 17.2112 83.092L33.4488 65.4297C33.5012 65.341 33.6036 65.3296 33.6672 65.3432C33.7695 65.3317 33.8194 65.4089 33.8693 65.486L35.3158 67.7238C35.4156 67.8781 35.3494 68.0303 35.2333 68.1054C35.0785 68.2055 34.9262 68.1397 34.8514 68.024L33.6294 66.1335L17.6515 83.5186C15.9109 85.4096 16.0666 88.5365 18.0162 90.449L64.1999 135.156C65.1941 136.1 66.4755 136.639 67.7921 136.554C69.0314 136.519 70.1373 136.023 70.9303 135.127L75.2044 130.45L74.1819 128.868C74.0821 128.714 74.1484 128.561 74.2645 128.486C74.4193 128.386 74.5715 128.452 74.6463 128.568L75.7686 130.304C75.8434 130.42 75.8159 130.547 75.7247 130.661L71.282 135.502C71.0722 135.856 70.7488 136.12 70.3618 136.37Z" fill="black"/>
<path d="M71.0936 132.834C71.0549 132.859 71.0162 132.884 70.9526 132.87C70.889 132.857 70.7866 132.868 70.7367 132.791C69.8561 131.938 68.7269 131.464 67.5513 131.513C66.478 131.55 65.4882 131.972 64.7477 132.778C64.6703 132.828 64.6316 132.853 64.5293 132.865C64.4656 132.851 64.3633 132.863 64.3134 132.786L20.6718 90.483C20.5583 90.3923 20.536 90.1879 20.6658 90.0493C22.1992 88.3469 22.0633 85.5902 20.302 83.8841C20.1885 83.7934 20.1661 83.589 20.296 83.4504L34.8454 67.5904C34.8979 67.5018 35.0002 67.4903 35.0638 67.5039C35.1662 67.4924 35.2161 67.5696 35.2659 67.6468L74.6213 128.529C74.6962 128.645 74.6686 128.772 74.5775 128.886L71.0825 132.732C71.1323 132.809 71.1323 132.809 71.0936 132.834ZM65.1863 131.674C65.8829 131.224 66.6655 130.992 67.5092 130.939C68.7484 130.903 69.955 131.327 70.8743 132.155L74.0185 128.7L35.0122 68.3578L20.9049 83.7132C22.5999 85.5715 22.7857 88.4054 21.2498 90.2736L64.476 132.188C64.7469 132.013 64.9541 131.824 65.1863 131.674Z" fill="black"/>
<path d="M19.8144 88.1378C19.1565 88.5631 18.2406 88.3346 17.8166 87.6787C17.3677 86.9842 17.5604 86.0939 18.2182 85.6686C18.8761 85.2433 19.7671 85.4332 20.216 86.1277C20.64 86.7836 20.4723 87.7126 19.8144 88.1378ZM18.5175 86.1316C18.1305 86.3817 18.0454 86.9291 18.2948 87.3149C18.5691 87.7393 19.1032 87.8864 19.4902 87.6363C19.8772 87.3861 19.9623 86.8388 19.688 86.4143C19.4136 85.9899 18.9045 85.8814 18.5175 86.1316Z" fill="black"/>
<path d="M68.7338 135.125C68.0759 135.55 67.16 135.322 66.736 134.666C66.2871 133.971 66.4798 133.081 67.1377 132.656C67.7955 132.23 68.6865 132.42 69.1354 133.115C69.5207 133.796 69.3917 134.7 68.7338 135.125ZM67.4369 133.119C67.0499 133.369 66.9648 133.916 67.2142 134.302C67.4885 134.726 68.0226 134.873 68.4096 134.623C68.7966 134.373 68.8817 133.826 68.6074 133.401C68.358 133.016 67.8239 132.868 67.4369 133.119Z" fill="black"/>
<path d="M142.215 93.9711C141.828 94.2212 141.416 94.4328 140.955 94.5672L133.497 97.0359C133.356 97.0723 133.228 97.0452 133.154 96.9294L131.508 94.383C131.408 94.2287 131.474 94.0765 131.59 94.0014C131.745 93.9014 131.897 93.9671 131.972 94.0828L133.493 96.4363L140.733 94.0542C141.991 93.6238 142.975 92.769 143.568 91.5649C144.214 90.2722 144.276 88.7551 143.749 87.3454L120.453 22.7008C119.462 19.8949 116.409 18.3126 113.752 19.2099L88.9391 27.4265L90.0864 29.2013C90.1861 29.3556 90.1199 29.5078 90.0038 29.5828C89.849 29.6829 89.6968 29.6172 89.622 29.5014L88.2752 27.418C88.2253 27.3408 88.2141 27.2387 88.2279 27.1751C88.2804 27.0865 88.3328 26.9978 88.3965 27.0114L113.569 18.6718C116.547 17.6767 119.904 19.3903 121.056 22.5299L144.39 87.1495C144.954 88.7 144.889 90.3828 144.177 91.8278C143.691 92.6889 143.028 93.4457 142.215 93.9711Z" fill="black"/>
<path d="M139.209 91.8665C138.861 92.0917 138.487 92.2783 138.064 92.3877L131.826 94.4509C131.685 94.4874 131.557 94.4603 131.483 94.3445L130.36 92.6083C130.261 92.454 130.327 92.3018 130.443 92.2267C130.598 92.1267 130.75 92.1924 130.825 92.3081L131.847 93.89L137.867 91.9132C139.009 91.5579 139.954 90.7281 140.457 89.6376C141.05 88.4335 141.109 87.0822 140.657 85.7882L118.829 25.2821C117.886 22.7192 115.137 21.2684 112.66 22.1041L90.261 29.4714L91.483 31.3619C91.5828 31.5163 91.5166 31.6685 91.4005 31.7435C91.2457 31.8436 91.0935 31.7779 91.0186 31.6621L89.5721 29.4244C89.5222 29.3472 89.5111 29.245 89.5248 29.1814C89.5773 29.0928 89.6297 29.0042 89.6934 29.0178L112.465 21.4639C115.225 20.5552 118.342 22.151 119.382 25.0341L141.224 85.4766C141.737 86.9499 141.675 88.467 141.029 89.7597C140.632 90.673 139.983 91.3662 139.209 91.8665Z" fill="black"/>
<path d="M135.722 91.0568C135.684 91.0819 135.684 91.0819 135.645 91.1069L130.703 92.7147C130.562 92.7512 130.435 92.7241 130.36 92.6083L91.0048 31.7257C90.955 31.6486 90.9438 31.5464 90.9575 31.4828C91.01 31.3942 91.0625 31.3056 91.1261 31.3191L111.561 24.5645C111.702 24.5281 111.855 24.5938 111.954 24.7481C112.787 27.0546 115.245 28.3104 117.427 27.6112C117.568 27.5747 117.72 27.6404 117.82 27.7947L138.473 84.9569C138.523 85.034 138.51 85.0977 138.457 85.1863C138.443 85.2499 138.366 85.2999 138.289 85.3499C137.288 85.6688 136.458 86.4235 135.984 87.3868C135.457 88.4387 135.425 89.6628 135.841 90.816C135.891 90.8932 135.877 90.9568 135.825 91.0454C135.8 91.0068 135.761 91.0318 135.722 91.0568ZM130.739 92.0902L135.18 90.6418C134.816 89.3999 134.886 88.1509 135.452 87.0739C135.941 86.047 136.77 85.2923 137.798 84.8462L117.328 28.2221C114.994 28.8556 112.486 27.5227 111.487 25.2141L91.7075 31.7092L130.739 92.0902Z" fill="black"/>
<path d="M116.022 25.9479C115.364 26.3732 114.448 26.1447 114.024 25.4888C113.575 24.7943 113.768 23.9039 114.426 23.4786C115.084 23.0534 115.975 23.2433 116.424 23.9378C116.848 24.5937 116.68 25.5226 116.022 25.9479ZM114.725 23.9416C114.338 24.1918 114.253 24.7392 114.503 25.125C114.777 25.5494 115.311 25.6965 115.698 25.4463C116.085 25.1962 116.17 24.6488 115.896 24.2244C115.621 23.8 115.112 23.6915 114.725 23.9416Z" fill="black"/>
<path d="M138.78 89.8459C138.123 90.2711 137.207 90.0426 136.783 89.3867C136.334 88.6922 136.526 87.8019 137.184 87.3766C137.842 86.9513 138.733 87.1412 139.182 87.8357C139.606 88.4916 139.438 89.4206 138.78 89.8459ZM137.484 87.8396C137.097 88.0897 137.011 88.6371 137.261 89.0229C137.535 89.4473 138.069 89.5944 138.456 89.3443C138.843 89.0941 138.928 88.5468 138.654 88.1223C138.405 87.7365 137.871 87.5894 137.484 87.8396Z" fill="black"/>
<path d="M83.7803 128.353C83.1224 128.778 82.2065 128.549 81.7825 127.894C81.3336 127.199 81.5263 126.309 82.1842 125.883C82.8421 125.458 83.733 125.648 84.1819 126.343C84.5922 127.062 84.4382 127.927 83.7803 128.353ZM82.4834 126.346C82.0964 126.597 82.0113 127.144 82.2607 127.53C82.535 127.954 83.0691 128.101 83.4561 127.851C83.8431 127.601 83.9282 127.054 83.6539 126.629C83.4045 126.243 82.8704 126.096 82.4834 126.346Z" fill="black"/>
<path d="M125.847 101.16C125.189 101.586 124.273 101.357 123.849 100.701C123.4 100.007 123.593 99.1163 124.251 98.6911C124.909 98.2658 125.8 98.4557 126.249 99.1502C126.698 99.8447 126.505 100.735 125.847 101.16ZM124.55 99.154C124.163 99.4042 124.078 99.9516 124.327 100.337C124.602 100.762 125.136 100.909 125.523 100.659C125.91 100.409 125.995 99.8612 125.721 99.4368C125.471 99.051 124.937 98.9039 124.55 99.154Z" fill="black"/>
</g>
<defs>
<clipPath id="clip0_103_2161">
<rect width="127" height="103" fill="white" transform="translate(0 68.9446) rotate(-32.8792)"/>
</clipPath>
</defs>
</svg>
