<svg width="59" height="115" viewBox="0 0 59 115" fill="none" xmlns="http://www.w3.org/2000/svg">
<g clip-path="url(#clip0_176_1872)">
<path d="M7.05903 59.8814C6.97188 61.5267 7.01545 62.436 6.62328 63.1721C6.27469 62.7391 4.92387 60.9639 4.18311 59.8814C3.35519 58.6258 1.9608 57.2402 2.17867 50.6156C2.39655 44.6837 1.9608 40.5271 1.83008 39.7044C2.78872 39.7044 4.05238 41.3065 4.00881 45.593C3.92166 51.4383 3.05017 56.8505 7.05903 59.8814Z" fill="#B8A36E"/>
<path d="M22.8768 65.8133C22.8332 65.77 22.5717 65.5968 22.136 65.2071C22.136 65.2071 22.0924 65.2071 22.0924 65.1638C20.698 63.7782 17.3428 60.4443 15.2512 57.8464C12.5496 54.4691 11.1988 52.3042 10.4144 50.5723C10.3708 50.529 10.3709 50.4424 10.3273 50.3991C10.2401 50.2259 10.1966 50.0527 10.1094 49.8795C10.0658 49.7929 10.0658 49.7063 10.0223 49.6197C9.97868 49.4465 9.89153 49.2733 9.84795 49.1002C9.84795 49.0569 9.80438 48.9703 9.80438 48.927C9.76081 48.8404 9.76081 48.7105 9.71723 48.6239C9.67366 48.4074 9.58651 48.2342 9.54293 48.0177C9.10719 46.5023 8.58429 44.6404 8.14855 42.9518C8.10497 42.6487 7.58208 38.9251 7.32063 37.1932C7.05918 35.6344 7.10276 34.1623 8.80216 33.9458C9.06361 33.9025 9.45578 33.9891 9.9351 34.3355C9.19434 34.7685 8.45357 35.5911 8.75859 37.323C9.32506 40.6137 9.41221 47.0651 14.9898 54.9454C20.7416 63.0855 22.746 65.5968 22.8768 65.8133Z" fill="#B8A36E"/>
<path d="M3.13721 39.2282L1.82998 39.6611C1.56853 38.5787 0.697037 34.7252 0.34844 33.1664C0.174142 32.3005 0.653462 30.7417 1.74283 30.352C1.17636 31.8242 1.52495 33.253 1.82998 34.5953C2.57074 37.5395 3.13721 39.2282 3.13721 39.2282Z" fill="#B8A36E"/>
<path d="M58.6949 103.526C58.6078 103.526 58.4771 103.483 58.4335 103.396C58.3899 103.353 55.2961 98.4601 52.8995 89.1077C49.8057 77.0708 47.627 71.0956 44.4025 65.337C41.6137 60.3577 40.5679 57.7598 39.6528 55.4217C39.5221 55.0753 39.3914 54.7289 39.2171 54.3825C38.4763 52.564 37.8663 51.0486 36.9948 49.1434C36.9076 48.927 36.7769 48.6672 36.6462 48.3641C35.7747 46.2858 33.9446 41.9992 31.6787 42.8652C31.3301 42.9951 31.0687 43.2549 30.9379 43.6446C30.0664 45.6363 31.5044 50.529 33.1602 54.5124C33.6396 55.6382 34.0317 56.5474 34.4239 57.3701C35.1211 58.9288 35.6876 60.2711 36.2976 62.0896C36.3848 62.3927 36.4719 62.6525 36.5591 62.869C37.3434 65.1205 37.8227 66.5926 36.0362 71.9183C34.206 77.2873 34.206 81.7903 36.1233 85.3407C36.2105 85.4706 36.1669 85.6871 35.9926 85.7304C35.8619 85.817 35.644 85.7304 35.6004 85.6005C33.6396 81.8769 33.596 77.2007 35.4697 71.7018C37.2127 66.5926 36.7333 65.2071 35.9926 63.0422C35.9054 62.7824 35.8183 62.5226 35.7311 62.2195C35.1647 60.401 34.5982 59.1453 33.8574 57.5433C33.5088 56.7206 33.0731 55.7681 32.5938 54.6423C31.7658 52.6939 29.1949 46.026 30.3715 43.3415C30.5893 42.7786 30.9815 42.4322 31.4608 42.259C34.2496 41.1766 36.254 45.8528 37.2127 48.1043C37.3434 48.4074 37.4741 48.6672 37.5613 48.8837C38.4328 50.7888 39.0864 52.3475 39.8271 54.1227C39.9579 54.4691 40.0886 54.8155 40.2629 55.1619C41.178 57.4567 42.1802 60.0546 44.9689 64.9906C48.237 70.7925 50.4158 76.8543 53.5531 88.9345C55.9497 98.2003 59 103.006 59.0435 103.05C59.1307 103.18 59.0871 103.353 58.9564 103.483C58.8257 103.526 58.7821 103.526 58.6949 103.526Z" fill="black"/>
<path d="M36.7333 66.6359C36.6897 66.6359 36.6897 66.6359 36.6462 66.6359C36.3411 66.5493 35.9054 66.4627 35.4261 66.3328C33.4216 65.8133 30.72 65.1638 29.7614 64.6442L29.6307 64.5576C28.367 63.9081 25.3603 62.436 22.528 59.1453C19.2163 54.7289 15.7304 49.9228 14.9024 47.4115C14.8153 47.0651 14.6846 46.5023 14.5538 45.8095C14.2488 44.3806 13.8566 42.3889 13.203 40.6137C11.6343 36.4571 10.3271 35.0282 9.67349 34.552C9.23774 34.2056 8.93272 34.2056 8.802 34.2056C8.32268 34.2489 8.01765 34.4221 7.79978 34.7251C7.36403 35.3313 7.49476 36.3705 7.58191 37.1499C7.79978 38.5354 8.19195 41.2632 8.36625 42.3889L8.4534 42.9951C8.4534 43.1683 8.32268 43.2982 8.14838 43.2982C7.97408 43.2982 7.84335 43.1683 7.84335 42.9951L7.75621 42.4322C7.58191 41.2632 7.23331 38.5787 6.97186 37.1931C6.79756 36.2839 6.71042 35.1148 7.27689 34.3355C7.58191 33.9025 8.06123 33.686 8.67127 33.5994C8.93272 33.5561 9.41204 33.5994 10.0221 34.0757C10.8936 34.6819 12.2444 36.3272 13.7695 40.3972C14.4667 42.2157 14.8589 44.2508 15.1639 45.7229C15.2946 46.4157 15.4253 46.9785 15.5125 47.2383C16.2968 49.663 19.7392 54.4258 23.0073 58.7989C25.7525 61.9597 28.672 63.4319 29.8921 64.038L30.0664 64.0813C30.9379 64.5143 33.7702 65.2504 35.6004 65.7267C36.0797 65.8566 36.5154 65.9431 36.8205 66.0297C36.9948 66.073 37.0819 66.2462 37.0383 66.3761C36.9948 66.5493 36.864 66.6359 36.7333 66.6359Z" fill="black"/>
<path d="M22.7459 66.1163C22.6587 66.1163 22.6152 66.073 22.528 66.0297C22.528 66.0297 22.3101 65.8133 21.918 65.4236L21.8744 65.3803C20.175 63.6916 16.994 60.5309 14.9896 58.0196C12.5494 54.9887 11.0679 52.7372 10.1093 50.6589L10.0221 50.4424C9.93496 50.2692 9.89138 50.0527 9.80423 49.8795L9.49921 48.927C9.45564 48.8404 9.45564 48.7538 9.41206 48.6672C9.32491 48.4074 9.28134 48.1909 9.19419 48.0177C8.80202 46.6322 8.27912 44.8136 7.7998 42.9518V42.9085C7.32048 41.1766 6.92831 39.6178 6.75401 38.8818L6.66686 38.5354C6.62329 38.4488 6.62329 38.3189 6.57971 38.189C6.53614 37.9725 6.44899 37.6694 6.40542 37.3663C6.40542 37.323 6.40542 37.2797 6.36184 37.2364C5.2289 32.8633 4.00881 31.3479 3.1809 30.8716C2.52728 30.4819 1.96081 30.3953 1.56864 30.5252C0.653569 30.8283 0.47927 32.3004 0.609994 32.9932C0.958591 34.5087 1.78651 38.189 2.09153 39.4879C2.17868 39.7477 2.17868 39.8776 2.17868 39.8776C2.22225 40.0508 2.09153 40.1807 1.96081 40.224C1.78651 40.2673 1.65578 40.1374 1.61221 40.0075C1.61221 40.0075 1.56864 39.9209 1.52506 39.7044C1.22004 38.4055 0.392121 34.7251 0.0435243 33.2097C-0.174349 32.2139 0.174248 30.4819 1.35076 30.0489C1.96081 29.8325 2.658 29.9623 3.48592 30.4386C4.83673 31.218 6.01324 33.5128 6.97188 37.1931C6.97188 37.1931 6.97188 37.2797 7.01546 37.2797C7.10261 37.5828 7.14618 37.8859 7.23333 38.1024C7.27691 38.2323 7.27691 38.3622 7.32048 38.4488L7.40763 38.7952C7.58193 39.5312 7.9741 41.09 8.45342 42.8652V42.9085C8.93274 44.727 9.41206 46.5456 9.84781 47.9311C9.89138 48.1476 9.97853 48.3208 10.0221 48.5373V48.5806C10.0657 48.6672 10.0657 48.7538 10.1093 48.7971L10.4143 49.7496C10.4579 49.9228 10.545 50.096 10.5886 50.2692L10.6757 50.4424C11.5908 52.4341 13.0723 54.6856 15.4689 57.6732C17.4734 60.1412 20.6107 63.302 22.3101 64.9906C22.7459 65.3803 22.9638 65.5968 22.9638 65.5968C23.0945 65.7267 23.0945 65.8998 22.9638 66.0297C22.9202 66.1163 22.833 66.1163 22.7459 66.1163Z" fill="black"/>
<path d="M6.71065 63.605C6.6235 63.605 6.53635 63.5617 6.49278 63.4752L6.40563 63.3453C5.88273 62.6958 4.66264 61.0504 3.96545 60.0546L3.79115 59.7948C2.91966 58.5392 1.69957 56.8505 1.91744 50.6156C2.13532 44.9435 1.69957 40.8735 1.56885 39.7477V39.6178C1.56885 39.488 1.61242 39.4014 1.69957 39.3148C1.78672 39.2715 3.66043 38.189 5.31626 39.5313C6.9721 40.7003 7.1464 43.3415 7.27712 45.6796C7.32069 46.1559 7.32069 46.5889 7.36427 46.9785C7.58214 49.4032 7.97431 54.9454 7.93074 55.0753C7.93074 55.2485 7.80001 55.3784 7.62572 55.3351C7.45142 55.3351 7.32069 55.1619 7.36427 55.032C7.36427 54.8588 7.01567 49.6197 6.7978 47.0218C6.75422 46.5889 6.71065 46.1559 6.71065 45.6796C6.57993 43.4714 6.40563 41.0034 4.96767 39.9642C3.8783 39.0983 2.65821 39.488 2.22247 39.7044C2.30962 41.0034 2.70179 45.0301 2.48391 50.6589C2.26604 56.6773 3.39898 58.2794 4.2269 59.4484L4.4012 59.7082C5.09839 60.7041 6.31848 62.3061 6.84137 62.9556L6.92852 63.0855C7.01567 63.2154 7.01567 63.3886 6.88495 63.5184C6.84137 63.605 6.7978 63.605 6.71065 63.605Z" fill="black"/>
<path d="M18.7373 70.5328C18.6501 70.5328 18.563 70.4895 18.5194 70.4462C18.3887 70.3163 11.8525 63.0422 11.8089 62.9556C11.6782 62.8257 11.7218 62.6525 11.8525 62.5226C11.9832 62.3927 12.1575 62.436 12.2882 62.5659C14.2927 64.8174 18.9987 70.0132 18.9987 70.0565C19.0859 70.1864 19.0859 70.3596 18.9551 70.4895C18.868 70.5328 18.8244 70.5328 18.7373 70.5328Z" fill="black"/>
<path d="M43.2698 115C43.0955 115 43.0083 114.87 42.9648 114.74C42.3983 112.445 40.6553 106.514 36.5157 100.841C33.2912 96.4251 29.8924 94.8663 26.2757 93.1777C25.4478 92.788 24.5327 92.3983 23.6612 91.9221C19.0859 89.584 15.1642 86.0335 13.6826 83.7387C12.1575 81.3573 7.58219 73.1307 6.57997 71.1389C5.49061 68.974 5.8392 66.8091 6.23138 64.5143V64.4277C6.44925 63.1288 6.75427 60.2711 7.19002 55.898L7.23359 55.5083C7.23359 55.4217 7.27717 55.3351 7.36431 55.2918C7.40789 55.2485 8.49725 54.4258 10.1095 55.6815C12.419 57.1969 12.3754 63.1721 12.0704 65.2071C11.7653 67.5019 12.0704 68.8008 12.0704 68.8008L12.1575 69.0173C13.3776 71.875 15.5128 74.9059 18.1708 77.5038C20.5674 79.8419 23.6176 80.6212 26.3193 81.314L26.8422 81.4439C29.5874 82.1367 31.2868 82.4831 31.3303 82.4831C31.5046 82.5264 31.5918 82.6563 31.5482 82.8294C31.5046 83.0026 31.3739 83.0892 31.1996 83.0459C31.1996 83.0459 29.4566 82.6995 26.7114 82.0068L26.1885 81.8769C23.3998 81.1841 20.2624 80.4047 17.7351 77.9367C15.0334 75.2523 12.8111 72.1781 11.5911 69.2338L11.5039 68.974C11.5039 68.8874 11.1117 67.5452 11.4603 65.1205C11.7653 63.0422 11.6782 57.4567 9.71734 56.1578C8.71513 55.3784 8.06151 55.5516 7.80006 55.6815L7.75649 55.9846C7.32074 60.3577 6.97214 63.2587 6.75427 64.5576V64.6442C6.40567 66.939 6.10065 68.8874 7.05929 70.9224C8.06151 72.9575 12.5933 81.1408 14.1184 83.4789C15.5563 85.7304 19.3909 89.1943 23.8791 91.4891C24.7506 91.9221 25.6221 92.3118 26.45 92.7014C30.1103 94.3901 33.5962 95.9921 36.9079 100.538C41.1346 106.34 42.9212 112.359 43.4441 114.697C43.4441 114.74 43.4441 114.74 43.4441 114.784C43.5748 114.87 43.4441 115 43.2698 115Z" fill="black"/>
<path d="M19.0421 75.1224H18.9985C18.8242 75.0791 18.7371 74.9492 18.7806 74.776C18.7806 74.7327 20.0879 68.4544 26.6241 65.2071C26.7548 65.1205 26.9727 65.2071 27.0162 65.337C27.1034 65.4669 27.0162 65.6834 26.8855 65.7267C20.6108 68.8441 19.3907 74.8193 19.3471 74.9059C19.3035 75.0358 19.1728 75.1224 19.0421 75.1224Z" fill="black"/>
<path d="M13.7261 8.31326L18.1271 12.2534C18.345 12.4699 18.3886 12.8163 18.1707 13.0328C17.9528 13.2492 17.6042 13.2925 17.3863 13.0761C17.3428 13.0328 17.3428 13.0328 17.2992 12.9895L13.7261 8.31326Z" fill="black"/>
<path d="M19.7393 3.68034L22.8766 8.78953C23.0509 9.04932 22.9638 9.3957 22.7023 9.5689C22.4409 9.74209 22.0923 9.65549 21.918 9.39571C21.918 9.35241 21.8744 9.35241 21.8744 9.30911L19.7393 3.68034Z" fill="black"/>
<path d="M27.3651 0L28.1494 7.66378C28.193 7.96687 27.9751 8.22666 27.6701 8.26996C27.3651 8.31325 27.1036 8.09676 27.0601 7.79367C27.0601 7.75038 27.0601 7.75038 27.0601 7.70708L27.3651 0Z" fill="black"/>
<path d="M35.2518 3.42056L32.6809 8.83283C32.5502 9.09262 32.2016 9.22251 31.9402 9.09262C31.6787 8.96272 31.548 8.61634 31.6787 8.35655C31.6787 8.31325 31.7223 8.31325 31.7223 8.26995L35.2518 3.42056Z" fill="black"/>
<path d="M40.9168 8.39985L37.4744 12.7297C37.3001 12.9895 36.9515 12.9895 36.6901 12.8163C36.4286 12.6431 36.4286 12.2967 36.6029 12.0369C36.6465 11.9936 36.6465 11.9936 36.6901 11.9503L40.9168 8.39985Z" fill="black"/>
<path d="M13.7261 19.4409C13.7261 19.4409 17.9964 8.48645 27.4085 8.14006C36.5156 7.75038 40.6116 19.0079 40.6116 19.0079C40.6116 19.0079 35.4262 25.5459 27.3213 25.1563C19.2165 24.7666 13.7261 19.4409 13.7261 19.4409Z" fill="#B8A36E"/>
<path d="M28.0185 25.4593C27.8006 25.4593 27.5392 25.4593 27.3213 25.4593C19.1729 25.0264 13.5953 19.6574 13.5082 19.6141L13.3774 19.4842L13.4646 19.311C13.5082 19.1811 17.9092 8.18336 27.4085 7.83698C27.5828 7.83698 27.7135 7.83698 27.8878 7.83698C36.777 7.83698 40.8294 18.7914 40.873 18.878L40.9166 19.0079L40.8294 19.1378C40.7859 19.2244 35.7748 25.4593 28.0185 25.4593ZM14.0311 19.3543C14.9026 20.177 20.0879 24.5501 27.3213 24.8965C34.5983 25.2428 39.5222 19.8306 40.3065 18.9646C39.7836 17.6657 35.6876 8.05347 27.452 8.44315C18.955 8.74624 14.6411 17.9688 14.0311 19.3543Z" fill="black"/>
<path d="M27.6263 21.779C31.188 21.779 34.0753 18.7161 34.0753 14.9379C34.0753 11.1596 31.188 8.09676 27.6263 8.09676C24.0646 8.09676 21.1772 11.1596 21.1772 14.9379C21.1772 18.7161 24.0646 21.779 27.6263 21.779Z" fill="black"/>
<path d="M27.6261 18.1419C29.3589 18.1419 30.7635 16.6493 30.7635 14.808C30.7635 12.9667 29.3589 11.474 27.6261 11.474C25.8934 11.474 24.4888 12.9667 24.4888 14.808C24.4888 16.6493 25.8934 18.1419 27.6261 18.1419Z" fill="white"/>
<path d="M27.6263 33.3396C27.452 33.3396 27.3213 33.2097 27.3213 33.0365V25.1995C27.3213 25.0264 27.452 24.8965 27.6263 24.8965C27.8006 24.8965 27.9313 25.0264 27.9313 25.1995V33.0798C27.8878 33.2097 27.757 33.3396 27.6263 33.3396Z" fill="black"/>
<path d="M18.3011 30.5252C18.1268 30.5252 17.9961 30.3953 17.9961 30.2221V22.7748C17.9961 22.6017 18.1268 22.4718 18.3011 22.4718C18.4754 22.4718 18.6061 22.6017 18.6061 22.7748V30.2221C18.6061 30.3953 18.4754 30.5252 18.3011 30.5252Z" fill="black"/>
<path d="M36.7332 30.5252C36.5589 30.5252 36.4282 30.3953 36.4282 30.2221V22.3852C36.4282 22.212 36.5589 22.0821 36.7332 22.0821C36.9075 22.0821 37.0383 22.212 37.0383 22.3852V30.2654C37.0383 30.3953 36.9075 30.5252 36.7332 30.5252Z" fill="black"/>
<path d="M19.1295 30.8716C19.1295 31.3479 18.7373 31.7376 18.3016 31.7376C17.8658 31.7376 17.4736 31.3479 17.4736 30.8716C17.4736 30.3953 17.8658 30.0056 18.3016 30.0056C18.7809 29.9624 19.1295 30.3953 19.1295 30.8716Z" fill="black"/>
<path d="M37.5611 30.8716C37.5611 31.3479 37.1689 31.7376 36.7332 31.7376C36.2974 31.7376 35.9053 31.3479 35.9053 30.8716C35.9053 30.3953 36.2974 30.0056 36.7332 30.0056C37.2125 29.9624 37.5611 30.3953 37.5611 30.8716Z" fill="black"/>
<path d="M27.6261 34.5953C28.2518 34.5953 28.759 34.0525 28.759 33.3829C28.759 32.7133 28.2518 32.1706 27.6261 32.1706C27.0004 32.1706 26.4932 32.7133 26.4932 33.3829C26.4932 34.0525 27.0004 34.5953 27.6261 34.5953Z" fill="black"/>
<path d="M28.4544 35.8076C28.4544 36.2839 28.1058 36.6303 27.6701 36.6303C27.2343 36.6303 26.8857 36.2406 26.8857 35.8076C26.8857 35.3313 27.2343 34.9849 27.6701 34.9849C28.0623 34.9416 28.4544 35.3313 28.4544 35.8076Z" fill="black"/>
<path d="M27.6264 38.0591C27.9152 38.0591 28.1493 37.8071 28.1493 37.4962C28.1493 37.1854 27.9152 36.9334 27.6264 36.9334C27.3376 36.9334 27.1035 37.1854 27.1035 37.4962C27.1035 37.8071 27.3376 38.0591 27.6264 38.0591Z" fill="black"/>
<path d="M8.93297 59.8381C8.75867 66.6359 6.88496 67.8483 10.8067 74.1265C14.2926 79.712 17.735 85.5139 24.4455 88.0252C31.156 90.5798 41.7011 93.0478 47.8887 112.619C46.5814 113.571 45.1435 114.307 43.5748 114.654C42.9212 111.883 41.0474 106.037 37.0386 100.495C32.9861 94.9529 28.6287 93.8272 24.0969 91.5324C19.5652 89.1943 15.7306 85.7304 14.2491 83.3923C12.7675 81.0975 8.1922 72.9142 7.14641 70.7925C6.10062 68.6709 6.44922 66.5926 6.79782 64.2545C7.14641 62.0463 7.75646 56.1578 7.80003 55.6815C8.41008 56.4608 9.02012 57.4567 8.93297 59.8381Z" fill="#B8A36E"/>
<path d="M46.9297 94.5632C44.7074 94.5632 42.8772 92.6581 42.8772 90.2767C42.8772 87.8953 44.7074 85.9902 46.9297 85.9902C47.1911 85.9902 47.4526 86.0335 47.6704 86.0768C46.8425 85.4273 45.7967 85.0376 44.6638 85.0376C41.9186 85.0376 39.6963 87.3758 39.6963 90.32C39.6963 93.221 41.9186 95.6024 44.6638 95.6024C45.7967 95.6024 46.7989 95.2127 47.6704 94.5632C47.4526 94.5199 47.1911 94.5632 46.9297 94.5632Z" fill="#B8A36E"/>
</g>
<defs>
<clipPath id="clip0_176_1872">
<rect width="59" height="115" fill="white"/>
</clipPath>
</defs>
</svg>
