<svg width="107" height="75" viewBox="0 0 107 75" fill="none" xmlns="http://www.w3.org/2000/svg">
<g clip-path="url(#clip0_235_1667)">
<path d="M84.5365 20.1035C84.5365 20.1035 81.6791 24.2751 78.3821 28.8905C71.9638 21.8343 52.4014 24.0533 52.4014 24.0533C53.94 21.3462 54.6434 18.5059 54.4236 16.9527C68.2272 12.6035 81.811 16.287 84.5365 20.1035Z" fill="black"/>
<path d="M76.2712 32.1746C76.6229 32.8846 76.9745 33.5947 77.3262 34.2604C77.8538 35.2811 78.3813 36.3018 78.8209 37.3669C81.1068 42.6479 81.8102 50.2811 81.4585 56.1391C80.7112 57.0266 79.9199 57.8698 79.1726 58.6243C79.2165 54.4527 79.1286 50.6805 78.5132 46.5533C77.8977 42.3817 76.6668 38.2988 74.6446 34.7041L74.3369 34.4379C74.9084 33.6834 75.4799 32.8846 76.0953 32.0414L76.1833 32.1302C76.2272 32.1302 76.2272 32.0858 76.2712 32.0858V32.1746Z" fill="#B8A36E"/>
<path d="M60.4458 42.3817C61.9405 43.0917 63.9626 44.7337 64.5781 46.3314C63.7868 47.1302 62.9076 47.929 61.9844 48.7278L61.8086 48.5059C60.8854 42.4704 39.3447 40.784 39.3447 40.784C40.3558 39.9408 41.323 39.0533 42.2461 38.2101C43.8727 38.0769 48.005 38.9201 49.6315 39.1864C54.2913 39.9852 56.1377 40.2959 60.4458 42.3817Z" fill="#B8A36E"/>
<path d="M45.7631 59.6006C46.4665 59.6006 46.994 60.1775 46.994 60.9319C46.994 61.6864 46.4225 62.2633 45.7631 62.2633C45.1037 62.2633 44.5322 61.6864 44.5322 60.9319C44.5322 60.2219 45.1037 59.6006 45.7631 59.6006Z" fill="black"/>
<path d="M45.4994 65.1923C46.1149 65.1923 46.5984 65.7249 46.5984 66.3905C46.5984 67.0562 46.1149 67.5888 45.4994 67.5888C44.884 67.5888 44.4004 67.0562 44.4004 66.3905C44.4004 65.7249 44.884 65.1923 45.4994 65.1923Z" fill="black"/>
<path d="M44.8842 72.2929C45.4911 72.2929 45.9832 71.7763 45.9832 71.1391C45.9832 70.5018 45.4911 69.9852 44.8842 69.9852C44.2772 69.9852 43.7852 70.5018 43.7852 71.1391C43.7852 71.7763 44.2772 72.2929 44.8842 72.2929Z" fill="black"/>
<path d="M41.4984 58.0917C42.4216 60.6213 42.8173 63.0621 42.7293 65.7692C42.6414 68.4763 41.8941 71.8491 39.3004 74.7337C31.8271 75 27.3871 72.5148 27.3871 72.5148C27.3871 72.5148 31.2556 64.7929 31.2556 64.3491C31.2556 63.9053 26.2002 67.0562 21.7162 69.8964C21.7162 69.8964 17.5839 69.2308 12.1768 65.7692L12.2207 65.6361C15.7376 64.7485 18.8148 62.7071 21.0568 59.6893V59.645C24.3538 59.7337 28.1344 59.645 32.4426 59.2012C33.6735 59.068 34.8604 58.9349 36.0034 58.8018C37.9376 58.5355 39.6961 58.2692 41.4105 57.9142L41.4984 58.0917Z" fill="black"/>
<path d="M21.1454 59.6006V59.645C18.9034 62.6627 15.8262 64.7485 12.3093 65.5917L12.2654 65.7249C11.606 65.2811 10.9026 64.8373 10.1992 64.3047L10.3311 64.0828C11.8258 63.8609 13.3644 63.2396 14.5953 62.3077C15.8262 61.3757 16.5735 60.6657 17.3648 59.3787C18.5078 59.4675 19.7826 59.5562 21.1454 59.6006Z" fill="#B8A36E"/>
<path d="M38.2457 75C31.4758 75 27.4754 72.8254 27.2995 72.7367C27.1676 72.6479 27.1237 72.5148 27.1676 72.3817C28.3985 69.8964 30.2888 66.0355 30.8603 64.7041C30.0251 65.1035 27.6952 66.4349 21.8924 70.1183C21.8484 70.1627 21.7605 70.1627 21.7165 70.1627C21.5407 70.1183 17.4524 69.4527 12.0452 65.9911C11.3418 65.503 10.6385 65.0592 9.97906 64.571C6.28638 61.8195 2.94537 58.2692 0.0439758 54.0976C1.52476e-05 54.0533 -0.0439453 53.9645 -0.0439453 53.8757C-0.0439453 53.6982 0.0879364 53.6095 0.263779 53.6095C7.56123 54.3195 14.9466 53.8314 20.4417 52.2781C24.7058 51.0799 27.3435 49.3935 27.827 47.4852C27.871 47.3964 27.915 47.3077 28.0029 47.3077C28.0908 47.2633 28.1787 47.3077 28.2667 47.3521C34.8607 51.7899 42.6418 50.6805 44.8837 49.3935C44.3562 49.216 43.6968 48.9941 42.9055 48.7722C40.7075 48.1065 37.3665 47.1302 32.4869 44.7781C32.3989 44.7337 32.311 44.6006 32.311 44.5118C32.311 44.3787 32.3989 44.2899 32.5308 44.2456C34.4211 43.8018 36.6631 42.6035 39.1689 40.5621C40.092 39.8077 41.0152 38.9645 42.0263 37.9882C44.6639 35.4142 46.5542 33.0177 46.5982 33.0177C46.6422 32.9734 46.7301 32.929 46.7741 32.929C47.1697 32.8846 55.5222 32.0858 58.8632 33.5947C57.8082 31.5089 54.0275 30.6657 47.3895 29.8225C47.2576 29.8225 47.1697 29.7337 47.1697 29.6006C47.1257 29.4675 47.2137 29.3787 47.3016 29.2899C49.6754 27.7811 51.258 25.5621 52.1812 23.9645C53.5879 21.4793 54.4232 18.6391 54.1594 17.0414C54.1594 16.9083 54.2034 16.7752 54.3353 16.7308C68.1389 12.3817 81.371 16.0651 84.5362 19.7041C89.8554 11.7604 89.5477 1.19823 89.5477 1.06509C89.5477 0.976334 89.5916 0.931955 89.6356 0.843198C89.6796 0.798819 89.7675 0.75444 89.8554 0.75444C89.8554 0.75444 91.3501 0.798819 94.5592 0.0443811C94.6911 2.43261e-06 94.8229 0.0887598 94.8669 0.221896C95.834 3.23965 95.0867 12.9142 86.5144 22.2337C95.922 37.3669 85.1956 52.145 81.6787 56.3609C80.9314 57.2485 80.1841 58.0917 79.3928 58.8462C77.1948 61.0651 74.9967 62.6627 73.59 63.1953C73.5021 63.2396 73.3702 63.1953 73.2823 63.1065C73.1944 63.0177 73.1944 62.8846 73.2383 62.7959C73.7219 61.7751 72.491 52.8106 70.4688 50.503C70.5567 53.2544 70.0732 59.9112 69.3258 64.3047C69.3258 64.3491 69.3258 64.3491 69.3258 64.3935C67.8751 67.5888 60.7975 70.1183 58.5555 70.8728C58.5555 70.8728 58.5115 70.8728 58.5115 70.9172C56.7531 71.4941 55.0386 71.9379 53.5879 72.2041C53.4561 72.2041 53.3681 72.1598 53.2802 72.071C53.2363 71.9822 53.2363 71.8491 53.3242 71.7604C54.8628 69.9408 54.3353 65.7692 53.9836 63.8609C53.1923 66.0355 51.1701 71.1834 48.6644 73.4467C48.6204 73.4911 48.5764 73.4911 48.5764 73.4911C45.4992 74.4231 42.422 74.9556 39.4326 75.0888C38.993 75 38.5974 75 38.2457 75ZM27.827 72.3373C28.8381 72.8254 33.0144 74.645 39.3447 74.4231C42.2461 74.3343 45.2794 73.8018 48.3127 72.8698C51.3459 70.074 53.7198 62.6627 53.7638 62.574C53.8077 62.4408 53.9396 62.3965 54.0275 62.3965C54.1594 62.3965 54.2473 62.4852 54.2913 62.6183C54.3353 62.8846 55.698 68.5651 54.1155 71.4053C55.3903 71.139 56.7971 70.7396 58.2478 70.2959C58.2478 70.2959 58.2917 70.2959 58.2917 70.2515C62.6438 68.8314 67.6114 66.4793 68.7543 64.0828C69.5456 59.4231 70.0732 51.8787 69.8533 49.8373C69.8533 49.7485 69.8973 49.6154 69.9852 49.571C70.0732 49.5266 70.205 49.5266 70.293 49.571C72.5789 50.9024 74.1615 59.7337 73.8977 62.4408C75.2605 61.8195 77.1508 60.3106 79.0411 58.4467C79.8324 57.6479 80.5797 56.8491 81.2831 55.9615C84.756 51.8343 95.3505 37.2337 85.9429 22.3225C85.855 22.2337 85.899 22.0562 85.9869 21.9675C94.2515 13.0473 95.2626 3.77219 94.4273 0.576925C92.0974 1.10947 90.6907 1.19823 90.1192 1.24261C90.1192 3.06213 89.9433 12.8698 84.7999 20.2367C84.756 20.3254 84.6681 20.3698 84.5801 20.3698C84.4922 20.3698 84.4043 20.3254 84.3603 20.2367C81.8106 16.6864 68.6664 12.8254 54.7749 17.1302C54.9068 18.8609 54.1155 21.6568 52.6648 24.142C51.7856 25.6509 50.3349 27.7367 48.2247 29.2456C55.4782 30.2219 59.0391 31.2426 59.6985 34.0385C59.7424 34.1716 59.6985 34.2604 59.5666 34.3491C59.4787 34.3935 59.3468 34.3935 59.2589 34.3491C56.885 32.574 48.0929 33.3284 46.9939 33.4172C46.5982 33.9053 44.8398 36.0799 42.4659 38.3876C41.4548 39.3639 40.4877 40.2071 39.5645 40.9615C37.3225 42.7811 35.3003 43.9793 33.454 44.5562C37.938 46.642 41.0152 47.574 43.1253 48.1953C44.1804 48.5059 44.9717 48.7722 45.6311 49.0385C45.719 49.0828 45.763 49.1716 45.8069 49.2604C45.8069 49.3491 45.8069 49.4379 45.719 49.5266C44.0925 51.0355 35.696 52.7663 28.3546 48.0177C27.6072 49.9704 24.8817 51.6568 20.7054 52.855C15.2543 54.3639 8.08876 54.8964 0.923187 54.2308C3.6927 58.1805 6.90182 61.5089 10.4187 64.1272C11.0781 64.6154 11.7375 65.0592 12.4409 65.5473C17.2765 68.6538 21.1011 69.497 21.7605 69.6302C30.9482 63.8166 31.212 63.9497 31.4758 64.0828C31.5637 64.1272 31.6516 64.2604 31.6516 64.3491C31.6077 64.7485 29.2777 69.4083 27.827 72.3373Z" fill="black"/>
<path d="M23.3433 59.9112C22.5959 59.9112 21.8486 59.9112 21.1452 59.8669C19.8264 59.8225 18.5076 59.7781 17.3207 59.645C4.61606 58.5799 0.26396 54.2752 0.0881173 54.0533C0.00019622 53.9201 -0.0437643 53.7426 0.0881173 53.6538C0.176038 53.5651 0.351881 53.5207 0.483762 53.6538L0.527723 53.6982C0.703565 53.8757 4.87982 58.0473 17.3646 59.1124C18.5516 59.2012 19.8264 59.2899 21.1452 59.3343C24.6181 59.4231 28.4427 59.2899 32.4871 58.8905C33.8059 58.7574 34.9488 58.6243 36.0479 58.4911C37.9382 58.2692 39.7405 57.9586 41.411 57.6036C48.0491 56.2722 53.5002 54.1864 58.1161 51.2574C59.4349 50.4142 60.6658 49.4823 61.8087 48.5503C62.688 47.7959 63.5672 46.997 64.4024 46.1982C66.8202 43.8018 68.8424 41.1834 70.8207 38.6982L71.3921 37.9882C72.2274 36.9231 73.1945 35.6805 74.1617 34.3491C74.7331 33.5947 75.3046 32.7959 75.9201 31.9527C76.7114 30.8876 77.4587 29.8225 78.206 28.7574C81.4591 24.1864 84.3605 20.0148 84.3605 19.9704C84.4484 19.8373 84.6243 19.7929 84.7562 19.8817C84.888 19.9704 84.932 20.1479 84.8441 20.2811C84.8001 20.3254 81.9427 24.497 78.6896 29.068C77.9423 30.1331 77.151 31.1982 76.4036 32.2633C75.8322 33.1065 75.2167 33.9053 74.6452 34.6598C73.6781 35.9911 72.711 37.2337 71.8757 38.2988L71.3482 39.0089C69.37 41.5385 67.3478 44.1124 64.886 46.5533C64.0507 47.3965 63.1715 48.1953 62.2483 48.9497C61.1054 49.926 59.8305 50.858 58.5117 51.7012C53.8958 54.6746 48.3568 56.8047 41.6308 58.1361C39.9164 58.4911 38.114 58.8018 36.2237 59.0237C35.1247 59.1568 33.9377 59.2899 32.6189 59.4231C29.3219 59.7337 26.2007 59.9112 23.3433 59.9112Z" fill="black"/>
<path d="M78.3822 29.1568C78.2942 29.1568 78.2503 29.1124 78.1623 29.068C71.9199 22.2337 52.6213 24.2751 52.4454 24.3195C52.3135 24.3195 52.1377 24.2308 52.1377 24.0533C52.1377 23.9201 52.2256 23.7426 52.4015 23.7426C53.1927 23.6538 72.1837 21.6124 78.602 28.6686C78.6899 28.8018 78.6899 28.9793 78.602 29.068C78.514 29.1568 78.4261 29.1568 78.3822 29.1568Z" fill="black"/>
<path d="M79.1734 59.0237C78.9975 59.0237 78.9096 58.8905 78.9096 58.7574V58.6686C78.9536 55.0296 78.9096 51.0355 78.2502 46.642C77.5468 42.1154 76.272 38.1657 74.3817 34.8817C74.2938 34.7485 74.3377 34.571 74.4696 34.4822C74.6015 34.3935 74.7773 34.4379 74.8652 34.571C76.7556 37.8994 78.0744 41.8935 78.7777 46.5089C79.4371 50.9024 79.4811 54.9408 79.4371 58.6243V58.713C79.4811 58.8905 79.3492 59.0237 79.1734 59.0237Z" fill="black"/>
<path d="M81.4591 56.6272C81.2833 56.6272 81.1514 56.4941 81.1954 56.3166V56.1391C81.5031 50.7692 81.0195 43.0473 78.6017 37.5C78.1181 36.4349 77.5906 35.3698 77.107 34.4379C76.7554 33.7278 76.4037 33.0178 76.052 32.3521C75.9641 32.2189 76.052 32.0414 76.1839 31.9527C76.3158 31.8639 76.4916 31.9527 76.5795 32.0858C76.9312 32.7959 77.2829 33.5059 77.6346 34.1716C78.1181 35.1479 78.6457 36.213 79.1292 37.2781C81.591 42.9586 82.1185 50.7692 81.7669 56.1834V56.4053C81.7229 56.5385 81.591 56.6272 81.4591 56.6272Z" fill="black"/>
<path d="M39.3451 75C39.2571 75 39.2132 74.9556 39.1692 74.9112C39.0373 74.8225 39.0373 74.645 39.1692 74.5118C41.8069 71.5828 42.4223 68.1213 42.5102 65.7692C42.5981 63.1065 42.2025 60.7101 41.2793 58.2249C41.2354 58.0917 41.2793 57.9142 41.4552 57.8698C41.5871 57.8254 41.7629 57.8698 41.8069 58.0473C42.774 60.6213 43.1696 63.1065 43.0817 65.8136C42.9938 68.2988 42.3344 71.8491 39.6088 74.9556C39.5209 74.9556 39.433 75 39.3451 75Z" fill="black"/>
<path d="M45.7632 62.574C44.928 62.574 44.2246 61.8639 44.2246 60.932C44.2246 60.0444 44.928 59.3343 45.7632 59.3343C46.5985 59.3343 47.3018 60.0444 47.3018 60.932C47.3018 61.8639 46.5985 62.574 45.7632 62.574ZM45.7632 59.9112C45.2357 59.9112 44.7961 60.3994 44.7961 60.9763C44.7961 61.5533 45.2357 62.0414 45.7632 62.0414C46.2908 62.0414 46.7304 61.5533 46.7304 60.9763C46.7304 60.355 46.2908 59.9112 45.7632 59.9112Z" fill="black"/>
<path d="M45.4995 67.855C44.7522 67.855 44.0928 67.1893 44.0928 66.3905C44.0928 65.5917 44.7082 64.926 45.4995 64.926C46.2468 64.926 46.9062 65.5917 46.9062 66.3905C46.9062 67.1893 46.2908 67.855 45.4995 67.855ZM45.4995 65.4586C45.0599 65.4586 44.6643 65.858 44.6643 66.3905C44.6643 66.9231 45.0599 67.3225 45.4995 67.3225C45.9391 67.3225 46.3348 66.9231 46.3348 66.3905C46.3348 65.858 45.9831 65.4586 45.4995 65.4586Z" fill="black"/>
<path d="M44.8833 72.6035C44.136 72.6035 43.5205 71.9379 43.5205 71.1391C43.5205 70.3402 44.136 69.6746 44.8833 69.6746C45.6306 69.6746 46.2461 70.3402 46.2461 71.1391C46.2461 71.9379 45.6306 72.6035 44.8833 72.6035ZM44.8833 70.2515C44.4437 70.2515 44.092 70.6509 44.092 71.1391C44.092 71.6272 44.4437 72.0266 44.8833 72.0266C45.3229 72.0266 45.6746 71.6272 45.6746 71.1391C45.6746 70.6509 45.3229 70.2515 44.8833 70.2515Z" fill="black"/>
<path d="M64.5782 46.5976C64.4463 46.5976 64.3584 46.5089 64.3144 46.4201C63.7429 44.9112 61.8526 43.3136 60.358 42.6035C56.0498 40.5621 54.2914 40.2515 49.5876 39.4083C49.3239 39.3639 49.0601 39.3195 48.7524 39.2751C46.8181 38.9201 43.609 38.3432 42.2462 38.4319C42.1143 38.4319 41.9385 38.3432 41.9385 38.1657C41.9385 37.9882 42.0264 37.855 42.2022 37.855C43.6529 37.7663 46.906 38.3432 48.8403 38.6982C49.148 38.7426 49.4118 38.787 49.6755 38.8314C54.4233 39.6746 56.2257 39.9852 60.5778 42.071C62.1603 42.8254 64.1825 44.5118 64.8419 46.1982C64.8859 46.3314 64.8419 46.5089 64.6661 46.5533C64.6661 46.5976 64.6221 46.5976 64.5782 46.5976Z" fill="black"/>
<path d="M61.8087 48.7722C61.6768 48.7722 61.5449 48.6834 61.5449 48.5503C60.6657 42.7811 39.5646 41.0947 39.3448 41.0503C39.169 41.0503 39.0811 40.9172 39.0811 40.7396C39.0811 40.5621 39.2569 40.4734 39.3888 40.4734C40.268 40.5621 61.1493 42.2485 62.1164 48.4615C62.1164 48.5947 62.0285 48.7278 61.8087 48.7722C61.8526 48.7722 61.8087 48.7722 61.8087 48.7722Z" fill="black"/>
<path d="M58.3358 70.6065C58.2918 70.6065 58.2479 70.6065 58.2039 70.5621C58.072 70.4734 58.0281 70.3402 58.072 70.1627C61.8526 62.8846 58.0281 51.6568 57.9841 51.5237C57.9401 51.3905 58.0281 51.213 58.1599 51.1686C58.2918 51.1243 58.4677 51.213 58.5116 51.3462C58.6875 51.8343 62.4681 62.929 58.5556 70.429C58.5116 70.5177 58.4237 70.6065 58.3358 70.6065Z" fill="black"/>
<path d="M36.0919 59.0237C36.0919 59.0237 36.0479 59.0237 36.0919 59.0237C25.981 58.8462 20.4419 52.7663 20.398 52.7219C20.3101 52.5888 20.3101 52.4112 20.398 52.3225C20.5299 52.2337 20.7057 52.2337 20.7936 52.3225C20.8376 52.3669 26.2447 58.2692 36.0919 58.4467C36.2677 58.4467 36.3557 58.5799 36.3557 58.713C36.3557 58.8905 36.2238 59.0237 36.0919 59.0237Z" fill="black"/>
<path d="M74.8646 29.6893C74.8206 29.6893 74.7327 29.6893 74.6887 29.645C71.5675 27.2041 66.3802 26.8935 65.8527 26.9379C65.6768 26.9822 65.457 26.8491 65.457 26.6716C65.457 26.5828 65.501 26.4497 65.6329 26.4053C65.9406 26.2722 71.6115 26.4941 75.0404 29.2012C75.1723 29.2899 75.1723 29.4675 75.0844 29.6006C75.0404 29.645 74.9525 29.6893 74.8646 29.6893Z" fill="black"/>
<path d="M62.0286 63.1953C61.8528 63.1953 61.7209 63.0621 61.7648 62.8846C62.1165 57.8698 60.4021 53.0325 60.4021 52.9882C60.3581 52.855 60.446 52.6775 60.5779 52.6331C60.7098 52.5888 60.8856 52.6775 60.9296 52.8106C60.9296 52.855 62.688 57.8254 62.3363 62.929C62.3363 63.0621 62.2044 63.1953 62.0286 63.1953Z" fill="black"/>
<path d="M39.0809 56.8935C34.6408 56.8935 30.5965 55.4734 30.5525 55.4734C30.4206 55.429 30.3327 55.2515 30.3767 55.1183C30.4206 54.9852 30.5965 54.8964 30.7284 54.9408C30.7723 54.9408 36.1795 56.8047 41.2349 56.1834C41.3668 56.1834 41.5427 56.2722 41.5427 56.4497C41.5427 56.5828 41.4547 56.7604 41.2789 56.7604C40.5316 56.8935 39.7842 56.8935 39.0809 56.8935Z" fill="#B8A36E"/>
<path d="M28.5748 54.5858C28.5308 54.5858 28.5308 54.5858 28.4869 54.5858C27.0801 54.142 25.0579 53.2101 24.97 53.1657C24.8381 53.0769 24.7502 52.9438 24.8381 52.8106C24.926 52.6775 25.0579 52.5888 25.1898 52.6775C25.1898 52.6775 27.256 53.6538 28.6187 54.0976C28.7506 54.142 28.8385 54.3195 28.7946 54.4527C28.8385 54.497 28.7067 54.5858 28.5748 54.5858Z" fill="#B8A36E"/>
<path d="M12.3091 65.858C12.1773 65.858 12.0893 65.7692 12.0454 65.6361C12.0014 65.503 12.0893 65.3254 12.2652 65.2811C15.7381 64.4379 18.7274 62.3964 20.9254 59.4231C21.0133 59.2899 21.1892 59.2899 21.3211 59.3787C21.4529 59.4675 21.4529 59.645 21.365 59.7781C19.0791 62.8402 15.9579 64.9704 12.3531 65.8136C12.3531 65.858 12.3091 65.858 12.3091 65.858Z" fill="black"/>
<path d="M10.3311 64.3491C10.1993 64.3491 10.0674 64.2604 10.0674 64.1272C10.0674 63.9941 10.1553 63.8166 10.2872 63.8166C11.7818 63.5947 13.2765 62.9734 14.4195 62.0858C15.6064 61.1538 16.3537 60.4882 17.1011 59.2456C17.189 59.1124 17.3648 59.0681 17.4967 59.1568C17.6286 59.2456 17.6726 59.4231 17.5846 59.5562C16.7933 60.8432 16.0021 61.5976 14.7712 62.574C13.5403 63.4615 11.9577 64.1272 10.3311 64.3491Z" fill="black"/>
<path d="M76.1839 32.3964C76.096 32.3964 76.0081 32.3521 75.9641 32.3077C75.8762 32.1746 75.8322 32.0414 75.9641 31.9527L76.052 31.9083C79.7007 29.1124 85.8552 22.1006 85.8992 22.0118C85.9871 21.8787 86.1629 21.8787 86.2948 21.9675C86.4267 22.0562 86.4267 22.2337 86.3388 22.3669C86.2948 22.4556 80.0964 29.4675 76.4037 32.3077C76.3597 32.3521 76.2718 32.3964 76.1839 32.3964Z" fill="black"/>
<path d="M20.0023 32.0858C20.0023 32.0858 19.9584 36.8343 16.1338 37.2337C18.9033 37.5888 20.1782 39.497 20.1342 42.9586C20.1782 39.6746 20.7057 37.3669 23.5631 37.1894C19.7386 36.7456 20.0023 32.0858 20.0023 32.0858Z" fill="#B8A36E"/>
<path d="M20.1343 43.2249C19.9584 43.2249 19.8705 43.0917 19.8705 42.9586C19.9145 39.6302 18.6836 37.855 16.1339 37.5C16.002 37.5 15.8701 37.3669 15.8701 37.2337C15.8701 37.1006 16.002 36.9675 16.1339 36.9675C19.4749 36.6568 19.6947 32.7071 19.7386 32.1746C19.7386 32.1302 19.7386 32.1302 19.7386 32.0858C19.7386 31.9527 19.8705 31.8195 20.0464 31.8195C20.1783 31.8195 20.3101 31.9527 20.3101 32.0858C20.3101 32.0858 20.3101 32.1302 20.3101 32.1746C20.3101 32.7071 20.3101 36.5237 23.6072 36.9231C23.7391 36.9231 23.8709 37.0562 23.8709 37.2337C23.8709 37.3669 23.7391 37.5 23.6072 37.5C21.0575 37.6331 20.486 39.5858 20.442 42.9586C20.3981 43.0917 20.2662 43.2249 20.1343 43.2249ZM17.3648 37.1894C18.7276 37.6775 19.6507 38.6982 20.0903 40.2071C20.3541 38.787 20.9695 37.6331 22.2884 37.145C20.8377 36.5237 20.2222 35.1923 19.9145 34.0385C19.5628 35.1923 18.8594 36.568 17.3648 37.1894Z" fill="black"/>
<path d="M103.175 17.0858C103.175 17.0858 103.131 21.8343 99.3066 22.2337C102.076 22.5888 103.351 24.497 103.307 27.9586C103.351 24.6746 103.879 22.3669 106.736 22.1894C102.911 21.7456 103.175 17.0858 103.175 17.0858Z" fill="#B8A36E"/>
<path d="M103.307 28.2249C103.131 28.2249 103.043 28.0917 103.043 27.9586C103.087 24.6302 101.856 22.855 99.3067 22.5C99.1748 22.5 99.043 22.3669 99.043 22.2337C99.043 22.1006 99.1748 21.9675 99.3067 21.9675C102.648 21.6568 102.911 17.574 102.911 17.1746C102.911 17.1302 102.911 17.1302 102.911 17.1302C102.911 16.997 103.043 16.8639 103.219 16.8639C103.351 16.8639 103.483 16.997 103.483 17.1302C103.483 17.1302 103.483 17.1746 103.483 17.2189C103.483 17.7515 103.483 21.568 106.78 21.9675C106.912 21.9675 107.044 22.1006 107.044 22.2781C107.044 22.4112 106.912 22.5444 106.78 22.5444C104.23 22.6775 103.659 24.6302 103.615 28.003C103.571 28.0917 103.439 28.2249 103.307 28.2249ZM100.494 22.1894C101.856 22.6775 102.78 23.6982 103.219 25.2071C103.483 23.8314 104.098 22.6331 105.417 22.145C103.967 21.5237 103.351 20.1923 103.043 19.0385C102.736 20.1923 102.032 21.568 100.494 22.1894Z" fill="black"/>
<path d="M99.5703 38.9645C99.5703 39.7633 98.9548 40.429 98.2075 40.429C97.4602 40.429 96.8447 39.7633 96.8447 38.9645C96.8447 38.1657 97.4602 37.5 98.2075 37.5C98.9548 37.5 99.5703 38.1657 99.5703 38.9645Z" fill="black"/>
<path d="M98.1637 40.7396C97.2405 40.7396 96.4932 39.9408 96.4932 38.9645C96.4932 37.9882 97.2405 37.1893 98.1637 37.1893C99.0868 37.1893 99.8342 37.9882 99.8342 38.9645C99.8342 39.9408 99.0868 40.7396 98.1637 40.7396ZM98.1637 37.7663C97.5482 37.7663 97.0647 38.2988 97.0647 38.9645C97.0647 39.6302 97.5482 40.1627 98.1637 40.1627C98.7791 40.1627 99.2627 39.6302 99.2627 38.9645C99.2627 38.2988 98.7791 37.7663 98.1637 37.7663Z" fill="black"/>
<path d="M32.2226 21.3461C32.2226 22.145 31.6072 22.8106 30.8598 22.8106C30.1125 22.8106 29.4971 22.145 29.4971 21.3461C29.4971 20.5473 30.1125 19.8817 30.8598 19.8817C31.6072 19.8373 32.2226 20.503 32.2226 21.3461Z" fill="black"/>
<path d="M30.86 23.0769C29.9368 23.0769 29.1895 22.2781 29.1895 21.3018C29.1895 20.3254 29.9368 19.5266 30.86 19.5266C31.7831 19.5266 32.5305 20.3254 32.5305 21.3018C32.5305 22.2781 31.7392 23.0769 30.86 23.0769ZM30.86 20.1479C30.2445 20.1479 29.7609 20.6805 29.7609 21.3462C29.7609 22.0118 30.2445 22.5444 30.86 22.5444C31.4754 22.5444 31.959 22.0118 31.959 21.3462C31.959 20.6805 31.4314 20.1479 30.86 20.1479Z" fill="black"/>
<path d="M76.9753 8.60947C76.9753 9.23077 76.5357 9.71894 75.9642 9.71894C75.3927 9.71894 74.9531 9.23077 74.9531 8.60947C74.9531 7.98817 75.3927 7.5 75.9642 7.5C76.5357 7.5 76.9753 7.98817 76.9753 8.60947Z" fill="black"/>
<path d="M75.9643 9.98521C75.261 9.98521 74.6455 9.36391 74.6455 8.60947C74.6455 7.85504 75.217 7.23373 75.9643 7.23373C76.6677 7.23373 77.2831 7.85504 77.2831 8.60947C77.2392 9.36391 76.6677 9.98521 75.9643 9.98521ZM75.9643 7.76628C75.5687 7.76628 75.217 8.12131 75.217 8.5651C75.217 9.00888 75.5687 9.36391 75.9643 9.36391C76.36 9.36391 76.7117 9.00888 76.7117 8.5651C76.7117 8.16569 76.36 7.76628 75.9643 7.76628Z" fill="black"/>
</g>
<defs>
<clipPath id="clip0_235_1667">
<rect width="107" height="75" fill="white"/>
</clipPath>
</defs>
</svg>
