<svg width="46" height="50" viewBox="0 0 46 50" fill="none" xmlns="http://www.w3.org/2000/svg">
<g clip-path="url(#clip0_170_451)">
<path fill-rule="evenodd" clip-rule="evenodd" d="M18.9428 21.0065C18.1491 20.6296 17.2499 20.1701 16.6682 19.6946C14.3366 17.7889 17.6192 17.8743 14.7189 13.9827C14.3845 13.5339 14.1125 13.2151 13.8032 12.7969C13.5448 12.4481 13.2032 12.0017 13.0072 11.5646C11.6816 8.60843 13.3759 4.57712 15.1167 2.20366C15.4443 1.75681 15.7202 1.42544 16.0439 1.02857C16.3532 0.649647 16.8942 0.258112 17.0776 0C14.4571 0.399297 11.5176 4.22828 10.5066 6.44455C9.85714 7.86757 9.87456 8.34158 9.61033 9.82912C9.14235 8.94902 9.605 6.3058 9.82326 5.31119C9.96942 4.64699 10.1669 3.92796 10.4001 3.33508C10.6847 2.61169 10.9639 2.21336 11.2456 1.69228C9.6805 2.48603 9.03104 3.15508 8.31577 4.92305C7.58259 6.7342 7.38368 9.06546 7.37739 11.1328C6.83828 10.1644 6.87602 8.00245 6.89877 6.72498C5.71842 7.34795 2.44548 9.61176 2.5776 10.8941C2.62454 11.3511 2.81861 11.8693 2.96621 12.2492C3.26916 13.0303 3.87458 13.9356 4.07881 14.5421C3.65051 14.2539 2.77312 13.0652 2.35595 12.6325C2.12366 12.3913 1.96783 12.1711 1.76457 12.0342C1.42242 13.0099 0.271106 16.1412 0.342247 17.2105C0.369832 17.6268 0.830066 17.931 1.05559 18.1498C1.36822 18.4521 1.62761 18.6539 1.94944 18.9053C2.57518 19.3943 3.22899 19.7922 3.85232 20.2764C2.70052 20.2012 1.11366 19.3603 0.00590303 19.0712C-0.00522777 19.9134 -0.00425987 20.731 0.0538138 21.5723C0.0843025 22.0147 0.0678483 23.3465 0.456942 23.5586C1.1969 23.9612 2.48081 24.181 3.3495 24.346C3.52856 24.3799 3.68584 24.4071 3.85425 24.4391L4.27577 24.5551C4.28594 24.5381 4.31449 24.5706 4.33239 24.5857L0.723597 24.5818C0.686333 25.8922 2.86797 29.1138 3.48452 29.6431C4.6276 29.7285 6.07606 29.0643 7.14945 28.9527C6.6776 29.2123 6.05186 29.4355 5.52726 29.6397C5.07429 29.8163 4.18043 30.0841 3.8349 30.2942C3.96314 30.8919 8.47983 36.7465 8.82101 37.0182C9.09976 36.8377 10.4301 35.5365 10.7602 35.1464C11.0839 34.6113 11.3462 34.1562 11.5679 33.7681C12.0175 34.5671 12.6955 35.161 13.5245 35.6195C13.5831 34.8966 13.6416 34.1737 13.7002 33.4507C14.3293 34.1717 15.0586 34.6879 15.8987 34.9776C15.71 35.3662 15.3291 35.6627 14.7881 35.882C15.0688 36.3448 15.6481 36.5253 16.3372 36.6024C15.5319 37.2783 14.7271 37.9541 13.9218 38.6305C13.7016 41.0141 13.9504 43.2784 15.4104 45.2341C15.5953 44.3613 15.771 43.4754 16.1886 42.933C16.6029 44.9081 17.3612 46.0138 18.1225 47.1132C18.1012 46.1633 18.0242 45.1851 18.6829 44.5806C19.1451 46.3268 20.1168 47.7604 21.5087 48.9375C21.2159 47.8366 21.0247 46.7241 21.5716 45.5282C22.0212 47.5183 23.1173 48.8977 24.5062 50.0005C25.841 48.5959 26.8931 47.0822 26.8916 45.1604C27.4186 45.5466 27.4564 47.0225 27.4656 48.2577C28.5845 47.0764 29.2896 45.5121 29.5175 43.5884C30.0024 44.3909 30.1776 45.2865 30.301 46.1977C31.2636 44.8552 31.7572 43.3546 31.8163 41.7069C32.0945 42.4148 32.3728 43.1227 32.6511 43.8305C33.4472 42.688 34.0448 41.2164 33.3213 37.5529C32.5054 36.8751 31.6866 36.1726 30.9369 35.9833C31.4567 35.6864 31.9764 35.389 32.4962 35.0921C32.0331 34.7287 31.5704 34.3648 31.1073 34.0014C31.8071 33.9747 32.4822 33.6628 33.0929 32.5983C33.2115 33.2266 33.33 33.8549 33.4491 34.4832C33.8067 34.3284 34.1605 34.1596 34.4707 33.8326C34.6841 34.2062 34.9358 34.6409 35.2412 35.1464C35.5717 35.5365 36.9016 36.8377 37.1803 37.0182C37.5215 36.747 42.0382 30.8919 42.1664 30.2942C41.8209 30.0841 40.9271 29.8163 40.4741 29.6397C39.9495 29.435 39.3233 29.2118 38.8519 28.9527C39.9253 29.0643 41.3737 29.7285 42.5168 29.6431C43.1334 29.1138 45.315 25.8922 45.2777 24.5818L41.6689 24.5857C41.6869 24.5711 41.7159 24.5381 41.7256 24.5551L42.1471 24.4391C42.3155 24.4076 42.4723 24.3804 42.6518 24.346C43.5201 24.1805 44.8044 23.9608 45.5444 23.5586C45.9335 23.3465 45.917 22.0147 45.9475 21.5723C46.0051 20.731 46.0066 19.9134 45.9954 19.0712C44.8877 19.3603 43.3013 20.2012 42.149 20.2764C42.7724 19.7922 43.4262 19.3943 44.0519 18.9053C44.3732 18.6539 44.6331 18.4521 44.9458 18.1498C45.1718 17.931 45.6315 17.6273 45.6591 17.2105C45.7302 16.1412 44.5789 13.0099 44.2368 12.0342C44.0335 12.1711 43.8777 12.3913 43.6454 12.6325C43.2282 13.0652 42.3508 14.2539 41.9225 14.5421C42.1268 13.9356 42.7322 13.0303 43.0351 12.2492C43.1827 11.8693 43.3763 11.3511 43.4237 10.8941C43.5559 9.61128 40.2834 7.34795 39.1026 6.72498C39.1258 8.00245 39.1631 10.1644 38.624 11.1328C38.6177 9.06546 38.4188 6.7342 37.6856 4.92305C36.9703 3.15557 36.3208 2.48603 34.7558 1.69228C35.0369 2.21385 35.3167 2.61169 35.6012 3.33508C35.8345 3.92796 36.0319 4.6465 36.1781 5.31119C36.3963 6.3058 36.859 8.9495 36.391 9.82912C36.1263 8.3411 36.1437 7.86757 35.4947 6.44455C34.4838 4.22828 31.5438 0.399297 28.9237 0C29.1071 0.257627 29.6487 0.649162 29.9574 1.02857C30.2812 1.42544 30.557 1.75681 30.8847 2.20366C32.6254 4.57664 34.3197 8.60843 32.9942 11.5646C32.7982 12.0017 32.4565 12.4481 32.1981 12.7969C31.8889 13.2151 31.6169 13.5344 31.2825 13.9827C28.8284 18.1828 31.5307 16.6764 29.6975 19.3807C27.9974 19.077 27.2836 20.255 26.7774 20.6136C26.7048 20.3651 26.5504 20.1269 26.4019 20.0372C26.2654 20.2681 25.8148 20.5869 25.5366 20.6184L25.3493 20.451C24.6504 19.8261 23.5224 19.3254 22.4224 19.0489C21.1297 19.305 19.7297 20.2482 18.9437 21.0075L18.9428 21.0065ZM28.9784 34.0237C28.72 33.5395 28.9784 33.3561 29.4168 33.3406C29.7237 34.0727 30.286 34.5366 30.8484 34.9999C30.1162 34.8679 29.3612 34.7418 28.9779 34.0237H28.9784ZM29.9831 29.5204C30.3818 30.4902 30.1336 31.3713 29.7706 32.2368C29.7106 31.5552 29.5848 30.857 29.2813 30.1137C28.8419 29.4699 29.4536 28.8047 29.9826 29.5204H29.9831ZM32.0123 31.6988C31.9266 31.0123 31.7775 30.3151 31.5022 29.5956C31.4354 29.1148 31.8584 28.876 32.156 29.206C32.667 29.9992 32.456 30.8517 32.0123 31.6983V31.6988ZM34.5665 30.597C34.4944 30.0623 34.0555 29.9177 33.6853 30.3558C33.9882 30.8463 33.9572 31.7973 33.8895 32.7982C34.2999 32.2422 34.7166 31.7119 34.5665 30.597ZM18.2135 34.7864C18.5 34.3182 18.2527 34.1203 17.8157 34.0786C17.4667 34.7913 16.8778 35.2211 16.2893 35.6505C17.0278 35.5622 17.789 35.4807 18.2139 34.7859L18.2135 34.7864ZM16.7524 30.6387C16.2975 31.5833 16.494 32.478 16.8052 33.3629C16.9049 32.6861 17.0713 31.9967 17.4179 31.2723C17.8941 30.6557 17.3225 29.9551 16.7524 30.6387ZM14.5993 32.6939C14.7252 32.0137 14.9149 31.3262 15.2319 30.6246C15.3267 30.1487 14.9187 29.8852 14.6018 30.1972C14.0452 30.9589 14.2059 31.822 14.5993 32.6939ZM12.1143 31.4436C12.2174 30.9138 12.6645 30.7959 13.0081 31.2549C12.6771 31.7264 12.6524 32.6774 12.6611 33.6807C12.2841 33.1014 11.8989 32.5478 12.1143 31.4436ZM26.803 26.6782C25.9905 27.1784 25.6658 27.9397 25.4238 28.7451C25.6653 28.5883 25.9073 28.4316 26.1488 28.2744C25.976 29.5136 25.5632 30.6227 24.8973 31.5959C25.3483 31.2995 25.7926 30.924 26.2054 30.1705C26.0442 31.824 25.5327 33.1262 25.025 34.4327C25.764 33.3304 26.8234 32.4096 26.9163 28.5883C26.9318 27.9508 26.8403 27.3148 26.8026 26.6782H26.803ZM19.1959 29.7431C18.8736 28.3656 18.9447 27.2531 19.1107 26.0082C19.2094 28.3681 19.7563 30.6052 20.6889 32.7366C20.1362 31.9375 19.5182 31.1205 19.1959 29.7431ZM21.9471 28.0813C21.6926 27.289 21.348 26.555 20.8365 25.9281C21.5992 26.1605 21.9476 27.0465 22.2854 27.9824C22.5066 28.699 22.7955 29.4447 23.157 29.8459C23.2088 29.7605 23.2606 29.664 23.3123 29.5732C23.5156 29.1206 23.6303 28.4263 23.7585 27.5544C23.8994 26.5982 24.3015 25.769 24.8043 25.7331C24.4888 26.1465 24.2628 26.7719 24.1302 27.5195C23.9211 28.6999 23.698 29.776 23.1943 30.2588C22.7524 29.8566 22.3343 29.1638 21.9476 28.0809L21.9471 28.0813ZM21.4641 24.7744C20.5369 24.1776 20.5529 25.1509 20.5742 25.6196C20.7295 25.2683 20.806 24.6347 21.5304 25.2945C22.0841 25.7991 22.5322 26.3478 22.9053 26.9742C23.2301 26.0218 24.1196 24.7264 24.5096 24.7477C24.8373 24.8423 25.0207 25.4871 25.2051 26.0232C25.6992 25.3915 25.9736 24.4294 26.0191 23.1234C26.758 23.0758 27.2623 23.4465 27.7734 23.8045C27.8556 23.4295 27.5561 22.9666 26.9908 22.4417C27.5609 22.397 28.1194 22.3383 28.4131 21.9662C28.1334 21.9376 27.8764 21.8915 27.8222 21.6872C28.4189 21.4597 28.871 19.9751 29.473 19.684C28.1958 19.5564 27.2875 21.1206 26.4493 21.1472C26.5228 20.9051 26.5562 20.6795 26.3796 20.5374C26.0805 20.9663 25.4664 20.9643 24.8852 21.0075C24.2115 20.2773 23.3564 19.7596 22.2094 19.4292C21.8794 19.5462 21.5493 19.7533 21.2188 19.945C22.2051 19.6408 24.2294 20.4093 24.7051 22.2719C25.2157 21.8503 25.4582 22.6877 25.3633 23.2505C25.6058 23.5537 25.6774 23.7672 25.6958 24.1451C25.615 24.3916 25.5337 24.6385 25.4528 24.885C25.4674 24.2354 25.2452 23.9418 24.9108 23.8171C24.9263 24.1044 24.6427 24.1388 24.5929 24.3698C24.1229 24.3324 23.8031 24.7482 23.4624 25.1004C23.4832 24.6929 23.6037 24.3086 23.9482 23.9763C23.5911 23.12 22.8724 22.8371 22.0981 23.1428C22.3033 23.4081 22.4543 23.627 22.4345 23.8171C22.3004 23.7924 22.1663 23.7672 22.0328 23.7424C22.5109 24.4644 22.585 25.1189 22.6121 25.7656C22.2288 25.4347 21.8886 25.0466 21.4627 24.7725L21.4641 24.7744ZM20.4972 22.9079C20.5867 22.9021 20.6763 22.8963 20.7663 22.89C20.6497 22.8177 20.5335 22.7459 20.4169 22.6741C20.1512 22.9414 20.1614 23.3131 20.398 23.4984C20.683 23.7211 20.9497 23.6862 21.1801 23.5338C21.1186 23.4872 21.0567 23.4402 20.9947 23.3936C20.6138 23.5809 20.2983 23.2049 20.4972 22.9084V22.9079ZM24.8808 22.8371C24.7913 22.8293 24.7017 22.8216 24.6122 22.8143C24.7298 22.7444 24.8474 22.6746 24.965 22.6047C25.2259 22.8769 25.2089 23.2485 24.9689 23.429C24.6795 23.6464 24.4138 23.6066 24.1863 23.4499C24.2488 23.4043 24.3117 23.3587 24.3741 23.3131C24.7516 23.5071 25.0739 23.1374 24.8808 22.8371ZM22.8095 21.7455C23.1405 21.7455 23.4086 21.9192 23.4086 22.1336C23.4086 22.348 23.1405 22.5217 22.8095 22.5217C22.4785 22.5217 22.2104 22.348 22.2104 22.1336C22.2104 21.9192 22.4785 21.7455 22.8095 21.7455ZM4.7723 30.6692C4.98379 31.5164 7.41563 34.1441 8.13671 34.5113C7.70019 33.7074 6.19366 31.8118 6.14236 30.7716C6.44773 30.8939 6.76568 31.5198 7.57339 31.7648C7.45192 30.4635 9.16026 29.6295 10.2307 28.7193C11.0481 28.0246 12.4293 26.7743 12.4845 25.1504C12.2556 25.378 11.8626 26.2673 11.0051 27.0164C9.35964 28.4535 7.92861 29.2948 5.91635 30.1744C5.53355 30.3418 5.05541 30.4907 4.77279 30.6697L4.7723 30.6692ZM41.2286 30.6692C41.0171 31.5164 38.5852 34.1441 37.8642 34.5113C38.3007 33.7074 39.8072 31.8118 39.8585 30.7716C39.5531 30.8939 39.2352 31.5198 38.4275 31.7648C38.5489 30.4635 36.8411 29.6295 35.7701 28.7193C34.9527 28.0246 33.5715 26.7743 33.5164 25.1504C33.7453 25.378 34.1382 26.2673 34.9958 27.0164C36.6412 28.4535 38.0723 29.2948 40.0845 30.1744C40.4673 30.3418 40.9454 30.4907 41.2281 30.6697L41.2286 30.6692ZM16.3062 24.02L16.2612 23.9918L16.2375 23.9768L16.2162 23.9632L16.1707 23.9341L16.1315 23.9093L16.1247 23.905L16.0788 23.8754L16.0768 23.8744L16.0328 23.8453L15.996 23.821L15.9868 23.8147L15.9408 23.7837L15.9152 23.7667L15.8944 23.7526L15.8484 23.7211L15.8261 23.7056H15.8257L15.8029 23.6895H15.8024L15.7565 23.657L15.7536 23.6551L15.7361 23.6425L15.6814 23.6032L15.6727 23.5969L15.6645 23.5911L15.6185 23.5576L15.5919 23.5382L15.5726 23.5236L15.5271 23.4892L15.5121 23.4775L15.4971 23.4659L15.4496 23.429L15.4371 23.4193L15.4332 23.4164L15.3925 23.3839L15.3548 23.3538L15.348 23.3485L15.3035 23.3126L15.2769 23.2907L15.2696 23.2844L15.2038 23.2291L15.1936 23.2204L15.1297 23.1651L15.1249 23.1607L15.1152 23.152L15.0605 23.103L15.0504 23.0942L15.0451 23.0894L14.9889 23.0375L14.971 23.0205L14.9086 22.9608L14.9013 22.954L14.8471 22.9002L14.8244 22.8769L14.7721 22.823L14.7678 22.8187L14.7639 22.8148L14.7063 22.7527L14.699 22.7449C14.6797 22.7236 14.6608 22.7022 14.6419 22.6809L14.6318 22.6687C14.6129 22.6469 14.5945 22.6251 14.5761 22.6028L14.5737 22.5998C14.5548 22.577 14.5364 22.5542 14.518 22.5314L14.5156 22.5285L14.5132 22.5251C14.4953 22.5023 14.4779 22.479 14.4604 22.4562L14.4575 22.4524C14.4401 22.4291 14.4232 22.4053 14.4067 22.3815L14.4014 22.3742C14.385 22.351 14.369 22.3272 14.3535 22.3039L14.3496 22.2981C14.3346 22.2753 14.3201 22.2525 14.3061 22.2297L14.3032 22.2248L14.3017 22.2224C14.2872 22.1986 14.2732 22.1744 14.2591 22.1501L14.2562 22.1452C14.2432 22.1224 14.2306 22.0992 14.2185 22.0759L14.2107 22.0613C14.1986 22.0375 14.1865 22.0142 14.1754 21.9905L14.174 21.988C14.1619 21.9623 14.1498 21.9361 14.1386 21.9099L14.1381 21.909C14.128 21.8852 14.1183 21.8609 14.1091 21.8372L14.1047 21.8265C14.0956 21.8022 14.0868 21.7775 14.0786 21.7532L14.0762 21.7455C14.068 21.7207 14.0607 21.696 14.0535 21.6712L14.0505 21.661C14.0438 21.6358 14.037 21.6106 14.0312 21.5854C14.9696 22.0016 15.7647 22.4461 17.0578 22.2471L16.6692 22.1001C14.9579 21.5844 13.871 19.322 13.871 17.5904C13.871 17.1509 14.1198 16.5527 14.0031 16.214L12.2643 13.3641L12.2236 13.2933L12.184 13.2229L12.1448 13.1526L12.1065 13.0822L12.0688 13.0119L12.032 12.942L11.9957 12.8721L11.9604 12.8023L11.9255 12.7324L11.8917 12.6625L11.8587 12.5927L11.8263 12.5233L11.7949 12.4539L11.7644 12.3845L11.7349 12.3151L11.7063 12.2458L11.6787 12.1759L11.6516 12.106L11.6255 12.0362L11.6003 11.9663L11.5761 11.8964L11.5529 11.8266L11.5306 11.7567L11.5098 11.6864L11.49 11.616L11.4711 11.5457L11.4532 11.4753L11.4363 11.4045L11.4208 11.3336L11.4063 11.2628L11.3927 11.1915L11.3806 11.1202L11.3695 11.0484L11.3593 10.9766L11.3506 10.9043L11.3433 10.832L11.3371 10.7592L11.3322 10.6864L11.3283 10.6132L11.3259 10.5394L11.3245 10.4657V10.3914L11.3259 10.3167L11.3288 10.242L11.3332 10.1668L11.339 10.0911L11.3462 10.0149L11.3545 9.93877L11.3642 9.86211L11.3758 9.78497L11.3884 9.70734L11.4029 9.62923L11.4188 9.55063L11.4363 9.47155L11.4551 9.39198L11.4755 9.31193L11.4977 9.23139L11.5214 9.15037L11.5466 9.06886L11.5732 8.98686L11.6018 8.90438L11.6318 8.82142L11.6637 8.73748L11.6971 8.65306C11.5282 11.6922 12.5285 12.4985 14.098 14.7619C16.0163 17.5293 14.2727 16.5221 14.6458 18.487C14.6821 18.6772 14.8195 18.9693 14.8975 19.1522L14.91 19.1731L14.9381 19.2196L14.9604 19.2551L14.9865 19.2948L15.0063 19.3235L15.0349 19.3642L15.0567 19.3943L15.0872 19.4346L15.1085 19.4622L15.1457 19.5088L15.1617 19.5287L15.2081 19.583L15.2183 19.5947L15.2193 19.5961C15.2372 19.6165 15.2551 19.6364 15.2735 19.6563L15.2759 19.6587L15.2991 19.6835L15.3378 19.7242L15.362 19.7485L15.4003 19.7863L15.4259 19.8111L15.4651 19.8479L15.4942 19.8746L15.5295 19.9062L15.5609 19.9343L15.5968 19.9654L15.6297 19.9935L15.6335 19.9969L15.6965 20.0488L15.6984 20.0503L15.7115 20.0609L15.7705 20.108L15.7831 20.1177L15.8392 20.1609L15.8731 20.1861L15.9123 20.2152L15.9544 20.2458L15.98 20.2642L16.0275 20.2977L16.0604 20.321L16.0972 20.3467L16.1393 20.3748L16.1664 20.3933L16.1794 20.402L16.2482 20.4471L16.2511 20.4491L16.3232 20.4952L16.3304 20.5L16.3958 20.5408L16.4558 20.5776L16.4761 20.5903L16.5317 20.6233L16.5419 20.6296L16.5806 20.6524L16.6155 20.6727L16.6372 20.6854L16.6876 20.7145L16.6895 20.7154L16.749 20.7494L16.7631 20.7572L16.8332 20.7965L16.8371 20.7984L16.9107 20.8387L16.9838 20.8785L17.0007 20.8877L17.0568 20.9178L17.0844 20.9323L17.1299 20.9566L17.1672 20.9765L17.2025 20.9949L17.2499 21.0196L17.2746 21.0323L17.3317 21.0618L17.3462 21.0691L17.4125 21.1031L17.4169 21.105L17.4871 21.1409L17.4924 21.1438L17.5563 21.1764L17.5717 21.1841L17.625 21.2108L17.6497 21.2234L17.8011 21.3006L17.8239 21.3122L17.8747 21.3384L17.8883 21.3452L17.9468 21.3753L17.9512 21.3777L18.0126 21.4097L18.017 21.4121L18.0726 21.4413L18.0852 21.448L18.1312 21.4728L18.1515 21.484C18.1922 21.5058 18.2314 21.5276 18.2696 21.549L18.2778 21.5533L18.2972 21.564L18.3378 21.5873L18.349 21.5941L18.3949 21.6213L18.3988 21.6237C18.5459 21.712 18.666 21.7964 18.7497 21.8784C18.7211 21.9735 18.2565 23.021 18.1689 23.1627L17.4014 23.0724L17.7305 23.3718C17.8432 23.4586 17.9207 23.5154 18.033 23.5881C18.0213 24.5012 17.5064 25.8772 17.0467 26.4643C16.5264 26.2551 15.9442 25.5487 15.6418 24.8996L15.6408 24.8971L15.6393 24.8947L15.6384 24.8923L15.6374 24.8899L15.6364 24.8874L15.6355 24.885L15.634 24.8826L15.6331 24.8802L15.6321 24.8777L15.6311 24.8753L15.6306 24.8748L15.6297 24.8729L15.6287 24.8705L15.6277 24.868L15.6268 24.8656L15.6258 24.8632L15.6248 24.8608L15.6239 24.8583L15.6229 24.8559L15.6219 24.8535L15.621 24.8511L15.62 24.8486L15.619 24.8462L15.6181 24.8438L15.6171 24.8423V24.8414L15.6161 24.8389L15.6151 24.8365L15.6142 24.8341L15.6132 24.8316L15.6122 24.8292L15.6113 24.8268L15.6103 24.8244L15.6093 24.8219L15.6084 24.8195L15.6074 24.8171L15.6064 24.8147L15.6055 24.8122L15.604 24.8098L15.6031 24.8074L15.6021 24.805L15.6011 24.8025L15.6001 24.8001L15.5992 24.7977L15.5982 24.7953L15.5972 24.7928L15.5963 24.7904L15.5953 24.788L15.5943 24.7856L15.5934 24.7831L15.5924 24.7807L15.5914 24.7783L15.591 24.7768L15.5905 24.7759L15.5895 24.7734L15.5885 24.771L15.5876 24.7686L15.5866 24.7661L15.5856 24.7637L15.5847 24.7613L15.5837 24.7589L15.5827 24.7564L15.5818 24.754L15.5808 24.7516L15.5798 24.7492L15.5789 24.7467L15.5779 24.7443H15.5813H15.5847H15.588H15.5914H15.5948H15.5982H15.6016H15.6045H15.6079H15.6108H15.6142H15.6171H15.62H15.6229H15.6239H15.6258L15.6287 24.7448H15.6316H15.6345H15.6374H15.6403L15.6432 24.7453H15.6461H15.649H15.6519L15.6548 24.7458H15.6577H15.6606H15.6635H15.6655H15.6664H15.6694H15.6723L15.6752 24.7463H15.6781L15.681 24.7467H15.6839H15.6868L15.6897 24.7472H15.6926L15.6955 24.7477H15.6984L15.7013 24.7482H15.7042L15.7066 24.7487H15.7071H15.7095L15.7119 24.7492H15.7148L15.7173 24.7497H15.7197L15.7221 24.7501H15.7245L15.7269 24.7506L15.7294 24.7511H15.7318L15.7342 24.7516L15.7366 24.7521H15.739L15.7415 24.7526H15.7429H15.7439H15.7463L15.7487 24.753L15.7511 24.7535H15.7536L15.756 24.754L15.7584 24.7545C16.4693 24.8418 15.8189 25.0791 17.73 24.7894C17.6937 24.7613 17.1125 24.5027 16.419 24.083L16.4146 24.0801L16.3111 24.017L16.3096 24.0122L16.3091 24.0117L16.3111 24.0166L16.3062 24.02ZM24.483 47.5363C23.7024 46.9517 23.1459 46.3175 23.142 45.5626C23.5437 45.8406 23.9453 46.1181 24.3475 46.3961C24.6906 46.0056 24.9558 45.3322 25.0662 44.0964C23.9923 41.8675 23.7885 39.2064 23.6976 36.4884C24.2764 38.8891 24.9258 41.2499 25.8323 43.4662C25.7519 45.2948 25.1838 46.5009 24.483 47.5368V47.5363ZM27.0639 41.1703C25.992 39.7182 25.4577 38.0963 25.2017 36.3865C25.9774 37.7998 26.8664 39.202 27.9244 40.5881C28.3933 41.8617 28.3062 42.8359 28.0821 43.7364C27.8832 42.8806 27.6843 42.0252 27.4854 41.1694C27.3252 40.9399 27.165 40.7109 27.0049 40.4814C27.0247 40.7109 27.0441 40.9404 27.0639 41.1698V41.1703ZM29.1197 40.035C27.9689 38.8609 27.2817 37.4651 26.835 35.9542C27.7138 37.1308 28.6929 38.2836 29.8229 39.3999C30.5885 40.1384 30.4515 41.3799 30.363 42.2212C30.1447 41.526 30.0939 41.0801 29.8059 40.3329C29.6327 40.1461 29.1531 39.6071 28.9794 39.4208C29.0263 39.6255 29.0728 39.8303 29.1192 40.0345L29.1197 40.035ZM30.6683 38.5688C29.277 37.6946 28.9508 36.715 28.1658 35.3497C29.2934 36.2895 30.677 36.976 31.9585 38.153C32.2968 38.4553 32.441 39.7701 32.2291 40.7575C32.0815 40.0278 31.9503 39.1797 31.4978 38.5203C31.2859 38.3791 30.4331 37.6116 30.2212 37.4709C30.3141 37.6591 30.5759 38.3806 30.6688 38.5688H30.6683ZM20.9628 41.6497C21.9186 40.1185 22.3256 38.4597 22.448 36.7349C21.784 38.2045 21.0068 39.6716 20.0597 41.1364C19.691 42.4429 19.8536 43.4075 20.1468 44.2876C20.279 43.4191 20.4106 42.5507 20.5422 41.6817C20.684 41.4406 20.8263 41.1994 20.9681 40.9583C20.9662 41.1888 20.9647 41.4192 20.9628 41.6497ZM18.8252 40.6784C19.8811 39.4179 20.458 37.9726 20.7866 36.4321C20.0021 37.6737 19.1151 38.8992 18.0755 40.1005C17.3695 40.8967 17.6022 42.1237 17.7561 42.9553C17.9197 42.245 17.9362 41.7962 18.1646 41.0291C18.3228 40.8297 18.7594 40.2548 18.9176 40.0554C18.8871 40.2631 18.8561 40.4707 18.8257 40.6784H18.8252ZM17.1672 39.3378C18.4864 38.3578 18.7356 37.3554 19.4122 35.9334C18.3616 36.9585 17.0346 37.7504 15.8489 39.0244C15.5353 39.3519 15.4937 40.674 15.7816 41.6419C15.8721 40.903 15.937 40.0472 16.3372 39.3543C16.5376 39.1971 17.3278 38.3651 17.5282 38.2084C17.4503 38.4034 17.2451 39.1428 17.1672 39.3378ZM31.0153 16.8248L31.0148 16.8239L31.0153 16.8248C31.1324 17.2251 31.5612 17.4109 31.3575 18.4856C30.994 20.3991 29.7454 22.6857 27.3891 24.7923C31.4015 22.6513 32.4507 17.9548 32.1303 17.589C32.1303 17.1494 31.8816 16.5512 31.9982 16.2125L33.737 13.3626C34.6057 11.8513 35.0369 10.4545 34.3057 8.65064C34.4746 11.6898 33.4743 12.4961 31.9048 14.7595C31.0957 15.9268 30.9379 16.4226 30.9984 16.753L31.0052 16.786V16.787L31.0056 16.788V16.7889V16.7899L31.0061 16.7909V16.7918L31.0066 16.7928L31.0134 16.819L31.0139 16.82V16.821L31.0144 16.8219L31.0139 16.821V16.82L31.0134 16.819L31.0066 16.7928L31.0061 16.7918V16.7909L31.0056 16.7899V16.7889V16.788L31.0052 16.787V16.786C31.0023 16.7753 30.9998 16.7647 30.9984 16.753L31.0153 16.8239V16.8248ZM43.0405 25.2605C40.0172 25.2605 36.7733 25.0165 34.4451 23.8521C34.989 25.0733 39.1655 25.9024 40.5738 26.3774C40.9348 26.4992 41.2678 26.6069 41.5959 26.782C42.2298 27.1207 42.0682 27.2265 42.3663 27.4642C42.9722 27.1935 43.1034 26.702 43.49 26.2188C43.4015 27.1348 42.6485 28.1667 42.5139 28.9978C42.8614 28.7378 44.4516 25.882 44.6414 25.2339L43.0405 25.2601V25.2605ZM45.3963 23.1229C45.6712 22.4329 45.6596 20.6402 45.5875 19.7718C44.8582 20.0042 44.0872 20.353 43.2776 20.6005C42.495 20.8396 41.6651 21.057 40.8579 21.2554C38.9676 21.7207 37.4271 21.8905 35.3859 22.0138C36.6209 23.035 42.8043 21.3966 44.7004 21.7304L44.9888 20.6781C45.3455 21.222 45.3329 22.4097 45.3973 23.1224L45.3963 23.1229ZM45.2279 17.2557C45.0817 16.2766 44.4802 14.3349 44.0713 13.5388C43.7673 13.6591 43.3352 14.2748 43.1489 14.4659C41.6172 16.0364 39.6514 17.8107 37.8322 19.0523C37.04 19.5927 36.7012 19.7339 35.7943 20.1866C37.9837 20.1279 41.6627 16.6589 43.9154 17.0868L43.6948 15.9054C43.9706 16.115 44.094 16.4774 44.2503 16.8258C44.3781 17.1111 44.4671 17.4473 44.6525 17.7025C44.7314 16.8636 44.1797 15.8472 43.9721 15.1345C44.3045 15.4741 44.6264 16.2082 44.877 16.7225L45.2279 17.2557ZM43.0438 10.7155C42.8251 10.0397 40.3725 7.95247 39.8314 7.75743C39.7032 9.06546 39.7157 9.7743 39.4012 11.0052C38.8369 13.2137 37.9643 15.4232 36.662 17.277L35.8311 18.2847C37.7925 17.9252 39.377 13.5989 40.537 12.0706C40.8888 11.6073 40.8162 11.6742 41.3273 11.3501C41.154 11.0188 40.7814 10.8373 40.5796 10.5093C41.2678 10.5423 41.9966 11.0818 42.6325 11.3094C42.3804 10.751 42.0305 10.504 41.6554 10.1823L40.5549 9.24886C41.1037 9.3391 41.5025 9.62826 41.8814 9.88298C42.2153 10.1071 42.7462 10.5836 43.0438 10.7155ZM2.95992 25.2605C5.98314 25.2605 9.22704 25.0165 11.5553 23.8521C11.0114 25.0733 6.83489 25.9024 5.4266 26.3774C5.06557 26.4992 4.73262 26.6069 4.4045 26.782C3.77053 27.1207 3.93217 27.2265 3.63406 27.4642C3.02816 27.1935 2.89701 26.702 2.51033 26.2188C2.59889 27.1348 3.35192 28.1667 3.48645 28.9978C3.13898 28.7378 1.54873 25.882 1.35902 25.2339L2.95992 25.2601V25.2605ZM0.604062 23.1229C0.32918 22.4329 0.340795 20.6402 0.412903 19.7718C1.14221 20.0042 1.91314 20.353 2.72278 20.6005C3.50533 20.8396 4.3353 21.057 5.14252 21.2554C7.03282 21.7207 8.57323 21.8905 10.6145 22.0138C9.37948 23.035 3.19609 21.3966 1.29998 21.7304L1.01155 20.6781C0.654877 21.222 0.667459 22.4097 0.603094 23.1224L0.604062 23.1229ZM0.772476 17.2557C0.918628 16.2766 1.52017 14.3349 1.92911 13.5388C2.23303 13.6591 2.66519 14.2748 2.85151 14.4659C4.38321 16.0364 6.349 17.8107 8.16816 19.0523C8.96039 19.5927 9.29915 19.7339 10.2061 20.1866C8.01669 20.1279 4.33772 16.6589 2.08494 17.0868L2.30562 15.9054C2.02977 16.115 1.90637 16.4774 1.75005 16.8258C1.62229 17.1111 1.53324 17.4473 1.34789 17.7025C1.26901 16.8636 1.82071 15.8472 2.02832 15.1345C1.69585 15.4741 1.37402 16.2082 1.12334 16.7225L0.772476 17.2557ZM2.95653 10.7155C3.17528 10.0397 5.62792 7.95247 6.16898 7.75743C6.29722 9.06546 6.28464 9.7743 6.59921 11.0052C7.16349 13.2137 8.03605 15.4232 9.33835 17.277L10.1693 18.2847C8.20785 17.9252 6.6234 13.5989 5.46338 12.0706C5.11155 11.6073 5.18414 11.6742 4.67309 11.3501C4.84635 11.0188 5.21899 10.8373 5.42079 10.5093C4.73262 10.5423 4.00379 11.0818 3.36789 11.3094C3.62002 10.751 3.96992 10.504 4.34498 10.1823L5.44547 9.24886C4.89668 9.3391 4.4979 9.62826 4.11897 9.88298C3.78505 10.1071 3.25416 10.5836 2.95653 10.7155Z" fill="white"/>
<path fill-rule="evenodd" clip-rule="evenodd" d="M22.809 21.6751C23.0253 21.6751 23.201 21.8173 23.201 21.9924C23.201 22.1676 23.0258 22.3097 22.809 22.3097C22.5927 22.3097 22.4175 22.1676 22.4175 21.9924C22.4175 21.8173 22.5927 21.6751 22.809 21.6751Z" fill="white"/>
<path fill-rule="evenodd" clip-rule="evenodd" d="M18.7632 4.91336C17.8775 4.91336 17.3534 5.49023 17.3534 6.46252V6.85163H16.6745V4.98468H15.8856V9.52251H16.6745V7.60995H17.3534V8.04418C17.3534 9.01647 17.8771 9.59334 18.7632 9.59334C19.6425 9.59334 20.1661 9.01647 20.1661 8.04418V6.46252C20.1661 5.49023 19.6425 4.91336 18.7632 4.91336ZM19.3517 8.04418C19.3517 8.54973 19.1513 8.82192 18.7632 8.82192C18.3688 8.82192 18.1747 8.54973 18.1747 8.04418V6.46252C18.1747 5.95697 18.3688 5.68479 18.7632 5.68479C19.1513 5.68479 19.3517 5.95697 19.3517 6.46252V8.04418ZM21.1877 4.98468C21.1035 6.87734 21.0518 7.74629 20.9743 8.21302C20.8838 8.73798 20.7416 8.87431 20.4638 8.87431V9.59383C21.1558 9.59383 21.5889 9.37986 21.7375 8.40758C21.8217 7.88262 21.8861 6.99427 21.9509 5.7367H22.7916V9.52251H23.5867V4.98468H21.1877ZM24.4399 9.52251H25.2287L26.1405 7.42898C26.2765 7.11799 26.3989 6.75459 26.5155 6.4436L26.5349 6.463C26.4831 6.94284 26.4507 7.68176 26.4507 8.10968V9.52299H27.2264V4.98517H26.4313L25.4678 7.20192C25.3449 7.4741 25.235 7.78559 25.1382 8.03836L25.1189 8.02526C25.1769 7.53281 25.2156 6.84532 25.2156 6.46931V4.98468H24.4399V9.52251ZM27.7181 9.52251H28.5975L29.4057 7.97335H29.7614V9.52251H30.5565V4.98468H29.3152C28.4421 4.98468 27.9185 5.53584 27.9185 6.48193C27.9185 7.13642 28.1769 7.60365 28.6299 7.81712L27.7181 9.52202V9.52251ZM29.3215 7.21502C28.9401 7.21502 28.733 6.95594 28.733 6.48241C28.733 5.99627 28.9401 5.74349 29.3215 5.74349H29.7614V7.21502H29.3215ZM19.144 15.0637H20.0495L18.6398 12.5029L19.8554 10.5258H18.9374L18.181 11.8547L17.9158 12.3865V10.5258H17.1332V15.0637H17.9158V13.6504L18.1941 13.2161L19.1445 15.0637H19.144ZM22.1445 10.5258L21.556 12.5548L20.9095 10.5258H20.0689L21.2003 13.7867C21.0518 14.2922 20.9095 14.4218 20.5601 14.4218H20.366V15.135H20.5339C21.2903 15.135 21.6267 14.921 21.9045 14.0264L22.9779 10.5258H22.144H22.1445ZM25.2868 10.5258V12.3928H24.194V10.5258H23.3984V15.0637H24.194V13.1511H25.2868V15.0637H26.0887V10.5258H25.2868ZM28.1706 15.1413C29.0437 15.1413 29.5542 14.6357 29.5867 13.7154H28.7915C28.7591 14.169 28.565 14.3699 28.1706 14.3699C27.8343 14.3699 27.6339 14.1559 27.6339 13.7023V11.8872C27.6339 11.4205 27.8343 11.2065 28.1639 11.2065C28.552 11.2065 28.746 11.4074 28.7717 11.8741H29.5673C29.5286 10.947 29.0369 10.4351 28.1706 10.4351C27.3237 10.4351 26.8127 10.9475 26.8127 11.8872V13.7023C26.8127 14.6357 27.33 15.1413 28.1706 15.1413Z" fill="white"/>
</g>
<defs>
<clipPath id="clip0_170_451">
<rect width="46" height="50" fill="white"/>
</clipPath>
</defs>
</svg>
