<svg width="42" height="49" viewBox="0 0 42 49" fill="none" xmlns="http://www.w3.org/2000/svg">
<g clip-path="url(#clip0_45_95)">
<path d="M29.1745 37.7078C29.3421 37.5679 29.5397 37.3201 29.4522 37.1174C29.3739 36.9352 29.3498 36.6464 29.6289 36.4711C29.7832 36.3739 29.8982 36.4299 29.9386 36.1866C30.0911 36.5707 29.9962 36.8992 29.901 37.1144C29.8017 37.3376 29.6982 37.3394 29.6507 37.1197C29.6011 37.5885 29.3199 38.2113 28.8326 38.2166C29.0978 38.0334 28.9932 37.8593 29.1746 37.7077L29.1745 37.7078Z" fill="white"/>
<path d="M26.1943 37.8966C26.4502 38.134 26.8044 37.0662 27.2571 37.0068C26.8242 37.7188 26.6076 38.4999 26.9421 39.8345C26.3911 39.6567 25.8922 37.6165 26.1943 37.8966Z" fill="white"/>
<path d="M29.2162 37.0049C29.1115 37.0004 29.0255 36.9612 28.9456 36.7923C28.8934 36.9388 29.0748 37.5234 28.7619 37.7916C28.5045 38.0125 28.3578 37.816 28.0212 38.2277C28.0825 37.9627 28.7226 36.7027 28.8683 36.3474C28.9193 36.5677 29.1346 36.92 29.2162 37.0049Z" fill="white"/>
<path d="M30.3486 35.6898C30.1767 35.5496 30.3566 35.4098 30.4725 35.318C30.5638 35.246 30.5967 35.0958 30.6349 34.895C30.7693 35.4387 30.6361 36.3072 30.2063 36.5545C30.523 36.1225 30.4834 35.7991 30.3486 35.6897V35.6898Z" fill="white"/>
<path d="M31.4256 33.8943C31.1595 34.129 30.8721 34.837 30.9688 35.7363C30.773 35.389 30.5876 34.2014 31.4256 33.8943Z" fill="white"/>
<path d="M27.4458 36.5223C27.3749 36.4564 27.5649 36.1757 27.5241 36.069C27.4228 36.2545 26.8438 36.4333 26.4108 37.6C26.1746 36.9177 26.5682 35.3655 27.5702 34.4002C27.4097 34.3681 27.022 34.5905 27.306 34.2222C27.4133 34.0827 27.5076 33.905 27.5191 33.7254C27.2091 33.9701 27.4794 33.3733 27.472 33.1931C27.3579 33.5372 27.3166 33.9656 26.9807 34.1924C26.6083 34.4438 26.4122 35.1261 26.2724 35.6785C25.7432 34.2562 27.0023 32.0124 27.09 31.8814C27.1233 31.8319 27.1586 31.7931 27.1901 31.7569C27.2594 31.6765 27.308 31.6087 27.2662 31.4683C27.2324 31.379 27.2448 31.2993 27.3029 31.2295C27.3694 31.1503 27.5693 31.0598 27.5379 30.9285C27.1225 31.3574 27.3068 30.7457 27.295 30.5072C27.2811 30.2206 26.3417 29.2166 27.4934 27.8469C27.3 27.8166 26.7699 28.064 26.5526 28.9415C26.2338 26.4768 27.759 25.2904 28.31 23.1943C29.0162 22.5911 29.6757 21.5567 29.7457 20.518C30.0517 21.029 32.8855 22.1259 33.5997 23.858C33.666 24.019 33.4017 23.7931 33.4579 23.9221C33.9185 24.979 33.8605 27.5002 33.713 27.4393C33.627 27.4038 33.6372 27.2036 33.5572 27.2252C33.53 27.9167 32.8741 30.7879 32.7626 30.8332C32.6511 30.8785 32.6427 30.4898 32.5824 30.5361C32.5435 30.5658 32.6496 30.8587 32.6115 31.2417C32.5901 31.4567 32.5231 31.7002 32.36 31.9415C32.2108 32.1623 32.0896 32.426 32.0864 32.6957C32.0836 32.9296 32.0928 33.0019 32.1083 33.1663C32.1353 33.4512 31.9851 32.813 31.869 32.5065C31.805 32.3376 31.8937 32.0433 31.9593 31.8451C32.0131 31.6825 32.0518 31.584 31.9795 31.6697C31.8198 31.8604 31.8461 31.5472 31.7708 31.5735C31.6955 31.6002 30.9528 34.4238 30.725 34.2426C30.5167 34.0772 30.6908 33.7809 30.5776 33.6688C30.4396 33.5319 30.8953 35.2807 29.8392 35.6035C29.9563 35.3725 29.8708 35.2414 29.8715 35.1085C29.7764 35.3583 29.6893 35.7027 29.5182 35.9103C29.6336 35.2789 29.4089 35.2529 29.3791 35.0215C29.1156 35.3949 29.0206 35.7766 28.8304 36.2095C28.8467 35.8381 28.7377 35.7459 28.7126 35.6519C28.6421 35.8982 28.7325 36.1536 28.6935 36.403C28.6405 36.7411 28.3199 37.2356 27.7398 37.6849C27.3915 37.9542 27.2867 38.4806 27.519 39.0834C26.7001 38.0115 27.7134 36.5816 27.8915 36.2953C27.6385 36.5177 27.5166 36.5884 27.4458 36.5228V36.5223ZM26.3002 34.2626C26.3636 34.1891 26.4314 34.1368 26.5786 34.1563C26.7182 33.7176 27.0159 32.9755 27.2779 32.5291C26.6678 32.6074 26.3539 33.99 26.3003 34.2627L26.3002 34.2626ZM27.2816 35.8684C27.3862 35.8107 27.4808 35.7384 27.6237 35.784C27.9256 35.2754 28.326 34.1821 28.3787 33.7652C28.2603 34.0366 28.0048 34.5354 27.8745 34.8096C27.6919 35.1952 27.4836 35.4929 27.2815 35.8683L27.2816 35.8684ZM27.5324 34.044C27.9376 33.7166 28.3084 33.3506 28.4318 33.1656C28.6191 32.8847 28.4634 32.6218 28.7639 32.3597C27.8911 32.5696 27.9212 33.4136 27.5325 34.044H27.5324ZM30.7616 30.2635C30.6973 30.423 30.3148 30.6554 30.247 30.9451C30.2192 31.0644 30.231 31.1896 30.15 31.2947C30.1185 31.3354 29.9684 31.5948 29.9478 31.7445C30.3112 31.5166 30.466 30.9008 30.6447 30.6961C30.8235 30.4911 31.5868 28.5772 31.7392 27.6807C31.5715 27.933 30.746 30.1576 30.4505 30.4179C30.6301 30.3734 30.8259 30.1045 30.7615 30.2635H30.7616ZM32.1041 25.6215C31.0745 27.6781 29.3858 30.7886 29.1073 31.0007C29.2815 31.094 29.55 30.8498 29.5829 30.9551C29.6159 31.0607 28.924 31.1583 28.8952 31.4162C29.0391 31.2721 29.2653 31.2526 29.1698 31.3807C29.0745 31.5085 28.7401 31.4834 28.7081 31.7605C28.8607 31.6131 29.0825 31.4287 29.2668 31.5121C29.4365 31.5884 29.1334 32.653 28.9083 33.1564C28.8266 33.3396 28.7551 33.4482 28.7202 33.4085C28.5894 33.2585 28.7832 33.1381 28.6897 32.9558C28.4671 33.347 28.5001 33.6874 28.6007 34.1259C28.6467 33.9324 28.8104 33.5488 28.9653 33.2112C29.0861 32.949 29.202 32.7146 29.254 32.6199C29.3725 32.4029 29.4834 31.9777 29.5432 31.8164C29.5988 31.6672 31.6689 27.0785 32.104 25.6215H32.1041ZM29.9622 27.9294C30.041 27.8065 30.5888 26.7592 30.6781 26.6138C30.4596 26.6359 30.3308 26.7766 30.3905 26.9352C30.1936 27.0886 29.9622 27.9294 29.9622 27.9294ZM30.7471 26.5135C30.7573 26.4915 30.9092 26.2452 30.979 26.1142C30.7732 26.0841 30.6258 26.3121 30.5333 26.4661C30.6163 26.4441 30.7023 26.4426 30.7471 26.5135ZM29.4514 28.8539C29.11 28.8551 28.6517 29.3962 28.621 29.6499C28.8485 29.5259 28.9476 29.5887 29.0509 29.5612C29.0857 29.4667 29.4126 28.9039 29.4514 28.854V28.8539ZM28.1207 29.924C28.3718 29.5986 29.8999 26.7106 30.0105 26.3691C29.8102 26.6389 28.5359 28.4515 28.4115 28.8641C28.3028 29.2242 28.1747 29.868 27.8948 29.5207C28.0381 29.9074 27.682 30.3395 27.6502 30.2175C27.6181 30.0954 27.6259 29.9512 27.581 29.8149C27.5365 30.0813 27.5638 30.3603 27.4769 30.6188C27.6207 30.6053 27.9877 30.0961 28.1207 29.9239V29.924ZM27.463 28.938C29.1349 25.9332 31.0642 24.8565 31.6008 25.0883C31.2254 24.4807 28.5914 25.7698 27.463 28.938ZM26.866 27.7383C27.5792 26.6461 28.6938 25.4486 29.8316 24.6423C28.5878 25.1957 27.4048 26.4964 26.866 27.7383ZM27.6839 27.3236C28.4993 26.3061 29.6301 25.1946 30.8154 24.7046C29.5975 24.8992 28.32 26.0988 27.6839 27.3236ZM31.4887 22.0013C32.2941 22.8854 32.4577 23.6784 32.325 24.1286C32.1922 24.5787 31.1923 23.2484 29.9731 24.4491C31.4043 23.7543 32.1857 25.1888 32.2619 25.2742C32.3382 25.3601 32.2633 24.934 32.382 25.0163C32.5006 25.0984 32.3966 25.3011 32.5143 25.2319C32.6234 25.1676 33.5703 23.6787 31.4887 22.0013ZM33.207 25.1662C33.3047 25.1493 33.3733 25.2065 33.4165 25.293C33.5468 25.0714 33.3499 24.5224 33.0877 24.3765C33.1528 24.7082 32.8692 25.154 32.6836 25.383C32.4836 25.6298 32.5561 26.1525 33.0171 26.2293C32.8271 26.0725 32.8583 25.7593 33.0541 25.6424C33.2629 25.5173 33.444 25.4108 33.207 25.1662ZM32.7907 28.9234C32.823 28.73 33.0043 27.7588 33.1001 27.1533C32.8189 27.6175 32.5038 28.9291 32.4918 29.4207C32.6957 29.272 32.7653 29.0758 32.7907 28.9234ZM32.6597 27.4083C32.4459 27.7967 31.1594 30.4 31.07 30.9615C30.9917 31.4515 30.9384 32.3157 30.5113 31.9117C30.7672 32.3915 30.3782 33.0198 30.3151 32.8662C30.2517 32.7125 30.2362 32.5226 30.1534 32.3525C30.1424 32.7086 29.9296 33.9928 29.8618 34.3463C30.7579 33.4998 32.5756 27.8744 32.6597 27.4083ZM29.9072 32.391C29.74 32.7521 29.042 34.2581 28.8723 34.4747C28.712 34.6786 28.1953 35.0799 28.0897 35.2018C27.984 35.3241 27.6226 36.0555 27.5999 36.3458C27.8561 36.0501 28.1267 36.1547 28.3431 35.7043C28.5131 35.3519 29.8214 32.9248 29.9072 32.3909V32.391ZM27.8766 36.8686C27.7236 37.0507 27.8532 37.3461 27.6359 37.5731C27.8881 37.4357 28.1406 37.1817 28.1987 37.036C28.2658 36.8689 28.109 36.423 28.2161 36.1858C28.0411 36.2772 28.0524 36.6588 27.8765 36.8686H27.8766Z" fill="white"/>
<path d="M24.2397 38.2277C23.9032 37.816 23.7564 38.0125 23.499 37.7916C23.1861 37.5234 23.3675 36.9388 23.3154 36.7923C23.2354 36.9612 23.1496 37.0004 23.0447 37.0049C23.1263 36.92 23.3415 36.5678 23.3926 36.3474C23.5384 36.7027 24.1783 37.9627 24.2397 38.2277Z" fill="white"/>
<path d="M18.8032 23.922C18.8594 23.7931 18.5949 24.0189 18.6614 23.8579C19.3757 22.1258 21.5497 21.0091 22.1991 20.8114C21.4803 21.2803 21.0466 21.9562 20.8238 22.6155C20.963 22.4103 21.1311 22.2177 21.3096 22.0909C21.1346 22.347 21.0342 22.517 20.9798 22.7343C21.2343 22.4954 21.5274 22.1162 21.7547 22.0024C21.5845 21.9901 21.3757 22.2187 21.3647 22.2094C21.5428 21.1955 22.4988 21.2638 22.5822 20.4266C22.5254 20.5285 22.4027 20.5953 22.3774 20.8481C22.3643 20.686 22.3518 20.2128 22.8565 19.8461C22.6737 19.9369 22.4692 19.9016 22.4667 20.0647C22.4642 20.2321 22.4262 20.3845 22.3402 20.5402C22.4679 20.0798 22.2319 20.0554 22.3564 19.8919C22.3936 19.8428 22.4362 19.8034 22.4844 19.772C22.6099 19.4317 23.0002 19.1837 23.2388 19.2266C23.0435 19.0695 22.7535 19.248 22.5977 19.3519C22.7187 19.1866 23.0062 19.0696 23.1998 19.0289C23.1209 19.0379 22.9958 19.0429 22.9422 19.0041C23.003 18.9863 23.135 18.9239 23.3138 18.8379C23.2347 18.8393 23.1532 18.8543 23.0607 18.9188C23.172 18.6345 23.516 18.4095 23.6574 18.1359C23.6135 18.1603 23.501 18.2284 23.4283 18.3243C23.4324 18.2689 23.7243 17.6369 24.3548 17.2338C25.4151 16.1109 27.3297 15.7278 28.2615 15.836C29.1933 15.9443 29.9688 16.6797 30.5496 16.6326C30.4777 16.7778 30.1507 16.7961 29.9679 16.7978C30.1271 16.8466 30.4777 16.8344 30.5836 16.6745C30.5959 16.7404 30.5356 16.7929 30.4971 16.813C31.1343 17.0621 32.0755 17.0301 32.5197 17.2847C32.4165 17.2642 32.36 17.2932 32.2717 17.2949C33.6931 17.6672 34.0157 18.7076 33.9625 18.7923C33.9093 18.8771 33.6192 18.519 33.0741 18.3252C32.6077 18.1595 31.172 17.8625 30.5775 17.8913C31.4328 18.0241 32.6103 18.2619 32.9166 18.3374C33.2231 18.413 33.5141 18.5771 33.6929 18.7883C33.1741 18.8384 32.5478 18.8104 32.053 18.7981C31.5582 18.786 31.1865 18.7002 31.1424 19.0831C31.0841 19.0211 31.0516 18.9586 31.0264 18.8718C30.9585 18.9932 30.8521 19.0913 30.7263 19.1278C30.8122 19.0409 30.8511 18.9625 30.8471 18.8532C30.4217 19.4999 29.6437 19.432 29.4598 20.1316C29.3816 20.0229 29.5266 19.7685 29.5248 19.7065C29.313 19.8966 29.3907 20.3717 29.0346 20.7029C29.1109 20.6842 29.2081 20.6366 29.2486 20.5674C29.1963 20.86 29.0183 21.1255 28.7572 21.2965C28.9104 21.2991 29.2572 21.0154 29.4356 20.5582C29.3883 21.2687 28.9727 21.6499 28.7696 21.8115C28.8514 21.8474 29.0586 21.7703 29.1376 21.6667C28.9789 22.4184 27.3134 23.7841 26.6186 23.842C26.8998 23.7746 28.2664 22.5462 28.3524 21.5818C28.1804 22.1432 27.6504 22.7047 27.1631 22.8919C28.061 21.5914 27.507 20.8042 26.4179 22.5032C25.6056 23.7705 26.9462 22.6953 26.9769 22.1145C27.3835 23.1976 25.7588 23.6261 25.9595 25.6706C26.1888 24.1877 27.1631 24.6053 28.0944 23.18C28.0084 24.2165 25.5912 26.8467 26.6421 29.4381C25.4707 27.9493 25.1568 24.4393 25.2883 24.0658C25.1312 24.2482 25.0425 25.3034 25.3935 26.2824C24.6197 25.2315 24.83 23.9801 24.8998 23.498C24.824 23.5765 24.7568 23.6795 24.7369 23.7682C24.6909 23.5012 24.9039 22.4403 25.4455 21.8163C25.2922 21.8805 24.9412 22.2239 24.7773 22.5088C24.6867 22.3046 24.7651 21.7531 24.9087 21.1116C23.9015 22.5494 24.1995 23.2593 24.3086 23.4328C24.2415 23.0855 24.2973 22.4025 24.6268 21.8698C24.4692 22.8344 24.3975 24.2165 24.8059 25.3394C24.111 24.3676 24.0761 23.9299 24.0394 23.799C23.9577 24.3421 22.8184 22.7017 22.4647 23.2996C22.4382 23.2648 22.4897 23.0005 22.611 22.7239C22.4677 22.8694 22.315 23.0208 22.139 23.1817C22.1117 23.1274 22.1215 23.0646 22.1502 23.0032C22.0311 23.0415 21.6134 23.3486 21.6162 23.298C21.6187 23.2475 21.9271 22.6003 22.4784 22.3252C22.3397 22.4952 22.3246 22.5847 22.279 22.7273C22.478 22.5671 22.7094 22.3149 22.8854 22.2366C22.7554 22.2318 22.5915 22.3845 22.5831 22.3787C22.5975 22.3172 22.5473 22.0637 23.1838 21.7683C22.4352 21.92 21.7563 22.8013 21.2323 23.439C21.1963 23.3844 21.2657 23.1621 21.4139 22.7415C21.0838 22.9049 20.8793 23.3346 20.7921 23.6931C24.0656 22.5297 25.1963 26.5706 25.7849 28.0827C26.3737 29.5948 27.2308 29.9426 27.0731 31.1425C26.9492 32.0853 26.4181 32.5301 26.1156 33.8033C25.7983 32.6369 25.3923 31.8999 25.0824 31.5292C25.3185 31.549 25.9582 32.3202 26.0861 32.1126C26.1765 31.9659 26.116 31.4715 26.0057 30.867C26.0158 31.3494 25.9391 31.6834 25.9335 31.7962C25.9218 32.0347 25.1385 31.3574 24.7231 30.9285C24.6918 31.0598 24.8916 31.1503 24.9581 31.2295C25.0163 31.2993 25.0286 31.379 24.9947 31.4683C24.9531 31.6088 25.0018 31.6766 25.0709 31.7569C25.1024 31.7931 25.1378 31.8319 25.171 31.8814C25.2535 32.0046 26.4552 34.2469 25.911 36.1788C26.1295 37.0671 25.9927 38.045 25.5644 38.7816C25.9186 36.8833 24.8382 36.2546 24.7368 36.0691C24.6961 36.1759 24.886 36.4565 24.8151 36.5224C24.7443 36.588 24.6225 36.5174 24.3693 36.295C24.5476 36.5814 25.9846 38.4811 25.1658 39.5529C25.3981 38.9499 24.8694 37.9539 24.5211 37.6846C23.941 37.2352 23.6204 36.7408 23.5675 36.4027C23.5283 36.1532 23.6188 35.8979 23.5483 35.6516C23.5233 35.7457 23.4143 35.8379 23.4305 36.2092C23.2403 35.7762 23.1453 35.3946 22.8819 35.0212C22.8519 35.2527 22.6274 35.2787 22.7427 35.9099C22.5717 35.7024 22.4846 35.358 22.3895 35.1082C22.3901 35.2411 22.3046 35.3722 22.4218 35.6032C21.3657 35.2803 21.8213 33.5315 21.6833 33.6685C21.5701 33.7806 21.7442 34.0769 21.5359 34.2423C21.3082 34.4234 20.5654 31.5998 20.4901 31.5732C20.4148 31.5469 20.4411 31.8602 20.2814 31.6693C20.2091 31.5837 20.2478 31.6822 20.3016 31.8448C20.3673 32.043 20.4559 32.3373 20.3919 32.5062C20.2759 32.8127 20.1256 33.4509 20.1527 33.166C20.1681 33.0016 20.1773 32.9292 20.1745 32.6954C20.1712 32.4257 20.05 32.162 19.9009 31.9412C19.7378 31.6999 19.6709 31.4563 19.6495 31.2414C19.6114 30.8584 19.7175 30.5655 19.6785 30.5357C19.6182 30.4895 19.6098 30.8782 19.4982 30.8329C19.3868 30.7875 18.7309 27.9164 18.7037 27.2249C18.6238 27.2033 18.634 27.4034 18.5479 27.439C18.4004 27.4999 18.3424 24.9787 18.803 23.9218L18.8032 23.922ZM22.5113 19.7557C22.5901 19.7112 22.6837 19.6856 22.7956 19.6746C22.7546 19.667 22.6265 19.6025 22.5113 19.7557ZM28.8594 17C28.8316 17.0761 28.9149 17.25 29.0843 17.3475C28.9135 17.3097 28.7646 17.1806 28.758 16.9477C28.6206 17.2759 29.1199 17.612 29.4227 17.3027C29.3445 17.3459 29.249 17.3649 29.1549 17.3578C28.9968 17.2516 28.9368 17.102 28.9526 16.9019C28.9139 16.892 28.8752 16.9565 28.8594 17ZM28.9305 16.7423C29.0016 16.7339 29.2622 16.6722 29.4304 16.8528C29.3395 16.6439 29.0562 16.6172 28.9305 16.7423ZM32.2025 17.8692C32.1161 17.8614 31.871 17.7632 31.8861 17.7598C32.0424 17.7246 32.5071 17.7624 32.5565 17.6306C32.4694 17.6421 32.2402 17.3974 32.3854 17.3751C32.2366 17.3286 32.119 17.2932 32.0066 17.2918C32.0542 17.3024 32.2085 17.3354 32.2873 17.3865C32.2695 17.4697 32.3889 17.617 32.4989 17.6424C32.4948 17.7749 31.3562 17.6538 31.1679 17.7591C31.7069 17.67 32.0862 17.9226 32.2023 17.8693L32.2025 17.8692ZM29.8568 17.8497C30.0376 17.6924 30.6422 17.6573 30.9543 17.7293C30.657 17.5927 30.1971 17.7244 29.8726 17.4693C29.8943 17.5478 30.0035 17.6409 30.1564 17.6907C29.8084 17.7124 29.7385 17.8645 29.5298 17.8891C29.8938 18.0362 29.9043 18.4237 30.473 18.5294C30.0128 18.393 29.7706 17.9247 29.8568 17.8497ZM30.1166 18.5328C28.1531 18.5563 26.848 20.0126 26.7047 21.0347C27.6791 19.5663 28.7824 18.6736 30.1166 18.5328ZM19.867 24.2619C19.7342 23.8118 19.9671 22.8853 20.7725 22.0012C18.6908 23.6785 19.6378 25.1675 19.747 25.2318C19.8646 25.3011 19.7606 25.0983 19.8793 25.0162C19.998 24.9339 19.923 25.36 19.9993 25.2741C20.0755 25.1887 20.8569 23.7542 22.2881 24.449C21.0688 23.2482 19.9998 24.7121 19.867 24.2618V24.2619ZM21.8106 30.4179C21.5152 30.1576 20.6896 27.933 20.5219 27.6807C20.6743 28.5772 21.4377 30.4911 21.6165 30.6961C21.7951 30.9007 21.95 31.5164 22.3133 31.7445C22.2928 31.5948 22.1427 31.3354 22.1112 31.2947C22.0302 31.1897 22.042 31.0645 22.0141 30.9451C21.9464 30.6554 21.5637 30.423 21.4996 30.2635C21.4351 30.1045 21.6311 30.3734 21.8105 30.4179H21.8106ZM22.7179 31.8163C22.7778 31.9776 22.8888 32.4028 23.0072 32.6198C23.0591 32.7145 23.1751 32.9489 23.2958 33.2111C23.4507 33.5487 23.6144 33.9323 23.6604 34.1258C23.7611 33.6873 23.794 33.3469 23.5714 32.9557C23.478 33.138 23.6717 33.2584 23.5409 33.4084C23.506 33.4481 23.4346 33.3394 23.3529 33.1563C23.1276 32.6528 22.8248 31.5883 22.9944 31.512C23.1786 31.4286 23.4005 31.613 23.5531 31.7604C23.5211 31.4833 23.1866 31.5085 23.0913 31.3806C22.9958 31.2526 23.2221 31.272 23.366 31.4161C23.3371 31.1582 22.6451 31.0606 22.6783 30.955C22.7111 30.8496 22.9797 31.0938 23.154 31.0006C22.8753 30.7886 21.1867 27.678 20.1572 25.6214C20.5923 27.0784 22.6624 31.6671 22.7179 31.8163ZM23.3629 29.8322C23.4756 30.0449 23.8021 30.5385 23.8355 30.5772C24.0071 30.5181 24.1007 30.5641 24.1945 30.6365C24.0643 30.3232 23.7777 29.6577 23.3629 29.8322ZM23.6401 29.6498C23.6094 29.396 23.1512 28.855 22.8098 28.8538C22.8485 28.9037 23.1754 29.4665 23.2102 29.561C23.3136 29.5885 23.4128 29.5258 23.6401 29.6497V29.6498ZM21.5831 26.6138C21.6724 26.7592 22.2203 27.8065 22.2989 27.9294C22.2989 27.9294 22.0676 27.0886 21.8708 26.9352C21.9304 26.7766 21.8016 26.6359 21.5831 26.6138ZM21.7279 26.4661C21.6356 26.3121 21.488 26.0841 21.2822 26.1142C21.352 26.2452 21.504 26.4915 21.5142 26.5135C21.559 26.4426 21.6449 26.4441 21.7279 26.4661ZM21.4458 24.7045C22.6312 25.1945 23.7618 26.3061 24.5773 27.3235C23.9412 26.0986 22.6639 24.899 21.4458 24.7045ZM22.4297 24.6422C23.5673 25.4485 24.682 26.6459 25.3953 27.7382C24.8563 26.4962 23.6734 25.1956 22.4297 24.6422ZM25.7119 29.4013C25.6607 29.1469 25.6137 28.9038 25.5775 28.6871C25.2567 28.1973 24.8857 27.8284 24.7679 27.8468C25.2299 28.3924 25.5256 28.9192 25.712 29.4013H25.7119ZM20.6604 25.0882C21.197 24.8564 23.1264 25.9331 24.7982 28.9379C23.6696 25.7697 21.0357 24.4806 20.6604 25.0882ZM24.7842 30.6188C24.6972 30.3603 24.7246 30.0813 24.6801 29.8148C24.6352 29.9511 24.643 30.0954 24.611 30.2175C24.5791 30.3394 24.223 29.9073 24.3663 29.5207C24.0866 29.8681 23.9583 29.2243 23.8496 28.8641C23.7252 28.4516 22.4509 26.6389 22.2506 26.3691C22.3614 26.7106 23.8893 29.5986 24.1404 29.924C24.2735 30.0962 24.6405 30.6052 24.7842 30.6189V30.6188ZM25.8133 35.8528C25.7901 35.0483 25.5725 34.3896 25.2805 34.1924C24.9447 33.9655 24.9033 33.5372 24.7892 33.1931C24.7818 33.3733 25.0521 33.9701 24.7421 33.7254C24.7537 33.9051 24.8479 34.0828 24.9553 34.2221C25.2392 34.5905 24.8516 34.3681 24.691 34.4002C25.2401 34.7605 25.6077 35.2776 25.8133 35.8528ZM25.3261 35.756C25.3976 35.2577 25.1035 34.6334 24.5357 34.6057C24.6195 34.8201 24.6878 34.9731 24.8516 35.2184C25.001 35.4417 25.2076 35.5303 25.3261 35.756ZM24.9795 35.8684C24.7774 35.493 24.5693 35.1953 24.3866 34.8097C24.2564 34.5355 24.0008 34.0367 23.8825 33.7653C23.9351 34.1822 24.3356 35.2755 24.6374 35.7841C24.7804 35.7385 24.8749 35.8108 24.9794 35.8685L24.9795 35.8684ZM24.0624 37.036C24.1205 37.1815 24.3731 37.4355 24.6252 37.573C24.4078 37.346 24.5375 37.0506 24.3844 36.8685C24.2086 36.6587 24.22 36.2771 24.0448 36.1857C24.1521 36.4229 23.9952 36.8688 24.0623 37.036H24.0624ZM23.9181 35.7043C24.1345 36.1546 24.4053 36.0501 24.6614 36.3458C24.6387 36.0555 24.2773 35.3241 24.1715 35.2018C24.0659 35.0799 23.5493 34.6786 23.3888 34.4747C23.2191 34.2581 22.5213 32.7521 22.354 32.391C22.4398 32.925 23.7481 35.352 23.9181 35.7044V35.7043ZM22.3994 34.3461C22.3317 33.9927 22.1188 32.7085 22.1078 32.3524C22.025 32.5225 22.0097 32.7124 21.9461 32.8661C21.8829 33.0197 21.494 32.3914 21.7501 31.9116C21.3229 32.3155 21.2695 31.4514 21.1913 30.9614C21.1018 30.3999 19.8154 27.7966 19.6014 27.4082C19.6857 27.8743 21.5035 33.4997 22.3994 34.3461ZM19.4705 28.9232C19.4959 29.0757 19.5655 29.272 19.7694 29.4206C19.7576 28.9289 19.4424 27.6173 19.1612 27.1532C19.2569 27.7587 19.4382 28.7299 19.4705 28.9232ZM19.334 26.755C19.1454 26.514 19.1161 26.2503 19.2709 25.9669C19.4266 25.6835 19.7345 25.9645 19.9088 26.0854C20.1391 26.2451 19.8858 25.7443 19.7352 25.5828C19.5847 25.4212 19.1941 25.282 19.1258 25.4791C19.275 25.4675 19.3313 25.5142 19.348 25.6211C18.6593 25.6199 19.025 26.7775 19.3341 26.755H19.334Z" fill="white"/>
<path d="M20.0972 8.50103C19.8751 6.92596 21.356 5.19748 22.7152 4.88622C21.63 5.38379 20.6108 6.86607 20.5004 7.40624C22.8299 5.04364 26.2808 7.50652 27.5619 5.93082C28.186 6.24324 27.7188 7.49914 27.7825 7.59572C29.0847 6.59857 29.6793 3.46816 27.3081 3.10523C26.7301 2.49821 26.1365 2.01582 25.5356 1.64678C23.1848 -1.44093 17.7889 0.742419 17.5967 0.842377C17.3039 0.994843 17.6703 1.11852 17.6339 1.16555C17.6049 1.20309 17.4585 1.10925 17.4309 1.09986C17.2863 1.05062 17.1331 1.03734 16.9789 1.08162C16.7778 1.1394 16.5974 1.32761 16.3937 1.35555C16.1859 1.38444 15.9964 1.41428 15.8616 1.31876C16.0766 1.76867 16.8001 1.47027 16.8621 1.54809C16.8193 1.56897 16.7793 1.5871 16.7591 1.65142C16.7389 1.71574 16.8438 1.72312 16.8608 1.75169C16.889 1.79999 15.4134 2.15426 15.1598 2.29049C14.8214 2.47217 15.3016 2.53037 15.3804 2.62875C15.1398 2.55557 14.236 2.63613 14.0658 3.05957C14.1916 2.99768 14.2625 3.06812 14.3758 3.08868C14.1908 3.09859 13.9946 3.17208 13.8245 3.31474C14.0735 3.29692 14.1482 3.46763 14.3488 3.54819C14.0852 3.73671 13.7861 3.6764 13.5279 3.90584C13.6661 3.92334 13.7378 4.00696 13.8519 4.07981C13.6885 4.1145 13.5463 4.00168 13.3864 4.00717C13.2296 4.01297 13.0644 4.12737 12.9254 4.24641C12.6217 4.50685 12.4529 5.03458 12.0988 4.86366C12.3862 5.40668 12.9388 4.98976 13.3216 4.75084C13.2725 4.80683 13.0606 5.00906 13.1086 5.13C13.148 5.22774 13.3353 5.05704 13.4006 5.11239C13.2976 5.16785 13.2556 5.33477 13.1573 5.40003C13.0681 5.45897 12.9774 5.5429 12.8066 5.47563C12.9656 5.74957 13.5269 5.8956 13.9918 5.77698C11.3605 8.52244 10.5895 11.5136 10.5132 11.7693C10.3553 12.2988 10.9347 11.7132 10.9491 11.7861C10.9605 11.844 10.6752 12.0671 10.6313 12.1115C10.4022 12.3421 10.2067 12.5966 10.0798 12.8667C9.91411 13.219 9.93132 13.5685 9.7269 13.9178C9.51827 14.2741 9.33263 14.5999 9.05863 14.8032C9.85629 14.5526 10.342 13.2625 10.5092 13.1776C10.4844 13.2548 10.4597 13.3263 10.5142 13.3761C10.5684 13.4258 10.7004 13.251 10.7548 13.2298C10.8466 13.1942 9.54766 15.7618 9.41596 16.2215C9.24039 16.8349 9.87329 16.0419 10.0851 15.9336C9.71451 16.3202 8.75325 17.8594 9.06787 18.2494C9.14028 18.0227 9.30892 17.9209 9.46685 17.7354C9.2619 18.0489 9.12118 18.3966 9.09536 18.7176C9.36548 18.2944 9.66005 18.2111 9.99292 17.8937C9.91275 18.3829 9.48921 18.8711 9.46528 19.3615C9.6484 19.1336 9.83404 19.0335 10.0562 18.8597C9.90698 19.1427 9.60317 19.354 9.42267 19.6245C9.24627 19.8892 9.19117 20.1952 9.17312 20.4582C9.13356 21.0325 9.5761 21.446 8.9538 21.9993C9.9499 21.6493 10.091 20.6181 10.2494 19.9158C10.2601 20.0121 10.2572 20.4182 10.46 20.367C10.6251 20.3249 10.6376 19.968 10.7811 19.8719C10.7275 20.0586 10.8811 20.1701 10.8451 20.3515C10.8122 20.5162 10.8078 20.6893 10.5258 20.9597C11.3255 20.6518 12.6267 18.896 12.1842 18.1706C12.2393 18.1854 12.4519 18.4345 12.5181 18.3533C12.7056 18.124 12.6063 17.7872 12.8161 17.5174C12.8812 17.8824 13.1719 17.134 13.3206 17.0054C13.1443 17.371 12.9417 17.7465 12.921 18.2135C12.8971 18.7599 13.135 19.1626 12.9179 19.6599C13.2104 19.5053 13.5392 19.1381 13.8008 18.7306C13.7222 19.2785 13.6177 19.8408 13.4798 20.4191C13.891 19.7131 14.1767 19.0491 14.3867 18.4156C15.4457 15.2208 14.5787 12.8018 18.176 9.68723C15.5416 12.3826 15.4834 16.9464 14.612 19.346C14.3317 20.1178 13.9675 20.6663 13.4062 20.856C14.427 21.3135 12.242 23.0751 13.56 22.3623C12.7326 23.8627 12.103 24.7569 12.1358 25.4274C12.17 26.1246 12.6286 25.3458 12.6775 25.4409C12.7162 25.5166 12.4628 25.8147 12.4279 25.8738C12.2462 26.1806 12.116 26.518 12.0766 26.8746C12.025 27.3397 12.1967 27.7977 12.0961 28.2596C11.9936 28.7308 11.9062 29.1617 11.6576 29.4334C12.528 29.0893 12.5685 27.3884 12.7368 27.2738C12.7396 27.3755 12.7404 27.4698 12.8283 27.5338C12.9163 27.598 13.5844 27.2825 13.642 27.2537C13.0559 28.2051 12.6698 30.6806 12.7062 31.2857C12.7549 32.0937 13.1898 31.0416 13.4027 30.8955C13.1149 31.4097 12.5983 33.4464 13.152 33.9517C13.143 33.6531 13.3063 33.5162 13.4201 33.27C13.3035 33.685 13.2807 34.1436 13.3871 34.565C13.5363 34.0049 13.8615 33.8899 14.1332 33.4673C14.2453 34.1103 13.6899 35.5557 13.8714 36.1993C13.998 35.8968 14.4287 34.9648 14.6263 34.7326C14.5651 35.1067 14.0371 36.1868 13.9322 36.5448C13.83 36.8954 13.8941 37.2976 13.985 37.6426C14.1837 38.3965 14.9042 38.9298 14.3792 39.6676C15.45 39.1892 15.1792 37.8342 15.0712 36.9103C15.1259 37.0365 15.2971 37.5688 15.5237 37.4977C15.7081 37.4398 15.5698 36.9714 15.7045 36.8427C15.7189 37.0882 15.9555 37.2317 15.9892 37.4701C16.0197 37.6864 16.0887 37.9136 15.8596 38.2738C16.7071 37.8542 17.7935 34.7298 16.939 33.7872C17.0128 33.8055 17.3806 34.1279 17.427 34.0202C17.5581 33.7159 17.2916 33.2762 17.4327 32.9184C17.6614 33.379 17.7011 32.4753 17.8181 32.2581C17.8221 32.2503 17.8264 32.2432 17.8309 32.2373C17.8294 32.2497 17.8277 32.262 17.8262 32.2743C17.7679 32.7454 17.6897 33.2318 17.861 33.8291C18.0666 34.5457 18.2606 36.7901 17.1935 38.2195C18.3973 37.5322 18.9349 35.1822 19.0827 34.7509C19.361 33.9392 19.4139 32.9075 19.0349 32.5431C19.3337 32.6325 19.9015 31.9416 19.4988 30.8333C17.2663 22.5208 23.9833 20.5239 23.924 17.5881C21.9595 14.6448 19.3868 12.2679 20.0975 8.50124L20.0972 8.50103Z" fill="white"/>
<path d="M23.3607 8.98185C23.5779 8.99144 23.7617 8.82232 23.771 8.60395C23.7741 8.53541 23.7595 8.47046 23.7315 8.413C23.8574 8.45517 23.9809 8.5255 24.0842 8.63875C24.3003 8.87556 24.261 9.14222 24.261 9.14222C24.261 9.14222 24.674 8.68155 24.3529 8.37346C24.0317 8.06504 23.5926 7.97025 23.0948 8.07453C22.5968 8.17871 22.0605 8.30461 21.6118 7.95096C21.83 8.50663 23.0044 9.00315 23.0044 9.00315C23.0044 9.00315 22.795 8.81747 22.7693 8.64001C22.7486 8.49672 22.8715 8.43092 23.0347 8.3937C23.0055 8.44589 22.9872 8.50557 22.9846 8.56958C22.975 8.78794 23.1435 8.97246 23.3607 8.98185Z" fill="white"/>
<path d="M23.5692 7.35584C23.2777 7.28024 22.7713 7.24545 21.4101 7.3958C22.321 7.41056 23.0181 7.4829 23.3438 7.53941C23.6494 7.59203 24.5499 8.16763 24.771 8.18154C24.958 8.19314 25.0866 8.05575 24.984 7.89675C24.8586 7.70211 23.8439 7.42722 23.5692 7.35584Z" fill="white"/>
<path d="M27.9399 8.95854C27.5328 8.99207 27.4922 8.78013 27.3141 8.62398C27.088 8.42533 26.7399 8.4383 26.4799 8.58739C26.0928 8.80913 25.9754 9.14158 26.057 9.38051C26.0693 9.24797 26.1037 9.1477 26.1526 9.07052C26.176 9.20759 26.2918 9.31493 26.4359 9.32136C26.6017 9.32842 26.7422 9.19936 26.7495 9.03266C26.7533 8.94103 26.7161 8.85742 26.6544 8.7989C26.6874 8.79247 26.7201 8.78667 26.7519 8.78077C27.182 8.69873 27.2509 9.23089 27.9399 8.95854Z" fill="white"/>
<path d="M25.3984 12.7419C25.3485 12.5659 25.348 12.3108 25.1577 12.4416C24.9675 12.5724 24.9013 12.4999 24.7906 12.3908C24.68 12.2816 24.4886 12.3978 24.3012 12.5085C23.8987 12.7458 23.2819 12.603 23.2819 12.603C23.2819 12.603 23.9503 13.3123 24.4703 13.3967C24.9481 13.4745 25.0939 13.3806 25.1755 13.2942C25.2571 13.2081 25.2176 12.9195 25.2176 12.9195C25.2176 12.9195 25.4484 12.918 25.3983 12.742L25.3984 12.7419Z" fill="white"/>
<path d="M27.1946 8.21402C27.371 8.21096 27.6245 7.98711 27.4684 7.97382C27.3121 7.96064 26.8539 7.97235 26.7011 8.02222C26.5485 8.0722 26.4063 8.31186 26.5291 8.37397C26.6517 8.43607 26.774 8.22076 27.1945 8.21402H27.1946Z" fill="white"/>
<path d="M24.5269 11.5944C24.2639 11.5829 25.1931 11.8321 25.2197 11.8137C25.2465 11.7955 25.0538 11.5923 24.9057 11.5353C24.7577 11.4784 24.7897 11.6058 24.5268 11.5943L24.5269 11.5944Z" fill="white"/>
<path d="M11.9903 33.1051C11.876 32.7737 11.7575 32.0979 12.1658 31.8219C12.5181 31.5838 11.9194 31.4517 11.9928 30.8009C11.6042 31.4465 11.4077 32.4769 11.9903 33.1051Z" fill="white"/>
<path d="M12.843 36.5148C14.1288 35.8002 12.7432 34.9386 13.1053 34.604C13.418 34.3152 12.8064 34.2753 12.7812 33.6208C11.9127 34.893 13.39 36.1574 12.843 36.5148Z" fill="white"/>
<path d="M11.6495 28.2433C11.5962 28.766 10.9945 29.7205 9.83392 30.3738C10.4175 30.3131 11.9998 29.5198 11.6495 28.2433Z" fill="white"/>
<path d="M13.8277 36.5527C13.5223 36.6912 13.2063 37.148 12.8547 37.0166C12.9387 37.164 13.1248 37.4746 13.2729 37.3533C12.9036 38.3543 13.8375 38.9184 13.6815 39.4092C14.2719 38.7914 13.4832 37.4274 13.8277 36.5527Z" fill="white"/>
<path d="M9.97843 27.8072C9.88052 27.1569 10.4193 26.1892 10.7653 26.1156C11.0585 26.0528 11.3224 25.8502 11.3781 25.5411C11.434 25.2307 11.2076 24.9869 11.4643 24.7297C11.0509 24.8305 10.7074 25.0866 10.469 25.4368C10.3253 25.6483 10.1569 26.065 10.5928 25.8776C10.1128 26.3038 9.68334 27.0301 9.97843 27.8072Z" fill="white"/>
<path d="M10.5456 32.8592C10.658 32.7532 10.8089 32.6973 10.953 32.7813C10.0801 33.1987 11.7195 34.3589 10.6319 34.5843C11.2155 34.8699 11.7063 34.1175 11.6582 33.436C11.6064 32.6995 11.1215 31.6758 11.9586 30.6341C11.484 30.707 10.4522 32.3384 10.5457 32.8592H10.5456Z" fill="white"/>
<path d="M9.88512 22.8771C10.0189 22.7999 10.1784 22.7805 10.2995 22.8955C9.35433 23.0998 10.6839 24.6079 9.57397 24.5758C10.0764 24.9886 10.7262 24.37 10.8358 23.6956C10.9541 22.9669 10.7775 22.2159 11.8307 21.396C11.3523 21.3569 9.91346 22.3487 9.88512 22.8771Z" fill="white"/>
<path d="M12.2142 40.7318C13.6749 41.0316 13.7919 39.6809 13.3393 39.2176C13.3844 40.226 12.9595 40.6176 12.2142 40.7318Z" fill="white"/>
<path d="M8.32088 17.6781C8.68303 17.5996 8.34387 17.35 8.72868 16.9047C8.1322 17.2644 7.46834 17.9486 7.54096 18.5481C7.63373 18.2819 7.90112 17.769 8.32088 17.6781Z" fill="white"/>
<path d="M11.6541 24.1754C11.3964 23.933 11.2508 23.1628 11.6335 22.1492C11.2914 22.5524 10.7154 23.8955 11.6541 24.1754Z" fill="white"/>
<path d="M8.42278 19.9694C8.45164 20.0823 8.51985 20.3203 8.67233 20.23C8.10628 20.985 8.71357 21.4245 8.45626 21.7949C9.09976 21.3334 8.82313 20.2888 9.33566 19.6294C9.05096 19.7308 8.67296 20.0736 8.42268 19.9695L8.42278 19.9694Z" fill="white"/>
<path d="M12.0216 20.8687C12.0143 21.0561 12.0824 21.3586 12.3116 21.0131C12.1594 21.5014 12.1802 22.1076 12.747 22.3171C12.3801 22.0549 12.3283 21.2668 12.5444 21.0293C12.7272 20.828 12.8256 20.5751 12.725 20.3911C12.6239 20.2063 12.3497 20.2183 12.4177 19.9429C12.1654 20.2326 12.034 20.5581 12.0215 20.8686L12.0216 20.8687Z" fill="white"/>
<path d="M10.4998 10.7724C10.7665 10.1913 11.2345 8.36111 12.2573 7.68787C11.8908 7.66699 10.097 9.72171 9.94862 10.1421C10.072 10.0781 10.2021 10.0591 10.2695 10.1479C9.47859 10.3299 10.1626 11.5001 9.29861 11.4977C9.59465 11.8152 10.2528 11.3102 10.4998 10.7723V10.7724Z" fill="white"/>
<path d="M7.53772 22.2873C8.64306 22.5325 8.47369 22.0023 8.2297 21.6452C7.99789 22.4109 8.17282 22.2096 7.53772 22.2873Z" fill="white"/>
<path d="M14.1442 2.54829C14.2319 2.41059 14.4435 2.19307 14.6607 2.35766C14.848 2.49979 14.7247 2.13813 14.982 2.03258C14.6363 1.96183 14.2058 2.08425 14.1442 2.54829Z" fill="white"/>
<path d="M12.4785 6.06894C12.3362 5.87978 12.024 5.79121 12.0135 5.47415C11.955 5.5895 11.8336 5.83919 11.9312 5.91236C11.3204 5.9674 11.2352 6.88157 10.9415 6.92807C11.4006 7.17438 11.9399 6.10026 12.4785 6.06894Z" fill="white"/>
<path d="M12.508 7.01726C12.6687 7.05701 12.8527 6.98405 12.9631 6.77064C13.0739 6.55607 13.0282 6.30786 13.2233 6.19187C12.9935 6.14516 12.7562 6.23405 12.5452 6.42437C12.418 6.53941 12.2232 6.80016 12.4874 6.78909C12.1376 6.96475 11.5117 7.44967 11.4478 8.11511C11.5744 7.60224 12.3187 6.97002 12.5081 7.01737L12.508 7.01726Z" fill="white"/>
<path d="M13.929 2.43853C14.1816 2.24442 14.8077 1.39615 15.4256 1.62675C15.2634 1.37981 13.9827 1.5231 13.8202 1.6917C13.8908 1.7304 13.9543 1.80146 13.965 1.90015C13.5636 1.5096 13.6112 2.67946 13.2183 2.12653C13.2815 2.51466 13.6951 2.6182 13.929 2.43864V2.43853Z" fill="white"/>
<path d="M10.9647 6.59815C10.444 6.97636 10.6138 6.98437 10.3846 6.44684C10.5581 7.67838 10.8234 7.10616 10.9647 6.59815Z" fill="white"/>
<path d="M20.5098 32.5983C20.5037 32.8449 20.6273 32.8116 20.7604 32.9364C21.0015 33.1615 20.9238 33.4404 20.8125 33.6046C20.6885 33.787 20.836 34.0679 20.9742 34.237C21.1241 34.4204 20.9886 34.5715 21.2147 34.8017C20.7372 34.704 20.5779 34.0392 20.6173 33.5693C20.5293 33.7759 20.4281 33.7546 20.3724 33.5165C20.3193 33.2872 20.2878 32.9466 20.5098 32.5983Z" fill="white"/>
<path d="M21.4482 35.1033C21.5446 35.2155 21.6951 35.3869 21.4999 35.492C21.3469 35.5738 21.2473 35.8838 21.477 36.3681C21.1014 36.0438 21.1339 35.1655 21.3682 34.6571C21.3679 34.8614 21.372 35.0153 21.4482 35.1032V35.1033Z" fill="white"/>
<path d="M20.3994 34.2618C20.0595 34.0547 19.3206 33.1094 19.9028 32.4302C19.7844 32.7655 19.8779 33.5244 20.3994 34.2618Z" fill="white"/>
<path d="M18.8032 23.922C18.8594 23.7931 18.5949 24.0189 18.6614 23.8579C19.3757 22.1258 21.5497 21.0091 22.1991 20.8114C21.4803 21.2803 21.0466 21.9562 20.8237 22.6155C20.963 22.4103 21.1311 22.2177 21.3096 22.0908C21.1346 22.347 21.0342 22.517 20.9798 22.7343C21.2343 22.4954 21.5274 22.1162 21.7547 22.0024C21.5845 21.9901 21.3757 22.2187 21.3647 22.2094C21.5428 21.1955 22.4988 21.2638 22.5822 20.4266C22.5254 20.5285 22.4027 20.5953 22.3774 20.8481C22.3643 20.686 22.3518 20.2128 22.8565 19.8461C22.6736 19.9369 22.4692 19.9016 22.4667 20.0647C22.4642 20.2321 22.4262 20.3845 22.3401 20.5402C22.4679 20.0798 22.2317 20.0554 22.3564 19.8919C22.3936 19.8428 22.4362 19.8034 22.4844 19.772C22.6098 19.4317 23.0002 19.1837 23.2388 19.2266C23.0435 19.0695 22.7535 19.248 22.5977 19.3519C22.7187 19.1866 23.0062 19.0696 23.1998 19.0289C23.1209 19.0379 22.9958 19.0429 22.9422 19.0041C23.0029 18.9863 23.135 18.9239 23.3137 18.8379C23.2347 18.8393 23.1532 18.8543 23.0607 18.9188C23.172 18.6345 23.516 18.4095 23.6574 18.1359C23.6135 18.1603 23.501 18.2284 23.4283 18.3243L18.8032 23.922ZM19.2943 23.1899L19.2987 23.1854L19.2943 23.1899ZM19.7651 27.6176L19.7572 27.6364C19.7599 27.6301 19.7624 27.6239 19.7651 27.6176ZM19.7243 27.7178C19.7213 27.725 19.7187 27.7323 19.7159 27.7395C19.7187 27.7323 19.7213 27.725 19.7243 27.7178ZM19.7058 27.7664C19.7028 27.7744 19.6999 27.7822 19.6971 27.7901C19.6999 27.7823 19.7028 27.7744 19.7058 27.7664ZM19.6886 27.8138C19.6857 27.8221 19.6828 27.8306 19.68 27.8389C19.6828 27.8306 19.6857 27.8221 19.6886 27.8138ZM19.6724 27.861C19.6696 27.8697 19.6669 27.8782 19.664 27.8868C19.6669 27.8782 19.6696 27.8697 19.6724 27.861ZM19.6582 27.9053C19.6552 27.9146 19.6524 27.9239 19.6497 27.933C19.6524 27.9238 19.6552 27.9145 19.6582 27.9053ZM19.6444 27.9505C19.6418 27.9594 19.6393 27.9683 19.6368 27.977C19.6393 27.9683 19.6418 27.9594 19.6444 27.9505ZM19.6319 27.9946C19.6292 28.0041 19.6268 28.0135 19.6243 28.0228C19.6268 28.0134 19.6292 28.004 19.6319 27.9946ZM18.8608 29.2309C18.8284 29.205 18.7954 29.1786 18.7619 29.1521C18.7954 29.1786 18.8284 29.205 18.8608 29.2309ZM18.7601 29.1506C18.7186 29.1177 18.6765 29.0847 18.6343 29.0525C18.6765 29.0847 18.7186 29.1178 18.7601 29.1506ZM18.6322 29.0508C18.622 29.0431 18.612 29.0355 18.6019 29.0281C18.612 29.0355 18.622 29.0431 18.6322 29.0508ZM18.5994 29.0263C18.5787 29.0108 18.558 28.9956 18.5373 28.9808C18.558 28.9956 18.5787 29.0108 18.5994 29.0263ZM18.5358 28.9797C18.5257 28.9726 18.5158 28.9655 18.5058 28.9586C18.5158 28.9655 18.5257 28.9726 18.5358 28.9797ZM18.5027 28.9564C18.4925 28.9494 18.4825 28.9425 18.4723 28.9358C18.4825 28.9425 18.4925 28.9494 18.5027 28.9564ZM18.4711 28.935C18.4507 28.9212 18.4304 28.9081 18.4101 28.8955C18.4304 28.9081 18.4507 28.9212 18.4711 28.935ZM18.4071 28.8935C18.3975 28.8877 18.3881 28.882 18.3787 28.8764C18.3882 28.882 18.3976 28.8877 18.4071 28.8935ZM18.3742 28.8739C18.3648 28.8684 18.3552 28.8628 18.346 28.8577C18.3553 28.8628 18.3649 28.8684 18.3742 28.8739ZM18.3439 28.8565C18.334 28.8511 18.3244 28.8458 18.3146 28.8408C18.3244 28.8458 18.334 28.8511 18.3439 28.8565ZM18.3141 28.8405C18.3045 28.8356 18.2951 28.8309 18.2859 28.8263C18.2952 28.8309 18.3046 28.8356 18.3141 28.8405ZM18.2822 28.8247C18.2731 28.8203 18.2639 28.8161 18.255 28.8122C18.264 28.8161 18.2732 28.8203 18.2822 28.8247ZM18.2514 28.8106C18.2422 28.8067 18.2331 28.8029 18.224 28.7994C18.2332 28.8029 18.2423 28.8066 18.2514 28.8106ZM18.2224 28.7988C18.2131 28.7952 18.2041 28.792 18.1951 28.7889C18.2042 28.792 18.2132 28.7952 18.2224 28.7988ZM18.1938 28.7884C18.1851 28.7854 18.1764 28.7829 18.1677 28.7804C18.1764 28.7829 18.1851 28.7854 18.1938 28.7884ZM18.1637 28.7792C18.1553 28.7769 18.1471 28.7749 18.1389 28.7731C18.1471 28.7749 18.1553 28.7769 18.1637 28.7792ZM18.1348 28.7723C18.1264 28.7705 18.1182 28.7689 18.1099 28.7677C18.1182 28.769 18.1264 28.7706 18.1348 28.7723ZM18.1082 28.7675C18.1 28.7662 18.0919 28.7654 18.0839 28.7648C18.0919 28.7654 18.1 28.7662 18.1082 28.7675ZM18.0817 28.7646C18.0738 28.764 18.0659 28.7638 18.0581 28.7638C18.0659 28.7638 18.0738 28.764 18.0817 28.7646ZM18.0544 28.7638C18.0468 28.764 18.0393 28.7645 18.032 28.7652C18.0393 28.7645 18.0468 28.764 18.0544 28.7638ZM18.0283 28.7656C18.0208 28.7665 18.0132 28.7675 18.0059 28.7691C18.0132 28.7675 18.0208 28.7665 18.0283 28.7656ZM18.0046 28.7694C17.9974 28.7709 17.9903 28.7728 17.9833 28.7749C17.9903 28.7727 17.9974 28.7709 18.0046 28.7694ZM17.9808 28.7756C17.9739 28.778 17.9671 28.7805 17.9604 28.7834C17.9671 28.7805 17.9739 28.778 17.9808 28.7756ZM17.9567 28.7851C17.9501 28.7882 17.9436 28.7914 17.9373 28.7951C17.9436 28.7914 17.9501 28.7882 17.9567 28.7851ZM17.9342 28.797C17.9277 28.8009 17.9212 28.8053 17.915 28.8099C17.9212 28.8053 17.9277 28.8009 17.9342 28.797ZM17.9144 28.8104C17.9081 28.8151 17.9021 28.8203 17.896 28.8258C17.902 28.8203 17.908 28.8151 17.9144 28.8104ZM17.8937 28.828C17.8879 28.8335 17.8823 28.8395 17.8767 28.8458C17.8823 28.8395 17.8879 28.8336 17.8937 28.828ZM17.8738 28.8492C17.8683 28.8556 17.8629 28.8622 17.8578 28.8694C17.8629 28.8622 17.8684 28.8556 17.8738 28.8492ZM17.8554 28.873C17.85 28.8805 17.8448 28.8885 17.8397 28.897C17.8448 28.8885 17.85 28.8805 17.8554 28.873ZM17.0253 29.0949C17.0292 29.0946 17.0332 29.0942 17.0371 29.0937C17.0332 29.0942 17.0292 29.0946 17.0253 29.0949ZM17.2895 29.0832C17.2957 29.0832 17.3018 29.0833 17.308 29.0834L17.2895 29.0832ZM17.3974 29.0865C17.4049 29.0869 17.4123 29.0874 17.4199 29.0878C17.4123 29.0874 17.4049 29.0869 17.3974 29.0865ZM17.5203 29.0957C17.5288 29.0966 17.5373 29.0975 17.5458 29.0985C17.5373 29.0975 17.5288 29.0966 17.5203 29.0957ZM17.6398 29.1105C17.6496 29.112 17.6591 29.1135 17.6687 29.1149C17.6591 29.1134 17.6496 29.1119 17.6398 29.1105ZM17.757 29.1308C17.7685 29.1331 17.7802 29.1353 17.7917 29.1378C17.7802 29.1353 17.7685 29.1331 17.757 29.1308ZM17.8711 29.1561C17.8853 29.1596 17.8995 29.1632 17.9136 29.167C17.8995 29.1632 17.8853 29.1596 17.8711 29.1561ZM17.9825 29.1864C17.9985 29.1912 18.0147 29.1962 18.0306 29.2013C18.0147 29.1962 17.9985 29.1912 17.9825 29.1864ZM18.0915 29.2216C18.1089 29.2277 18.1261 29.2339 18.1434 29.2404C18.1261 29.234 18.1089 29.2278 18.0915 29.2216ZM18.1971 29.2612C18.2162 29.2688 18.2351 29.2767 18.254 29.2847C18.2351 29.2767 18.2162 29.2688 18.1971 29.2612ZM18.3007 29.3054C18.3236 29.3158 18.3464 29.3265 18.3691 29.3376C18.3464 29.3265 18.3236 29.3158 18.3007 29.3054ZM18.401 29.3534C18.4262 29.3662 18.4511 29.3794 18.4758 29.3929C18.4511 29.3794 18.4261 29.3662 18.401 29.3534ZM18.4985 29.4053C18.5252 29.4202 18.5517 29.4356 18.5779 29.4514C18.5517 29.4356 18.5252 29.4202 18.4985 29.4053ZM18.5908 29.4593C18.6191 29.4766 18.6474 29.4944 18.6752 29.5128C18.6474 29.4944 18.6191 29.4766 18.5908 29.4593ZM14.9216 36.3965C14.9128 36.4111 14.9032 36.4223 14.8924 36.4285C14.8503 36.36 14.8085 36.2912 14.7674 36.222C14.5542 35.5428 14.0832 33.406 14.0602 32.8223C13.9802 32.8007 13.9904 33.0008 13.9044 33.0364C13.7567 33.0973 13.6989 30.5761 14.1595 29.5192L14.9216 36.3965ZM15.6209 43.309C15.6195 43.3085 15.6182 43.308 15.6169 43.3075C15.5996 43.3005 15.5689 43.2247 15.5295 43.0993L15.6209 43.309ZM15.775 43.4835C15.7608 43.4993 15.7419 43.5277 15.7123 43.5186L15.775 43.4835ZM15.6311 40.2426C15.6285 40.2357 15.6261 40.2291 15.6236 40.2223C15.6261 40.2291 15.6285 40.2357 15.6311 40.2426ZM15.6183 40.2077C15.6156 40.2008 15.6131 40.194 15.6105 40.1871C15.6131 40.194 15.6156 40.2008 15.6183 40.2077ZM15.6052 40.173C15.6026 40.1663 15.6002 40.1599 15.5976 40.1534C15.6002 40.1599 15.6026 40.1663 15.6052 40.173ZM15.592 40.1386C15.5897 40.1328 15.5875 40.1271 15.5852 40.1213C15.5875 40.127 15.5897 40.1328 15.592 40.1386ZM15.5788 40.1052C15.5763 40.0992 15.574 40.0933 15.5716 40.0873C15.574 40.0932 15.5763 40.0991 15.5788 40.1052ZM15.5659 40.0734C15.5631 40.0667 15.5604 40.0603 15.5576 40.0537C15.5604 40.0603 15.5631 40.0667 15.5659 40.0734ZM15.5527 40.0419C15.5501 40.036 15.5477 40.0303 15.5452 40.0244C15.5477 40.0302 15.5501 40.0359 15.5527 40.0419ZM15.5392 40.0107C15.5369 40.0054 15.5347 40.0003 15.5324 39.9951C15.5347 40.0003 15.5369 40.0054 15.5392 40.0107ZM15.5261 39.981C15.5241 39.9768 15.5222 39.9724 15.5202 39.9682C15.5222 39.9724 15.5241 39.9768 15.5261 39.981ZM15.5127 39.9519C15.5106 39.9476 15.5086 39.9432 15.5066 39.939C15.5086 39.9432 15.5106 39.9476 15.5127 39.9519ZM15.4998 39.9249C15.497 39.9193 15.4944 39.9138 15.4917 39.9084C15.4944 39.9138 15.497 39.9193 15.4998 39.9249ZM15.4866 39.898C15.4838 39.8926 15.4811 39.8872 15.4783 39.882C15.4811 39.8872 15.4838 39.8926 15.4866 39.898ZM15.4734 39.8724C15.4705 39.867 15.4678 39.8616 15.4648 39.8564C15.4677 39.8616 15.4705 39.867 15.4734 39.8724ZM15.4602 39.8478C15.4578 39.8434 15.4554 39.8392 15.453 39.8349C15.4554 39.8392 15.4578 39.8434 15.4602 39.8478ZM15.4471 39.8243C15.4427 39.8167 15.4384 39.8093 15.4341 39.8023C15.4384 39.8093 15.4428 39.8167 15.4471 39.8243ZM16.2578 40.8138C16.2384 40.7742 16.2193 40.7355 16.2007 40.698C16.2194 40.7355 16.2382 40.7742 16.2578 40.8138ZM16.1155 40.5265C16.0991 40.4937 16.0834 40.4623 16.0681 40.4321L16.1155 40.5265ZM16.1139 40.5235C16.0985 40.4927 16.0836 40.4634 16.0694 40.4354C16.0836 40.4633 16.0985 40.4927 16.1139 40.5235ZM16.0273 40.3529C16.0146 40.3282 16.0027 40.305 15.9916 40.2837C16.0028 40.3051 16.0146 40.3281 16.0273 40.3529ZM15.9441 40.1931C15.9402 40.1856 15.9363 40.1787 15.9328 40.1721L15.9441 40.1931ZM15.932 40.1706C15.9283 40.1638 15.9249 40.1574 15.9216 40.1515C15.9229 40.1586 15.9247 40.167 15.9267 40.1766C15.9246 40.1671 15.9229 40.1586 15.9216 40.1515C15.9249 40.1573 15.9283 40.1637 15.932 40.1706ZM15.9271 40.1779C15.9292 40.1873 15.9315 40.1978 15.9344 40.2094C15.9315 40.1979 15.9292 40.1873 15.9271 40.1779ZM15.9348 40.2107C15.9377 40.2225 15.9408 40.2356 15.9446 40.2498C15.9408 40.2356 15.9377 40.2227 15.9348 40.2107ZM15.9448 40.2506C15.9485 40.2645 15.9524 40.2795 15.9567 40.2955C15.9524 40.2795 15.9484 40.2645 15.9448 40.2506ZM15.9577 40.2994C15.9619 40.315 15.9666 40.3316 15.9714 40.349C15.9666 40.3316 15.9619 40.315 15.9577 40.2994ZM15.9723 40.3522C15.9772 40.3697 15.9825 40.3881 15.988 40.4075C15.9825 40.3882 15.9772 40.3697 15.9723 40.3522ZM15.99 40.4143C15.9953 40.433 16.001 40.4523 16.0069 40.4723C16.001 40.4523 15.9954 40.4329 15.99 40.4143ZM16.0095 40.4815C16.0152 40.5014 16.0213 40.5222 16.0277 40.5435C16.0214 40.5222 16.0154 40.5014 16.0095 40.4815ZM16.0306 40.5533C16.0372 40.5756 16.0441 40.5987 16.0512 40.6224C16.0441 40.5987 16.0372 40.5756 16.0306 40.5533ZM16.0541 40.6317C16.0612 40.6554 16.0687 40.6798 16.0763 40.7049C16.0687 40.6797 16.0612 40.6553 16.0541 40.6317ZM16.0796 40.7152C16.0868 40.7391 16.0944 40.7637 16.1021 40.7887C16.0944 40.7636 16.0868 40.739 16.0796 40.7152ZM16.1089 40.8105C16.1157 40.8327 16.1228 40.8555 16.1301 40.8787C16.1228 40.8555 16.1157 40.8327 16.1089 40.8105ZM16.1383 40.9054C16.146 40.9297 16.1538 40.9546 16.1617 40.9798C16.1538 40.9545 16.146 40.9297 16.1383 40.9054ZM16.1689 41.0024C16.1766 41.0272 16.1846 41.0524 16.1928 41.0779C16.1846 41.0524 16.1766 41.0272 16.1689 41.0024ZM16.2014 41.1051C16.2102 41.1326 16.2193 41.1609 16.2283 41.1893C16.2191 41.1609 16.2101 41.1326 16.2014 41.1051ZM16.2365 41.2147C16.246 41.2442 16.2556 41.274 16.2653 41.3043C16.2555 41.2739 16.246 41.2442 16.2365 41.2147ZM16.2716 41.3237C16.2805 41.3513 16.2897 41.3793 16.2988 41.4076C16.2896 41.3793 16.2804 41.3512 16.2716 41.3237ZM16.3517 41.5686C16.3606 41.5957 16.3696 41.6231 16.3788 41.6506C16.3695 41.6231 16.3605 41.5957 16.3517 41.5686ZM16.8907 40.5128C16.8879 40.5073 16.8853 40.502 16.8827 40.4968C16.8853 40.502 16.8879 40.5073 16.8907 40.5128ZM16.8799 40.4913C16.8767 40.4852 16.8737 40.4793 16.8707 40.4736C16.8737 40.4792 16.8767 40.4851 16.8799 40.4913ZM16.8695 40.4714C16.8661 40.4653 16.8631 40.4595 16.86 40.4541C16.8631 40.4594 16.8661 40.4653 16.8695 40.4714ZM16.8594 40.453C16.8563 40.4476 16.8535 40.4425 16.8507 40.4379C16.8535 40.4425 16.8563 40.4476 16.8594 40.453ZM16.8504 40.4373C16.8474 40.4326 16.8447 40.4281 16.8421 40.4243C16.8445 40.438 16.8469 40.452 16.8495 40.4663C16.8469 40.4521 16.8445 40.4381 16.8421 40.4243C16.8447 40.4281 16.8474 40.4326 16.8504 40.4373ZM16.8498 40.4677C16.8524 40.4814 16.855 40.4953 16.8578 40.5096C16.855 40.4954 16.8524 40.4815 16.8498 40.4677ZM16.8584 40.5126C16.8612 40.5262 16.8639 40.54 16.8669 40.5542C16.8639 40.5401 16.8612 40.5263 16.8584 40.5126ZM16.8682 40.5603C16.8709 40.573 16.8737 40.5861 16.8766 40.5991C16.8737 40.5861 16.8709 40.573 16.8682 40.5603ZM16.8791 40.6103C16.8817 40.6221 16.8845 40.6341 16.8872 40.6461C16.8845 40.6341 16.8817 40.6221 16.8791 40.6103ZM16.4773 38.365C16.4839 38.3871 16.4909 38.41 16.4983 38.4336C16.4909 38.41 16.4839 38.3871 16.4773 38.365ZM16.4997 38.4379C16.507 38.4614 16.5147 38.4856 16.5227 38.5105C16.5147 38.4856 16.507 38.4615 16.4997 38.4379ZM16.5228 38.5108C16.531 38.536 16.5395 38.5618 16.5485 38.5882C16.5395 38.5618 16.531 38.536 16.5228 38.5108ZM16.5495 38.5915C16.5583 38.6176 16.5673 38.6443 16.5767 38.6717C16.5672 38.6444 16.5582 38.6176 16.5495 38.5915ZM16.5782 38.6758C16.5872 38.7023 16.5966 38.7292 16.6063 38.7567C16.5965 38.7292 16.5872 38.7022 16.5782 38.6758ZM16.6086 38.7635C16.6187 38.7918 16.6288 38.8208 16.6394 38.8502C16.6288 38.8208 16.6187 38.7919 16.6086 38.7635ZM16.6404 38.8529C16.6508 38.8816 16.6613 38.9108 16.6722 38.9405C16.6613 38.9109 16.6508 38.8817 16.6404 38.8529ZM16.6755 38.9499C16.6863 38.9793 16.6973 39.0092 16.7086 39.0396C16.6973 39.0092 16.6863 38.9793 16.6755 38.9499ZM16.7121 39.0491C16.7229 39.078 16.7338 39.1073 16.7449 39.1371C16.7338 39.1074 16.7229 39.0781 16.7121 39.0491ZM16.7495 39.1494C16.7612 39.1805 16.7732 39.212 16.7853 39.244C16.7732 39.212 16.7612 39.1805 16.7495 39.1494ZM16.7896 39.2552C16.8013 39.2857 16.8131 39.3165 16.825 39.3476C16.813 39.3165 16.8013 39.2857 16.7896 39.2552ZM16.8307 39.3624C16.8426 39.3933 16.8548 39.4246 16.8669 39.4561C16.8548 39.4246 16.8426 39.3933 16.8307 39.3624ZM16.8744 39.4752C16.8862 39.5053 16.8981 39.5358 16.9101 39.5666C16.8981 39.5358 16.8862 39.5053 16.8744 39.4752ZM16.9184 39.5877C16.931 39.6199 16.9439 39.6523 16.9568 39.685C16.9439 39.6522 16.931 39.6197 16.9184 39.5877ZM16.962 39.6985C16.9745 39.7299 16.9872 39.7617 16.9998 39.7935C16.9872 39.7617 16.9745 39.7299 16.962 39.6985ZM17.0119 39.8238C17.0239 39.854 17.0362 39.8846 17.0485 39.9153C17.0362 39.8846 17.0239 39.8541 17.0119 39.8238ZM17.057 39.9363C17.07 39.969 17.0833 40.0018 17.0968 40.0349C17.0833 40.0018 17.07 39.969 17.057 39.9363ZM17.1087 40.0647C17.1204 40.0936 17.1322 40.1226 17.1441 40.1519C17.1322 40.1227 17.1204 40.0937 17.1087 40.0647ZM17.8086 38.9147C17.8066 38.9133 17.8047 38.9119 17.8027 38.9107C17.8047 38.912 17.8066 38.9134 17.8086 38.9147ZM17.7938 38.9045C17.7917 38.9032 17.7897 38.9019 17.7876 38.9007L17.7848 38.899C17.7828 38.8977 17.7809 38.8965 17.7788 38.8953L17.7767 38.8941L17.772 38.8914L17.7692 38.8899C17.7671 38.8887 17.7651 38.8876 17.7629 38.8865C17.7651 38.8876 17.7671 38.8887 17.7692 38.8899L17.7938 38.9045ZM17.7783 38.8965C17.7759 38.8955 17.7737 38.8944 17.7713 38.8934C17.7737 38.8944 17.7759 38.8955 17.7783 38.8965ZM17.7692 38.8925C17.7669 38.8915 17.7646 38.8905 17.7623 38.8896C17.7646 38.8905 17.7669 38.8915 17.7692 38.8925ZM17.761 38.889C17.7588 38.8882 17.7567 38.8874 17.7546 38.8865C17.7567 38.8874 17.7588 38.8882 17.761 38.889ZM17.7529 38.8859C17.7504 38.8849 17.7482 38.8841 17.7458 38.8834C17.7482 38.8841 17.7504 38.8849 17.7529 38.8859ZM17.7437 38.8826C17.7416 38.8819 17.7396 38.8812 17.7374 38.8806C17.7396 38.8812 17.7416 38.8819 17.7437 38.8826ZM17.736 38.8802C17.7335 38.8794 17.7311 38.8787 17.7287 38.8781L17.7266 38.8776C17.7242 38.8769 17.7218 38.8763 17.7194 38.8758L17.719 38.8757L17.7182 38.8754C17.7159 38.8749 17.7136 38.8745 17.7113 38.8741C17.7136 38.8745 17.7159 38.8749 17.7182 38.8754L17.736 38.8802ZM17.727 38.8784C17.7245 38.8779 17.7221 38.8774 17.7195 38.877C17.722 38.8774 17.7245 38.8779 17.727 38.8784ZM17.7178 38.8768C17.7154 38.8765 17.7131 38.8762 17.7108 38.8759C17.7131 38.8762 17.7154 38.8765 17.7178 38.8768ZM17.7095 38.8758C17.7068 38.8754 17.7042 38.8751 17.7014 38.8749L17.6999 38.8748C17.6971 38.8746 17.6945 38.8744 17.6918 38.8743H17.6916H17.6915C17.6887 38.8742 17.6861 38.8741 17.6834 38.8741C17.6861 38.8741 17.6887 38.8742 17.6915 38.8743L17.7095 38.8758ZM17.6995 38.8755C17.6968 38.8755 17.6942 38.8755 17.6915 38.8757C17.6942 38.8755 17.6968 38.8755 17.6995 38.8755ZM17.6898 38.8758C17.6874 38.8759 17.6851 38.876 17.6825 38.8761C17.6851 38.876 17.6874 38.8759 17.6898 38.8758ZM17.6811 38.8762C17.6782 38.8764 17.6754 38.8767 17.6726 38.877C17.6754 38.8767 17.6782 38.8764 17.6811 38.8762ZM17.6712 38.8771C17.6682 38.8774 17.6653 38.8779 17.6623 38.8783C17.6653 38.8779 17.6682 38.8774 17.6712 38.8771ZM18.583 38.1873C18.5626 38.1736 18.542 38.1602 18.5218 38.1471C18.542 38.1601 18.5626 38.1736 18.583 38.1873ZM18.5053 38.1365C18.4859 38.1242 18.4666 38.1121 18.4475 38.1002C18.4666 38.1121 18.4859 38.1242 18.5053 38.1365ZM18.4309 38.09C18.4117 38.0782 18.3924 38.0667 18.3734 38.0554C18.3925 38.0667 18.4117 38.0781 18.4309 38.09ZM18.3577 38.0463C18.3377 38.0347 18.3178 38.0233 18.2979 38.0121L18.2846 38.0046C18.2635 37.9929 18.2425 37.9815 18.2215 37.9704L18.3577 38.0463ZM18.3448 38.0394C18.3258 38.0295 18.3069 38.0198 18.2882 38.0104C18.3069 38.0198 18.3258 38.0296 18.3448 38.0394ZM18.2734 38.003C18.2551 37.9941 18.2371 37.9853 18.2191 37.9768C18.2371 37.9853 18.2551 37.9941 18.2734 38.003ZM18.2047 37.9701C18.1866 37.9617 18.1687 37.9536 18.1509 37.9457C18.1687 37.9536 18.1866 37.9617 18.2047 37.9701ZM18.1378 37.94C18.1192 37.9319 18.1008 37.9241 18.0826 37.9167C18.1008 37.9241 18.1192 37.9319 18.1378 37.94ZM18.0704 37.9117C18.0512 37.9039 18.0321 37.8965 18.0131 37.8894C18.0321 37.8965 18.0511 37.9039 18.0704 37.9117ZM18.0034 37.8858C17.9857 37.8792 17.9682 37.873 17.9509 37.867C17.9682 37.8729 17.9857 37.8791 18.0034 37.8858ZM17.9392 37.8631C17.9223 37.8574 17.9057 37.852 17.8893 37.847C17.9058 37.852 17.9224 37.8574 17.9392 37.8631ZM17.8783 37.8437C17.8615 37.8386 17.8449 37.8339 17.8285 37.8295C17.845 37.8338 17.8616 37.8386 17.8783 37.8437ZM17.8197 37.827C17.8025 37.8225 17.7854 37.8182 17.7687 37.8144C17.7855 37.8182 17.8026 37.8225 17.8197 37.827ZM17.7619 37.8127C17.7444 37.8088 17.7274 37.8052 17.7105 37.8021C17.7274 37.8052 17.7445 37.8087 17.7619 37.8127ZM17.7037 37.8009C17.688 37.7979 17.6725 37.7954 17.6573 37.7932C17.6725 37.7954 17.688 37.7979 17.7037 37.8009ZM17.6493 37.792C17.6344 37.7899 17.6198 37.7882 17.6055 37.7869C17.6198 37.7884 17.6344 37.79 17.6493 37.792ZM17.5982 37.7861C17.5836 37.7849 17.5694 37.7838 17.5555 37.7832C17.5694 37.7838 17.5836 37.7849 17.5982 37.7861ZM17.5493 37.7829C17.5345 37.7822 17.5199 37.782 17.5057 37.7822C17.5199 37.782 17.5345 37.7822 17.5493 37.7829ZM17.5032 37.7822C17.4885 37.7826 17.4742 37.7832 17.4603 37.7842C17.4742 37.7832 17.4885 37.7826 17.5032 37.7822ZM17.4563 37.7847C17.4434 37.7857 17.4306 37.7872 17.4184 37.789C17.4306 37.7871 17.4434 37.7856 17.4563 37.7847ZM17.4137 37.7897C17.4017 37.7916 17.3901 37.7937 17.3789 37.7964C17.3902 37.7937 17.4017 37.7916 17.4137 37.7897ZM17.3741 37.7974C17.3627 37.8002 17.3516 37.8032 17.3409 37.8068C17.3516 37.8032 17.3627 37.8002 17.3741 37.7974ZM17.3379 37.8078C17.3265 37.8115 17.3154 37.8158 17.3048 37.8203C17.3154 37.8158 17.3264 37.8114 17.3379 37.8078ZM17.3043 37.8205C17.2935 37.8253 17.2835 37.8305 17.2736 37.836C17.2835 37.8305 17.2935 37.8253 17.3043 37.8205ZM17.2715 37.8373C17.2624 37.8425 17.2537 37.8483 17.2454 37.8544C17.2537 37.8483 17.2624 37.8427 17.2715 37.8373ZM17.2427 37.8565C17.2348 37.8625 17.2272 37.8688 17.22 37.8757C17.2272 37.8689 17.2348 37.8626 17.2427 37.8565ZM17.2175 37.878C17.2103 37.8848 17.2035 37.8922 17.1972 37.8999C17.2035 37.8922 17.2103 37.8848 17.2175 37.878ZM17.1956 37.9018C17.1888 37.9102 17.1826 37.919 17.1768 37.9283C17.1825 37.919 17.1887 37.9102 17.1956 37.9018ZM17.6067 37.9378C17.6111 37.939 17.6157 37.9403 17.6201 37.9416C17.6157 37.9403 17.6111 37.939 17.6067 37.9378ZM17.6527 37.9513C17.6593 37.9533 17.6659 37.9553 17.6725 37.9574C17.6659 37.9553 17.6593 37.9533 17.6527 37.9513ZM17.7018 37.9671C17.7087 37.9695 17.7157 37.9718 17.7227 37.9745C17.7157 37.9719 17.7087 37.9695 17.7018 37.9671ZM17.7539 37.9857C17.7602 37.9882 17.7665 37.9905 17.7729 37.9929C17.7666 37.9905 17.7603 37.9882 17.7539 37.9857ZM17.8033 38.0049C17.8112 38.0082 17.8192 38.0114 17.8272 38.0147C17.8192 38.0114 17.8112 38.0082 17.8033 38.0049ZM17.854 38.026C17.8643 38.0304 17.8746 38.035 17.8851 38.0396C17.8746 38.035 17.8643 38.0304 17.854 38.026ZM17.9061 38.0491C17.9174 38.0543 17.9286 38.0595 17.9401 38.0649C17.9286 38.0595 17.9174 38.0543 17.9061 38.0491ZM17.9601 38.0745C17.9716 38.0801 17.9832 38.0858 17.9949 38.0917C17.9832 38.0858 17.9716 38.0802 17.9601 38.0745ZM18.0221 38.1054C18.0352 38.1121 18.0484 38.1189 18.0616 38.126C18.0484 38.1189 18.0352 38.1121 18.0221 38.1054ZM18.0789 38.1351C18.0929 38.1427 18.1069 38.1504 18.1211 38.1583C18.1069 38.1504 18.0929 38.1427 18.0789 38.1351ZM18.1345 38.1657C18.1496 38.1742 18.1649 38.1829 18.1802 38.1918C18.1649 38.1829 18.1496 38.1742 18.1345 38.1657ZM18.1908 38.1979C18.2067 38.2073 18.2228 38.2168 18.2389 38.2265C18.2228 38.2167 18.2067 38.2073 18.1908 38.1979ZM18.2438 38.2294C18.2867 38.2556 18.3306 38.2831 18.3751 38.3123C18.3306 38.2831 18.2868 38.2555 18.2438 38.2294ZM18.3863 38.3197C18.4028 38.3306 18.4193 38.3416 18.4359 38.353C18.4193 38.3416 18.4028 38.3306 18.3863 38.3197ZM18.4477 38.361C18.4646 38.3725 18.4815 38.3842 18.4985 38.3961L18.5106 38.4047C18.5274 38.4165 18.5444 38.4286 18.5613 38.4408C18.5715 38.4482 18.5816 38.4556 18.5919 38.4631L18.4477 38.361ZM18.8439 37.8231C18.8257 37.8127 18.8075 37.8026 18.7892 37.7925C18.8075 37.8026 18.8257 37.8127 18.8439 37.8231ZM18.7869 37.7913C18.7686 37.7812 18.7503 37.7714 18.7319 37.7617C18.7503 37.7714 18.7686 37.7812 18.7869 37.7913ZM18.7313 37.7614C18.7132 37.7518 18.6949 37.7423 18.6767 37.7331C18.6949 37.7424 18.7132 37.7519 18.7313 37.7614ZM18.6739 37.7316C18.6557 37.7225 18.6375 37.7134 18.6193 37.7046C18.6375 37.7135 18.6557 37.7226 18.6739 37.7316ZM18.6174 37.7037C18.5992 37.6948 18.5811 37.6862 18.5628 37.6777C18.5811 37.6862 18.5992 37.6948 18.6174 37.7037ZM18.5608 37.6768C18.5423 37.6683 18.524 37.6599 18.5054 37.6518C18.524 37.6599 18.5423 37.6683 18.5608 37.6768ZM18.5037 37.651C18.485 37.6427 18.4664 37.6347 18.4477 37.6268C18.4664 37.6347 18.485 37.6427 18.5037 37.651ZM18.4476 37.6268C18.4287 37.6189 18.41 37.6112 18.3911 37.6037C18.41 37.6112 18.4287 37.6189 18.4476 37.6268ZM18.3897 37.6032C18.371 37.5957 18.3522 37.5884 18.3333 37.5814L18.3897 37.6032ZM18.3895 37.6032C18.371 37.5962 18.3524 37.5895 18.3337 37.5829C18.3524 37.5895 18.371 37.5962 18.3895 37.6032ZM18.3313 37.582C18.3126 37.5755 18.294 37.5691 18.2755 37.5629C18.294 37.569 18.3126 37.5754 18.3313 37.582ZM18.2748 37.5628C18.2561 37.5567 18.2374 37.5508 18.2186 37.5449C18.2374 37.5507 18.2561 37.5566 18.2748 37.5628ZM18.2173 37.5445C18.1984 37.5388 18.1798 37.5332 18.1609 37.5279C18.1798 37.5332 18.1984 37.5388 18.2173 37.5445ZM18.16 37.5277C18.1414 37.5224 18.1228 37.5173 18.1041 37.5125C18.1228 37.5173 18.1414 37.5224 18.16 37.5277ZM18.1026 37.5121C18.0842 37.5074 18.0657 37.5028 18.0472 37.4985C18.0657 37.5028 18.0842 37.5074 18.1026 37.5121ZM18.0445 37.4978C18.0259 37.4935 18.0074 37.4893 17.9889 37.4855C18.0074 37.4893 18.0259 37.4935 18.0445 37.4978ZM17.9887 37.4854C17.9698 37.4815 17.951 37.4777 17.9321 37.4742C17.951 37.4778 17.9698 37.4814 17.9887 37.4854ZM17.9308 37.474C17.912 37.4705 17.8933 37.4673 17.8744 37.4642C17.8933 37.4673 17.912 37.4705 17.9308 37.474ZM19.0747 37.5061C19.0651 37.5012 19.0556 37.4963 19.0462 37.4915C19.0557 37.4963 19.0653 37.5012 19.0747 37.5061ZM19.0224 37.4794C19.0086 37.4726 18.9948 37.4658 18.9809 37.4591C18.9947 37.4658 19.0085 37.4726 19.0224 37.4794ZM18.9698 37.4536C18.9524 37.4451 18.9352 37.437 18.9179 37.4289C18.9352 37.437 18.9524 37.4451 18.9698 37.4536ZM18.9151 37.4276C18.8961 37.4188 18.8773 37.4102 18.8583 37.4018C18.8773 37.4102 18.8961 37.4188 18.9151 37.4276ZM19.0566 37.5466C19.069 37.556 19.0815 37.5653 19.0939 37.5746C19.0815 37.5652 19.069 37.5559 19.0566 37.5466ZM18.9401 32.5154C19.0189 32.4709 19.1125 32.4453 19.2243 32.4342C19.1833 32.4266 19.0553 32.3622 18.9401 32.5154ZM16.2956 37.0217C16.1628 36.5716 16.3958 35.6451 17.2012 34.761C15.1195 36.4383 16.0665 37.9272 16.1756 37.9915C16.2932 38.0607 16.1892 37.858 16.3079 37.7759C16.4266 37.6938 16.3517 38.1198 16.428 38.0338C16.5042 37.9484 17.2856 36.514 18.7167 37.2087C17.4974 36.008 16.4284 37.4718 16.2956 37.0216V37.0217ZM17.9024 38.9207C17.9003 38.9193 17.8983 38.918 17.8962 38.9169L17.9024 38.9207ZM17.8263 38.8858C17.8239 38.885 17.8215 38.8843 17.8191 38.8837L17.8263 38.8858ZM17.7895 38.8788C17.7868 38.8785 17.7841 38.8782 17.7814 38.878L17.7895 38.8788ZM18.3814 38.2874C18.3982 38.2989 18.4151 38.3106 18.4321 38.3225L18.3814 38.2874ZM18.377 38.0135C18.357 38.0019 18.3371 37.9905 18.3172 37.9793L18.377 38.0135ZM15.7933 39.5205C15.6047 39.2796 15.5753 39.0159 15.7302 38.7325C15.8859 38.449 16.1938 38.73 16.3681 38.851C16.5984 39.0106 16.3451 38.5099 16.1945 38.3483C16.044 38.1867 15.6534 38.0475 15.5851 38.2447C15.7343 38.2331 15.7906 38.2797 15.8074 38.3866C15.1186 38.3855 15.4842 39.5431 15.7934 39.5205H15.7933Z" fill="white"/>
<path d="M19.6189 30.9653C19.5819 30.647 19.5751 30.8642 19.4984 30.833C19.387 30.7876 18.7311 27.9165 18.7039 27.225C18.624 27.2034 18.6342 27.4035 18.5481 27.4391C18.4004 27.5 18.3426 24.9788 18.8032 23.9219C18.8594 23.7929 18.5949 24.0188 18.6614 23.8578C19.3757 22.1257 21.5497 21.009 22.1991 20.8113C21.4803 21.2802 21.0466 21.9561 20.8237 22.6154C20.963 22.4102 21.1311 22.2175 21.3096 22.0907C21.1346 22.3469 21.0342 22.5169 20.9798 22.7342C21.2343 22.4953 21.5274 22.1161 21.7547 22.0022C21.5845 21.99 21.3757 22.2186 21.3647 22.2093C21.5428 21.1954 22.4988 21.2636 22.5822 20.4264C22.5254 20.5284 22.4027 20.5951 22.3774 20.848C22.3643 20.6859 22.3518 20.2127 22.8565 19.846C22.6736 19.9368 22.4692 19.9014 22.4667 20.0646C22.4642 20.232 22.4262 20.3844 22.3401 20.5401C22.4679 20.0796 22.2317 20.0553 22.3564 19.8917C22.3936 19.8427 22.4362 19.8033 22.4844 19.7719C22.6098 19.4316 23.0002 19.1836 23.2388 19.2265C23.0435 19.0694 22.7535 19.2479 22.5977 19.3518C22.7187 19.1865 23.0062 19.0695 23.1998 19.0288C23.1209 19.0378 22.9958 19.0427 22.9422 19.0039C23.0029 18.9862 23.135 18.9238 23.3137 18.8378C23.2347 18.8391 23.1532 18.8542 23.0607 18.9186C23.172 18.6344 23.516 18.4094 23.6574 18.1357C23.6135 18.1602 23.501 18.2283 23.4283 18.3242C23.4313 18.2835 23.5898 17.9314 23.9238 17.5876C23.2452 18.2477 23.0757 18.4568 22.6924 19.0185C22.2243 19.7044 22.0278 20.0612 21.6231 20.4763C20.9638 21.1525 20.2253 21.3623 19.4376 22.2491C16.8847 25.1231 18.5033 28.53 19.6191 30.9651L19.6189 30.9653ZM19.5459 29.1599C19.5528 29.1384 19.5637 29.1177 19.5798 29.0975C19.6403 29.2753 19.7041 29.3737 19.7684 29.3952C19.7467 28.8851 19.4375 27.6095 19.1611 27.1532C19.2568 27.7586 19.4381 28.7299 19.4704 28.9232C19.4824 28.9956 19.5044 29.0776 19.5459 29.1598V29.1599ZM20.0714 28.9465C20.114 28.8385 20.1596 28.7308 20.2075 28.6234C19.932 28.0497 19.6848 27.56 19.6013 27.4083C19.6265 27.5478 19.8069 28.1494 20.0714 28.9465ZM20.5672 27.9037C20.579 27.882 20.5912 27.8603 20.6033 27.8386C20.5687 27.7642 20.5409 27.7095 20.5218 27.6808C20.5335 27.7495 20.5488 27.8242 20.5672 27.9037ZM20.8364 27.4388C20.8819 27.3638 20.9282 27.2888 20.9754 27.2138C20.6839 26.6589 20.4019 26.1104 20.1571 25.6215C20.2802 26.0336 20.5342 26.6966 20.8364 27.4388ZM21.4798 26.4544C21.5201 26.3965 21.5606 26.3385 21.6016 26.2806C21.5175 26.1782 21.4113 26.0953 21.2821 26.1143C21.3333 26.2104 21.4286 26.3683 21.4798 26.4546V26.4544ZM22.0753 25.6231C22.122 25.5592 22.1689 25.4956 22.2158 25.4319C21.4666 24.9277 20.8307 24.8124 20.6602 25.0883C20.9011 24.9843 21.4225 25.144 22.0753 25.6231ZM22.376 25.2146L22.4716 25.0852C22.1354 24.8934 21.7882 24.7592 21.4457 24.7045C21.7614 24.8349 22.0731 25.0095 22.376 25.2146ZM22.6688 24.8178L22.7004 24.775C22.6106 24.727 22.5203 24.6826 22.4296 24.6422C22.5095 24.699 22.5893 24.7575 22.6688 24.8178ZM23.3188 23.9156C23.3813 23.826 23.4429 23.7366 23.5033 23.6473C23.131 23.3517 22.6681 22.9559 22.4648 23.2996C22.4383 23.2648 22.4898 23.0004 22.6111 22.7239C22.4678 22.8694 22.3151 23.0208 22.1391 23.1817C22.1118 23.1274 22.1216 23.0645 22.1503 23.0032C22.0312 23.0415 21.6135 23.3486 21.6163 23.298C21.6188 23.2475 21.9272 22.6003 22.4785 22.3252C22.3398 22.4952 22.3247 22.5847 22.2791 22.7272C22.4781 22.5671 22.7095 22.3149 22.8855 22.2366C22.7555 22.2318 22.5916 22.3845 22.5832 22.3787C22.5976 22.3172 22.5474 22.0637 23.1839 21.7683C22.4353 21.92 21.7564 22.8013 21.2324 23.439C21.1964 23.3843 21.2658 23.1621 21.414 22.7415C21.0839 22.9049 20.8794 23.3346 20.7922 23.6931C21.8345 23.3227 22.6594 23.4804 23.3189 23.9156H23.3188ZM22.5112 19.7557C22.59 19.7112 22.6836 19.6856 22.7955 19.6745C22.7544 19.6669 22.6264 19.6025 22.5112 19.7557ZM19.8668 24.262C19.7339 23.8119 19.9669 22.8854 20.7723 22.0013C18.6906 23.6786 19.6376 25.1676 19.7467 25.2319C19.8644 25.301 19.7604 25.0984 19.8791 25.0162C19.9978 24.9341 19.9228 25.3601 19.9991 25.2742C20.0753 25.1887 20.8567 23.7543 22.2879 24.4491C21.0686 23.2483 19.9995 24.7122 19.8668 24.2619V24.262ZM19.3338 26.7551C19.1452 26.5141 19.1158 26.2504 19.2707 25.967C19.4264 25.6836 19.7342 25.9646 19.9086 26.0855C20.1389 26.2452 19.8856 25.7444 19.735 25.5829C19.5845 25.4212 19.1939 25.2821 19.1256 25.4792C19.2748 25.4676 19.3311 25.5142 19.3479 25.6212C18.6591 25.62 19.0247 26.7776 19.3339 26.7551H19.3338Z" fill="#2E222E"/>
<path d="M7.11971 37.4059C7.33935 37.7523 7.46035 38.1143 7.48291 38.4917C7.50537 38.8691 7.43139 39.2238 7.26096 39.5555C7.09054 39.8872 6.83616 40.1612 6.49815 40.3777C6.16003 40.5942 5.80543 40.71 5.43415 40.7251C5.06287 40.74 4.71174 40.6577 4.38086 40.4777C4.04977 40.2977 3.77441 40.0347 3.55487 39.6884C3.35831 39.3784 3.23984 39.0552 3.19975 38.7192C3.15977 38.3831 3.19776 38.061 3.31371 37.7525C3.42957 37.4441 3.61584 37.1753 3.87211 36.9463L3.58341 36.4911L2.18004 37.3896L1.67496 36.5931L5.12174 34.3864L5.62693 35.1829L4.27277 36.0497L4.56765 36.5149C4.87692 36.3912 5.19174 36.3437 5.51254 36.3726C5.83314 36.4015 6.13306 36.5051 6.4122 36.6835C6.69155 36.8619 6.92736 37.1027 7.11982 37.4061L7.11971 37.4059ZM4.23426 39.2533C4.35557 39.4446 4.51141 39.5883 4.70156 39.6845C4.89171 39.7806 5.09887 39.8195 5.3227 39.8016C5.54665 39.7835 5.76681 39.705 5.98362 39.5664C6.20033 39.4276 6.36403 39.2603 6.47506 39.064C6.58598 38.8677 6.63824 38.6625 6.63184 38.4488C6.62555 38.235 6.56164 38.0323 6.44033 37.8411C6.31901 37.6497 6.16318 37.5061 5.97302 37.4098C5.78287 37.3136 5.57572 37.2747 5.35177 37.2927C5.12783 37.3109 4.90777 37.3892 4.69096 37.528C4.47426 37.6667 4.31055 37.8341 4.19952 38.0303C4.0886 38.2265 4.03623 38.4317 4.04274 38.6455C4.04904 38.8593 4.11295 39.062 4.23426 39.2533ZM11.7222 42.0218L9.16512 45.2251L8.4363 44.6378L10.5112 42.0385L9.41813 41.1577L8.86205 41.8075C8.48395 42.2498 8.15359 42.5888 7.87067 42.8247C7.58765 43.0604 7.31837 43.1992 7.06263 43.2414C6.80699 43.2836 6.55786 43.2068 6.31492 43.011C6.2147 42.9302 6.10661 42.8156 5.99065 42.6671L6.53677 42.0768C6.56636 42.1208 6.60561 42.1625 6.6542 42.2016C6.83029 42.3436 7.03671 42.3381 7.27345 42.1854C7.50999 42.0327 7.81526 41.741 8.18896 41.3103L9.27205 40.0473L11.7224 42.0219L11.7222 42.0218ZM12.7124 42.7784L13.5898 43.117L12.6352 45.6141L15.4103 43.8195L16.2388 44.1392L14.7733 47.9727L13.9012 47.6361L14.8539 45.1444L12.0808 46.9335L11.2469 46.6117L12.7124 42.7783V42.7784ZM20.9207 44.924L20.4252 49.0001L19.4979 48.8864L19.6296 47.8034L18.7718 47.6981L17.9216 48.693L16.9304 48.5714L17.926 47.4466C17.6653 47.3003 17.4755 47.1045 17.3562 46.8595C17.237 46.6143 17.1968 46.3326 17.2355 46.0143C17.2737 45.6998 17.378 45.4378 17.5486 45.2283C17.7192 45.0187 17.9432 44.869 18.2209 44.7788C18.4984 44.6888 18.8149 44.6656 19.1705 44.7092L20.9206 44.924H20.9207ZM19.1002 45.4807C18.8336 45.4479 18.6222 45.485 18.4661 45.5921C18.3101 45.699 18.2171 45.8748 18.1873 46.1193C18.1586 46.356 18.204 46.5467 18.3236 46.6915C18.4432 46.8363 18.6345 46.9247 18.8972 46.9569L19.7201 47.0579L19.8999 45.5789L19.1001 45.4807H19.1002ZM25.7508 46.7497L25.1136 46.8975L25.484 48.5094L24.5681 48.7219L23.6489 44.7205L24.5647 44.5082L24.9363 46.1258L25.5963 45.9727L26.2714 44.1123L27.2443 43.8867L26.3853 46.121L28.2034 47.8787L27.1566 48.1215L25.7508 46.7496V46.7497ZM31.1866 41.6984L31.3056 45.3869C31.3172 45.7418 31.2612 46.048 31.1376 46.3056C31.0141 46.5631 30.8328 46.7614 30.5937 46.9009C30.4086 47.0089 30.1933 47.0803 29.9478 47.1149L29.7841 46.376C29.9509 46.3374 30.0815 46.2907 30.1757 46.2358C30.2767 46.1769 30.3535 46.0993 30.4059 46.0031C30.4584 45.9069 30.488 45.7867 30.4947 45.6427L30.5015 45.5845L27.6012 43.7895L28.4749 43.2799L30.5161 44.6397L30.3834 42.1667L31.1863 41.6984H31.1866ZM34.6821 38.5123L37.4891 41.4971L36.8015 42.1498L35.6506 40.926L34.3011 42.2071L35.452 43.431L34.7645 44.0837L31.9576 41.0987L32.6451 40.4461L33.7517 41.623L35.1014 40.3418L33.9947 39.165L34.6821 38.5123ZM39.9748 37.8224C39.7684 38.1859 39.5031 38.4694 39.179 38.673C38.8548 38.8767 38.5057 38.9826 38.1312 38.9908C37.7568 38.999 37.3938 38.9022 37.0423 38.7006C36.6907 38.4989 36.4232 38.2341 36.2398 37.906C36.0564 37.5779 35.9696 37.2219 35.9794 36.8379C35.9891 36.454 36.0981 36.0786 36.3065 35.7117C36.4821 35.4026 36.6949 35.1542 36.9449 34.9668C37.1948 34.7791 37.4696 34.6586 37.7689 34.6051L37.9546 35.4141C37.5405 35.4963 37.232 35.7157 37.0295 36.0723C36.9039 36.293 36.8404 36.5177 36.8383 36.7462C36.8362 36.9746 36.8939 37.1867 37.0113 37.3823C37.1286 37.5781 37.2972 37.7389 37.5169 37.8649C37.7367 37.991 37.9602 38.0549 38.1876 38.057C38.4149 38.0591 38.6261 38.0011 38.8207 37.8832C39.0156 37.7652 39.1757 37.5958 39.301 37.3751C39.5038 37.0184 39.5331 36.6391 39.3895 36.237L40.1774 35.9864C40.287 36.2745 40.3247 36.5751 40.29 36.8887C40.2553 37.202 40.1502 37.5132 39.9746 37.8224H39.9748Z" fill="white"/>
<path fill-rule="evenodd" clip-rule="evenodd" d="M29.7612 8.55797C36.9254 11.8871 41.8965 19.1715 41.8965 27.6233C41.8965 30.0006 41.5027 32.2855 40.7779 34.4162C40.5611 34.2739 40.3409 34.1345 40.1186 33.997C40.78 31.993 41.1392 29.8505 41.1392 27.6234C41.1392 19.5972 36.4882 12.6624 29.7465 9.39137C29.7666 9.23153 29.7775 9.06957 29.7775 8.90582C29.7775 8.78889 29.7716 8.67301 29.7612 8.55797ZM15.432 8.17227C7.01782 10.5995 0.860935 18.3887 0.860935 27.6233C0.860935 30.1788 1.33359 32.6229 2.1939 34.8741C1.97866 35.0245 1.76689 35.1779 1.55753 35.3332C0.619256 32.9462 0.103577 30.3453 0.103577 27.6232C0.103577 17.8668 6.72713 9.6652 15.7025 7.30872C15.5802 7.58718 15.4891 7.87567 15.432 8.17217V8.17227Z" fill="white"/>
</g>
<defs>
<clipPath id="clip0_45_95">
<rect width="42" height="49" fill="white"/>
</clipPath>
</defs>
</svg>
