<svg width="107" height="75" viewBox="0 0 107 75" fill="none" xmlns="http://www.w3.org/2000/svg">
<g clip-path="url(#clip0_96_748)">
<path d="M84.5362 20.1037C84.5362 20.1037 81.6787 24.2753 78.3817 28.8906C71.9635 21.8344 52.401 24.0534 52.401 24.0534C53.9396 21.3463 54.643 18.506 54.4232 16.9528C68.2268 12.6037 81.8106 16.2871 84.5362 20.1037Z" fill="black"/>
<path d="M76.2715 32.1746C76.6232 32.8847 76.9749 33.5948 77.3266 34.2604C77.8541 35.2811 78.3817 36.3019 78.8213 37.3669C81.1072 42.648 81.8106 50.2812 81.4589 56.1391C80.7116 57.0267 79.9203 57.8699 79.1729 58.6243C79.2169 54.4528 79.129 50.6806 78.5135 46.5533C77.8981 42.3817 76.6672 38.2989 74.645 34.7042L74.3373 34.438C74.9088 33.6835 75.4803 32.8847 76.0957 32.0415L76.1836 32.1303C76.2276 32.1303 76.2276 32.0859 76.2715 32.0859V32.1746Z" fill="#B8A36E"/>
<path d="M60.4458 42.3816C61.9405 43.0916 63.9626 44.7336 64.5781 46.3313C63.7868 47.1301 62.9076 47.9289 61.9844 48.7277L61.8086 48.5058C60.8854 42.4703 39.3447 40.7839 39.3447 40.7839C40.3558 39.9407 41.323 39.0531 42.2461 38.21C43.8727 38.0768 48.005 38.92 49.6315 39.1863C54.2913 39.9851 56.1377 40.2958 60.4458 42.3816Z" fill="#B8A36E"/>
<path d="M45.7629 59.6006C46.4663 59.6006 46.9938 60.1775 46.9938 60.9319C46.9938 61.6864 46.4223 62.2633 45.7629 62.2633C45.1035 62.2633 44.532 61.6864 44.532 60.9319C44.532 60.2219 45.1035 59.6006 45.7629 59.6006Z" fill="black"/>
<path d="M45.4992 65.1924C46.1146 65.1924 46.5982 65.7249 46.5982 66.3906C46.5982 67.0563 46.1146 67.5888 45.4992 67.5888C44.8837 67.5888 44.4001 67.0563 44.4001 66.3906C44.4001 65.7249 44.8837 65.1924 45.4992 65.1924Z" fill="black"/>
<path d="M44.8837 72.2928C45.4907 72.2928 45.9828 71.7762 45.9828 71.139C45.9828 70.5017 45.4907 69.9851 44.8837 69.9851C44.2768 69.9851 43.7847 70.5017 43.7847 71.139C43.7847 71.7762 44.2768 72.2928 44.8837 72.2928Z" fill="black"/>
<path d="M41.4988 58.0918C42.4219 60.6214 42.8176 63.0622 42.7297 65.7693C42.6417 68.4764 41.8944 71.8492 39.3007 74.7338C31.8274 75.0001 27.3874 72.5149 27.3874 72.5149C27.3874 72.5149 31.2559 64.793 31.2559 64.3492C31.2559 63.9054 26.2005 67.0563 21.7165 69.8966C21.7165 69.8966 17.5842 69.2309 12.1771 65.7693L12.221 65.6362C15.7379 64.7486 18.8151 62.7072 21.0571 59.6895V59.6451C24.3541 59.7338 28.1347 59.6451 32.4429 59.2013C33.6738 59.0682 34.8607 58.935 36.0037 58.8019C37.938 58.5356 39.6964 58.2693 41.4108 57.9143L41.4988 58.0918Z" fill="black"/>
<path d="M21.145 59.6006V59.6449C18.903 62.6627 15.8258 64.7485 12.309 65.5917L12.265 65.7248C11.6056 65.281 10.9022 64.8372 10.1989 64.3047L10.3307 64.0828C11.8254 63.8609 13.364 63.2396 14.5949 62.3077C15.8258 61.3757 16.5731 60.6656 17.3644 59.3787C18.5074 59.4674 19.7823 59.5562 21.145 59.6006Z" fill="#B8A36E"/>
<path d="M38.2457 74.9999C31.4758 74.9999 27.4754 72.8253 27.2995 72.7366C27.1676 72.6478 27.1237 72.5147 27.1676 72.3815C28.3985 69.8963 30.2888 66.0354 30.8603 64.704C30.0251 65.1034 27.6952 66.4348 21.8924 70.1182C21.8484 70.1626 21.7605 70.1626 21.7165 70.1626C21.5407 70.1182 17.4524 69.4525 12.0452 65.991C11.3418 65.5028 10.6385 65.059 9.97906 64.5709C6.28638 61.8194 2.94537 58.2691 0.0439758 54.0975C1.52476e-05 54.0531 -0.0439453 53.9644 -0.0439453 53.8756C-0.0439453 53.6981 0.0879364 53.6093 0.263779 53.6093C7.56123 54.3194 14.9466 53.8312 20.4417 52.278C24.7058 51.0798 27.3435 49.3934 27.827 47.4851C27.871 47.3963 27.915 47.3076 28.0029 47.3076C28.0908 47.2632 28.1787 47.3076 28.2667 47.3519C34.8607 51.7898 42.6418 50.6804 44.8837 49.3934C44.3562 49.2159 43.6968 48.994 42.9055 48.7721C40.7075 48.1064 37.3665 47.1301 32.4869 44.778C32.3989 44.7336 32.311 44.6005 32.311 44.5117C32.311 44.3786 32.3989 44.2898 32.5308 44.2454C34.4211 43.8017 36.6631 42.6034 39.1689 40.562C40.092 39.8076 41.0152 38.9644 42.0263 37.988C44.6639 35.4141 46.5542 33.0176 46.5982 33.0176C46.6422 32.9733 46.7301 32.9289 46.7741 32.9289C47.1697 32.8845 55.5222 32.0857 58.8632 33.5946C57.8082 31.5088 54.0275 30.6656 47.3895 29.8224C47.2576 29.8224 47.1697 29.7336 47.1697 29.6005C47.1257 29.4673 47.2137 29.3786 47.3016 29.2898C49.6754 27.7809 51.258 25.562 52.1812 23.9644C53.5879 21.4792 54.4232 18.6389 54.1594 17.0413C54.1594 16.9082 54.2034 16.775 54.3353 16.7306C68.1389 12.3815 81.371 16.065 84.5362 19.704C89.8554 11.7602 89.5477 1.19811 89.5477 1.06497C89.5477 0.976212 89.5916 0.931833 89.6356 0.843076C89.6796 0.798697 89.7675 0.754318 89.8554 0.754318C89.8554 0.754318 91.3501 0.798697 94.5592 0.0442591C94.6911 -0.000119638 94.8229 0.0886377 94.8669 0.221774C95.834 3.23953 95.0867 12.9141 86.5144 22.2336C95.922 37.3667 85.1956 52.1448 81.6787 56.3608C80.9314 57.2484 80.1841 58.0916 79.3928 58.846C77.1948 61.065 74.9967 62.6626 73.59 63.1951C73.5021 63.2395 73.3702 63.1951 73.2823 63.1064C73.1944 63.0176 73.1944 62.8845 73.2383 62.7957C73.7219 61.775 72.491 52.8105 70.4688 50.5028C70.5567 53.2543 70.0732 59.9111 69.3258 64.3046C69.3258 64.349 69.3258 64.349 69.3258 64.3934C67.8751 67.5886 60.7975 70.1182 58.5555 70.8727C58.5555 70.8727 58.5115 70.8727 58.5115 70.917C56.7531 71.494 55.0386 71.9377 53.5879 72.204C53.4561 72.204 53.3681 72.1596 53.2802 72.0709C53.2363 71.9821 53.2363 71.849 53.3242 71.7602C54.8628 69.9407 54.3353 65.7691 53.9836 63.8608C53.1923 66.0354 51.1701 71.1833 48.6644 73.4466C48.6204 73.491 48.5764 73.491 48.5764 73.491C45.4992 74.423 42.422 74.9555 39.4326 75.0886C38.993 74.9999 38.5974 74.9999 38.2457 74.9999ZM27.827 72.3372C28.8381 72.8253 33.0144 74.6448 39.3447 74.423C42.2461 74.3342 45.2794 73.8017 48.3127 72.8697C51.3459 70.0738 53.7198 62.6626 53.7638 62.5738C53.8077 62.4407 53.9396 62.3963 54.0275 62.3963C54.1594 62.3963 54.2473 62.4851 54.2913 62.6182C54.3353 62.8845 55.698 68.565 54.1155 71.4052C55.3903 71.1389 56.7971 70.7395 58.2478 70.2957C58.2478 70.2957 58.2917 70.2957 58.2917 70.2514C62.6438 68.8312 67.6114 66.4792 68.7543 64.0827C69.5456 59.423 70.0732 51.8786 69.8533 49.8372C69.8533 49.7484 69.8973 49.6153 69.9852 49.5709C70.0732 49.5265 70.205 49.5265 70.293 49.5709C72.5789 50.9022 74.1615 59.7336 73.8977 62.4407C75.2605 61.8194 77.1508 60.3105 79.0411 58.4466C79.8324 57.6478 80.5797 56.849 81.2831 55.9614C84.756 51.8342 95.3505 37.2336 85.9429 22.3224C85.855 22.2336 85.899 22.0561 85.9869 21.9673C94.2515 13.0472 95.2626 3.77207 94.4273 0.576803C92.0974 1.10935 90.6907 1.19811 90.1192 1.24248C90.1192 3.06201 89.9433 12.8697 84.7999 20.2366C84.756 20.3253 84.6681 20.3697 84.5801 20.3697C84.4922 20.3697 84.4043 20.3253 84.3603 20.2366C81.8106 16.6863 68.6664 12.8253 54.7749 17.1301C54.9068 18.8608 54.1155 21.6567 52.6648 24.1419C51.7856 25.6508 50.3349 27.7366 48.2247 29.2454C55.4782 30.2218 59.0391 31.2425 59.6985 34.0383C59.7424 34.1715 59.6985 34.2602 59.5666 34.349C59.4787 34.3934 59.3468 34.3934 59.2589 34.349C56.885 32.5738 48.0929 33.3283 46.9939 33.417C46.5982 33.9052 44.8398 36.0798 42.4659 38.3875C41.4548 39.3638 40.4877 40.207 39.5645 40.9614C37.3225 42.7809 35.3003 43.9792 33.454 44.5561C37.938 46.6419 41.0152 47.5738 43.1253 48.1951C44.1804 48.5058 44.9717 48.7721 45.6311 49.0383C45.719 49.0827 45.763 49.1715 45.8069 49.2602C45.8069 49.349 45.8069 49.4377 45.719 49.5265C44.0925 51.0354 35.696 52.7661 28.3546 48.0176C27.6072 49.9703 24.8817 51.6567 20.7054 52.8549C15.2543 54.3638 8.08876 54.8963 0.923187 54.2306C3.6927 58.1803 6.90182 61.5088 10.4187 64.1271C11.0781 64.6153 11.7375 65.059 12.4409 65.5472C17.2765 68.6537 21.1011 69.4969 21.7605 69.6301C30.9482 63.8164 31.212 63.9496 31.4758 64.0827C31.5637 64.1271 31.6516 64.2602 31.6516 64.349C31.6077 64.7484 29.2777 69.4082 27.827 72.3372Z" fill="black"/>
<path d="M23.3431 59.9112C22.5958 59.9112 21.8485 59.9112 21.1451 59.8668C19.8263 59.8225 18.5075 59.7781 17.3205 59.6449C4.61593 58.5798 0.263838 54.2751 0.0879953 54.0532C7.415e-05 53.9201 -0.0438864 53.7426 0.0879953 53.6538C0.175916 53.5651 0.351759 53.5207 0.48364 53.6538L0.527601 53.6982C0.703443 53.8757 4.8797 58.0473 17.3645 59.1124C18.5514 59.2012 19.8263 59.2899 21.1451 59.3343C24.618 59.423 28.4426 59.2899 32.4869 58.8905C33.8057 58.7574 34.9487 58.6242 36.0477 58.4911C37.938 58.2692 39.7404 57.9585 41.4109 57.6035C48.049 56.2722 53.5001 54.1864 58.1159 51.2574C59.4347 50.4142 60.6656 49.4822 61.8086 48.5503C62.6878 47.7958 63.567 46.997 64.4023 46.1982C66.8201 43.8017 68.8423 41.1834 70.8205 38.6982L71.392 37.9881C72.2273 36.923 73.1944 35.6804 74.1615 34.3491C74.733 33.5946 75.3045 32.7958 75.92 31.9526C76.7113 30.8875 77.4586 29.8225 78.2059 28.7574C81.459 24.1864 84.3604 20.0148 84.3604 19.9704C84.4483 19.8372 84.6242 19.7929 84.756 19.8816C84.8879 19.9704 84.9319 20.1479 84.8439 20.281C84.8 20.3254 81.9426 24.497 78.6895 29.068C77.9421 30.1331 77.1509 31.1982 76.4035 32.2633C75.832 33.1065 75.2166 33.9053 74.6451 34.6597C73.678 35.9911 72.7108 37.2337 71.8756 38.2988L71.3481 39.0088C69.3698 41.5384 67.3476 44.1124 64.8859 46.5532C64.0506 47.3964 63.1714 48.1952 62.2482 48.9497C61.1053 49.926 59.8304 50.858 58.5116 51.7012C53.8957 54.6745 48.3567 56.8047 41.6307 58.1361C39.9163 58.4911 38.1139 58.8017 36.2236 59.0236C35.1246 59.1568 33.9376 59.2899 32.6188 59.423C29.3218 59.7337 26.2006 59.9112 23.3431 59.9112Z" fill="black"/>
<path d="M78.3817 29.1567C78.2937 29.1567 78.2498 29.1123 78.1619 29.068C71.9195 22.2336 52.6208 24.2751 52.4449 24.3194C52.3131 24.3194 52.1372 24.2307 52.1372 24.0532C52.1372 23.92 52.2251 23.7425 52.401 23.7425C53.1923 23.6538 72.1832 21.6123 78.6015 28.6685C78.6894 28.8017 78.6894 28.9792 78.6015 29.068C78.5135 29.1567 78.4256 29.1567 78.3817 29.1567Z" fill="black"/>
<path d="M79.173 59.0236C78.9971 59.0236 78.9092 58.8905 78.9092 58.7574V58.6686C78.9532 55.0295 78.9092 51.0355 78.2498 46.642C77.5464 42.1153 76.2716 38.1656 74.3813 34.8816C74.2933 34.7485 74.3373 34.571 74.4692 34.4822C74.6011 34.3935 74.7769 34.4378 74.8648 34.571C76.7551 37.8994 78.0739 41.8935 78.7773 46.5088C79.4367 50.9023 79.4807 54.9408 79.4367 58.6242V58.713C79.4807 58.8905 79.3488 59.0236 79.173 59.0236Z" fill="black"/>
<path d="M81.4589 56.6273C81.2831 56.6273 81.1512 56.4941 81.1951 56.3166V56.1391C81.5029 50.7693 81.0193 43.0474 78.6015 37.5001C78.1179 36.435 77.5904 35.3699 77.1068 34.4379C76.7551 33.7279 76.4034 33.0178 76.0517 32.3521C75.9638 32.219 76.0517 32.0415 76.1836 31.9527C76.3155 31.864 76.4914 31.9527 76.5793 32.0859C76.931 32.7959 77.2826 33.506 77.6343 34.1717C78.1179 35.148 78.6454 36.2131 79.129 37.2782C81.5908 42.9586 82.1183 50.7693 81.7666 56.1835V56.4054C81.7227 56.5385 81.5908 56.6273 81.4589 56.6273Z" fill="black"/>
<path d="M39.3447 74.9999C39.2568 74.9999 39.2128 74.9556 39.1689 74.9112C39.037 74.8224 39.037 74.6449 39.1689 74.5118C41.8065 71.5828 42.4219 68.1212 42.5099 65.7692C42.5978 63.1065 42.2021 60.71 41.279 58.2248C41.235 58.0917 41.279 57.9141 41.4548 57.8698C41.5867 57.8254 41.7625 57.8698 41.8065 58.0473C42.7736 60.6212 43.1693 63.1065 43.0813 65.8136C42.9934 68.2988 42.334 71.8491 39.6085 74.9556C39.5205 74.9556 39.4326 74.9999 39.3447 74.9999Z" fill="black"/>
<path d="M45.7629 62.5739C44.9277 62.5739 44.2243 61.8638 44.2243 60.9319C44.2243 60.0443 44.9277 59.3342 45.7629 59.3342C46.5982 59.3342 47.3015 60.0443 47.3015 60.9319C47.3015 61.8638 46.5982 62.5739 45.7629 62.5739ZM45.7629 59.9112C45.2354 59.9112 44.7958 60.3993 44.7958 60.9762C44.7958 61.5532 45.2354 62.0413 45.7629 62.0413C46.2905 62.0413 46.7301 61.5532 46.7301 60.9762C46.7301 60.3549 46.2905 59.9112 45.7629 59.9112Z" fill="black"/>
<path d="M45.4992 67.855C44.7519 67.855 44.0925 67.1893 44.0925 66.3905C44.0925 65.5917 44.7079 64.926 45.4992 64.926C46.2465 64.926 46.9059 65.5917 46.9059 66.3905C46.9059 67.1893 46.2905 67.855 45.4992 67.855ZM45.4992 65.4586C45.0596 65.4586 44.664 65.858 44.664 66.3905C44.664 66.9231 45.0596 67.3225 45.4992 67.3225C45.9388 67.3225 46.3345 66.9231 46.3345 66.3905C46.3345 65.858 45.9828 65.4586 45.4992 65.4586Z" fill="black"/>
<path d="M44.8837 72.6036C44.1364 72.6036 43.5209 71.9379 43.5209 71.1391C43.5209 70.3402 44.1364 69.6746 44.8837 69.6746C45.631 69.6746 46.2465 70.3402 46.2465 71.1391C46.2465 71.9379 45.631 72.6036 44.8837 72.6036ZM44.8837 70.2515C44.4441 70.2515 44.0924 70.6509 44.0924 71.1391C44.0924 71.6272 44.4441 72.0266 44.8837 72.0266C45.3233 72.0266 45.675 71.6272 45.675 71.1391C45.675 70.6509 45.3233 70.2515 44.8837 70.2515Z" fill="black"/>
<path d="M64.578 46.5977C64.4462 46.5977 64.3582 46.5089 64.3143 46.4202C63.7428 44.9113 61.8525 43.3137 60.3578 42.6036C56.0497 40.5622 54.2913 40.2516 49.5875 39.4084C49.3237 39.364 49.06 39.3196 48.7522 39.2752C46.818 38.9202 43.6089 38.3433 42.2461 38.432C42.1142 38.432 41.9384 38.3433 41.9384 38.1658C41.9384 37.9882 42.0263 37.8551 42.2021 37.8551C43.6528 37.7663 46.9059 38.3433 48.8402 38.6983C49.1479 38.7427 49.4116 38.7871 49.6754 38.8314C54.4232 39.6746 56.2255 39.9853 60.5776 42.0711C62.1602 42.8255 64.1824 44.5119 64.8418 46.1983C64.8858 46.3314 64.8418 46.509 64.666 46.5533C64.666 46.5977 64.622 46.5977 64.578 46.5977Z" fill="black"/>
<path d="M61.8085 48.7722C61.6767 48.7722 61.5448 48.6834 61.5448 48.5503C60.6656 42.7811 39.5645 41.0947 39.3447 41.0503C39.1689 41.0503 39.0809 40.9172 39.0809 40.7397C39.0809 40.5621 39.2568 40.4734 39.3887 40.4734C40.2679 40.5621 61.1491 42.2485 62.1163 48.4616C62.1163 48.5947 62.0283 48.7278 61.8085 48.7722C61.8525 48.7722 61.8085 48.7722 61.8085 48.7722Z" fill="black"/>
<path d="M58.3357 70.6064C58.2917 70.6064 58.2477 70.6064 58.2038 70.562C58.0719 70.4733 58.0279 70.3401 58.0719 70.1626C61.8525 62.8845 58.0279 51.6567 57.984 51.5236C57.94 51.3904 58.0279 51.2129 58.1598 51.1685C58.2917 51.1241 58.4675 51.2129 58.5115 51.346C58.6873 51.8342 62.4679 62.9289 58.5555 70.4289C58.5115 70.5176 58.4236 70.6064 58.3357 70.6064Z" fill="black"/>
<path d="M36.0916 59.0236C36.0916 59.0236 36.0477 59.0236 36.0916 59.0236C25.9807 58.8461 20.4417 52.7662 20.3977 52.7218C20.3098 52.5887 20.3098 52.4112 20.3977 52.3224C20.5296 52.2337 20.7055 52.2337 20.7934 52.3224C20.8373 52.3668 26.2445 58.2692 36.0916 58.4467C36.2675 58.4467 36.3554 58.5798 36.3554 58.713C36.3554 58.8905 36.2235 59.0236 36.0916 59.0236Z" fill="black"/>
<path d="M74.8648 29.6893C74.8209 29.6893 74.733 29.6893 74.689 29.6449C71.5678 27.2041 66.3805 26.8934 65.8529 26.9378C65.6771 26.9822 65.4573 26.849 65.4573 26.6715C65.4573 26.5828 65.5012 26.4496 65.6331 26.4052C65.9408 26.2721 71.6118 26.494 75.0407 29.2011C75.1726 29.2899 75.1726 29.4674 75.0846 29.6005C75.0407 29.6449 74.9528 29.6893 74.8648 29.6893Z" fill="black"/>
<path d="M62.0284 63.1953C61.8525 63.1953 61.7206 63.0621 61.7646 62.8846C62.1163 57.8698 60.4018 53.0325 60.4018 52.9882C60.3579 52.855 60.4458 52.6775 60.5777 52.6331C60.7095 52.5887 60.8854 52.6775 60.9293 52.8106C60.9293 52.855 62.6878 57.8254 62.3361 62.929C62.3361 63.0621 62.2042 63.1953 62.0284 63.1953Z" fill="black"/>
<path d="M39.0809 56.8934C34.6409 56.8934 30.5965 55.4733 30.5526 55.4733C30.4207 55.4289 30.3328 55.2514 30.3767 55.1183C30.4207 54.9851 30.5965 54.8964 30.7284 54.9407C30.7724 54.9407 36.1795 56.8046 41.235 56.1833C41.3669 56.1833 41.5427 56.2721 41.5427 56.4496C41.5427 56.5828 41.4548 56.7603 41.279 56.7603C40.5316 56.8934 39.7843 56.8934 39.0809 56.8934Z" fill="#B8A36E"/>
<path d="M28.5743 54.5859C28.5304 54.5859 28.5304 54.5859 28.4864 54.5859C27.0797 54.1421 25.0575 53.2101 24.9696 53.1657C24.8377 53.077 24.7498 52.9438 24.8377 52.8107C24.9256 52.6776 25.0575 52.5888 25.1894 52.6776C25.1894 52.6776 27.2555 53.6539 28.6183 54.0977C28.7502 54.1421 28.8381 54.3196 28.7941 54.4527C28.8381 54.4971 28.7062 54.5859 28.5743 54.5859Z" fill="#B8A36E"/>
<path d="M12.309 65.858C12.1771 65.858 12.0892 65.7693 12.0452 65.6361C12.0012 65.503 12.0892 65.3255 12.265 65.2811C15.7379 64.4379 18.7272 62.3965 20.9252 59.4231C21.0132 59.29 21.189 59.29 21.3209 59.3788C21.4528 59.4675 21.4528 59.645 21.3648 59.7782C19.0789 62.8403 15.9577 64.9705 12.3529 65.8137C12.3529 65.858 12.309 65.858 12.309 65.858Z" fill="black"/>
<path d="M10.3307 64.3491C10.1988 64.3491 10.067 64.2603 10.067 64.1272C10.067 63.994 10.1549 63.8165 10.2868 63.8165C11.7814 63.5946 13.2761 62.9733 14.4191 62.0858C15.606 61.1538 16.3533 60.4881 17.1006 59.2455C17.1886 59.1124 17.3644 59.068 17.4963 59.1568C17.6282 59.2455 17.6721 59.423 17.5842 59.5562C16.7929 60.8432 16.0016 61.5976 14.7707 62.5739C13.5398 63.4615 11.9573 64.1272 10.3307 64.3491Z" fill="black"/>
<path d="M76.1837 32.3964C76.0957 32.3964 76.0078 32.352 75.9638 32.3076C75.8759 32.1745 75.832 32.0413 75.9638 31.9526L76.0518 31.9082C79.7005 29.1123 85.855 22.1005 85.8989 22.0118C85.9869 21.8786 86.1627 21.8786 86.2946 21.9674C86.4265 22.0561 86.4265 22.2336 86.3385 22.3668C86.2946 22.4555 80.0961 29.4674 76.4035 32.3076C76.3595 32.352 76.2716 32.3964 76.1837 32.3964Z" fill="black"/>
<path d="M20.0021 32.0857C20.0021 32.0857 19.9581 36.8342 16.1335 37.2336C18.9031 37.5887 20.1779 39.4969 20.134 42.9585C20.1779 39.6745 20.7054 37.3668 23.5629 37.1892C19.7383 36.7455 20.0021 32.0857 20.0021 32.0857Z" fill="#B8A36E"/>
<path d="M20.1339 43.2249C19.9581 43.2249 19.8702 43.0918 19.8702 42.9586C19.9141 39.6302 18.6832 37.8551 16.1335 37.5001C16.0016 37.5001 15.8698 37.3669 15.8698 37.2338C15.8698 37.1006 16.0016 36.9675 16.1335 36.9675C19.4745 36.6569 19.6943 32.7072 19.7383 32.1746C19.7383 32.1302 19.7383 32.1302 19.7383 32.0859C19.7383 31.9527 19.8702 31.8196 20.046 31.8196C20.1779 31.8196 20.3098 31.9527 20.3098 32.0859C20.3098 32.0859 20.3098 32.1302 20.3098 32.1746C20.3098 32.7072 20.3098 36.5237 23.6068 36.9231C23.7387 36.9231 23.8706 37.0563 23.8706 37.2338C23.8706 37.3669 23.7387 37.5001 23.6068 37.5001C21.0571 37.6332 20.4856 39.5859 20.4416 42.9586C20.3977 43.0918 20.2658 43.2249 20.1339 43.2249ZM17.3644 37.1894C18.7272 37.6776 19.6504 38.6983 20.09 40.2072C20.3537 38.787 20.9692 37.6332 22.288 37.145C20.8373 36.5237 20.2218 35.1924 19.9141 34.0385C19.5624 35.1924 18.8591 36.5681 17.3644 37.1894Z" fill="black"/>
<path d="M103.175 17.0857C103.175 17.0857 103.131 21.8342 99.3069 22.2336C102.076 22.5887 103.351 24.4969 103.307 27.9585C103.351 24.6745 103.879 22.3668 106.736 22.1892C102.912 21.7455 103.175 17.0857 103.175 17.0857Z" fill="#B8A36E"/>
<path d="M103.307 28.225C103.131 28.225 103.044 28.0918 103.044 27.9587C103.088 24.6303 101.857 22.8551 99.3069 22.5001C99.175 22.5001 99.0432 22.367 99.0432 22.2338C99.0432 22.1007 99.175 21.9676 99.3069 21.9676C102.648 21.6569 102.912 17.5741 102.912 17.1747C102.912 17.1303 102.912 17.1303 102.912 17.1303C102.912 16.9971 103.044 16.864 103.219 16.864C103.351 16.864 103.483 16.9971 103.483 17.1303C103.483 17.1303 103.483 17.1747 103.483 17.219C103.483 17.7516 103.483 21.5682 106.78 21.9676C106.912 21.9676 107.044 22.1007 107.044 22.2782C107.044 22.4114 106.912 22.5445 106.78 22.5445C104.23 22.6776 103.659 24.6303 103.615 28.0031C103.571 28.0918 103.439 28.225 103.307 28.225ZM100.494 22.1895C101.857 22.6776 102.78 23.6983 103.219 25.2072C103.483 23.8315 104.099 22.6332 105.417 22.1451C103.967 21.5238 103.351 20.1924 103.044 19.0386C102.736 20.1924 102.032 21.5682 100.494 22.1895Z" fill="black"/>
<path d="M99.5706 38.9645C99.5706 39.7633 98.9552 40.429 98.2079 40.429C97.4605 40.429 96.8451 39.7633 96.8451 38.9645C96.8451 38.1657 97.4605 37.5 98.2079 37.5C98.9552 37.5 99.5706 38.1657 99.5706 38.9645Z" fill="black"/>
<path d="M98.1639 40.7397C97.2407 40.7397 96.4934 39.9409 96.4934 38.9646C96.4934 37.9883 97.2407 37.1895 98.1639 37.1895C99.0871 37.1895 99.8344 37.9883 99.8344 38.9646C99.8344 39.9409 99.0871 40.7397 98.1639 40.7397ZM98.1639 37.7664C97.5485 37.7664 97.0649 38.2989 97.0649 38.9646C97.0649 39.6303 97.5485 40.1628 98.1639 40.1628C98.7794 40.1628 99.2629 39.6303 99.2629 38.9646C99.2629 38.2989 98.7794 37.7664 98.1639 37.7664Z" fill="black"/>
<path d="M32.2231 21.3462C32.2231 22.145 31.6077 22.8107 30.8603 22.8107C30.113 22.8107 29.4976 22.145 29.4976 21.3462C29.4976 20.5474 30.113 19.8817 30.8603 19.8817C31.6077 19.8374 32.2231 20.503 32.2231 21.3462Z" fill="black"/>
<path d="M30.8603 23.0769C29.9371 23.0769 29.1898 22.2781 29.1898 21.3018C29.1898 20.3254 29.9371 19.5266 30.8603 19.5266C31.7835 19.5266 32.5308 20.3254 32.5308 21.3018C32.5308 22.2781 31.7395 23.0769 30.8603 23.0769ZM30.8603 20.1479C30.2449 20.1479 29.7613 20.6805 29.7613 21.3461C29.7613 22.0118 30.2449 22.5444 30.8603 22.5444C31.4758 22.5444 31.9593 22.0118 31.9593 21.3461C31.9593 20.6805 31.4318 20.1479 30.8603 20.1479Z" fill="black"/>
<path d="M76.9749 8.60947C76.9749 9.23077 76.5353 9.71894 75.9639 9.71894C75.3924 9.71894 74.9528 9.23077 74.9528 8.60947C74.9528 7.98817 75.3924 7.5 75.9639 7.5C76.5353 7.5 76.9749 7.98817 76.9749 8.60947Z" fill="black"/>
<path d="M75.9638 9.98512C75.2605 9.98512 74.645 9.36382 74.645 8.60938C74.645 7.85494 75.2165 7.23364 75.9638 7.23364C76.6672 7.23364 77.2827 7.85494 77.2827 8.60938C77.2387 9.36382 76.6672 9.98512 75.9638 9.98512ZM75.9638 7.76619C75.5682 7.76619 75.2165 8.12122 75.2165 8.565C75.2165 9.00879 75.5682 9.36382 75.9638 9.36382C76.3595 9.36382 76.7112 9.00879 76.7112 8.565C76.7112 8.1656 76.3595 7.76619 75.9638 7.76619Z" fill="black"/>
</g>
<defs>
<clipPath id="clip0_96_748">
<rect width="107" height="75" fill="white"/>
</clipPath>
</defs>
</svg>
